# MagicaVoxel @ Ephtracy

# material
mtllib Beach3.mtl
usemtl palette

# normals
vn -1 0 0
vn 1 0 0
vn 0 0 1
vn 0 0 -1
vn 0 -1 0
vn 0 1 0

# texcoords
vt 0.00585938 0.5
vt 0.107422 0.5
vt 0.369141 0.5
vt 0.537109 0.5
vt 0.654297 0.5
vt 0.978516 0.5
vt 0.994141 0.5

# verts
v 15 5 -19
v 15 5 -22
v 15 6 -19
v 15 6 -21
v 15 8 -21
v 15 8 -22
v 15 11 -20
v 15 11 -23
v 15 12 -20
v 15 12 -23
v 16 0 -16
v 16 0 -21
v 16 0 -22
v 16 1 -16
v 16 1 -17
v 16 1 -20
v 16 1 -21
v 16 2 -17
v 16 2 -18
v 16 2 -19
v 16 2 -20
v 16 2 -21
v 16 2 -22
v 16 3 -13
v 16 3 -17
v 16 3 -18
v 16 3 -19
v 16 4 -13
v 16 4 -17
v 16 5 -21
v 16 5 -22
v 16 8 -21
v 16 8 -22
v 16 9 -20
v 16 9 -21
v 16 9 -22
v 16 9 -23
v 16 11 -19
v 16 11 -20
v 16 11 -21
v 16 11 -23
v 16 11 -24
v 16 12 -19
v 16 12 -20
v 16 12 -23
v 16 12 -24
v 17 2 -13
v 17 2 -17
v 17 2 -18
v 17 2 -19
v 17 2 -20
v 17 2 -21
v 17 3 -13
v 17 3 -17
v 17 3 -18
v 17 3 -19
v 17 3 -20
v 17 3 -21
v 17 4 -13
v 17 4 -17
v 17 4 -20
v 17 5 -13
v 17 5 -17
v 17 8 -22
v 17 8 -23
v 17 9 -22
v 17 9 -23
v 18 0 -16
v 18 0 -21
v 18 0 -22
v 18 1 -16
v 18 1 -17
v 18 1 -20
v 18 1 -21
v 18 2 -17
v 18 2 -20
v 18 2 -21
v 18 2 -22
v 18 3 -13
v 18 3 -17
v 18 4 -13
v 18 4 -17
v 19 5 -19
v 19 5 -21
v 19 6 -19
v 19 6 -21
v 16 5 -19
v 16 5 -21
v 16 6 -19
v 16 6 -21
v 17 0 -16
v 17 0 -21
v 17 0 -22
v 17 1 -16
v 17 1 -17
v 17 1 -20
v 17 1 -21
v 17 2 -17
v 17 2 -20
v 17 2 -21
v 17 2 -22
v 17 3 -13
v 17 3 -17
v 17 4 -13
v 17 4 -17
v 18 2 -13
v 18 2 -17
v 18 2 -18
v 18 2 -19
v 18 2 -20
v 18 2 -21
v 18 3 -13
v 18 3 -17
v 18 3 -18
v 18 3 -19
v 18 3 -20
v 18 3 -21
v 18 4 -13
v 18 4 -17
v 18 4 -20
v 18 5 -13
v 18 5 -17
v 18 8 -22
v 18 8 -23
v 18 9 -22
v 18 9 -23
v 19 0 -16
v 19 0 -21
v 19 0 -22
v 19 1 -16
v 19 1 -17
v 19 1 -20
v 19 1 -21
v 19 2 -17
v 19 2 -18
v 19 2 -19
v 19 2 -20
v 19 2 -21
v 19 2 -22
v 19 3 -13
v 19 3 -17
v 19 3 -18
v 19 3 -19
v 19 4 -13
v 19 4 -17
v 19 5 -21
v 19 5 -22
v 19 8 -21
v 19 8 -22
v 19 9 -20
v 19 9 -21
v 19 9 -22
v 19 9 -23
v 19 11 -19
v 19 11 -20
v 19 11 -21
v 19 11 -23
v 19 11 -24
v 19 12 -19
v 19 12 -20
v 19 12 -23
v 19 12 -24
v 20 5 -19
v 20 5 -22
v 20 6 -19
v 20 6 -21
v 20 8 -21
v 20 8 -22
v 20 11 -20
v 20 11 -23
v 20 12 -20
v 20 12 -23
v 16 3 -13
v 16 4 -13
v 17 2 -13
v 17 3 -13
v 17 4 -13
v 17 5 -13
v 18 2 -13
v 18 3 -13
v 18 4 -13
v 18 5 -13
v 19 3 -13
v 19 4 -13
v 16 0 -16
v 16 1 -16
v 17 0 -16
v 17 1 -16
v 18 0 -16
v 18 1 -16
v 19 0 -16
v 19 1 -16
v 16 1 -17
v 16 2 -17
v 17 1 -17
v 17 2 -17
v 17 3 -17
v 17 4 -17
v 18 1 -17
v 18 2 -17
v 18 3 -17
v 18 4 -17
v 19 1 -17
v 19 2 -17
v 16 2 -18
v 16 3 -18
v 17 2 -18
v 17 3 -18
v 18 2 -18
v 18 3 -18
v 19 2 -18
v 19 3 -18
v 15 5 -19
v 15 6 -19
v 16 5 -19
v 16 6 -19
v 16 11 -19
v 16 12 -19
v 19 5 -19
v 19 6 -19
v 19 11 -19
v 19 12 -19
v 20 5 -19
v 20 6 -19
v 15 11 -20
v 15 12 -20
v 16 9 -20
v 16 11 -20
v 16 12 -20
v 19 9 -20
v 19 11 -20
v 19 12 -20
v 20 11 -20
v 20 12 -20
v 15 6 -21
v 15 8 -21
v 16 1 -21
v 16 2 -21
v 16 5 -21
v 16 6 -21
v 16 7 -21
v 16 8 -21
v 16 9 -21
v 17 1 -21
v 17 2 -21
v 17 3 -21
v 17 7 -21
v 17 8 -21
v 17 9 -21
v 18 1 -21
v 18 2 -21
v 18 3 -21
v 18 7 -21
v 18 8 -21
v 18 9 -21
v 19 1 -21
v 19 2 -21
v 19 5 -21
v 19 6 -21
v 19 7 -21
v 19 8 -21
v 19 9 -21
v 20 6 -21
v 20 8 -21
v 16 3 -17
v 16 4 -17
v 17 3 -17
v 17 4 -17
v 17 5 -17
v 18 3 -17
v 18 4 -17
v 18 5 -17
v 19 3 -17
v 19 4 -17
v 16 2 -19
v 16 3 -19
v 17 2 -19
v 17 3 -19
v 18 2 -19
v 18 3 -19
v 19 2 -19
v 19 3 -19
v 16 1 -20
v 16 2 -20
v 17 1 -20
v 17 2 -20
v 17 3 -20
v 17 4 -20
v 18 1 -20
v 18 2 -20
v 18 3 -20
v 18 4 -20
v 19 1 -20
v 19 2 -20
v 15 5 -22
v 15 8 -22
v 16 0 -22
v 16 2 -22
v 16 5 -22
v 16 6 -22
v 16 7 -22
v 16 8 -22
v 16 9 -22
v 17 0 -22
v 17 2 -22
v 17 7 -22
v 17 8 -22
v 17 9 -22
v 18 0 -22
v 18 2 -22
v 18 7 -22
v 18 8 -22
v 18 9 -22
v 19 0 -22
v 19 2 -22
v 19 5 -22
v 19 6 -22
v 19 7 -22
v 19 8 -22
v 19 9 -22
v 20 5 -22
v 20 8 -22
v 15 11 -23
v 15 12 -23
v 16 9 -23
v 16 11 -23
v 16 12 -23
v 17 8 -23
v 17 9 -23
v 18 8 -23
v 18 9 -23
v 19 9 -23
v 19 11 -23
v 19 12 -23
v 20 11 -23
v 20 12 -23
v 16 11 -24
v 16 12 -24
v 19 11 -24
v 19 12 -24
v 16 0 -16
v 17 0 -16
v 18 0 -16
v 19 0 -16
v 16 0 -21
v 17 0 -21
v 18 0 -21
v 19 0 -21
v 16 0 -22
v 17 0 -22
v 18 0 -22
v 19 0 -22
v 17 2 -13
v 18 2 -13
v 17 2 -17
v 18 2 -17
v 17 2 -20
v 18 2 -20
v 17 2 -21
v 18 2 -21
v 17 2 -22
v 18 2 -22
v 16 3 -13
v 17 3 -13
v 18 3 -13
v 19 3 -13
v 16 3 -17
v 17 3 -17
v 18 3 -17
v 19 3 -17
v 17 4 -13
v 18 4 -13
v 17 4 -17
v 18 4 -17
v 15 5 -19
v 16 5 -19
v 19 5 -19
v 20 5 -19
v 16 5 -21
v 19 5 -21
v 15 5 -22
v 16 5 -22
v 19 5 -22
v 20 5 -22
v 17 8 -22
v 18 8 -22
v 17 8 -23
v 18 8 -23
v 16 9 -20
v 19 9 -20
v 16 9 -21
v 17 9 -21
v 18 9 -21
v 19 9 -21
v 16 9 -22
v 17 9 -22
v 18 9 -22
v 19 9 -22
v 16 9 -23
v 17 9 -23
v 18 9 -23
v 19 9 -23
v 16 11 -19
v 19 11 -19
v 15 11 -20
v 16 11 -20
v 19 11 -20
v 20 11 -20
v 16 11 -21
v 19 11 -21
v 15 11 -23
v 16 11 -23
v 19 11 -23
v 20 11 -23
v 16 11 -24
v 19 11 -24
v 16 1 -16
v 17 1 -16
v 18 1 -16
v 19 1 -16
v 16 1 -17
v 17 1 -17
v 18 1 -17
v 19 1 -17
v 16 1 -20
v 17 1 -20
v 18 1 -20
v 19 1 -20
v 16 1 -21
v 17 1 -21
v 18 1 -21
v 19 1 -21
v 16 2 -17
v 17 2 -17
v 18 2 -17
v 19 2 -17
v 16 2 -18
v 17 2 -18
v 18 2 -18
v 19 2 -18
v 16 2 -19
v 17 2 -19
v 18 2 -19
v 19 2 -19
v 16 2 -20
v 17 2 -20
v 18 2 -20
v 19 2 -20
v 17 3 -13
v 18 3 -13
v 17 3 -17
v 18 3 -17
v 16 3 -18
v 17 3 -18
v 18 3 -18
v 19 3 -18
v 16 3 -19
v 17 3 -19
v 18 3 -19
v 19 3 -19
v 17 3 -20
v 18 3 -20
v 17 3 -21
v 18 3 -21
v 16 4 -13
v 17 4 -13
v 18 4 -13
v 19 4 -13
v 16 4 -17
v 17 4 -17
v 18 4 -17
v 19 4 -17
v 17 4 -20
v 18 4 -20
v 17 5 -13
v 18 5 -13
v 17 5 -17
v 18 5 -17
v 15 6 -19
v 16 6 -19
v 19 6 -19
v 20 6 -19
v 15 6 -21
v 16 6 -21
v 19 6 -21
v 20 6 -21
v 15 8 -21
v 16 8 -21
v 19 8 -21
v 20 8 -21
v 15 8 -22
v 16 8 -22
v 19 8 -22
v 20 8 -22
v 16 12 -19
v 19 12 -19
v 15 12 -20
v 16 12 -20
v 19 12 -20
v 20 12 -20
v 15 12 -23
v 16 12 -23
v 19 12 -23
v 20 12 -23
v 16 12 -24
v 19 12 -24

# faces
f 3/3/1 2/3/1 1/3/1
f 4/3/1 2/3/1 3/3/1
f 5/3/1 2/3/1 4/3/1
f 6/3/1 2/3/1 5/3/1
f 9/2/1 8/2/1 7/2/1
f 10/2/1 8/2/1 9/2/1
f 14/6/1 12/6/1 11/6/1
f 15/6/1 12/6/1 14/6/1
f 16/6/1 12/6/1 15/6/1
f 17/3/1 13/3/1 12/3/1
f 17/6/1 12/6/1 16/6/1
f 18/6/1 16/6/1 15/6/1
f 19/6/1 16/6/1 18/6/1
f 20/6/1 16/6/1 19/6/1
f 21/6/1 16/6/1 20/6/1
f 22/3/1 13/3/1 17/3/1
f 23/3/1 13/3/1 22/3/1
f 26/6/1 20/6/1 19/6/1
f 27/6/1 20/6/1 26/6/1
f 28/7/1 25/7/1 24/7/1
f 29/7/1 25/7/1 28/7/1
f 30/5/1 23/5/1 22/5/1
f 31/5/1 23/5/1 30/5/1
f 35/2/1 33/2/1 32/2/1
f 36/2/1 33/2/1 35/2/1
f 39/3/1 35/3/1 34/3/1
f 40/7/1 36/7/1 35/7/1
f 40/7/1 37/7/1 36/7/1
f 40/3/1 35/3/1 39/3/1
f 41/7/1 37/7/1 40/7/1
f 43/2/1 39/2/1 38/2/1
f 44/2/1 39/2/1 43/2/1
f 45/2/1 42/2/1 41/2/1
f 46/2/1 42/2/1 45/2/1
f 53/7/1 48/7/1 47/7/1
f 53/7/1 49/7/1 48/7/1
f 54/7/1 49/7/1 53/7/1
f 55/7/1 49/7/1 54/7/1
f 56/7/1 52/7/1 51/7/1
f 56/7/1 51/7/1 50/7/1
f 57/7/1 52/7/1 56/7/1
f 58/7/1 52/7/1 57/7/1
f 60/7/1 55/7/1 54/7/1
f 60/7/1 57/7/1 56/7/1
f 60/7/1 56/7/1 55/7/1
f 61/7/1 57/7/1 60/7/1
f 62/7/1 60/7/1 59/7/1
f 63/7/1 60/7/1 62/7/1
f 66/7/1 65/7/1 64/7/1
f 67/7/1 65/7/1 66/7/1
f 71/6/1 69/6/1 68/6/1
f 72/6/1 69/6/1 71/6/1
f 73/6/1 69/6/1 72/6/1
f 74/3/1 70/3/1 69/3/1
f 74/6/1 69/6/1 73/6/1
f 75/6/1 73/6/1 72/6/1
f 76/6/1 73/6/1 75/6/1
f 77/3/1 70/3/1 74/3/1
f 78/3/1 70/3/1 77/3/1
f 81/7/1 80/7/1 79/7/1
f 82/7/1 80/7/1 81/7/1
f 85/3/1 84/3/1 83/3/1
f 86/3/1 84/3/1 85/3/1
f 87/3/2 88/3/2 89/3/2
f 89/3/2 88/3/2 90/3/2
f 91/6/2 92/6/2 94/6/2
f 94/6/2 92/6/2 95/6/2
f 95/6/2 92/6/2 96/6/2
f 92/3/2 93/3/2 97/3/2
f 96/6/2 92/6/2 97/6/2
f 95/6/2 96/6/2 98/6/2
f 98/6/2 96/6/2 99/6/2
f 97/3/2 93/3/2 100/3/2
f 100/3/2 93/3/2 101/3/2
f 102/7/2 103/7/2 104/7/2
f 104/7/2 103/7/2 105/7/2
f 106/7/2 107/7/2 112/7/2
f 107/7/2 108/7/2 112/7/2
f 112/7/2 108/7/2 113/7/2
f 113/7/2 108/7/2 114/7/2
f 110/7/2 111/7/2 115/7/2
f 109/7/2 110/7/2 115/7/2
f 115/7/2 111/7/2 116/7/2
f 116/7/2 111/7/2 117/7/2
f 113/7/2 114/7/2 119/7/2
f 115/7/2 116/7/2 119/7/2
f 114/7/2 115/7/2 119/7/2
f 119/7/2 116/7/2 120/7/2
f 118/7/2 119/7/2 121/7/2
f 121/7/2 119/7/2 122/7/2
f 123/7/2 124/7/2 125/7/2
f 125/7/2 124/7/2 126/7/2
f 127/6/2 128/6/2 130/6/2
f 130/6/2 128/6/2 131/6/2
f 131/6/2 128/6/2 132/6/2
f 128/3/2 129/3/2 133/3/2
f 132/6/2 128/6/2 133/6/2
f 131/6/2 132/6/2 134/6/2
f 134/6/2 132/6/2 135/6/2
f 135/6/2 132/6/2 136/6/2
f 136/6/2 132/6/2 137/6/2
f 133/3/2 129/3/2 138/3/2
f 138/3/2 129/3/2 139/3/2
f 135/6/2 136/6/2 142/6/2
f 142/6/2 136/6/2 143/6/2
f 140/7/2 141/7/2 144/7/2
f 144/7/2 141/7/2 145/7/2
f 138/5/2 139/5/2 146/5/2
f 146/5/2 139/5/2 147/5/2
f 148/2/2 149/2/2 151/2/2
f 151/2/2 149/2/2 152/2/2
f 150/3/2 151/3/2 155/3/2
f 151/7/2 152/7/2 156/7/2
f 152/7/2 153/7/2 156/7/2
f 155/3/2 151/3/2 156/3/2
f 156/7/2 153/7/2 157/7/2
f 154/2/2 155/2/2 159/2/2
f 159/2/2 155/2/2 160/2/2
f 157/2/2 158/2/2 161/2/2
f 161/2/2 158/2/2 162/2/2
f 163/3/2 164/3/2 165/3/2
f 165/3/2 164/3/2 166/3/2
f 166/3/2 164/3/2 167/3/2
f 167/3/2 164/3/2 168/3/2
f 169/2/2 170/2/2 171/2/2
f 171/2/2 170/2/2 172/2/2
f 176/7/3 174/7/3 173/7/3
f 177/7/3 174/7/3 176/7/3
f 179/7/3 176/7/3 175/7/3
f 180/7/3 176/7/3 179/7/3
f 181/7/3 178/7/3 177/7/3
f 182/7/3 178/7/3 181/7/3
f 183/7/3 181/7/3 180/7/3
f 184/7/3 181/7/3 183/7/3
f 187/6/3 186/6/3 185/6/3
f 188/6/3 186/6/3 187/6/3
f 191/6/3 190/6/3 189/6/3
f 192/6/3 190/6/3 191/6/3
f 195/6/3 194/6/3 193/6/3
f 196/6/3 194/6/3 195/6/3
f 201/7/3 198/7/3 197/7/3
f 202/7/3 198/7/3 201/7/3
f 203/6/3 200/6/3 199/6/3
f 204/6/3 200/6/3 203/6/3
f 207/6/3 206/6/3 205/6/3
f 208/6/3 206/6/3 207/6/3
f 211/6/3 210/6/3 209/6/3
f 212/6/3 210/6/3 211/6/3
f 215/3/3 214/3/3 213/3/3
f 216/3/3 214/3/3 215/3/3
f 221/2/3 218/2/3 217/2/3
f 222/2/3 218/2/3 221/2/3
f 223/3/3 220/3/3 219/3/3
f 224/3/3 220/3/3 223/3/3
f 228/2/3 226/2/3 225/2/3
f 229/2/3 226/2/3 228/2/3
f 230/3/3 228/3/3 227/3/3
f 231/3/3 228/3/3 230/3/3
f 233/2/3 232/2/3 231/2/3
f 234/2/3 232/2/3 233/2/3
f 240/3/3 236/3/3 235/3/3
f 241/3/3 236/3/3 240/3/3
f 242/3/3 236/3/3 241/3/3
f 244/3/3 238/3/3 237/3/3
f 245/5/3 239/5/3 238/5/3
f 245/3/3 238/3/3 244/3/3
f 246/5/3 239/5/3 245/5/3
f 247/4/3 241/4/3 240/4/3
f 247/3/3 242/3/3 241/3/3
f 248/2/3 243/2/3 242/2/3
f 248/3/3 242/3/3 247/3/3
f 249/2/3 243/2/3 248/2/3
f 252/5/3 239/5/3 246/5/3
f 253/4/3 247/4/3 240/4/3
f 253/2/3 248/2/3 247/2/3
f 254/3/3 249/3/3 248/3/3
f 254/2/3 248/2/3 253/2/3
f 255/3/3 249/3/3 254/3/3
f 256/3/3 251/3/3 250/3/3
f 257/5/3 252/5/3 251/5/3
f 257/3/3 251/3/3 256/3/3
f 258/3/3 240/3/3 239/3/3
f 258/5/3 252/5/3 257/5/3
f 258/5/3 239/5/3 252/5/3
f 259/4/3 253/4/3 240/4/3
f 259/3/3 240/3/3 258/3/3
f 260/3/3 254/3/3 253/3/3
f 260/4/3 253/4/3 259/4/3
f 261/2/3 255/2/3 254/2/3
f 261/3/3 254/3/3 260/3/3
f 262/2/3 255/2/3 261/2/3
f 263/3/3 261/3/3 260/3/3
f 263/3/3 260/3/3 259/3/3
f 264/3/3 261/3/3 263/3/3
f 265/7/4 266/7/4 267/7/4
f 267/7/4 266/7/4 268/7/4
f 268/7/4 269/7/4 271/7/4
f 271/7/4 269/7/4 272/7/4
f 270/7/4 271/7/4 273/7/4
f 273/7/4 271/7/4 274/7/4
f 275/6/4 276/6/4 277/6/4
f 277/6/4 276/6/4 278/6/4
f 279/6/4 280/6/4 281/6/4
f 281/6/4 280/6/4 282/6/4
f 283/6/4 284/6/4 285/6/4
f 285/6/4 284/6/4 286/6/4
f 287/7/4 288/7/4 291/7/4
f 291/7/4 288/7/4 292/7/4
f 289/6/4 290/6/4 293/6/4
f 293/6/4 290/6/4 294/6/4
f 295/3/4 296/3/4 299/3/4
f 299/3/4 296/3/4 300/3/4
f 300/3/4 296/3/4 301/3/4
f 301/3/4 296/3/4 302/3/4
f 297/3/4 298/3/4 304/3/4
f 298/5/4 299/5/4 305/5/4
f 304/3/4 298/3/4 305/3/4
f 300/4/4 301/4/4 306/4/4
f 301/3/4 302/3/4 306/3/4
f 302/2/4 303/2/4 307/2/4
f 306/3/4 302/3/4 307/3/4
f 307/2/4 303/2/4 308/2/4
f 305/5/4 299/5/4 310/5/4
f 300/4/4 306/4/4 311/4/4
f 306/2/4 307/2/4 311/2/4
f 311/2/4 307/2/4 312/2/4
f 309/3/4 310/3/4 314/3/4
f 310/5/4 299/5/4 315/5/4
f 314/3/4 310/3/4 315/3/4
f 299/3/4 300/3/4 316/3/4
f 315/5/4 299/5/4 316/5/4
f 300/4/4 311/4/4 317/4/4
f 316/3/4 300/3/4 317/3/4
f 311/3/4 312/3/4 318/3/4
f 317/4/4 311/4/4 318/4/4
f 312/2/4 313/2/4 319/2/4
f 318/3/4 312/3/4 319/3/4
f 319/2/4 313/2/4 320/2/4
f 317/3/4 318/3/4 321/3/4
f 318/3/4 319/3/4 321/3/4
f 316/3/4 317/3/4 321/3/4
f 321/3/4 319/3/4 322/3/4
f 323/2/4 324/2/4 326/2/4
f 326/2/4 324/2/4 327/2/4
f 325/7/4 326/7/4 329/7/4
f 328/7/4 329/7/4 330/7/4
f 329/7/4 326/7/4 331/7/4
f 330/7/4 329/7/4 331/7/4
f 331/7/4 326/7/4 332/7/4
f 332/7/4 326/7/4 333/7/4
f 333/2/4 334/2/4 335/2/4
f 335/2/4 334/2/4 336/2/4
f 337/2/4 338/2/4 339/2/4
f 339/2/4 338/2/4 340/2/4
f 345/6/5 342/6/5 341/6/5
f 346/6/5 342/6/5 345/6/5
f 347/6/5 344/6/5 343/6/5
f 348/6/5 344/6/5 347/6/5
f 349/3/5 346/3/5 345/3/5
f 350/3/5 346/3/5 349/3/5
f 351/3/5 348/3/5 347/3/5
f 352/3/5 348/3/5 351/3/5
f 355/7/5 354/7/5 353/7/5
f 356/7/5 354/7/5 355/7/5
f 357/7/5 356/7/5 355/7/5
f 358/7/5 356/7/5 357/7/5
f 359/7/5 358/7/5 357/7/5
f 360/7/5 358/7/5 359/7/5
f 361/5/5 360/5/5 359/5/5
f 362/5/5 360/5/5 361/5/5
f 367/7/5 364/7/5 363/7/5
f 368/7/5 364/7/5 367/7/5
f 369/7/5 366/7/5 365/7/5
f 370/7/5 366/7/5 369/7/5
f 373/7/5 372/7/5 371/7/5
f 374/7/5 372/7/5 373/7/5
f 379/3/5 376/3/5 375/3/5
f 380/3/5 378/3/5 377/3/5
f 381/3/5 379/3/5 375/3/5
f 382/3/5 379/3/5 381/3/5
f 383/3/5 378/3/5 380/3/5
f 384/3/5 378/3/5 383/3/5
f 387/7/5 386/7/5 385/7/5
f 388/7/5 386/7/5 387/7/5
f 391/3/5 390/3/5 389/3/5
f 392/3/5 390/3/5 391/3/5
f 393/3/5 390/3/5 392/3/5
f 394/3/5 390/3/5 393/3/5
f 399/7/5 396/7/5 395/7/5
f 400/7/5 396/7/5 399/7/5
f 401/7/5 398/7/5 397/7/5
f 402/7/5 398/7/5 401/7/5
f 406/2/5 404/2/5 403/2/5
f 407/2/5 404/2/5 406/2/5
f 409/2/5 406/2/5 405/2/5
f 410/2/5 408/2/5 407/2/5
f 411/2/5 409/2/5 405/2/5
f 412/2/5 409/2/5 411/2/5
f 413/2/5 408/2/5 410/2/5
f 414/2/5 408/2/5 413/2/5
f 415/2/5 413/2/5 412/2/5
f 416/2/5 413/2/5 415/2/5
f 417/6/6 418/6/6 421/6/6
f 421/6/6 418/6/6 422/6/6
f 419/6/6 420/6/6 423/6/6
f 423/6/6 420/6/6 424/6/6
f 425/6/6 426/6/6 429/6/6
f 429/6/6 426/6/6 430/6/6
f 427/6/6 428/6/6 431/6/6
f 431/6/6 428/6/6 432/6/6
f 433/6/6 434/6/6 437/6/6
f 437/6/6 434/6/6 438/6/6
f 435/6/6 436/6/6 439/6/6
f 439/6/6 436/6/6 440/6/6
f 441/6/6 442/6/6 445/6/6
f 445/6/6 442/6/6 446/6/6
f 443/6/6 444/6/6 447/6/6
f 447/6/6 444/6/6 448/6/6
f 449/7/6 450/7/6 451/7/6
f 451/7/6 450/7/6 452/7/6
f 453/6/6 454/6/6 457/6/6
f 457/6/6 454/6/6 458/6/6
f 455/6/6 456/6/6 459/6/6
f 459/6/6 456/6/6 460/6/6
f 461/7/6 462/7/6 463/7/6
f 463/7/6 462/7/6 464/7/6
f 465/7/6 466/7/6 469/7/6
f 469/7/6 466/7/6 470/7/6
f 467/7/6 468/7/6 471/7/6
f 471/7/6 468/7/6 472/7/6
f 470/7/6 471/7/6 473/7/6
f 473/7/6 471/7/6 474/7/6
f 475/7/6 476/7/6 477/7/6
f 477/7/6 476/7/6 478/7/6
f 479/3/6 480/3/6 483/3/6
f 483/3/6 480/3/6 484/3/6
f 481/3/6 482/3/6 485/3/6
f 485/3/6 482/3/6 486/3/6
f 487/3/6 488/3/6 491/3/6
f 491/3/6 488/3/6 492/3/6
f 489/3/6 490/3/6 493/3/6
f 493/3/6 490/3/6 494/3/6
f 495/2/6 496/2/6 498/2/6
f 498/2/6 496/2/6 499/2/6
f 497/2/6 498/2/6 501/2/6
f 498/7/6 499/7/6 502/7/6
f 501/2/6 498/2/6 502/2/6
f 499/2/6 500/2/6 503/2/6
f 502/7/6 499/7/6 503/7/6
f 503/2/6 500/2/6 504/2/6
f 502/2/6 503/2/6 505/2/6
f 505/2/6 503/2/6 506/2/6
