# MagicaVoxel @ Ephtracy

# material
mtllib Beach2.mtl
usemtl palette

# normals
vn -1 0 0
vn 1 0 0
vn 0 0 1
vn 0 0 -1
vn 0 -1 0
vn 0 1 0

# texcoords
vt 0.00585938 0.5
vt 0.107422 0.5
vt 0.369141 0.5
vt 0.537109 0.5
vt 0.654297 0.5
vt 0.771484 0.5
vt 0.994141 0.5

# verts
v 15 11 -20
v 15 11 -23
v 15 12 -20
v 15 12 -23
v 16 0 -21
v 16 0 -22
v 16 2 -21
v 16 2 -22
v 16 5 -21
v 16 5 -22
v 16 6 -21
v 16 6 -22
v 16 7 -19
v 16 7 -21
v 16 7 -22
v 16 8 -18
v 16 8 -19
v 16 8 -21
v 16 8 -22
v 16 9 -20
v 16 9 -21
v 16 9 -22
v 16 9 -23
v 16 10 -18
v 16 10 -19
v 16 11 -19
v 16 11 -20
v 16 11 -21
v 16 11 -23
v 16 11 -24
v 16 12 -19
v 16 12 -20
v 16 12 -23
v 16 12 -24
v 17 8 -22
v 17 8 -23
v 17 9 -15
v 17 9 -18
v 17 9 -19
v 17 9 -20
v 17 9 -22
v 17 9 -23
v 17 10 -15
v 17 10 -18
v 17 10 -19
v 17 10 -20
v 18 0 -21
v 18 0 -22
v 18 2 -21
v 18 2 -22
v 18 7 -19
v 18 7 -21
v 18 8 -18
v 18 8 -19
v 18 8 -21
v 18 9 -18
v 18 9 -19
v 17 0 -21
v 17 0 -22
v 17 2 -21
v 17 2 -22
v 17 7 -19
v 17 7 -21
v 17 8 -18
v 17 8 -19
v 17 8 -21
v 17 9 -18
v 17 9 -19
v 18 8 -22
v 18 8 -23
v 18 9 -15
v 18 9 -18
v 18 9 -19
v 18 9 -20
v 18 9 -22
v 18 9 -23
v 18 10 -15
v 18 10 -18
v 18 10 -19
v 18 10 -20
v 19 0 -21
v 19 0 -22
v 19 2 -21
v 19 2 -22
v 19 5 -21
v 19 5 -22
v 19 6 -21
v 19 6 -22
v 19 7 -19
v 19 7 -21
v 19 7 -22
v 19 8 -18
v 19 8 -19
v 19 8 -21
v 19 8 -22
v 19 9 -20
v 19 9 -21
v 19 9 -22
v 19 9 -23
v 19 10 -18
v 19 10 -19
v 19 11 -19
v 19 11 -20
v 19 11 -21
v 19 11 -23
v 19 11 -24
v 19 12 -19
v 19 12 -20
v 19 12 -23
v 19 12 -24
v 20 11 -20
v 20 11 -23
v 20 12 -20
v 20 12 -23
v 17 9 -15
v 17 10 -15
v 18 9 -15
v 18 10 -15
v 16 8 -18
v 16 10 -18
v 17 8 -18
v 17 9 -18
v 17 10 -18
v 18 8 -18
v 18 9 -18
v 18 10 -18
v 19 8 -18
v 19 10 -18
v 16 7 -19
v 16 8 -19
v 16 11 -19
v 16 12 -19
v 17 7 -19
v 17 8 -19
v 18 7 -19
v 18 8 -19
v 19 7 -19
v 19 8 -19
v 19 11 -19
v 19 12 -19
v 15 11 -20
v 15 12 -20
v 16 9 -20
v 16 11 -20
v 16 12 -20
v 17 9 -20
v 17 10 -20
v 18 9 -20
v 18 10 -20
v 19 9 -20
v 19 11 -20
v 19 12 -20
v 20 11 -20
v 20 12 -20
v 16 0 -21
v 16 2 -21
v 16 5 -21
v 16 6 -21
v 16 7 -21
v 16 8 -21
v 16 9 -21
v 17 0 -21
v 17 2 -21
v 17 7 -21
v 17 8 -21
v 17 9 -21
v 18 0 -21
v 18 2 -21
v 18 7 -21
v 18 8 -21
v 18 9 -21
v 19 0 -21
v 19 2 -21
v 19 5 -21
v 19 6 -21
v 19 7 -21
v 19 8 -21
v 19 9 -21
v 16 8 -19
v 16 10 -19
v 17 8 -19
v 17 9 -19
v 17 10 -19
v 18 8 -19
v 18 9 -19
v 18 10 -19
v 19 8 -19
v 19 10 -19
v 16 0 -22
v 16 2 -22
v 16 5 -22
v 16 6 -22
v 16 7 -22
v 16 8 -22
v 16 9 -22
v 17 0 -22
v 17 2 -22
v 17 7 -22
v 17 8 -22
v 17 9 -22
v 18 0 -22
v 18 2 -22
v 18 7 -22
v 18 8 -22
v 18 9 -22
v 19 0 -22
v 19 2 -22
v 19 5 -22
v 19 6 -22
v 19 7 -22
v 19 8 -22
v 19 9 -22
v 15 11 -23
v 15 12 -23
v 16 9 -23
v 16 11 -23
v 16 12 -23
v 17 8 -23
v 17 9 -23
v 18 8 -23
v 18 9 -23
v 19 9 -23
v 19 11 -23
v 19 12 -23
v 20 11 -23
v 20 12 -23
v 16 11 -24
v 16 12 -24
v 19 11 -24
v 19 12 -24
v 16 0 -21
v 17 0 -21
v 18 0 -21
v 19 0 -21
v 16 0 -22
v 17 0 -22
v 18 0 -22
v 19 0 -22
v 17 2 -21
v 18 2 -21
v 17 2 -22
v 18 2 -22
v 16 7 -19
v 17 7 -19
v 18 7 -19
v 19 7 -19
v 16 7 -21
v 17 7 -21
v 18 7 -21
v 19 7 -21
v 16 8 -18
v 17 8 -18
v 18 8 -18
v 19 8 -18
v 16 8 -19
v 17 8 -19
v 18 8 -19
v 19 8 -19
v 17 8 -22
v 18 8 -22
v 17 8 -23
v 18 8 -23
v 17 9 -15
v 18 9 -15
v 17 9 -18
v 18 9 -18
v 17 9 -19
v 18 9 -19
v 16 9 -20
v 17 9 -20
v 18 9 -20
v 19 9 -20
v 16 9 -21
v 17 9 -21
v 18 9 -21
v 19 9 -21
v 16 9 -22
v 17 9 -22
v 18 9 -22
v 19 9 -22
v 16 9 -23
v 17 9 -23
v 18 9 -23
v 19 9 -23
v 16 11 -19
v 19 11 -19
v 15 11 -20
v 16 11 -20
v 19 11 -20
v 20 11 -20
v 16 11 -21
v 19 11 -21
v 15 11 -23
v 16 11 -23
v 19 11 -23
v 20 11 -23
v 16 11 -24
v 19 11 -24
v 16 8 -19
v 17 8 -19
v 18 8 -19
v 19 8 -19
v 16 8 -21
v 17 8 -21
v 18 8 -21
v 19 8 -21
v 17 10 -15
v 18 10 -15
v 16 10 -18
v 17 10 -18
v 18 10 -18
v 19 10 -18
v 16 10 -19
v 17 10 -19
v 18 10 -19
v 19 10 -19
v 17 10 -20
v 18 10 -20
v 16 12 -19
v 19 12 -19
v 15 12 -20
v 16 12 -20
v 19 12 -20
v 20 12 -20
v 15 12 -23
v 16 12 -23
v 19 12 -23
v 20 12 -23
v 16 12 -24
v 19 12 -24

# faces
f 3/2/1 2/2/1 1/2/1
f 4/2/1 2/2/1 3/2/1
f 7/3/1 6/3/1 5/3/1
f 8/3/1 6/3/1 7/3/1
f 9/5/1 8/5/1 7/5/1
f 10/5/1 8/5/1 9/5/1
f 11/3/1 10/3/1 9/3/1
f 12/3/1 10/3/1 11/3/1
f 14/4/1 12/4/1 11/4/1
f 15/4/1 12/4/1 14/4/1
f 17/3/1 14/3/1 13/3/1
f 17/3/1 15/3/1 14/3/1
f 18/3/1 15/3/1 17/3/1
f 19/3/1 15/3/1 18/3/1
f 21/2/1 19/2/1 18/2/1
f 22/2/1 19/2/1 21/2/1
f 24/3/1 17/3/1 16/3/1
f 25/3/1 17/3/1 24/3/1
f 27/3/1 21/3/1 20/3/1
f 28/7/1 22/7/1 21/7/1
f 28/7/1 23/7/1 22/7/1
f 28/3/1 21/3/1 27/3/1
f 29/7/1 23/7/1 28/7/1
f 31/2/1 27/2/1 26/2/1
f 32/2/1 27/2/1 31/2/1
f 33/2/1 30/2/1 29/2/1
f 34/2/1 30/2/1 33/2/1
f 41/7/1 36/7/1 35/7/1
f 42/7/1 36/7/1 41/7/1
f 43/6/1 38/6/1 37/6/1
f 44/6/1 38/6/1 43/6/1
f 45/6/1 40/6/1 39/6/1
f 46/6/1 40/6/1 45/6/1
f 49/3/1 48/3/1 47/3/1
f 50/3/1 48/3/1 49/3/1
f 54/3/1 52/3/1 51/3/1
f 55/3/1 52/3/1 54/3/1
f 56/3/1 54/3/1 53/3/1
f 57/3/1 54/3/1 56/3/1
f 58/3/2 59/3/2 60/3/2
f 60/3/2 59/3/2 61/3/2
f 62/3/2 63/3/2 65/3/2
f 65/3/2 63/3/2 66/3/2
f 64/3/2 65/3/2 67/3/2
f 67/3/2 65/3/2 68/3/2
f 69/7/2 70/7/2 75/7/2
f 75/7/2 70/7/2 76/7/2
f 71/6/2 72/6/2 77/6/2
f 77/6/2 72/6/2 78/6/2
f 73/6/2 74/6/2 79/6/2
f 79/6/2 74/6/2 80/6/2
f 81/3/2 82/3/2 83/3/2
f 83/3/2 82/3/2 84/3/2
f 83/5/2 84/5/2 85/5/2
f 85/5/2 84/5/2 86/5/2
f 85/3/2 86/3/2 87/3/2
f 87/3/2 86/3/2 88/3/2
f 87/4/2 88/4/2 90/4/2
f 90/4/2 88/4/2 91/4/2
f 89/3/2 90/3/2 93/3/2
f 90/3/2 91/3/2 93/3/2
f 93/3/2 91/3/2 94/3/2
f 94/3/2 91/3/2 95/3/2
f 94/2/2 95/2/2 97/2/2
f 97/2/2 95/2/2 98/2/2
f 92/3/2 93/3/2 100/3/2
f 100/3/2 93/3/2 101/3/2
f 96/3/2 97/3/2 103/3/2
f 97/7/2 98/7/2 104/7/2
f 98/7/2 99/7/2 104/7/2
f 103/3/2 97/3/2 104/3/2
f 104/7/2 99/7/2 105/7/2
f 102/2/2 103/2/2 107/2/2
f 107/2/2 103/2/2 108/2/2
f 105/2/2 106/2/2 109/2/2
f 109/2/2 106/2/2 110/2/2
f 111/2/2 112/2/2 113/2/2
f 113/2/2 112/2/2 114/2/2
f 117/6/3 116/6/3 115/6/3
f 118/6/3 116/6/3 117/6/3
f 121/3/3 120/3/3 119/3/3
f 122/3/3 120/3/3 121/3/3
f 123/3/3 120/3/3 122/3/3
f 127/3/3 125/3/3 124/3/3
f 127/3/3 126/3/3 125/3/3
f 128/3/3 126/3/3 127/3/3
f 133/3/3 130/3/3 129/3/3
f 134/3/3 130/3/3 133/3/3
f 137/3/3 136/3/3 135/3/3
f 138/3/3 136/3/3 137/3/3
f 139/2/3 132/2/3 131/2/3
f 140/2/3 132/2/3 139/2/3
f 144/2/3 142/2/3 141/2/3
f 145/2/3 142/2/3 144/2/3
f 146/3/3 144/3/3 143/3/3
f 147/3/3 144/3/3 146/3/3
f 149/3/3 144/3/3 147/3/3
f 150/3/3 149/3/3 148/3/3
f 151/3/3 144/3/3 149/3/3
f 151/3/3 149/3/3 150/3/3
f 153/2/3 152/2/3 151/2/3
f 154/2/3 152/2/3 153/2/3
f 162/3/3 156/3/3 155/3/3
f 163/5/3 157/5/3 156/5/3
f 163/3/3 156/3/3 162/3/3
f 164/4/3 159/4/3 158/4/3
f 165/2/3 161/2/3 160/2/3
f 166/2/3 161/2/3 165/2/3
f 168/5/3 157/5/3 163/5/3
f 169/4/3 164/4/3 158/4/3
f 169/2/3 165/2/3 164/2/3
f 170/3/3 166/3/3 165/3/3
f 170/2/3 165/2/3 169/2/3
f 171/3/3 166/3/3 170/3/3
f 172/3/3 168/3/3 167/3/3
f 173/5/3 157/5/3 168/5/3
f 173/3/3 168/3/3 172/3/3
f 174/3/3 158/3/3 157/3/3
f 174/5/3 157/5/3 173/5/3
f 175/4/3 169/4/3 158/4/3
f 175/3/3 158/3/3 174/3/3
f 176/4/3 169/4/3 175/4/3
f 177/2/3 171/2/3 170/2/3
f 178/2/3 171/2/3 177/2/3
f 179/3/4 180/3/4 181/3/4
f 181/3/4 180/3/4 182/3/4
f 182/3/4 180/3/4 183/3/4
f 184/3/4 185/3/4 187/3/4
f 185/3/4 186/3/4 187/3/4
f 187/3/4 186/3/4 188/3/4
f 189/3/4 190/3/4 196/3/4
f 190/5/4 191/5/4 197/5/4
f 196/3/4 190/3/4 197/3/4
f 192/4/4 193/4/4 198/4/4
f 193/3/4 194/3/4 198/3/4
f 194/2/4 195/2/4 199/2/4
f 198/3/4 194/3/4 199/3/4
f 199/2/4 195/2/4 200/2/4
f 197/5/4 191/5/4 202/5/4
f 192/4/4 198/4/4 203/4/4
f 198/2/4 199/2/4 203/2/4
f 203/2/4 199/2/4 204/2/4
f 201/3/4 202/3/4 206/3/4
f 202/5/4 191/5/4 207/5/4
f 206/3/4 202/3/4 207/3/4
f 191/3/4 192/3/4 208/3/4
f 207/5/4 191/5/4 208/5/4
f 192/4/4 203/4/4 209/4/4
f 208/3/4 192/3/4 209/3/4
f 203/3/4 204/3/4 210/3/4
f 209/4/4 203/4/4 210/4/4
f 204/2/4 205/2/4 211/2/4
f 210/3/4 204/3/4 211/3/4
f 211/2/4 205/2/4 212/2/4
f 213/2/4 214/2/4 216/2/4
f 216/2/4 214/2/4 217/2/4
f 215/7/4 216/7/4 219/7/4
f 218/7/4 219/7/4 220/7/4
f 219/7/4 216/7/4 221/7/4
f 220/7/4 219/7/4 221/7/4
f 221/7/4 216/7/4 222/7/4
f 222/7/4 216/7/4 223/7/4
f 223/2/4 224/2/4 225/2/4
f 225/2/4 224/2/4 226/2/4
f 227/2/4 228/2/4 229/2/4
f 229/2/4 228/2/4 230/2/4
f 235/3/5 232/3/5 231/3/5
f 236/3/5 232/3/5 235/3/5
f 237/3/5 234/3/5 233/3/5
f 238/3/5 234/3/5 237/3/5
f 241/5/5 240/5/5 239/5/5
f 242/5/5 240/5/5 241/5/5
f 247/3/5 244/3/5 243/3/5
f 248/3/5 244/3/5 247/3/5
f 249/3/5 246/3/5 245/3/5
f 250/3/5 246/3/5 249/3/5
f 255/3/5 252/3/5 251/3/5
f 256/3/5 252/3/5 255/3/5
f 257/3/5 254/3/5 253/3/5
f 258/3/5 254/3/5 257/3/5
f 261/7/5 260/7/5 259/7/5
f 262/7/5 260/7/5 261/7/5
f 265/6/5 264/6/5 263/6/5
f 266/6/5 264/6/5 265/6/5
f 267/6/5 266/6/5 265/6/5
f 268/6/5 266/6/5 267/6/5
f 270/6/5 268/6/5 267/6/5
f 271/6/5 268/6/5 270/6/5
f 273/3/5 271/3/5 270/3/5
f 273/3/5 272/3/5 271/3/5
f 273/3/5 270/3/5 269/3/5
f 274/3/5 272/3/5 273/3/5
f 275/3/5 272/3/5 274/3/5
f 276/3/5 272/3/5 275/3/5
f 281/7/5 278/7/5 277/7/5
f 282/7/5 278/7/5 281/7/5
f 283/7/5 280/7/5 279/7/5
f 284/7/5 280/7/5 283/7/5
f 288/2/5 286/2/5 285/2/5
f 289/2/5 286/2/5 288/2/5
f 291/2/5 288/2/5 287/2/5
f 292/2/5 290/2/5 289/2/5
f 293/2/5 291/2/5 287/2/5
f 294/2/5 291/2/5 293/2/5
f 295/2/5 290/2/5 292/2/5
f 296/2/5 290/2/5 295/2/5
f 297/2/5 295/2/5 294/2/5
f 298/2/5 295/2/5 297/2/5
f 299/3/6 300/3/6 303/3/6
f 303/3/6 300/3/6 304/3/6
f 301/3/6 302/3/6 305/3/6
f 305/3/6 302/3/6 306/3/6
f 307/6/6 308/6/6 310/6/6
f 310/6/6 308/6/6 311/6/6
f 309/3/6 310/3/6 313/3/6
f 310/6/6 311/6/6 314/6/6
f 313/3/6 310/3/6 314/3/6
f 311/3/6 312/3/6 315/3/6
f 314/6/6 311/6/6 315/6/6
f 315/3/6 312/3/6 316/3/6
f 314/6/6 315/6/6 317/6/6
f 317/6/6 315/6/6 318/6/6
f 319/2/6 320/2/6 322/2/6
f 322/2/6 320/2/6 323/2/6
f 321/2/6 322/2/6 325/2/6
f 322/7/6 323/7/6 326/7/6
f 325/2/6 322/2/6 326/2/6
f 323/2/6 324/2/6 327/2/6
f 326/7/6 323/7/6 327/7/6
f 327/2/6 324/2/6 328/2/6
f 326/2/6 327/2/6 329/2/6
f 329/2/6 327/2/6 330/2/6
