# MagicaVoxel @ Ephtracy

# material
mtllib Beach 1.mtl
usemtl palette

# normals
vn -1 0 0
vn 1 0 0
vn 0 0 1
vn 0 0 -1
vn 0 -1 0
vn 0 1 0

# texcoords
vt 0.00585938 0.5
vt 0.107422 0.5
vt 0.369141 0.5
vt 0.537109 0.5
vt 0.654297 0.5
vt 0.701172 0.5
vt 0.994141 0.5

# verts
v 13 9 -21
v 13 9 -22
v 13 10 -21
v 13 10 -22
v 14 7 -21
v 14 7 -22
v 14 9 -20
v 14 9 -21
v 14 9 -22
v 14 9 -23
v 14 10 -20
v 14 10 -21
v 14 10 -22
v 14 10 -23
v 14 11 -21
v 14 11 -22
v 15 11 -20
v 15 11 -21
v 15 11 -22
v 15 11 -23
v 15 12 -20
v 15 12 -23
v 16 0 -21
v 16 0 -22
v 16 2 -21
v 16 2 -22
v 16 5 -21
v 16 5 -22
v 16 6 -21
v 16 6 -22
v 16 7 -21
v 16 7 -22
v 16 8 -21
v 16 8 -22
v 16 9 -20
v 16 9 -21
v 16 9 -22
v 16 9 -23
v 16 10 -21
v 16 10 -22
v 16 11 -19
v 16 11 -20
v 16 11 -21
v 16 11 -23
v 16 11 -24
v 16 12 -19
v 16 12 -20
v 16 12 -23
v 16 12 -24
v 17 8 -22
v 17 8 -23
v 17 9 -22
v 17 9 -23
v 18 0 -21
v 18 0 -22
v 18 2 -21
v 18 2 -22
v 18 7 -18
v 18 7 -21
v 18 8 -18
v 18 8 -21
v 15 8 -21
v 15 8 -22
v 15 9 -20
v 15 9 -21
v 15 9 -22
v 15 9 -23
v 15 10 -20
v 15 10 -21
v 15 10 -22
v 15 10 -23
v 15 11 -21
v 15 11 -22
v 17 0 -21
v 17 0 -22
v 17 2 -21
v 17 2 -22
v 18 8 -22
v 18 8 -23
v 18 9 -22
v 18 9 -23
v 19 0 -21
v 19 0 -22
v 19 2 -21
v 19 2 -22
v 19 5 -21
v 19 5 -22
v 19 6 -21
v 19 6 -22
v 19 7 -18
v 19 7 -21
v 19 7 -22
v 19 8 -18
v 19 8 -21
v 19 8 -22
v 19 9 -20
v 19 9 -21
v 19 9 -22
v 19 9 -23
v 19 11 -19
v 19 11 -20
v 19 11 -21
v 19 11 -23
v 19 11 -24
v 19 12 -19
v 19 12 -20
v 19 12 -23
v 19 12 -24
v 20 11 -20
v 20 11 -23
v 20 12 -20
v 20 12 -23
v 18 7 -18
v 18 8 -18
v 19 7 -18
v 19 8 -18
v 16 11 -19
v 16 12 -19
v 19 11 -19
v 19 12 -19
v 14 9 -20
v 14 10 -20
v 15 9 -20
v 15 10 -20
v 15 11 -20
v 15 12 -20
v 16 9 -20
v 16 11 -20
v 16 12 -20
v 19 9 -20
v 19 11 -20
v 19 12 -20
v 20 11 -20
v 20 12 -20
v 13 9 -21
v 13 10 -21
v 14 7 -21
v 14 9 -21
v 14 10 -21
v 14 11 -21
v 15 8 -21
v 15 9 -21
v 15 10 -21
v 15 11 -21
v 16 0 -21
v 16 2 -21
v 16 5 -21
v 16 6 -21
v 16 7 -21
v 16 8 -21
v 16 9 -21
v 16 10 -21
v 17 0 -21
v 17 2 -21
v 17 7 -21
v 17 8 -21
v 17 9 -21
v 18 0 -21
v 18 2 -21
v 18 7 -21
v 18 8 -21
v 18 9 -21
v 19 0 -21
v 19 2 -21
v 19 5 -21
v 19 6 -21
v 19 7 -21
v 19 8 -21
v 19 9 -21
v 13 9 -22
v 13 10 -22
v 14 7 -22
v 14 9 -22
v 14 10 -22
v 14 11 -22
v 15 8 -22
v 15 9 -22
v 15 10 -22
v 15 11 -22
v 16 0 -22
v 16 2 -22
v 16 5 -22
v 16 6 -22
v 16 7 -22
v 16 8 -22
v 16 9 -22
v 16 10 -22
v 17 0 -22
v 17 2 -22
v 17 7 -22
v 17 8 -22
v 17 9 -22
v 18 0 -22
v 18 2 -22
v 18 7 -22
v 18 8 -22
v 18 9 -22
v 19 0 -22
v 19 2 -22
v 19 5 -22
v 19 6 -22
v 19 7 -22
v 19 8 -22
v 19 9 -22
v 14 9 -23
v 14 10 -23
v 15 9 -23
v 15 10 -23
v 15 11 -23
v 15 12 -23
v 16 9 -23
v 16 11 -23
v 16 12 -23
v 17 8 -23
v 17 9 -23
v 18 8 -23
v 18 9 -23
v 19 9 -23
v 19 11 -23
v 19 12 -23
v 20 11 -23
v 20 12 -23
v 16 11 -24
v 16 12 -24
v 19 11 -24
v 19 12 -24
v 16 0 -21
v 17 0 -21
v 18 0 -21
v 19 0 -21
v 16 0 -22
v 17 0 -22
v 18 0 -22
v 19 0 -22
v 17 2 -21
v 18 2 -21
v 17 2 -22
v 18 2 -22
v 18 7 -18
v 19 7 -18
v 14 7 -21
v 16 7 -21
v 18 7 -21
v 19 7 -21
v 14 7 -22
v 16 7 -22
v 17 8 -22
v 18 8 -22
v 17 8 -23
v 18 8 -23
v 14 9 -20
v 15 9 -20
v 16 9 -20
v 19 9 -20
v 13 9 -21
v 14 9 -21
v 15 9 -21
v 16 9 -21
v 17 9 -21
v 18 9 -21
v 19 9 -21
v 13 9 -22
v 14 9 -22
v 15 9 -22
v 16 9 -22
v 17 9 -22
v 18 9 -22
v 19 9 -22
v 14 9 -23
v 15 9 -23
v 16 9 -23
v 17 9 -23
v 18 9 -23
v 19 9 -23
v 16 11 -19
v 19 11 -19
v 15 11 -20
v 16 11 -20
v 19 11 -20
v 20 11 -20
v 15 11 -21
v 16 11 -21
v 19 11 -21
v 15 11 -22
v 15 11 -23
v 16 11 -23
v 19 11 -23
v 20 11 -23
v 16 11 -24
v 19 11 -24
v 18 8 -18
v 19 8 -18
v 15 8 -21
v 16 8 -21
v 18 8 -21
v 19 8 -21
v 15 8 -22
v 16 8 -22
v 14 10 -20
v 15 10 -20
v 13 10 -21
v 14 10 -21
v 15 10 -21
v 16 10 -21
v 13 10 -22
v 14 10 -22
v 15 10 -22
v 16 10 -22
v 14 10 -23
v 15 10 -23
v 14 11 -21
v 15 11 -21
v 14 11 -22
v 15 11 -22
v 16 12 -19
v 19 12 -19
v 15 12 -20
v 16 12 -20
v 19 12 -20
v 20 12 -20
v 15 12 -23
v 16 12 -23
v 19 12 -23
v 20 12 -23
v 16 12 -24
v 19 12 -24

# faces
f 3/6/1 2/6/1 1/6/1
f 4/6/1 2/6/1 3/6/1
f 8/3/1 6/3/1 5/3/1
f 9/3/1 6/3/1 8/3/1
f 11/6/1 8/6/1 7/6/1
f 12/6/1 8/6/1 11/6/1
f 13/6/1 10/6/1 9/6/1
f 14/6/1 10/6/1 13/6/1
f 15/6/1 13/6/1 12/6/1
f 16/6/1 13/6/1 15/6/1
f 21/2/1 18/2/1 17/2/1
f 21/2/1 20/2/1 19/2/1
f 21/2/1 19/2/1 18/2/1
f 22/2/1 20/2/1 21/2/1
f 25/3/1 24/3/1 23/3/1
f 26/3/1 24/3/1 25/3/1
f 27/5/1 26/5/1 25/5/1
f 28/5/1 26/5/1 27/5/1
f 29/3/1 28/3/1 27/3/1
f 30/3/1 28/3/1 29/3/1
f 31/4/1 30/4/1 29/4/1
f 32/4/1 30/4/1 31/4/1
f 36/2/1 34/2/1 33/2/1
f 37/2/1 34/2/1 36/2/1
f 39/3/1 36/3/1 35/3/1
f 40/7/1 38/7/1 37/7/1
f 42/3/1 39/3/1 35/3/1
f 43/7/1 40/7/1 39/7/1
f 43/3/1 39/3/1 42/3/1
f 44/7/1 38/7/1 40/7/1
f 44/7/1 40/7/1 43/7/1
f 46/2/1 42/2/1 41/2/1
f 47/2/1 42/2/1 46/2/1
f 48/2/1 45/2/1 44/2/1
f 49/2/1 45/2/1 48/2/1
f 52/7/1 51/7/1 50/7/1
f 53/7/1 51/7/1 52/7/1
f 56/3/1 55/3/1 54/3/1
f 57/3/1 55/3/1 56/3/1
f 60/3/1 59/3/1 58/3/1
f 61/3/1 59/3/1 60/3/1
f 62/3/2 63/3/2 65/3/2
f 65/3/2 63/3/2 66/3/2
f 64/6/2 65/6/2 68/6/2
f 68/6/2 65/6/2 69/6/2
f 66/6/2 67/6/2 70/6/2
f 70/6/2 67/6/2 71/6/2
f 69/6/2 70/6/2 72/6/2
f 72/6/2 70/6/2 73/6/2
f 74/3/2 75/3/2 76/3/2
f 76/3/2 75/3/2 77/3/2
f 78/7/2 79/7/2 80/7/2
f 80/7/2 79/7/2 81/7/2
f 82/3/2 83/3/2 84/3/2
f 84/3/2 83/3/2 85/3/2
f 84/5/2 85/5/2 86/5/2
f 86/5/2 85/5/2 87/5/2
f 86/3/2 87/3/2 88/3/2
f 88/3/2 87/3/2 89/3/2
f 88/4/2 89/4/2 91/4/2
f 91/4/2 89/4/2 92/4/2
f 90/3/2 91/3/2 93/3/2
f 91/3/2 92/3/2 93/3/2
f 93/3/2 92/3/2 94/3/2
f 94/3/2 92/3/2 95/3/2
f 94/2/2 95/2/2 97/2/2
f 97/2/2 95/2/2 98/2/2
f 96/3/2 97/3/2 101/3/2
f 97/7/2 98/7/2 102/7/2
f 98/7/2 99/7/2 102/7/2
f 101/3/2 97/3/2 102/3/2
f 102/7/2 99/7/2 103/7/2
f 100/2/2 101/2/2 105/2/2
f 105/2/2 101/2/2 106/2/2
f 103/2/2 104/2/2 107/2/2
f 107/2/2 104/2/2 108/2/2
f 109/2/2 110/2/2 111/2/2
f 111/2/2 110/2/2 112/2/2
f 115/3/3 114/3/3 113/3/3
f 116/3/3 114/3/3 115/3/3
f 119/2/3 118/2/3 117/2/3
f 120/2/3 118/2/3 119/2/3
f 123/6/3 122/6/3 121/6/3
f 124/6/3 122/6/3 123/6/3
f 128/2/3 126/2/3 125/2/3
f 129/2/3 126/2/3 128/2/3
f 130/3/3 128/3/3 127/3/3
f 131/3/3 128/3/3 130/3/3
f 133/2/3 132/2/3 131/2/3
f 134/2/3 132/2/3 133/2/3
f 138/6/3 136/6/3 135/6/3
f 139/6/3 136/6/3 138/6/3
f 141/3/3 138/3/3 137/3/3
f 142/3/3 138/3/3 141/3/3
f 143/6/3 140/6/3 139/6/3
f 144/6/3 140/6/3 143/6/3
f 149/3/3 141/3/3 137/3/3
f 150/3/3 141/3/3 149/3/3
f 151/6/3 143/6/3 142/6/3
f 152/6/3 143/6/3 151/6/3
f 153/3/3 146/3/3 145/3/3
f 154/5/3 147/5/3 146/5/3
f 154/3/3 146/3/3 153/3/3
f 155/3/3 150/3/3 149/3/3
f 155/4/3 149/4/3 148/4/3
f 156/2/3 151/2/3 150/2/3
f 156/3/3 150/3/3 155/3/3
f 157/2/3 151/2/3 156/2/3
f 159/5/3 147/5/3 154/5/3
f 160/4/3 155/4/3 148/4/3
f 160/2/3 156/2/3 155/2/3
f 161/3/3 157/3/3 156/3/3
f 161/2/3 156/2/3 160/2/3
f 162/3/3 157/3/3 161/3/3
f 163/3/3 159/3/3 158/3/3
f 164/5/3 147/5/3 159/5/3
f 164/3/3 159/3/3 163/3/3
f 165/3/3 148/3/3 147/3/3
f 165/5/3 147/5/3 164/5/3
f 166/4/3 160/4/3 148/4/3
f 166/3/3 148/3/3 165/3/3
f 167/4/3 160/4/3 166/4/3
f 168/2/3 162/2/3 161/2/3
f 169/2/3 162/2/3 168/2/3
f 170/6/4 171/6/4 173/6/4
f 173/6/4 171/6/4 174/6/4
f 172/3/4 173/3/4 176/3/4
f 176/3/4 173/3/4 177/3/4
f 174/6/4 175/6/4 178/6/4
f 178/6/4 175/6/4 179/6/4
f 172/3/4 176/3/4 184/3/4
f 184/3/4 176/3/4 185/3/4
f 177/6/4 178/6/4 186/6/4
f 186/6/4 178/6/4 187/6/4
f 180/3/4 181/3/4 188/3/4
f 181/5/4 182/5/4 189/5/4
f 188/3/4 181/3/4 189/3/4
f 184/3/4 185/3/4 190/3/4
f 183/4/4 184/4/4 190/4/4
f 185/2/4 186/2/4 191/2/4
f 190/3/4 185/3/4 191/3/4
f 191/2/4 186/2/4 192/2/4
f 189/5/4 182/5/4 194/5/4
f 190/2/4 191/2/4 195/2/4
f 183/4/4 190/4/4 195/4/4
f 195/2/4 191/2/4 196/2/4
f 193/3/4 194/3/4 198/3/4
f 194/5/4 182/5/4 199/5/4
f 198/3/4 194/3/4 199/3/4
f 182/3/4 183/3/4 200/3/4
f 199/5/4 182/5/4 200/5/4
f 183/4/4 195/4/4 201/4/4
f 200/3/4 183/3/4 201/3/4
f 195/3/4 196/3/4 202/3/4
f 201/4/4 195/4/4 202/4/4
f 196/2/4 197/2/4 203/2/4
f 202/3/4 196/3/4 203/3/4
f 203/2/4 197/2/4 204/2/4
f 205/6/4 206/6/4 207/6/4
f 207/6/4 206/6/4 208/6/4
f 209/2/4 210/2/4 212/2/4
f 212/2/4 210/2/4 213/2/4
f 211/7/4 212/7/4 215/7/4
f 214/7/4 215/7/4 216/7/4
f 215/7/4 212/7/4 217/7/4
f 216/7/4 215/7/4 217/7/4
f 217/7/4 212/7/4 218/7/4
f 218/7/4 212/7/4 219/7/4
f 219/2/4 220/2/4 221/2/4
f 221/2/4 220/2/4 222/2/4
f 223/2/4 224/2/4 225/2/4
f 225/2/4 224/2/4 226/2/4
f 231/3/5 228/3/5 227/3/5
f 232/3/5 228/3/5 231/3/5
f 233/3/5 230/3/5 229/3/5
f 234/3/5 230/3/5 233/3/5
f 237/5/5 236/5/5 235/5/5
f 238/5/5 236/5/5 237/5/5
f 243/3/5 240/3/5 239/3/5
f 244/3/5 240/3/5 243/3/5
f 245/3/5 242/3/5 241/3/5
f 246/3/5 242/3/5 245/3/5
f 249/7/5 248/7/5 247/7/5
f 250/7/5 248/7/5 249/7/5
f 256/6/5 252/6/5 251/6/5
f 257/6/5 252/6/5 256/6/5
f 258/3/5 254/3/5 253/3/5
f 259/3/5 254/3/5 258/3/5
f 260/3/5 254/3/5 259/3/5
f 261/3/5 254/3/5 260/3/5
f 262/6/5 256/6/5 255/6/5
f 263/6/5 256/6/5 262/6/5
f 264/6/5 258/6/5 257/6/5
f 265/6/5 258/6/5 264/6/5
f 269/6/5 264/6/5 263/6/5
f 270/6/5 264/6/5 269/6/5
f 271/7/5 266/7/5 265/7/5
f 272/7/5 266/7/5 271/7/5
f 273/7/5 268/7/5 267/7/5
f 274/7/5 268/7/5 273/7/5
f 278/2/5 276/2/5 275/2/5
f 279/2/5 276/2/5 278/2/5
f 281/2/5 278/2/5 277/2/5
f 282/2/5 278/2/5 281/2/5
f 283/2/5 280/2/5 279/2/5
f 284/2/5 282/2/5 281/2/5
f 285/2/5 282/2/5 284/2/5
f 286/2/5 282/2/5 285/2/5
f 287/2/5 280/2/5 283/2/5
f 288/2/5 280/2/5 287/2/5
f 289/2/5 287/2/5 286/2/5
f 290/2/5 287/2/5 289/2/5
f 291/3/6 292/3/6 295/3/6
f 295/3/6 292/3/6 296/3/6
f 293/3/6 294/3/6 297/3/6
f 297/3/6 294/3/6 298/3/6
f 299/6/6 300/6/6 302/6/6
f 302/6/6 300/6/6 303/6/6
f 301/6/6 302/6/6 305/6/6
f 305/6/6 302/6/6 306/6/6
f 303/6/6 304/6/6 307/6/6
f 307/6/6 304/6/6 308/6/6
f 306/6/6 307/6/6 309/6/6
f 309/6/6 307/6/6 310/6/6
f 311/6/6 312/6/6 313/6/6
f 313/6/6 312/6/6 314/6/6
f 315/2/6 316/2/6 318/2/6
f 318/2/6 316/2/6 319/2/6
f 317/2/6 318/2/6 321/2/6
f 318/7/6 319/7/6 322/7/6
f 321/2/6 318/2/6 322/2/6
f 319/2/6 320/2/6 323/2/6
f 322/7/6 319/7/6 323/7/6
f 323/2/6 320/2/6 324/2/6
f 322/2/6 323/2/6 325/2/6
f 325/2/6 323/2/6 326/2/6
