# MagicaVoxel @ Ephtracy

# material
mtllib Bomb.mtl
usemtl palette

# normals
vn -1 0 0
vn 1 0 0
vn 0 0 1
vn 0 0 -1
vn 0 -1 0
vn 0 1 0

# texcoords
vt 0.00585938 0.5
vt 0.0605469 0.5
vt 0.849609 0.5

# verts
v -2 7 -1
v -2 7 -2
v -2 8 -1
v -2 8 -2
v 0 1 -1
v 0 1 -2
v 0 2 -0
v 0 2 -1
v 0 2 -2
v 0 2 -3
v 0 3 -0
v 0 3 -1
v 0 3 -2
v 0 3 -3
v 0 4 -1
v 0 4 -2
v 1 0 -1
v 1 0 -2
v 1 1 -0
v 1 1 -1
v 1 1 -2
v 1 1 -3
v 1 2 1
v 1 2 -0
v 1 2 -1
v 1 2 -2
v 1 2 -3
v 1 2 -4
v 1 3 1
v 1 3 -0
v 1 3 -1
v 1 3 -2
v 1 3 -3
v 1 3 -4
v 1 4 -0
v 1 4 -1
v 1 4 -2
v 1 4 -3
v 1 5 -1
v 1 5 -2
v 1 6 -1
v 1 6 -2
v 1 7 -1
v 1 7 -2
v 2 0 -0
v 2 0 -1
v 2 0 -2
v 2 0 -3
v 2 1 1
v 2 1 -0
v 2 1 -1
v 2 1 -2
v 2 1 -3
v 2 1 -4
v 2 2 1
v 2 2 -0
v 2 2 -3
v 2 2 -4
v 2 3 1
v 2 3 -0
v 2 3 -3
v 2 3 -4
v 2 4 1
v 2 4 -0
v 2 4 -1
v 2 4 -2
v 2 4 -3
v 2 4 -4
v 2 5 -0
v 2 5 -1
v 2 5 -2
v 2 5 -3
v 2 6 -1
v 2 6 -2
v 1 7 -1
v 1 7 -2
v 1 8 -1
v 1 8 -2
v 2 6 -1
v 2 6 -2
v 2 7 -1
v 2 7 -2
v 3 0 -0
v 3 0 -1
v 3 0 -2
v 3 0 -3
v 3 1 1
v 3 1 -0
v 3 1 -1
v 3 1 -2
v 3 1 -3
v 3 1 -4
v 3 2 1
v 3 2 -0
v 3 2 -3
v 3 2 -4
v 3 3 1
v 3 3 -0
v 3 3 -3
v 3 3 -4
v 3 4 1
v 3 4 -0
v 3 4 -1
v 3 4 -2
v 3 4 -3
v 3 4 -4
v 3 5 -0
v 3 5 -1
v 3 5 -2
v 3 5 -3
v 3 6 -1
v 3 6 -2
v 4 0 -1
v 4 0 -2
v 4 1 -0
v 4 1 -1
v 4 1 -2
v 4 1 -3
v 4 2 1
v 4 2 -0
v 4 2 -1
v 4 2 -2
v 4 2 -3
v 4 2 -4
v 4 3 1
v 4 3 -0
v 4 3 -1
v 4 3 -2
v 4 3 -3
v 4 3 -4
v 4 4 -0
v 4 4 -1
v 4 4 -2
v 4 4 -3
v 4 5 -1
v 4 5 -2
v 5 1 -1
v 5 1 -2
v 5 2 -0
v 5 2 -1
v 5 2 -2
v 5 2 -3
v 5 3 -0
v 5 3 -1
v 5 3 -2
v 5 3 -3
v 5 4 -1
v 5 4 -2
v 1 2 1
v 1 3 1
v 2 1 1
v 2 2 1
v 2 3 1
v 2 4 1
v 3 1 1
v 3 2 1
v 3 3 1
v 3 4 1
v 4 2 1
v 4 3 1
v 0 2 -0
v 0 3 -0
v 1 1 -0
v 1 2 -0
v 1 3 -0
v 1 4 -0
v 2 0 -0
v 2 1 -0
v 2 2 -0
v 2 3 -0
v 2 4 -0
v 2 5 -0
v 3 0 -0
v 3 1 -0
v 3 2 -0
v 3 3 -0
v 3 4 -0
v 3 5 -0
v 4 1 -0
v 4 2 -0
v 4 3 -0
v 4 4 -0
v 5 2 -0
v 5 3 -0
v -2 7 -1
v -2 8 -1
v -1 7 -1
v -1 8 -1
v 0 1 -1
v 0 2 -1
v 0 3 -1
v 0 4 -1
v 1 0 -1
v 1 1 -1
v 1 2 -1
v 1 3 -1
v 1 4 -1
v 1 5 -1
v 1 6 -1
v 1 7 -1
v 1 8 -1
v 2 0 -1
v 2 1 -1
v 2 4 -1
v 2 5 -1
v 2 6 -1
v 2 7 -1
v 3 0 -1
v 3 1 -1
v 3 4 -1
v 3 5 -1
v 3 6 -1
v 4 0 -1
v 4 1 -1
v 4 2 -1
v 4 3 -1
v 4 4 -1
v 4 5 -1
v 5 1 -1
v 5 2 -1
v 5 3 -1
v 5 4 -1
v -2 7 -2
v -2 8 -2
v -1 7 -2
v -1 8 -2
v 0 1 -2
v 0 2 -2
v 0 3 -2
v 0 4 -2
v 1 0 -2
v 1 1 -2
v 1 2 -2
v 1 3 -2
v 1 4 -2
v 1 5 -2
v 1 6 -2
v 1 7 -2
v 1 8 -2
v 2 0 -2
v 2 1 -2
v 2 4 -2
v 2 5 -2
v 2 6 -2
v 2 7 -2
v 3 0 -2
v 3 1 -2
v 3 4 -2
v 3 5 -2
v 3 6 -2
v 4 0 -2
v 4 1 -2
v 4 2 -2
v 4 3 -2
v 4 4 -2
v 4 5 -2
v 5 1 -2
v 5 2 -2
v 5 3 -2
v 5 4 -2
v 0 2 -3
v 0 3 -3
v 1 1 -3
v 1 2 -3
v 1 3 -3
v 1 4 -3
v 2 0 -3
v 2 1 -3
v 2 2 -3
v 2 3 -3
v 2 4 -3
v 2 5 -3
v 3 0 -3
v 3 1 -3
v 3 2 -3
v 3 3 -3
v 3 4 -3
v 3 5 -3
v 4 1 -3
v 4 2 -3
v 4 3 -3
v 4 4 -3
v 5 2 -3
v 5 3 -3
v 1 2 -4
v 1 3 -4
v 2 1 -4
v 2 2 -4
v 2 3 -4
v 2 4 -4
v 3 1 -4
v 3 2 -4
v 3 3 -4
v 3 4 -4
v 4 2 -4
v 4 3 -4
v 2 0 -0
v 3 0 -0
v 1 0 -1
v 2 0 -1
v 3 0 -1
v 4 0 -1
v 1 0 -2
v 2 0 -2
v 3 0 -2
v 4 0 -2
v 2 0 -3
v 3 0 -3
v 2 1 1
v 3 1 1
v 1 1 -0
v 2 1 -0
v 3 1 -0
v 4 1 -0
v 0 1 -1
v 1 1 -1
v 2 1 -1
v 3 1 -1
v 4 1 -1
v 5 1 -1
v 0 1 -2
v 1 1 -2
v 2 1 -2
v 3 1 -2
v 4 1 -2
v 5 1 -2
v 1 1 -3
v 2 1 -3
v 3 1 -3
v 4 1 -3
v 2 1 -4
v 3 1 -4
v 1 2 1
v 2 2 1
v 3 2 1
v 4 2 1
v 0 2 -0
v 1 2 -0
v 2 2 -0
v 3 2 -0
v 4 2 -0
v 5 2 -0
v 0 2 -1
v 1 2 -1
v 4 2 -1
v 5 2 -1
v 0 2 -2
v 1 2 -2
v 4 2 -2
v 5 2 -2
v 0 2 -3
v 1 2 -3
v 2 2 -3
v 3 2 -3
v 4 2 -3
v 5 2 -3
v 1 2 -4
v 2 2 -4
v 3 2 -4
v 4 2 -4
v 1 6 -1
v 2 6 -1
v 1 6 -2
v 2 6 -2
v -2 7 -1
v -1 7 -1
v 1 7 -1
v -2 7 -2
v -1 7 -2
v 1 7 -2
v 1 3 1
v 2 3 1
v 3 3 1
v 4 3 1
v 0 3 -0
v 1 3 -0
v 2 3 -0
v 3 3 -0
v 4 3 -0
v 5 3 -0
v 0 3 -1
v 1 3 -1
v 4 3 -1
v 5 3 -1
v 0 3 -2
v 1 3 -2
v 4 3 -2
v 5 3 -2
v 0 3 -3
v 1 3 -3
v 2 3 -3
v 3 3 -3
v 4 3 -3
v 5 3 -3
v 1 3 -4
v 2 3 -4
v 3 3 -4
v 4 3 -4
v 2 4 1
v 3 4 1
v 1 4 -0
v 2 4 -0
v 3 4 -0
v 4 4 -0
v 0 4 -1
v 1 4 -1
v 2 4 -1
v 3 4 -1
v 4 4 -1
v 5 4 -1
v 0 4 -2
v 1 4 -2
v 2 4 -2
v 3 4 -2
v 4 4 -2
v 5 4 -2
v 1 4 -3
v 2 4 -3
v 3 4 -3
v 4 4 -3
v 2 4 -4
v 3 4 -4
v 2 5 -0
v 3 5 -0
v 1 5 -1
v 2 5 -1
v 3 5 -1
v 4 5 -1
v 1 5 -2
v 2 5 -2
v 3 5 -2
v 4 5 -2
v 2 5 -3
v 3 5 -3
v 2 6 -1
v 3 6 -1
v 2 6 -2
v 3 6 -2
v 1 7 -1
v 2 7 -1
v 1 7 -2
v 2 7 -2
v -2 8 -1
v -1 8 -1
v 1 8 -1
v -2 8 -2
v -1 8 -2
v 1 8 -2

# faces
f 3/3/1 2/3/1 1/3/1
f 4/3/1 2/3/1 3/3/1
f 8/2/1 6/2/1 5/2/1
f 9/2/1 6/2/1 8/2/1
f 11/2/1 8/2/1 7/2/1
f 11/2/1 10/2/1 9/2/1
f 11/2/1 9/2/1 8/2/1
f 12/2/1 10/2/1 11/2/1
f 13/2/1 10/2/1 12/2/1
f 14/2/1 10/2/1 13/2/1
f 15/2/1 13/2/1 12/2/1
f 16/2/1 13/2/1 15/2/1
f 20/2/1 18/2/1 17/2/1
f 21/2/1 18/2/1 20/2/1
f 24/2/1 20/2/1 19/2/1
f 25/2/1 20/2/1 24/2/1
f 26/2/1 22/2/1 21/2/1
f 27/2/1 22/2/1 26/2/1
f 29/2/1 24/2/1 23/2/1
f 30/2/1 24/2/1 29/2/1
f 33/2/1 28/2/1 27/2/1
f 34/2/1 28/2/1 33/2/1
f 35/2/1 31/2/1 30/2/1
f 36/2/1 31/2/1 35/2/1
f 37/2/1 33/2/1 32/2/1
f 38/2/1 33/2/1 37/2/1
f 39/2/1 37/2/1 36/2/1
f 40/2/1 37/2/1 39/2/1
f 43/1/1 42/1/1 41/1/1
f 44/1/1 42/1/1 43/1/1
f 50/2/1 46/2/1 45/2/1
f 51/2/1 46/2/1 50/2/1
f 52/2/1 48/2/1 47/2/1
f 53/2/1 48/2/1 52/2/1
f 55/2/1 50/2/1 49/2/1
f 56/2/1 50/2/1 55/2/1
f 57/2/1 54/2/1 53/2/1
f 58/2/1 54/2/1 57/2/1
f 63/2/1 60/2/1 59/2/1
f 64/2/1 60/2/1 63/2/1
f 67/2/1 62/2/1 61/2/1
f 68/2/1 62/2/1 67/2/1
f 69/2/1 65/2/1 64/2/1
f 70/2/1 65/2/1 69/2/1
f 71/2/1 67/2/1 66/2/1
f 72/2/1 67/2/1 71/2/1
f 73/1/1 71/1/1 70/1/1
f 74/1/1 71/1/1 73/1/1
f 75/1/2 76/1/2 77/1/2
f 77/1/2 76/1/2 78/1/2
f 79/1/2 80/1/2 81/1/2
f 81/1/2 80/1/2 82/1/2
f 83/2/2 84/2/2 88/2/2
f 88/2/2 84/2/2 89/2/2
f 85/2/2 86/2/2 90/2/2
f 90/2/2 86/2/2 91/2/2
f 87/2/2 88/2/2 93/2/2
f 93/2/2 88/2/2 94/2/2
f 91/2/2 92/2/2 95/2/2
f 95/2/2 92/2/2 96/2/2
f 97/2/2 98/2/2 101/2/2
f 101/2/2 98/2/2 102/2/2
f 99/2/2 100/2/2 105/2/2
f 105/2/2 100/2/2 106/2/2
f 102/2/2 103/2/2 107/2/2
f 107/2/2 103/2/2 108/2/2
f 104/2/2 105/2/2 109/2/2
f 109/2/2 105/2/2 110/2/2
f 108/1/2 109/1/2 111/1/2
f 111/1/2 109/1/2 112/1/2
f 113/2/2 114/2/2 116/2/2
f 116/2/2 114/2/2 117/2/2
f 115/2/2 116/2/2 120/2/2
f 120/2/2 116/2/2 121/2/2
f 117/2/2 118/2/2 122/2/2
f 122/2/2 118/2/2 123/2/2
f 119/2/2 120/2/2 125/2/2
f 125/2/2 120/2/2 126/2/2
f 123/2/2 124/2/2 129/2/2
f 129/2/2 124/2/2 130/2/2
f 126/2/2 127/2/2 131/2/2
f 131/2/2 127/2/2 132/2/2
f 128/2/2 129/2/2 133/2/2
f 133/2/2 129/2/2 134/2/2
f 132/2/2 133/2/2 135/2/2
f 135/2/2 133/2/2 136/2/2
f 137/2/2 138/2/2 140/2/2
f 140/2/2 138/2/2 141/2/2
f 139/2/2 140/2/2 143/2/2
f 141/2/2 142/2/2 143/2/2
f 140/2/2 141/2/2 143/2/2
f 143/2/2 142/2/2 144/2/2
f 144/2/2 142/2/2 145/2/2
f 145/2/2 142/2/2 146/2/2
f 144/2/2 145/2/2 147/2/2
f 147/2/2 145/2/2 148/2/2
f 152/2/3 150/2/3 149/2/3
f 153/2/3 150/2/3 152/2/3
f 155/2/3 152/2/3 151/2/3
f 155/2/3 154/2/3 153/2/3
f 155/2/3 153/2/3 152/2/3
f 156/2/3 154/2/3 155/2/3
f 157/2/3 154/2/3 156/2/3
f 158/2/3 154/2/3 157/2/3
f 159/2/3 157/2/3 156/2/3
f 160/2/3 157/2/3 159/2/3
f 164/2/3 162/2/3 161/2/3
f 165/2/3 162/2/3 164/2/3
f 168/2/3 164/2/3 163/2/3
f 169/2/3 164/2/3 168/2/3
f 170/2/3 166/2/3 165/2/3
f 171/2/3 166/2/3 170/2/3
f 173/2/3 168/2/3 167/2/3
f 174/2/3 168/2/3 173/2/3
f 177/2/3 172/2/3 171/2/3
f 178/2/3 172/2/3 177/2/3
f 179/2/3 175/2/3 174/2/3
f 180/2/3 175/2/3 179/2/3
f 181/2/3 177/2/3 176/2/3
f 182/2/3 177/2/3 181/2/3
f 183/2/3 181/2/3 180/2/3
f 184/2/3 181/2/3 183/2/3
f 187/3/3 186/3/3 185/3/3
f 188/3/3 186/3/3 187/3/3
f 194/2/3 190/2/3 189/2/3
f 195/2/3 190/2/3 194/2/3
f 196/2/3 192/2/3 191/2/3
f 197/2/3 192/2/3 196/2/3
f 200/1/3 188/1/3 187/1/3
f 201/1/3 188/1/3 200/1/3
f 202/2/3 194/2/3 193/2/3
f 203/2/3 194/2/3 202/2/3
f 204/2/3 198/2/3 197/2/3
f 205/2/3 198/2/3 204/2/3
f 206/1/3 200/1/3 199/1/3
f 207/1/3 200/1/3 206/1/3
f 211/1/3 206/1/3 205/1/3
f 212/1/3 206/1/3 211/1/3
f 213/2/3 209/2/3 208/2/3
f 214/2/3 209/2/3 213/2/3
f 217/2/3 211/2/3 210/2/3
f 218/2/3 211/2/3 217/2/3
f 219/2/3 215/2/3 214/2/3
f 220/2/3 215/2/3 219/2/3
f 221/2/3 217/2/3 216/2/3
f 222/2/3 217/2/3 221/2/3
f 223/3/4 224/3/4 225/3/4
f 225/3/4 224/3/4 226/3/4
f 227/2/4 228/2/4 232/2/4
f 232/2/4 228/2/4 233/2/4
f 229/2/4 230/2/4 234/2/4
f 234/2/4 230/2/4 235/2/4
f 225/1/4 226/1/4 238/1/4
f 238/1/4 226/1/4 239/1/4
f 231/2/4 232/2/4 240/2/4
f 240/2/4 232/2/4 241/2/4
f 235/2/4 236/2/4 242/2/4
f 242/2/4 236/2/4 243/2/4
f 237/1/4 238/1/4 244/1/4
f 244/1/4 238/1/4 245/1/4
f 243/1/4 244/1/4 249/1/4
f 249/1/4 244/1/4 250/1/4
f 246/2/4 247/2/4 251/2/4
f 251/2/4 247/2/4 252/2/4
f 248/2/4 249/2/4 255/2/4
f 255/2/4 249/2/4 256/2/4
f 252/2/4 253/2/4 257/2/4
f 257/2/4 253/2/4 258/2/4
f 254/2/4 255/2/4 259/2/4
f 259/2/4 255/2/4 260/2/4
f 261/2/4 262/2/4 264/2/4
f 264/2/4 262/2/4 265/2/4
f 263/2/4 264/2/4 268/2/4
f 268/2/4 264/2/4 269/2/4
f 265/2/4 266/2/4 270/2/4
f 270/2/4 266/2/4 271/2/4
f 267/2/4 268/2/4 273/2/4
f 273/2/4 268/2/4 274/2/4
f 271/2/4 272/2/4 277/2/4
f 277/2/4 272/2/4 278/2/4
f 274/2/4 275/2/4 279/2/4
f 279/2/4 275/2/4 280/2/4
f 276/2/4 277/2/4 281/2/4
f 281/2/4 277/2/4 282/2/4
f 280/2/4 281/2/4 283/2/4
f 283/2/4 281/2/4 284/2/4
f 285/2/4 286/2/4 288/2/4
f 288/2/4 286/2/4 289/2/4
f 287/2/4 288/2/4 291/2/4
f 289/2/4 290/2/4 291/2/4
f 288/2/4 289/2/4 291/2/4
f 291/2/4 290/2/4 292/2/4
f 292/2/4 290/2/4 293/2/4
f 293/2/4 290/2/4 294/2/4
f 292/2/4 293/2/4 295/2/4
f 295/2/4 293/2/4 296/2/4
f 300/2/5 298/2/5 297/2/5
f 301/2/5 298/2/5 300/2/5
f 303/2/5 300/2/5 299/2/5
f 303/2/5 302/2/5 301/2/5
f 303/2/5 301/2/5 300/2/5
f 304/2/5 302/2/5 303/2/5
f 305/2/5 302/2/5 304/2/5
f 306/2/5 302/2/5 305/2/5
f 307/2/5 305/2/5 304/2/5
f 308/2/5 305/2/5 307/2/5
f 312/2/5 310/2/5 309/2/5
f 313/2/5 310/2/5 312/2/5
f 316/2/5 312/2/5 311/2/5
f 317/2/5 312/2/5 316/2/5
f 318/2/5 314/2/5 313/2/5
f 319/2/5 314/2/5 318/2/5
f 321/2/5 316/2/5 315/2/5
f 322/2/5 316/2/5 321/2/5
f 325/2/5 320/2/5 319/2/5
f 326/2/5 320/2/5 325/2/5
f 327/2/5 323/2/5 322/2/5
f 328/2/5 323/2/5 327/2/5
f 329/2/5 325/2/5 324/2/5
f 330/2/5 325/2/5 329/2/5
f 331/2/5 329/2/5 328/2/5
f 332/2/5 329/2/5 331/2/5
f 338/2/5 334/2/5 333/2/5
f 339/2/5 334/2/5 338/2/5
f 340/2/5 336/2/5 335/2/5
f 341/2/5 336/2/5 340/2/5
f 343/2/5 338/2/5 337/2/5
f 344/2/5 338/2/5 343/2/5
f 345/2/5 342/2/5 341/2/5
f 346/2/5 342/2/5 345/2/5
f 351/2/5 348/2/5 347/2/5
f 352/2/5 348/2/5 351/2/5
f 355/2/5 350/2/5 349/2/5
f 356/2/5 350/2/5 355/2/5
f 357/2/5 353/2/5 352/2/5
f 358/2/5 353/2/5 357/2/5
f 359/2/5 355/2/5 354/2/5
f 360/2/5 355/2/5 359/2/5
f 363/1/5 362/1/5 361/1/5
f 364/1/5 362/1/5 363/1/5
f 368/3/5 366/3/5 365/3/5
f 369/1/5 367/1/5 366/1/5
f 369/3/5 366/3/5 368/3/5
f 370/1/5 367/1/5 369/1/5
f 371/2/6 372/2/6 376/2/6
f 376/2/6 372/2/6 377/2/6
f 373/2/6 374/2/6 378/2/6
f 378/2/6 374/2/6 379/2/6
f 375/2/6 376/2/6 381/2/6
f 381/2/6 376/2/6 382/2/6
f 379/2/6 380/2/6 383/2/6
f 383/2/6 380/2/6 384/2/6
f 385/2/6 386/2/6 389/2/6
f 389/2/6 386/2/6 390/2/6
f 387/2/6 388/2/6 393/2/6
f 393/2/6 388/2/6 394/2/6
f 390/2/6 391/2/6 395/2/6
f 395/2/6 391/2/6 396/2/6
f 392/2/6 393/2/6 397/2/6
f 397/2/6 393/2/6 398/2/6
f 399/2/6 400/2/6 402/2/6
f 402/2/6 400/2/6 403/2/6
f 401/2/6 402/2/6 406/2/6
f 406/2/6 402/2/6 407/2/6
f 403/2/6 404/2/6 408/2/6
f 408/2/6 404/2/6 409/2/6
f 405/2/6 406/2/6 411/2/6
f 411/2/6 406/2/6 412/2/6
f 409/2/6 410/2/6 415/2/6
f 415/2/6 410/2/6 416/2/6
f 412/2/6 413/2/6 417/2/6
f 417/2/6 413/2/6 418/2/6
f 414/2/6 415/2/6 419/2/6
f 419/2/6 415/2/6 420/2/6
f 418/2/6 419/2/6 421/2/6
f 421/2/6 419/2/6 422/2/6
f 423/2/6 424/2/6 426/2/6
f 426/2/6 424/2/6 427/2/6
f 425/2/6 426/2/6 429/2/6
f 429/2/6 426/2/6 430/2/6
f 427/2/6 428/2/6 431/2/6
f 431/2/6 428/2/6 432/2/6
f 430/2/6 431/2/6 433/2/6
f 433/2/6 431/2/6 434/2/6
f 435/1/6 436/1/6 437/1/6
f 437/1/6 436/1/6 438/1/6
f 439/1/6 440/1/6 441/1/6
f 441/1/6 440/1/6 442/1/6
f 443/3/6 444/3/6 446/3/6
f 444/1/6 445/1/6 447/1/6
f 446/3/6 444/3/6 447/3/6
f 447/1/6 445/1/6 448/1/6
