# MagicaVoxel @ Ephtracy

# material
mtllib chicken.mtl
usemtl palette

# normals
vn -1 0 0
vn 1 0 0
vn 0 0 1
vn 0 0 -1
vn 0 -1 0
vn 0 1 0

# texcoords
vt 0.341797 0.5
vt 0.462891 0.5
vt 0.466797 0.5
vt 0.849609 0.5
vt 0.947266 0.5

# verts
v 1 2 -2
v 1 2 -5
v 1 3 -2
v 1 3 -3
v 1 3 -4
v 1 3 -5
v 1 4 -3
v 1 4 -4
v 1 4 -5
v 2 0 -3
v 2 0 -4
v 2 2 -3
v 2 2 -4
v 2 3 -2
v 2 3 -3
v 2 4 -2
v 2 4 -3
v 2 4 -4
v 2 4 -5
v 2 5 -2
v 2 5 -5
v 3 2 -1
v 3 2 -2
v 3 3 -0
v 3 3 -1
v 3 3 -2
v 3 4 -1
v 3 4 -2
v 3 4 -5
v 3 4 -6
v 3 5 -0
v 3 5 -1
v 3 5 -4
v 3 5 -5
v 3 5 -6
v 3 6 -0
v 3 6 -1
v 3 6 -4
v 3 6 -5
v 3 6 -6
v 3 6 -7
v 3 7 -4
v 3 7 -5
v 3 7 -6
v 3 7 -7
v 3 8 -4
v 3 8 -5
v 3 8 -6
v 3 9 -5
v 3 9 -6
v 4 0 -3
v 4 0 -4
v 4 2 -3
v 4 2 -4
v 4 2 -5
v 4 3 -4
v 4 3 -5
v 3 0 -3
v 3 0 -4
v 3 2 -3
v 3 2 -4
v 3 2 -5
v 3 3 -4
v 3 3 -5
v 4 2 -1
v 4 2 -2
v 4 3 -0
v 4 3 -1
v 4 3 -2
v 4 4 -1
v 4 4 -2
v 4 4 -5
v 4 4 -6
v 4 5 -0
v 4 5 -1
v 4 5 -4
v 4 5 -5
v 4 5 -6
v 4 6 -0
v 4 6 -1
v 4 6 -4
v 4 6 -5
v 4 6 -6
v 4 6 -7
v 4 7 -4
v 4 7 -5
v 4 7 -6
v 4 7 -7
v 4 8 -4
v 4 8 -5
v 4 8 -6
v 4 9 -5
v 4 9 -6
v 5 0 -3
v 5 0 -4
v 5 2 -3
v 5 2 -4
v 5 3 -2
v 5 3 -3
v 5 4 -2
v 5 4 -3
v 5 4 -5
v 5 5 -2
v 5 5 -3
v 5 5 -5
v 6 2 -2
v 6 2 -4
v 6 2 -5
v 6 3 -2
v 6 3 -3
v 6 3 -4
v 6 3 -5
v 6 4 -3
v 6 4 -5
v 3 3 -0
v 3 5 -0
v 3 6 -0
v 4 3 -0
v 4 5 -0
v 4 6 -0
v 3 2 -1
v 3 3 -1
v 4 2 -1
v 4 3 -1
v 1 2 -2
v 1 3 -2
v 2 3 -2
v 2 4 -2
v 2 5 -2
v 3 2 -2
v 3 3 -2
v 3 4 -2
v 4 2 -2
v 4 3 -2
v 4 4 -2
v 4 5 -2
v 5 3 -2
v 5 4 -2
v 5 5 -2
v 6 2 -2
v 6 3 -2
v 1 3 -3
v 1 4 -3
v 2 0 -3
v 2 2 -3
v 2 3 -3
v 2 4 -3
v 3 0 -3
v 3 2 -3
v 4 0 -3
v 4 2 -3
v 5 0 -3
v 5 2 -3
v 5 3 -3
v 5 4 -3
v 6 3 -3
v 6 4 -3
v 3 5 -4
v 3 6 -4
v 3 7 -4
v 3 8 -4
v 4 5 -4
v 4 6 -4
v 4 7 -4
v 4 8 -4
v 3 6 -5
v 3 7 -5
v 3 8 -5
v 3 9 -5
v 4 6 -5
v 4 7 -5
v 4 8 -5
v 4 9 -5
v 3 4 -1
v 3 5 -1
v 3 6 -1
v 4 4 -1
v 4 5 -1
v 4 6 -1
v 2 0 -4
v 2 2 -4
v 3 0 -4
v 3 2 -4
v 3 3 -4
v 4 0 -4
v 4 2 -4
v 4 3 -4
v 5 0 -4
v 5 2 -4
v 1 2 -5
v 1 3 -5
v 1 4 -5
v 2 3 -5
v 2 4 -5
v 2 5 -5
v 3 2 -5
v 3 3 -5
v 3 4 -5
v 3 5 -5
v 4 2 -5
v 4 3 -5
v 4 4 -5
v 4 5 -5
v 5 2 -5
v 5 3 -5
v 5 4 -5
v 5 5 -5
v 6 2 -5
v 6 3 -5
v 6 4 -5
v 3 4 -6
v 3 5 -6
v 3 6 -6
v 3 7 -6
v 3 8 -6
v 3 9 -6
v 4 4 -6
v 4 5 -6
v 4 6 -6
v 4 7 -6
v 4 8 -6
v 4 9 -6
v 3 6 -7
v 3 7 -7
v 4 6 -7
v 4 7 -7
v 2 0 -3
v 3 0 -3
v 4 0 -3
v 5 0 -3
v 2 0 -4
v 3 0 -4
v 4 0 -4
v 5 0 -4
v 3 2 -1
v 4 2 -1
v 1 2 -2
v 3 2 -2
v 4 2 -2
v 6 2 -2
v 2 2 -3
v 3 2 -3
v 4 2 -3
v 5 2 -3
v 2 2 -4
v 3 2 -4
v 4 2 -4
v 5 2 -4
v 6 2 -4
v 1 2 -5
v 3 2 -5
v 4 2 -5
v 5 2 -5
v 6 2 -5
v 3 3 -0
v 4 3 -0
v 3 3 -1
v 4 3 -1
v 3 3 -4
v 4 3 -4
v 3 3 -5
v 4 3 -5
v 3 4 -5
v 4 4 -5
v 3 4 -6
v 4 4 -6
v 3 6 -6
v 4 6 -6
v 3 6 -7
v 4 6 -7
v 3 7 -4
v 4 7 -4
v 3 7 -5
v 4 7 -5
v 1 3 -2
v 2 3 -2
v 5 3 -2
v 6 3 -2
v 1 3 -3
v 2 3 -3
v 5 3 -3
v 6 3 -3
v 3 4 -1
v 4 4 -1
v 3 4 -2
v 4 4 -2
v 1 4 -3
v 2 4 -3
v 5 4 -3
v 6 4 -3
v 1 4 -4
v 2 4 -4
v 1 4 -5
v 2 4 -5
v 5 4 -5
v 6 4 -5
v 2 5 -2
v 4 5 -2
v 5 5 -2
v 4 5 -3
v 5 5 -3
v 3 5 -4
v 4 5 -4
v 2 5 -5
v 3 5 -5
v 4 5 -5
v 5 5 -5
v 3 6 -0
v 4 6 -0
v 3 6 -1
v 4 6 -1
v 3 6 -4
v 4 6 -4
v 3 6 -5
v 4 6 -5
v 3 7 -6
v 4 7 -6
v 3 7 -7
v 4 7 -7
v 3 8 -4
v 4 8 -4
v 3 8 -5
v 4 8 -5
v 3 9 -5
v 4 9 -5
v 3 9 -6
v 4 9 -6

# faces
f 3/3/1 2/3/1 1/3/1
f 4/3/1 2/3/1 3/3/1
f 5/3/1 2/3/1 4/3/1
f 6/3/1 2/3/1 5/3/1
f 7/3/1 5/3/1 4/3/1
f 8/2/1 6/2/1 5/2/1
f 8/3/1 5/3/1 7/3/1
f 9/2/1 6/2/1 8/2/1
f 12/4/1 11/4/1 10/4/1
f 13/4/1 11/4/1 12/4/1
f 16/2/1 15/2/1 14/2/1
f 17/2/1 15/2/1 16/2/1
f 20/3/1 18/3/1 17/3/1
f 20/3/1 19/3/1 18/3/1
f 20/3/1 17/3/1 16/3/1
f 21/3/1 19/3/1 20/3/1
f 25/2/1 23/2/1 22/2/1
f 26/2/1 23/2/1 25/2/1
f 27/3/1 25/3/1 24/3/1
f 27/3/1 26/3/1 25/3/1
f 28/3/1 26/3/1 27/3/1
f 31/3/1 27/3/1 24/3/1
f 32/3/1 27/3/1 31/3/1
f 34/2/1 30/2/1 29/2/1
f 35/2/1 30/2/1 34/2/1
f 36/2/1 32/2/1 31/2/1
f 37/2/1 32/2/1 36/2/1
f 38/3/1 34/3/1 33/3/1
f 38/3/1 35/3/1 34/3/1
f 39/3/1 35/3/1 38/3/1
f 40/3/1 35/3/1 39/3/1
f 43/3/1 40/3/1 39/3/1
f 44/1/1 41/1/1 40/1/1
f 44/3/1 40/3/1 43/3/1
f 45/1/1 41/1/1 44/1/1
f 46/5/1 43/5/1 42/5/1
f 47/3/1 44/3/1 43/3/1
f 47/5/1 43/5/1 46/5/1
f 48/3/1 44/3/1 47/3/1
f 49/5/1 48/5/1 47/5/1
f 50/5/1 48/5/1 49/5/1
f 53/4/1 52/4/1 51/4/1
f 54/4/1 52/4/1 53/4/1
f 56/3/1 55/3/1 54/3/1
f 57/3/1 55/3/1 56/3/1
f 58/4/2 59/4/2 60/4/2
f 60/4/2 59/4/2 61/4/2
f 61/3/2 62/3/2 63/3/2
f 63/3/2 62/3/2 64/3/2
f 65/2/2 66/2/2 68/2/2
f 68/2/2 66/2/2 69/2/2
f 67/3/2 68/3/2 70/3/2
f 68/3/2 69/3/2 70/3/2
f 70/3/2 69/3/2 71/3/2
f 67/3/2 70/3/2 74/3/2
f 74/3/2 70/3/2 75/3/2
f 72/2/2 73/2/2 77/2/2
f 77/2/2 73/2/2 78/2/2
f 74/2/2 75/2/2 79/2/2
f 79/2/2 75/2/2 80/2/2
f 76/3/2 77/3/2 81/3/2
f 77/3/2 78/3/2 81/3/2
f 81/3/2 78/3/2 82/3/2
f 82/3/2 78/3/2 83/3/2
f 82/3/2 83/3/2 86/3/2
f 83/1/2 84/1/2 87/1/2
f 86/3/2 83/3/2 87/3/2
f 87/1/2 84/1/2 88/1/2
f 85/5/2 86/5/2 89/5/2
f 86/3/2 87/3/2 90/3/2
f 89/5/2 86/5/2 90/5/2
f 90/3/2 87/3/2 91/3/2
f 90/5/2 91/5/2 92/5/2
f 92/5/2 91/5/2 93/5/2
f 94/4/2 95/4/2 96/4/2
f 96/4/2 95/4/2 97/4/2
f 98/3/2 99/3/2 100/3/2
f 100/3/2 99/3/2 101/3/2
f 100/2/2 101/2/2 103/2/2
f 101/3/2 102/3/2 104/3/2
f 103/2/2 101/2/2 104/2/2
f 104/3/2 102/3/2 105/3/2
f 106/3/2 107/3/2 109/3/2
f 109/3/2 107/3/2 110/3/2
f 107/2/2 108/2/2 111/2/2
f 110/3/2 107/3/2 111/3/2
f 111/2/2 108/2/2 112/2/2
f 110/3/2 111/3/2 113/3/2
f 111/3/2 112/3/2 113/3/2
f 113/3/2 112/3/2 114/3/2
f 118/3/3 116/3/3 115/3/3
f 119/2/3 117/2/3 116/2/3
f 119/3/3 116/3/3 118/3/3
f 120/2/3 117/2/3 119/2/3
f 123/2/3 122/2/3 121/2/3
f 124/2/3 122/2/3 123/2/3
f 127/3/3 126/3/3 125/3/3
f 130/3/3 127/3/3 125/3/3
f 131/2/3 128/2/3 127/2/3
f 131/3/3 127/3/3 130/3/3
f 132/3/3 129/3/3 128/3/3
f 132/2/3 128/2/3 131/2/3
f 135/3/3 129/3/3 132/3/3
f 136/3/3 129/3/3 135/3/3
f 137/3/3 134/3/3 133/3/3
f 137/3/3 135/3/3 134/3/3
f 138/2/3 136/2/3 135/2/3
f 138/3/3 135/3/3 137/3/3
f 139/2/3 136/2/3 138/2/3
f 140/3/3 137/3/3 133/3/3
f 141/3/3 137/3/3 140/3/3
f 146/3/3 143/3/3 142/3/3
f 147/3/3 143/3/3 146/3/3
f 148/4/3 145/4/3 144/4/3
f 149/4/3 145/4/3 148/4/3
f 152/4/3 151/4/3 150/4/3
f 153/4/3 151/4/3 152/4/3
f 156/3/3 155/3/3 154/3/3
f 157/3/3 155/3/3 156/3/3
f 162/3/3 159/3/3 158/3/3
f 163/3/3 159/3/3 162/3/3
f 164/5/3 161/5/3 160/5/3
f 165/5/3 161/5/3 164/5/3
f 170/3/3 167/3/3 166/3/3
f 171/3/3 167/3/3 170/3/3
f 172/5/3 169/5/3 168/5/3
f 173/5/3 169/5/3 172/5/3
f 174/3/4 175/3/4 177/3/4
f 175/2/4 176/2/4 178/2/4
f 177/3/4 175/3/4 178/3/4
f 178/2/4 176/2/4 179/2/4
f 180/4/4 181/4/4 182/4/4
f 182/4/4 181/4/4 183/4/4
f 183/3/4 184/3/4 186/3/4
f 186/3/4 184/3/4 187/3/4
f 185/4/4 186/4/4 188/4/4
f 188/4/4 186/4/4 189/4/4
f 190/3/4 191/3/4 193/3/4
f 191/2/4 192/2/4 193/2/4
f 193/2/4 192/2/4 194/2/4
f 190/3/4 193/3/4 196/3/4
f 194/3/4 195/3/4 196/3/4
f 193/3/4 194/3/4 196/3/4
f 196/3/4 195/3/4 197/3/4
f 197/3/4 195/3/4 198/3/4
f 198/3/4 195/3/4 199/3/4
f 197/2/4 198/2/4 201/2/4
f 201/2/4 198/2/4 202/2/4
f 200/3/4 201/3/4 204/3/4
f 202/3/4 203/3/4 204/3/4
f 201/3/4 202/3/4 204/3/4
f 204/3/4 203/3/4 205/3/4
f 205/3/4 203/3/4 206/3/4
f 206/3/4 203/3/4 207/3/4
f 204/2/4 205/2/4 208/2/4
f 205/3/4 206/3/4 209/3/4
f 208/2/4 205/2/4 209/2/4
f 209/3/4 206/3/4 210/3/4
f 211/2/4 212/2/4 217/2/4
f 212/3/4 213/3/4 218/3/4
f 217/2/4 212/2/4 218/2/4
f 218/3/4 213/3/4 219/3/4
f 214/3/4 215/3/4 220/3/4
f 215/5/4 216/5/4 221/5/4
f 220/3/4 215/3/4 221/3/4
f 221/5/4 216/5/4 222/5/4
f 223/1/4 224/1/4 225/1/4
f 225/1/4 224/1/4 226/1/4
f 231/4/5 228/4/5 227/4/5
f 232/4/5 228/4/5 231/4/5
f 233/4/5 230/4/5 229/4/5
f 234/4/5 230/4/5 233/4/5
f 238/2/5 236/2/5 235/2/5
f 239/2/5 236/2/5 238/2/5
f 241/3/5 238/3/5 237/3/5
f 241/3/5 240/3/5 239/3/5
f 241/3/5 239/3/5 238/3/5
f 242/3/5 240/3/5 241/3/5
f 243/3/5 240/3/5 242/3/5
f 244/3/5 240/3/5 243/3/5
f 245/3/5 241/3/5 237/3/5
f 246/3/5 243/3/5 242/3/5
f 247/3/5 243/3/5 246/3/5
f 248/3/5 240/3/5 244/3/5
f 249/3/5 240/3/5 248/3/5
f 250/3/5 245/3/5 237/3/5
f 250/3/5 246/3/5 245/3/5
f 251/3/5 246/3/5 250/3/5
f 252/3/5 248/3/5 247/3/5
f 253/2/5 249/2/5 248/2/5
f 253/3/5 248/3/5 252/3/5
f 254/2/5 249/2/5 253/2/5
f 257/3/5 256/3/5 255/3/5
f 258/3/5 256/3/5 257/3/5
f 261/2/5 260/2/5 259/2/5
f 262/2/5 260/2/5 261/2/5
f 265/2/5 264/2/5 263/2/5
f 266/2/5 264/2/5 265/2/5
f 269/1/5 268/1/5 267/1/5
f 270/1/5 268/1/5 269/1/5
f 273/5/5 272/5/5 271/5/5
f 274/5/5 272/5/5 273/5/5
f 275/3/6 276/3/6 279/3/6
f 279/3/6 276/3/6 280/3/6
f 277/3/6 278/3/6 281/3/6
f 281/3/6 278/3/6 282/3/6
f 283/3/6 284/3/6 285/3/6
f 285/3/6 284/3/6 286/3/6
f 287/3/6 288/3/6 291/3/6
f 291/3/6 288/3/6 292/3/6
f 291/2/6 292/2/6 293/2/6
f 293/2/6 292/2/6 294/2/6
f 289/3/6 290/3/6 295/3/6
f 295/3/6 290/3/6 296/3/6
f 297/3/6 298/3/6 300/3/6
f 298/2/6 299/2/6 300/2/6
f 300/2/6 299/2/6 301/2/6
f 297/3/6 300/3/6 302/3/6
f 300/3/6 301/3/6 302/3/6
f 302/3/6 301/3/6 303/3/6
f 297/3/6 302/3/6 304/3/6
f 304/3/6 302/3/6 305/3/6
f 303/3/6 301/3/6 306/3/6
f 306/3/6 301/3/6 307/3/6
f 308/2/6 309/2/6 310/2/6
f 310/2/6 309/2/6 311/2/6
f 312/3/6 313/3/6 314/3/6
f 314/3/6 313/3/6 315/3/6
f 316/1/6 317/1/6 318/1/6
f 318/1/6 317/1/6 319/1/6
f 320/5/6 321/5/6 322/5/6
f 322/5/6 321/5/6 323/5/6
f 324/5/6 325/5/6 326/5/6
f 326/5/6 325/5/6 327/5/6
