# MagicaVoxel @ Ephtracy

# material
mtllib coconut.mtl
usemtl palette

# normals
vn -1 0 0
vn 1 0 0
vn 0 0 1
vn 0 0 -1
vn 0 -1 0
vn 0 1 0

# texcoords
vt 0.537109 0.5
vt 0.701172 0.5
vt 0.873047 0.5

# verts
v -31 8 -18
v -31 8 -26
v -31 12 -18
v -31 12 -26
v -30 7 -19
v -30 7 -25
v -30 8 -19
v -30 8 -25
v -30 12 -19
v -30 12 -25
v -30 13 -19
v -30 13 -25
v -29 6 -20
v -29 6 -24
v -29 7 -20
v -29 7 -24
v -29 13 -20
v -29 13 -24
v -29 14 -20
v -29 14 -24
v -25 6 -20
v -25 6 -24
v -25 7 -20
v -25 7 -24
v -25 13 -20
v -25 13 -24
v -25 14 -20
v -25 14 -24
v -24 7 -19
v -24 7 -25
v -24 8 -19
v -24 8 -25
v -24 12 -19
v -24 12 -25
v -24 13 -19
v -24 13 -25
v -23 8 -18
v -23 8 -26
v -23 12 -18
v -23 12 -26
v -31 8 -18
v -31 12 -18
v -30 11 -18
v -30 12 -18
v -28 9 -18
v -28 10 -18
v -28 11 -18
v -28 12 -18
v -26 9 -18
v -26 10 -18
v -26 11 -18
v -26 12 -18
v -24 11 -18
v -24 12 -18
v -23 8 -18
v -23 12 -18
v -30 7 -19
v -30 8 -19
v -30 12 -19
v -30 13 -19
v -28 12 -19
v -26 12 -19
v -24 7 -19
v -24 8 -19
v -24 12 -19
v -24 13 -19
v -29 6 -20
v -29 7 -20
v -29 13 -20
v -29 14 -20
v -25 6 -20
v -25 7 -20
v -25 13 -20
v -25 14 -20
v -29 6 -24
v -29 7 -24
v -29 13 -24
v -29 14 -24
v -25 6 -24
v -25 7 -24
v -25 13 -24
v -25 14 -24
v -30 7 -25
v -30 8 -25
v -30 12 -25
v -30 13 -25
v -24 7 -25
v -24 8 -25
v -24 12 -25
v -24 13 -25
v -31 8 -26
v -31 12 -26
v -23 8 -26
v -23 12 -26
v -29 6 -20
v -25 6 -20
v -29 6 -24
v -25 6 -24
v -30 7 -19
v -24 7 -19
v -29 7 -20
v -25 7 -20
v -29 7 -24
v -25 7 -24
v -30 7 -25
v -24 7 -25
v -31 8 -18
v -23 8 -18
v -30 8 -19
v -24 8 -19
v -30 8 -25
v -24 8 -25
v -31 8 -26
v -23 8 -26
v -31 12 -18
v -30 12 -18
v -28 12 -18
v -26 12 -18
v -24 12 -18
v -23 12 -18
v -30 12 -19
v -28 12 -19
v -26 12 -19
v -24 12 -19
v -30 12 -25
v -24 12 -25
v -31 12 -26
v -23 12 -26
v -30 13 -19
v -24 13 -19
v -29 13 -20
v -25 13 -20
v -29 13 -24
v -25 13 -24
v -30 13 -25
v -24 13 -25
v -29 14 -20
v -25 14 -20
v -29 14 -24
v -25 14 -24

# faces
f 3/1/1 2/1/1 1/1/1
f 4/1/1 2/1/1 3/1/1
f 7/1/1 6/1/1 5/1/1
f 8/1/1 6/1/1 7/1/1
f 11/1/1 10/1/1 9/1/1
f 12/1/1 10/1/1 11/1/1
f 15/1/1 14/1/1 13/1/1
f 16/1/1 14/1/1 15/1/1
f 19/1/1 18/1/1 17/1/1
f 20/1/1 18/1/1 19/1/1
f 21/1/2 22/1/2 23/1/2
f 23/1/2 22/1/2 24/1/2
f 25/1/2 26/1/2 27/1/2
f 27/1/2 26/1/2 28/1/2
f 29/1/2 30/1/2 31/1/2
f 31/1/2 30/1/2 32/1/2
f 33/1/2 34/1/2 35/1/2
f 35/1/2 34/1/2 36/1/2
f 37/1/2 38/1/2 39/1/2
f 39/1/2 38/1/2 40/1/2
f 43/1/3 42/1/3 41/1/3
f 44/1/3 42/1/3 43/1/3
f 45/1/3 43/1/3 41/1/3
f 46/1/3 43/1/3 45/1/3
f 47/2/3 44/2/3 43/2/3
f 47/1/3 43/1/3 46/1/3
f 48/2/3 44/2/3 47/2/3
f 49/2/3 46/2/3 45/2/3
f 49/1/3 45/1/3 41/1/3
f 50/1/3 48/1/3 47/1/3
f 50/2/3 46/2/3 49/2/3
f 50/1/3 47/1/3 46/1/3
f 51/1/3 48/1/3 50/1/3
f 52/1/3 48/1/3 51/1/3
f 53/1/3 50/1/3 49/1/3
f 53/1/3 51/1/3 50/1/3
f 53/2/3 52/2/3 51/2/3
f 54/2/3 52/2/3 53/2/3
f 55/1/3 49/1/3 41/1/3
f 55/1/3 53/1/3 49/1/3
f 55/1/3 54/1/3 53/1/3
f 56/1/3 54/1/3 55/1/3
f 61/1/3 60/1/3 59/1/3
f 62/1/3 60/1/3 61/1/3
f 63/1/3 58/1/3 57/1/3
f 64/1/3 58/1/3 63/1/3
f 65/1/3 60/1/3 62/1/3
f 66/1/3 60/1/3 65/1/3
f 71/1/3 68/1/3 67/1/3
f 72/1/3 68/1/3 71/1/3
f 73/1/3 70/1/3 69/1/3
f 74/1/3 70/1/3 73/1/3
f 75/1/4 76/1/4 79/1/4
f 79/1/4 76/1/4 80/1/4
f 77/1/4 78/1/4 81/1/4
f 81/1/4 78/1/4 82/1/4
f 83/1/4 84/1/4 87/1/4
f 87/1/4 84/1/4 88/1/4
f 85/1/4 86/1/4 89/1/4
f 89/1/4 86/1/4 90/1/4
f 91/1/4 92/1/4 93/1/4
f 93/1/4 92/1/4 94/1/4
f 97/1/5 96/1/5 95/1/5
f 98/1/5 96/1/5 97/1/5
f 101/1/5 100/1/5 99/1/5
f 102/1/5 100/1/5 101/1/5
f 103/1/5 101/1/5 99/1/5
f 104/1/5 100/1/5 102/1/5
f 105/1/5 103/1/5 99/1/5
f 105/1/5 104/1/5 103/1/5
f 106/1/5 100/1/5 104/1/5
f 106/1/5 104/1/5 105/1/5
f 109/1/5 108/1/5 107/1/5
f 110/1/5 108/1/5 109/1/5
f 111/1/5 109/1/5 107/1/5
f 112/1/5 108/1/5 110/1/5
f 113/1/5 111/1/5 107/1/5
f 113/1/5 112/1/5 111/1/5
f 114/1/5 108/1/5 112/1/5
f 114/1/5 112/1/5 113/1/5
f 115/1/6 116/1/6 121/1/6
f 116/2/6 117/2/6 121/2/6
f 117/1/6 118/1/6 122/1/6
f 121/2/6 117/2/6 122/2/6
f 118/2/6 119/2/6 123/2/6
f 122/1/6 118/1/6 123/1/6
f 119/1/6 120/1/6 124/1/6
f 123/2/6 119/2/6 124/2/6
f 115/1/6 121/1/6 125/1/6
f 124/1/6 120/1/6 126/1/6
f 115/1/6 125/1/6 127/1/6
f 125/1/6 126/1/6 127/1/6
f 126/1/6 120/1/6 128/1/6
f 127/1/6 126/1/6 128/1/6
f 129/1/6 130/1/6 131/1/6
f 131/1/6 130/1/6 132/1/6
f 129/1/6 131/1/6 133/1/6
f 132/1/6 130/1/6 134/1/6
f 129/1/6 133/1/6 135/1/6
f 133/1/6 134/1/6 135/1/6
f 134/1/6 130/1/6 136/1/6
f 135/1/6 134/1/6 136/1/6
f 137/1/6 138/1/6 139/1/6
f 139/1/6 138/1/6 140/1/6
