# MagicaVoxel @ Ephtracy

# material
mtllib easterstatue.mtl
usemtl palette

# normals
vn -1 0 0
vn 1 0 0
vn 0 0 1
vn 0 0 -1
vn 0 -1 0
vn 0 1 0

# texcoords
vt 0.0605469 0.5
vt 0.310547 0.5

# verts
v -4 0 -3
v -4 0 -5
v -4 5 -3
v -4 5 -5
v -3 0 -2
v -3 0 -3
v -3 5 -2
v -3 5 -3
v -3 7 -2
v -3 7 -3
v -3 9 -1
v -3 9 -2
v -3 9 -3
v -3 13 -1
v -3 13 -2
v -2 0 -1
v -2 0 -2
v -2 0 -5
v -2 0 -7
v -2 4 -6
v -2 4 -7
v -2 5 -1
v -2 5 -2
v -2 5 -3
v -2 5 -5
v -2 5 -6
v -2 6 -3
v -2 6 -5
v -2 7 -3
v -2 7 -6
v -2 9 -2
v -2 9 -3
v -2 10 -5
v -2 10 -6
v -2 11 -0
v -2 11 -1
v -2 13 -1
v -2 13 -2
v -2 14 -0
v -2 14 -1
v -2 14 -4
v -2 14 -5
v -2 15 -1
v -2 15 -2
v -2 15 -4
v -2 15 -6
v -2 17 -2
v -2 17 -6
v -1 4 -6
v -1 4 -7
v -1 5 -1
v -1 5 -3
v -1 5 -5
v -1 5 -6
v -1 5 -7
v -1 6 -1
v -1 6 -2
v -1 6 -3
v -1 6 -5
v -1 6 -6
v -1 7 -1
v -1 7 -2
v -1 7 -5
v -1 7 -6
v -1 7 -7
v -1 9 -1
v -1 9 -2
v -1 10 -5
v -1 10 -6
v -1 10 -7
v -1 14 -0
v -1 14 -1
v -1 14 -4
v -1 14 -5
v -1 14 -6
v -1 15 -1
v -1 15 -2
v -1 15 -4
v -1 15 -5
v -1 15 -6
v -1 15 -7
v -1 17 -0
v -1 17 -2
v -1 17 -6
v -1 17 -7
v 0 0 -0
v 0 0 -1
v 0 5 -0
v 0 5 -1
v 0 5 -6
v 0 5 -7
v 0 6 -1
v 0 6 -2
v 0 6 -5
v 0 6 -6
v 0 6 -7
v 0 7 -1
v 0 7 -2
v 0 7 -5
v 0 7 -6
v 0 9 -7
v 0 9 -9
v 0 10 -3
v 0 10 -5
v 0 10 -6
v 0 10 -7
v 0 10 -8
v 0 10 -9
v 0 11 -3
v 0 11 -5
v 0 12 1
v 0 12 -0
v 0 12 -7
v 0 12 -8
v 0 14 -5
v 0 14 -6
v 0 14 -7
v 0 15 -5
v 0 15 -6
v 0 16 1
v 0 16 -0
v 2 4 -5
v 2 4 -6
v 2 4 -7
v 2 5 -5
v 2 5 -7
v 2 10 -2
v 2 10 -3
v 2 10 -4
v 2 11 -2
v 2 11 -4
v 3 0 -6
v 3 0 -7
v 3 4 -6
v 3 4 -7
v 3 9 -3
v 3 9 -5
v 3 10 -3
v 3 10 -4
v 3 11 -4
v 3 11 -5
v 4 0 -2
v 4 0 -3
v 4 0 -4
v 4 0 -5
v 4 4 -2
v 4 4 -3
v 4 4 -4
v 4 4 -5
v 5 0 -3
v 5 0 -4
v 5 4 -3
v 5 4 -4
v -3 0 -3
v -3 0 -4
v -3 4 -3
v -3 4 -4
v -2 0 -2
v -2 0 -3
v -2 0 -4
v -2 0 -5
v -2 4 -2
v -2 4 -3
v -2 4 -4
v -2 4 -5
v -1 0 -6
v -1 0 -7
v -1 4 -6
v -1 4 -7
v -1 9 -3
v -1 9 -5
v -1 11 -3
v -1 11 -5
v 0 4 -5
v 0 4 -6
v 0 4 -7
v 0 5 -5
v 0 5 -7
v 1 10 -2
v 1 10 -3
v 1 10 -5
v 1 11 -2
v 1 11 -5
v 2 0 -0
v 2 0 -1
v 2 5 -0
v 2 5 -1
v 2 5 -6
v 2 5 -7
v 2 6 -1
v 2 6 -2
v 2 6 -5
v 2 6 -6
v 2 6 -7
v 2 7 -1
v 2 7 -2
v 2 7 -5
v 2 7 -6
v 2 9 -7
v 2 9 -9
v 2 10 -6
v 2 10 -7
v 2 10 -8
v 2 10 -9
v 2 12 1
v 2 12 -0
v 2 12 -7
v 2 12 -8
v 2 14 -5
v 2 14 -6
v 2 14 -7
v 2 15 -5
v 2 15 -6
v 2 16 1
v 2 16 -0
v 3 4 -6
v 3 4 -7
v 3 5 -1
v 3 5 -3
v 3 5 -5
v 3 5 -6
v 3 5 -7
v 3 6 -1
v 3 6 -2
v 3 6 -3
v 3 6 -5
v 3 6 -6
v 3 7 -1
v 3 7 -2
v 3 7 -5
v 3 7 -6
v 3 7 -7
v 3 9 -1
v 3 9 -2
v 3 10 -5
v 3 10 -6
v 3 10 -7
v 3 14 -0
v 3 14 -1
v 3 14 -4
v 3 14 -5
v 3 14 -6
v 3 15 -1
v 3 15 -2
v 3 15 -4
v 3 15 -5
v 3 15 -6
v 3 15 -7
v 3 17 -0
v 3 17 -2
v 3 17 -6
v 3 17 -7
v 4 0 -1
v 4 0 -2
v 4 0 -5
v 4 0 -7
v 4 4 -6
v 4 4 -7
v 4 5 -1
v 4 5 -2
v 4 5 -3
v 4 5 -5
v 4 5 -6
v 4 6 -3
v 4 6 -5
v 4 7 -3
v 4 7 -6
v 4 9 -2
v 4 9 -3
v 4 10 -5
v 4 10 -6
v 4 11 -0
v 4 11 -1
v 4 13 -1
v 4 13 -2
v 4 14 -0
v 4 14 -1
v 4 14 -4
v 4 14 -5
v 4 15 -1
v 4 15 -2
v 4 15 -4
v 4 15 -6
v 4 17 -2
v 4 17 -6
v 5 0 -2
v 5 0 -3
v 5 5 -2
v 5 5 -3
v 5 7 -2
v 5 7 -3
v 5 9 -1
v 5 9 -2
v 5 9 -3
v 5 13 -1
v 5 13 -2
v 6 0 -3
v 6 0 -5
v 6 5 -3
v 6 5 -5
v 0 12 1
v 0 16 1
v 2 12 1
v 2 16 1
v -2 11 -0
v -2 14 -0
v -1 14 -0
v -1 17 -0
v 0 0 -0
v 0 5 -0
v 0 12 -0
v 0 16 -0
v 2 0 -0
v 2 5 -0
v 2 12 -0
v 2 16 -0
v 3 14 -0
v 3 17 -0
v 4 11 -0
v 4 14 -0
v -3 9 -1
v -3 13 -1
v -2 0 -1
v -2 5 -1
v -2 11 -1
v -2 13 -1
v -2 14 -1
v -2 15 -1
v -1 5 -1
v -1 6 -1
v -1 7 -1
v -1 9 -1
v -1 14 -1
v -1 15 -1
v 0 0 -1
v 0 5 -1
v 0 6 -1
v 0 7 -1
v 2 0 -1
v 2 5 -1
v 2 6 -1
v 2 7 -1
v 3 5 -1
v 3 6 -1
v 3 7 -1
v 3 9 -1
v 3 14 -1
v 3 15 -1
v 4 0 -1
v 4 5 -1
v 4 11 -1
v 4 13 -1
v 4 14 -1
v 4 15 -1
v 5 9 -1
v 5 13 -1
v -3 0 -2
v -3 5 -2
v -3 7 -2
v -3 9 -2
v -2 0 -2
v -2 5 -2
v -2 15 -2
v -2 17 -2
v -1 6 -2
v -1 7 -2
v -1 9 -2
v -1 15 -2
v -1 17 -2
v 0 6 -2
v 0 7 -2
v 2 6 -2
v 2 7 -2
v 3 6 -2
v 3 7 -2
v 3 9 -2
v 3 15 -2
v 3 17 -2
v 4 0 -2
v 4 5 -2
v 4 15 -2
v 4 17 -2
v 5 0 -2
v 5 5 -2
v 5 7 -2
v 5 9 -2
v -4 0 -3
v -4 5 -3
v -3 0 -3
v -3 5 -3
v -2 5 -3
v -2 6 -3
v -1 5 -3
v -1 6 -3
v 3 5 -3
v 3 6 -3
v 4 5 -3
v 4 6 -3
v 5 0 -3
v 5 5 -3
v 6 0 -3
v 6 5 -3
v -3 0 -4
v -3 4 -4
v -2 0 -4
v -2 4 -4
v 4 0 -4
v 4 4 -4
v 5 0 -4
v 5 4 -4
v -2 0 -5
v -2 4 -5
v -1 0 -5
v -1 4 -5
v -1 9 -5
v -1 11 -5
v 0 10 -5
v 0 11 -5
v 1 10 -5
v 1 11 -5
v 3 0 -5
v 3 4 -5
v 3 9 -5
v 3 11 -5
v 4 0 -5
v 4 4 -5
v -3 9 -2
v -3 13 -2
v -2 0 -2
v -2 4 -2
v -2 9 -2
v -2 13 -2
v 1 10 -2
v 1 11 -2
v 2 10 -2
v 2 11 -2
v 4 0 -2
v 4 4 -2
v 4 9 -2
v 4 13 -2
v 5 9 -2
v 5 13 -2
v -3 0 -3
v -3 4 -3
v -3 7 -3
v -3 9 -3
v -2 0 -3
v -2 4 -3
v -2 7 -3
v -2 9 -3
v -1 9 -3
v -1 11 -3
v 0 10 -3
v 0 11 -3
v 1 10 -3
v 2 10 -3
v 3 9 -3
v 3 10 -3
v 4 0 -3
v 4 4 -3
v 4 7 -3
v 4 9 -3
v 5 0 -3
v 5 4 -3
v 5 7 -3
v 5 9 -3
v -2 14 -4
v -2 15 -4
v -1 14 -4
v -1 15 -4
v 2 10 -4
v 2 11 -4
v 3 10 -4
v 3 11 -4
v 3 14 -4
v 3 15 -4
v 4 14 -4
v 4 15 -4
v -4 0 -5
v -4 5 -5
v -2 0 -5
v -2 5 -5
v -2 6 -5
v -2 10 -5
v -2 14 -5
v -1 5 -5
v -1 6 -5
v -1 7 -5
v -1 10 -5
v -1 14 -5
v -1 15 -5
v 0 4 -5
v 0 5 -5
v 0 6 -5
v 0 7 -5
v 0 14 -5
v 0 15 -5
v 2 4 -5
v 2 5 -5
v 2 6 -5
v 2 7 -5
v 2 14 -5
v 2 15 -5
v 3 5 -5
v 3 6 -5
v 3 7 -5
v 3 10 -5
v 3 14 -5
v 3 15 -5
v 4 0 -5
v 4 5 -5
v 4 6 -5
v 4 10 -5
v 4 14 -5
v 6 0 -5
v 6 5 -5
v -2 4 -6
v -2 5 -6
v -2 7 -6
v -2 10 -6
v -2 15 -6
v -2 17 -6
v -1 0 -6
v -1 4 -6
v -1 5 -6
v -1 6 -6
v -1 7 -6
v -1 10 -6
v -1 14 -6
v -1 15 -6
v -1 17 -6
v 0 4 -6
v 0 5 -6
v 0 6 -6
v 0 7 -6
v 0 10 -6
v 0 14 -6
v 0 15 -6
v 2 4 -6
v 2 5 -6
v 2 6 -6
v 2 7 -6
v 2 10 -6
v 2 14 -6
v 2 15 -6
v 3 0 -6
v 3 4 -6
v 3 5 -6
v 3 6 -6
v 3 7 -6
v 3 10 -6
v 3 14 -6
v 3 15 -6
v 3 17 -6
v 4 4 -6
v 4 5 -6
v 4 7 -6
v 4 10 -6
v 4 15 -6
v 4 17 -6
v -2 0 -7
v -2 4 -7
v -1 0 -7
v -1 4 -7
v -1 5 -7
v -1 7 -7
v -1 10 -7
v -1 15 -7
v -1 17 -7
v 0 4 -7
v 0 5 -7
v 0 6 -7
v 0 9 -7
v 0 10 -7
v 0 12 -7
v 0 14 -7
v 2 4 -7
v 2 5 -7
v 2 6 -7
v 2 9 -7
v 2 10 -7
v 2 12 -7
v 2 14 -7
v 3 0 -7
v 3 4 -7
v 3 5 -7
v 3 7 -7
v 3 10 -7
v 3 15 -7
v 3 17 -7
v 4 0 -7
v 4 4 -7
v 0 10 -8
v 0 12 -8
v 2 10 -8
v 2 12 -8
v 0 9 -9
v 0 10 -9
v 2 9 -9
v 2 10 -9
v 0 0 -0
v 2 0 -0
v -2 0 -1
v 0 0 -1
v 2 0 -1
v 4 0 -1
v -3 0 -2
v -2 0 -2
v 4 0 -2
v 5 0 -2
v -4 0 -3
v -3 0 -3
v -2 0 -3
v 4 0 -3
v 5 0 -3
v 6 0 -3
v -3 0 -4
v -2 0 -4
v 4 0 -4
v 5 0 -4
v -4 0 -5
v -2 0 -5
v -1 0 -5
v 3 0 -5
v 4 0 -5
v 6 0 -5
v -1 0 -6
v 3 0 -6
v -2 0 -7
v -1 0 -7
v 3 0 -7
v 4 0 -7
v -2 4 -2
v 4 4 -2
v -3 4 -3
v -2 4 -3
v 4 4 -3
v 5 4 -3
v -3 4 -4
v -2 4 -4
v 4 4 -4
v 5 4 -4
v -2 4 -5
v -1 4 -5
v 3 4 -5
v 4 4 -5
v -1 4 -6
v 0 4 -6
v 2 4 -6
v 3 4 -6
v -1 4 -7
v 0 4 -7
v 2 4 -7
v 3 4 -7
v 0 5 -5
v 2 5 -5
v 0 5 -7
v 2 5 -7
v -1 7 -1
v 0 7 -1
v 2 7 -1
v 3 7 -1
v -3 7 -2
v -1 7 -2
v 0 7 -2
v 2 7 -2
v 3 7 -2
v 5 7 -2
v -3 7 -3
v -2 7 -3
v 4 7 -3
v 5 7 -3
v -1 7 -5
v 0 7 -5
v 2 7 -5
v 3 7 -5
v -2 7 -6
v -1 7 -6
v 0 7 -6
v 2 7 -6
v 3 7 -6
v 4 7 -6
v -1 7 -7
v 3 7 -7
v -3 9 -1
v -1 9 -1
v 3 9 -1
v 5 9 -1
v -3 9 -2
v -1 9 -2
v 3 9 -2
v 5 9 -2
v 0 9 -7
v 2 9 -7
v 0 9 -9
v 2 9 -9
v 0 10 -3
v 1 10 -3
v 2 10 -3
v 3 10 -3
v 2 10 -4
v 3 10 -4
v 0 10 -5
v 1 10 -5
v -2 11 -0
v 4 11 -0
v -2 11 -1
v 4 11 -1
v 1 11 -2
v 2 11 -2
v -1 11 -3
v 0 11 -3
v 2 11 -4
v 3 11 -4
v -1 11 -5
v 0 11 -5
v 1 11 -5
v 3 11 -5
v 0 12 1
v 2 12 1
v 0 12 -0
v 2 12 -0
v -2 15 -4
v -1 15 -4
v 3 15 -4
v 4 15 -4
v -1 15 -5
v 0 15 -5
v 2 15 -5
v 3 15 -5
v -2 15 -6
v -1 15 -6
v 0 15 -6
v 2 15 -6
v 3 15 -6
v 4 15 -6
v -1 15 -7
v 3 15 -7
v 0 4 -5
v 2 4 -5
v -2 4 -6
v -1 4 -6
v 0 4 -6
v 2 4 -6
v 3 4 -6
v 4 4 -6
v -2 4 -7
v -1 4 -7
v 3 4 -7
v 4 4 -7
v 0 5 -0
v 2 5 -0
v -2 5 -1
v -1 5 -1
v 0 5 -1
v 2 5 -1
v 3 5 -1
v 4 5 -1
v -3 5 -2
v -2 5 -2
v 4 5 -2
v 5 5 -2
v -4 5 -3
v -3 5 -3
v -2 5 -3
v -1 5 -3
v 3 5 -3
v 4 5 -3
v 5 5 -3
v 6 5 -3
v -4 5 -5
v -2 5 -5
v -1 5 -5
v 3 5 -5
v 4 5 -5
v 6 5 -5
v -2 5 -6
v -1 5 -6
v 0 5 -6
v 2 5 -6
v 3 5 -6
v 4 5 -6
v -1 5 -7
v 0 5 -7
v 2 5 -7
v 3 5 -7
v -1 6 -1
v 0 6 -1
v 2 6 -1
v 3 6 -1
v -1 6 -2
v 0 6 -2
v 2 6 -2
v 3 6 -2
v -2 6 -3
v -1 6 -3
v 3 6 -3
v 4 6 -3
v -2 6 -5
v -1 6 -5
v 0 6 -5
v 2 6 -5
v 3 6 -5
v 4 6 -5
v -1 6 -6
v 0 6 -6
v 2 6 -6
v 3 6 -6
v 0 6 -7
v 2 6 -7
v -3 9 -2
v -2 9 -2
v 4 9 -2
v 5 9 -2
v -3 9 -3
v -2 9 -3
v -1 9 -3
v 3 9 -3
v 4 9 -3
v 5 9 -3
v -1 9 -5
v 3 9 -5
v 1 10 -2
v 2 10 -2
v 1 10 -3
v 2 10 -3
v -2 10 -5
v -1 10 -5
v 3 10 -5
v 4 10 -5
v -2 10 -6
v -1 10 -6
v 0 10 -6
v 2 10 -6
v 3 10 -6
v 4 10 -6
v -1 10 -7
v 0 10 -7
v 2 10 -7
v 3 10 -7
v 0 10 -8
v 2 10 -8
v 0 10 -9
v 2 10 -9
v 0 12 -7
v 2 12 -7
v 0 12 -8
v 2 12 -8
v -3 13 -1
v -2 13 -1
v 4 13 -1
v 5 13 -1
v -3 13 -2
v -2 13 -2
v 4 13 -2
v 5 13 -2
v -2 14 -0
v -1 14 -0
v 3 14 -0
v 4 14 -0
v -2 14 -1
v -1 14 -1
v 3 14 -1
v 4 14 -1
v -2 14 -4
v -1 14 -4
v 3 14 -4
v 4 14 -4
v -2 14 -5
v -1 14 -5
v 0 14 -5
v 2 14 -5
v 3 14 -5
v 4 14 -5
v -1 14 -6
v 0 14 -6
v 2 14 -6
v 3 14 -6
v 0 14 -7
v 2 14 -7
v -2 15 -1
v -1 15 -1
v 3 15 -1
v 4 15 -1
v -2 15 -2
v -1 15 -2
v 3 15 -2
v 4 15 -2
v 0 16 1
v 2 16 1
v 0 16 -0
v 2 16 -0
v -1 17 -0
v 3 17 -0
v -2 17 -2
v -1 17 -2
v 3 17 -2
v 4 17 -2
v -2 17 -6
v -1 17 -6
v 3 17 -6
v 4 17 -6
v -1 17 -7
v 3 17 -7

# faces
f 3/2/1 2/2/1 1/2/1
f 4/2/1 2/2/1 3/2/1
f 7/2/1 6/2/1 5/2/1
f 8/2/1 6/2/1 7/2/1
f 12/2/1 10/2/1 9/2/1
f 13/2/1 10/2/1 12/2/1
f 14/2/1 12/2/1 11/2/1
f 15/2/1 12/2/1 14/2/1
f 20/2/1 19/2/1 18/2/1
f 21/2/1 19/2/1 20/2/1
f 22/2/1 17/2/1 16/2/1
f 23/2/1 17/2/1 22/2/1
f 25/2/1 20/2/1 18/2/1
f 26/2/1 20/2/1 25/2/1
f 27/2/1 25/2/1 24/2/1
f 28/2/1 25/2/1 27/2/1
f 32/2/1 30/2/1 29/2/1
f 33/2/1 30/2/1 32/2/1
f 33/2/1 32/2/1 31/2/1
f 34/2/1 30/2/1 33/2/1
f 37/2/1 36/2/1 35/2/1
f 38/2/1 33/2/1 31/2/1
f 39/2/1 37/2/1 35/2/1
f 39/2/1 38/2/1 37/2/1
f 40/2/1 38/2/1 39/2/1
f 41/2/1 33/2/1 38/2/1
f 41/2/1 38/2/1 40/2/1
f 42/2/1 33/2/1 41/2/1
f 43/2/1 41/2/1 40/2/1
f 44/2/1 41/2/1 43/2/1
f 45/2/1 41/2/1 44/2/1
f 47/2/1 45/2/1 44/2/1
f 47/2/1 46/2/1 45/2/1
f 48/2/1 46/2/1 47/2/1
f 54/2/1 50/2/1 49/2/1
f 55/2/1 50/2/1 54/2/1
f 56/2/1 52/2/1 51/2/1
f 57/2/1 52/2/1 56/2/1
f 58/2/1 52/2/1 57/2/1
f 59/2/1 54/2/1 53/2/1
f 60/2/1 54/2/1 59/2/1
f 62/2/1 58/2/1 57/2/1
f 62/2/1 59/2/1 58/2/1
f 63/2/1 59/2/1 62/2/1
f 66/2/1 62/2/1 61/2/1
f 67/2/1 62/2/1 66/2/1
f 69/2/1 65/2/1 64/2/1
f 70/2/1 65/2/1 69/2/1
f 74/2/1 69/2/1 68/2/1
f 75/2/1 69/2/1 74/2/1
f 76/2/1 72/2/1 71/2/1
f 78/2/1 74/2/1 73/2/1
f 79/2/1 74/2/1 78/2/1
f 82/2/1 77/2/1 76/2/1
f 82/2/1 76/2/1 71/2/1
f 83/2/1 77/2/1 82/2/1
f 84/2/1 81/2/1 80/2/1
f 85/2/1 81/2/1 84/2/1
f 88/2/1 87/2/1 86/2/1
f 89/2/1 87/2/1 88/2/1
f 95/2/1 91/2/1 90/2/1
f 96/2/1 91/2/1 95/2/1
f 97/2/1 93/2/1 92/2/1
f 98/2/1 93/2/1 97/2/1
f 99/2/1 95/2/1 94/2/1
f 100/2/1 95/2/1 99/2/1
f 106/2/1 102/2/1 101/2/1
f 107/2/1 102/2/1 106/2/1
f 108/2/1 102/2/1 107/2/1
f 109/2/1 104/2/1 103/2/1
f 110/2/1 104/2/1 109/2/1
f 113/2/1 106/2/1 105/2/1
f 113/2/1 107/2/1 106/2/1
f 114/2/1 107/2/1 113/2/1
f 116/2/1 113/2/1 105/2/1
f 117/2/1 113/2/1 116/2/1
f 118/2/1 116/2/1 115/2/1
f 119/2/1 116/2/1 118/2/1
f 120/2/1 112/2/1 111/2/1
f 121/2/1 112/2/1 120/2/1
f 125/2/1 123/2/1 122/2/1
f 125/2/1 124/2/1 123/2/1
f 126/2/1 124/2/1 125/2/1
f 130/2/1 128/2/1 127/2/1
f 130/2/1 129/2/1 128/2/1
f 131/2/1 129/2/1 130/2/1
f 134/2/1 133/2/1 132/2/1
f 135/2/1 133/2/1 134/2/1
f 138/2/1 137/2/1 136/2/1
f 139/2/1 137/2/1 138/2/1
f 140/2/1 137/2/1 139/2/1
f 141/2/1 137/2/1 140/2/1
f 146/2/1 143/2/1 142/2/1
f 147/2/1 143/2/1 146/2/1
f 148/2/1 145/2/1 144/2/1
f 149/2/1 145/2/1 148/2/1
f 152/2/1 151/2/1 150/2/1
f 153/2/1 151/2/1 152/2/1
f 154/2/2 155/2/2 156/2/2
f 156/2/2 155/2/2 157/2/2
f 158/2/2 159/2/2 162/2/2
f 162/2/2 159/2/2 163/2/2
f 160/2/2 161/2/2 164/2/2
f 164/2/2 161/2/2 165/2/2
f 166/2/2 167/2/2 168/2/2
f 168/2/2 167/2/2 169/2/2
f 170/2/2 171/2/2 172/2/2
f 172/2/2 171/2/2 173/2/2
f 174/2/2 175/2/2 177/2/2
f 175/2/2 176/2/2 177/2/2
f 177/2/2 176/2/2 178/2/2
f 179/2/2 180/2/2 182/2/2
f 180/2/2 181/2/2 182/2/2
f 182/2/2 181/2/2 183/2/2
f 184/2/2 185/2/2 186/2/2
f 186/2/2 185/2/2 187/2/2
f 188/2/2 189/2/2 193/2/2
f 193/2/2 189/2/2 194/2/2
f 190/2/2 191/2/2 195/2/2
f 195/2/2 191/2/2 196/2/2
f 192/2/2 193/2/2 197/2/2
f 197/2/2 193/2/2 198/2/2
f 199/2/2 200/2/2 202/2/2
f 202/2/2 200/2/2 203/2/2
f 203/2/2 200/2/2 204/2/2
f 201/2/2 202/2/2 207/2/2
f 202/2/2 203/2/2 207/2/2
f 207/2/2 203/2/2 208/2/2
f 201/2/2 207/2/2 210/2/2
f 210/2/2 207/2/2 211/2/2
f 209/2/2 210/2/2 212/2/2
f 212/2/2 210/2/2 213/2/2
f 205/2/2 206/2/2 214/2/2
f 214/2/2 206/2/2 215/2/2
f 216/2/2 217/2/2 221/2/2
f 221/2/2 217/2/2 222/2/2
f 218/2/2 219/2/2 223/2/2
f 223/2/2 219/2/2 224/2/2
f 224/2/2 219/2/2 225/2/2
f 220/2/2 221/2/2 226/2/2
f 226/2/2 221/2/2 227/2/2
f 224/2/2 225/2/2 229/2/2
f 225/2/2 226/2/2 229/2/2
f 229/2/2 226/2/2 230/2/2
f 228/2/2 229/2/2 233/2/2
f 233/2/2 229/2/2 234/2/2
f 231/2/2 232/2/2 236/2/2
f 236/2/2 232/2/2 237/2/2
f 235/2/2 236/2/2 241/2/2
f 241/2/2 236/2/2 242/2/2
f 238/2/2 239/2/2 243/2/2
f 240/2/2 241/2/2 245/2/2
f 245/2/2 241/2/2 246/2/2
f 243/2/2 244/2/2 249/2/2
f 238/2/2 243/2/2 249/2/2
f 249/2/2 244/2/2 250/2/2
f 247/2/2 248/2/2 251/2/2
f 251/2/2 248/2/2 252/2/2
f 255/2/2 256/2/2 257/2/2
f 257/2/2 256/2/2 258/2/2
f 253/2/2 254/2/2 259/2/2
f 259/2/2 254/2/2 260/2/2
f 255/2/2 257/2/2 262/2/2
f 262/2/2 257/2/2 263/2/2
f 261/2/2 262/2/2 264/2/2
f 264/2/2 262/2/2 265/2/2
f 266/2/2 267/2/2 269/2/2
f 269/2/2 267/2/2 270/2/2
f 268/2/2 269/2/2 270/2/2
f 270/2/2 267/2/2 271/2/2
f 272/2/2 273/2/2 274/2/2
f 268/2/2 270/2/2 275/2/2
f 272/2/2 274/2/2 276/2/2
f 274/2/2 275/2/2 276/2/2
f 276/2/2 275/2/2 277/2/2
f 275/2/2 270/2/2 278/2/2
f 277/2/2 275/2/2 278/2/2
f 278/2/2 270/2/2 279/2/2
f 277/2/2 278/2/2 280/2/2
f 280/2/2 278/2/2 281/2/2
f 281/2/2 278/2/2 282/2/2
f 281/2/2 282/2/2 284/2/2
f 282/2/2 283/2/2 284/2/2
f 284/2/2 283/2/2 285/2/2
f 286/2/2 287/2/2 288/2/2
f 288/2/2 287/2/2 289/2/2
f 290/2/2 291/2/2 293/2/2
f 293/2/2 291/2/2 294/2/2
f 292/2/2 293/2/2 295/2/2
f 295/2/2 293/2/2 296/2/2
f 297/2/2 298/2/2 299/2/2
f 299/2/2 298/2/2 300/2/2
f 303/2/3 302/2/3 301/2/3
f 304/2/3 302/2/3 303/2/3
f 307/2/3 306/2/3 305/2/3
f 311/2/3 307/2/3 305/2/3
f 311/2/3 308/2/3 307/2/3
f 312/2/3 308/2/3 311/2/3
f 313/2/3 310/2/3 309/2/3
f 314/2/3 310/2/3 313/2/3
f 315/2/3 311/2/3 305/2/3
f 316/2/3 308/2/3 312/2/3
f 317/2/3 316/2/3 315/2/3
f 318/2/3 308/2/3 316/2/3
f 318/2/3 316/2/3 317/2/3
f 319/2/3 315/2/3 305/2/3
f 319/2/3 317/2/3 315/2/3
f 320/2/3 317/2/3 319/2/3
f 325/2/3 322/2/3 321/2/3
f 326/2/3 322/2/3 325/2/3
f 329/2/3 324/2/3 323/2/3
f 332/2/3 325/2/3 321/2/3
f 333/2/3 328/2/3 327/2/3
f 334/2/3 328/2/3 333/2/3
f 335/2/3 330/2/3 329/2/3
f 335/2/3 329/2/3 323/2/3
f 336/2/3 330/2/3 335/2/3
f 337/2/3 330/2/3 336/2/3
f 338/2/3 332/2/3 331/2/3
f 340/2/3 337/2/3 336/2/3
f 340/2/3 338/2/3 337/2/3
f 341/2/3 338/2/3 340/2/3
f 342/2/3 332/2/3 338/2/3
f 342/2/3 338/2/3 341/2/3
f 343/2/3 341/2/3 340/2/3
f 343/2/3 340/2/3 339/2/3
f 344/2/3 341/2/3 343/2/3
f 345/2/3 332/2/3 342/2/3
f 346/2/3 325/2/3 332/2/3
f 346/2/3 332/2/3 345/2/3
f 349/2/3 343/2/3 339/2/3
f 350/2/3 343/2/3 349/2/3
f 351/2/3 325/2/3 346/2/3
f 353/2/3 348/2/3 347/2/3
f 354/2/3 348/2/3 353/2/3
f 355/2/3 352/2/3 351/2/3
f 355/2/3 351/2/3 346/2/3
f 356/2/3 352/2/3 355/2/3
f 361/2/3 358/2/3 357/2/3
f 362/2/3 358/2/3 361/2/3
f 366/2/3 360/2/3 359/2/3
f 367/2/3 360/2/3 366/2/3
f 368/2/3 364/2/3 363/2/3
f 369/2/3 364/2/3 368/2/3
f 370/2/3 366/2/3 365/2/3
f 371/2/3 366/2/3 370/2/3
f 374/2/3 373/2/3 372/2/3
f 375/2/3 373/2/3 374/2/3
f 381/2/3 378/2/3 377/2/3
f 382/2/3 378/2/3 381/2/3
f 383/2/3 380/2/3 379/2/3
f 384/2/3 380/2/3 383/2/3
f 385/2/3 376/2/3 375/2/3
f 386/2/3 376/2/3 385/2/3
f 389/2/3 388/2/3 387/2/3
f 390/2/3 388/2/3 389/2/3
f 393/2/3 392/2/3 391/2/3
f 394/2/3 392/2/3 393/2/3
f 397/2/3 396/2/3 395/2/3
f 398/2/3 396/2/3 397/2/3
f 401/2/3 400/2/3 399/2/3
f 402/2/3 400/2/3 401/2/3
f 405/2/3 404/2/3 403/2/3
f 406/2/3 404/2/3 405/2/3
f 409/2/3 408/2/3 407/2/3
f 410/2/3 408/2/3 409/2/3
f 413/2/3 412/2/3 411/2/3
f 414/2/3 412/2/3 413/2/3
f 417/2/3 416/2/3 415/2/3
f 418/2/3 416/2/3 417/2/3
f 419/2/3 417/2/3 415/2/3
f 421/1/3 414/1/3 413/1/3
f 422/1/3 414/1/3 421/1/3
f 423/2/3 420/2/3 419/2/3
f 423/2/3 419/2/3 415/2/3
f 424/2/3 420/2/3 423/2/3
f 425/2/3 422/2/3 421/2/3
f 426/2/3 422/2/3 425/2/3
f 427/2/4 428/2/4 431/2/4
f 431/2/4 428/2/4 432/2/4
f 433/2/4 434/2/4 435/2/4
f 435/2/4 434/2/4 436/2/4
f 429/2/4 430/2/4 437/2/4
f 437/2/4 430/2/4 438/2/4
f 439/2/4 440/2/4 441/2/4
f 441/2/4 440/2/4 442/2/4
f 443/2/4 444/2/4 447/2/4
f 447/2/4 444/2/4 448/2/4
f 445/2/4 446/2/4 449/2/4
f 449/2/4 446/2/4 450/2/4
f 451/2/4 452/2/4 453/2/4
f 453/2/4 452/2/4 454/2/4
f 451/2/4 453/2/4 455/2/4
f 451/2/4 455/2/4 456/2/4
f 451/2/4 456/2/4 457/2/4
f 457/2/4 456/2/4 458/2/4
f 459/2/4 460/2/4 463/2/4
f 463/2/4 460/2/4 464/2/4
f 461/2/4 462/2/4 465/2/4
f 465/2/4 462/2/4 466/2/4
f 467/2/4 468/2/4 469/2/4
f 469/2/4 468/2/4 470/2/4
f 471/2/4 472/2/4 473/2/4
f 473/2/4 472/2/4 474/2/4
f 475/2/4 476/2/4 477/2/4
f 477/2/4 476/2/4 478/2/4
f 479/2/4 480/2/4 481/2/4
f 481/2/4 480/2/4 482/2/4
f 482/2/4 483/2/4 486/2/4
f 486/2/4 483/2/4 487/2/4
f 484/2/4 485/2/4 489/2/4
f 489/2/4 485/2/4 490/2/4
f 487/2/4 488/2/4 494/2/4
f 494/2/4 488/2/4 495/2/4
f 490/2/4 491/2/4 496/2/4
f 496/2/4 491/2/4 497/2/4
f 492/2/4 493/2/4 498/2/4
f 498/2/4 493/2/4 499/2/4
f 500/2/4 501/2/4 505/2/4
f 505/2/4 501/2/4 506/2/4
f 502/2/4 503/2/4 508/2/4
f 508/2/4 503/2/4 509/2/4
f 504/2/4 505/2/4 511/2/4
f 511/2/4 505/2/4 512/2/4
f 507/2/4 508/2/4 513/2/4
f 513/2/4 508/2/4 514/2/4
f 510/2/4 511/2/4 515/2/4
f 515/2/4 511/2/4 516/2/4
f 517/2/4 518/2/4 524/2/4
f 524/2/4 518/2/4 525/2/4
f 519/2/4 520/2/4 527/2/4
f 527/2/4 520/2/4 528/2/4
f 521/2/4 522/2/4 530/2/4
f 530/2/4 522/2/4 531/2/4
f 523/1/4 524/1/4 532/1/4
f 525/2/4 526/2/4 533/2/4
f 533/2/4 526/2/4 534/2/4
f 528/2/4 529/2/4 536/2/4
f 536/2/4 529/2/4 537/2/4
f 523/1/4 532/1/4 539/1/4
f 534/2/4 535/2/4 541/2/4
f 541/2/4 535/2/4 542/2/4
f 537/2/4 538/2/4 544/2/4
f 544/2/4 538/2/4 545/2/4
f 523/1/4 539/1/4 546/1/4
f 546/1/4 539/1/4 547/1/4
f 540/2/4 541/2/4 548/2/4
f 548/2/4 541/2/4 549/2/4
f 543/2/4 544/2/4 551/2/4
f 551/2/4 544/2/4 552/2/4
f 547/2/4 548/2/4 555/2/4
f 555/2/4 548/2/4 556/2/4
f 550/2/4 551/2/4 557/2/4
f 557/2/4 551/2/4 558/2/4
f 553/2/4 554/2/4 559/2/4
f 559/2/4 554/2/4 560/2/4
f 561/2/4 562/2/4 563/2/4
f 563/2/4 562/2/4 564/2/4
f 564/2/4 565/2/4 570/2/4
f 570/2/4 565/2/4 571/2/4
f 566/2/4 567/2/4 573/2/4
f 573/2/4 567/2/4 574/2/4
f 571/2/4 572/2/4 578/2/4
f 578/2/4 572/2/4 579/2/4
f 566/2/4 573/2/4 580/2/4
f 575/2/4 576/2/4 582/2/4
f 582/2/4 576/2/4 583/2/4
f 577/2/4 578/2/4 585/2/4
f 585/2/4 578/2/4 586/2/4
f 580/2/4 581/2/4 587/2/4
f 566/2/4 580/2/4 587/2/4
f 587/2/4 581/2/4 588/2/4
f 568/2/4 569/2/4 589/2/4
f 589/2/4 569/2/4 590/2/4
f 584/2/4 585/2/4 591/2/4
f 591/2/4 585/2/4 592/2/4
f 593/2/4 594/2/4 595/2/4
f 595/2/4 594/2/4 596/2/4
f 597/2/4 598/2/4 599/2/4
f 599/2/4 598/2/4 600/2/4
f 604/2/5 602/2/5 601/2/5
f 605/2/5 602/2/5 604/2/5
f 608/2/5 604/2/5 603/2/5
f 608/2/5 606/2/5 605/2/5
f 608/2/5 605/2/5 604/2/5
f 609/2/5 606/2/5 608/2/5
f 612/2/5 608/2/5 607/2/5
f 613/2/5 608/2/5 612/2/5
f 614/2/5 610/2/5 609/2/5
f 615/2/5 610/2/5 614/2/5
f 617/2/5 612/2/5 611/2/5
f 620/2/5 616/2/5 615/2/5
f 621/2/5 618/2/5 617/2/5
f 621/2/5 617/2/5 611/2/5
f 622/2/5 618/2/5 621/2/5
f 625/2/5 620/2/5 619/2/5
f 626/2/5 616/2/5 620/2/5
f 626/2/5 620/2/5 625/2/5
f 627/1/5 624/1/5 623/1/5
f 627/2/5 623/2/5 622/2/5
f 628/2/5 625/2/5 624/2/5
f 628/1/5 624/1/5 627/1/5
f 629/2/5 627/2/5 622/2/5
f 630/2/5 627/2/5 629/2/5
f 631/2/5 625/2/5 628/2/5
f 632/2/5 625/2/5 631/2/5
f 636/2/5 634/2/5 633/2/5
f 637/2/5 634/2/5 636/2/5
f 639/2/5 636/2/5 635/2/5
f 639/2/5 638/2/5 637/2/5
f 639/2/5 637/2/5 636/2/5
f 640/2/5 638/2/5 639/2/5
f 641/2/5 638/2/5 640/2/5
f 642/2/5 638/2/5 641/2/5
f 643/2/5 641/2/5 640/2/5
f 644/2/5 641/2/5 643/2/5
f 645/2/5 641/2/5 644/2/5
f 646/2/5 641/2/5 645/2/5
f 651/2/5 648/2/5 647/2/5
f 652/2/5 648/2/5 651/2/5
f 653/2/5 650/2/5 649/2/5
f 654/2/5 650/2/5 653/2/5
f 657/2/5 656/2/5 655/2/5
f 658/2/5 656/2/5 657/2/5
f 664/2/5 660/2/5 659/2/5
f 665/2/5 660/2/5 664/2/5
f 666/2/5 662/2/5 661/2/5
f 667/2/5 662/2/5 666/2/5
f 669/2/5 664/2/5 663/2/5
f 670/2/5 664/2/5 669/2/5
f 671/2/5 668/2/5 667/2/5
f 672/2/5 668/2/5 671/2/5
f 673/2/5 664/2/5 670/2/5
f 676/2/5 671/2/5 667/2/5
f 677/2/5 674/2/5 673/2/5
f 677/2/5 673/2/5 670/2/5
f 678/2/5 674/2/5 677/2/5
f 679/2/5 674/2/5 678/2/5
f 680/2/5 676/2/5 675/2/5
f 681/2/5 671/2/5 676/2/5
f 681/2/5 676/2/5 680/2/5
f 682/2/5 671/2/5 681/2/5
f 683/2/5 679/2/5 678/2/5
f 683/2/5 680/2/5 679/2/5
f 683/2/5 681/2/5 680/2/5
f 684/2/5 681/2/5 683/2/5
f 689/2/5 686/2/5 685/2/5
f 690/2/5 686/2/5 689/2/5
f 691/2/5 688/2/5 687/2/5
f 692/2/5 688/2/5 691/2/5
f 695/2/5 694/2/5 693/2/5
f 696/2/5 694/2/5 695/2/5
f 701/2/5 700/2/5 699/2/5
f 702/2/5 700/2/5 701/2/5
f 703/2/5 698/2/5 697/2/5
f 704/2/5 698/2/5 703/2/5
f 707/2/5 706/2/5 705/2/5
f 708/2/5 706/2/5 707/2/5
f 713/2/5 710/2/5 709/2/5
f 715/2/5 712/2/5 711/2/5
f 716/2/5 712/2/5 715/2/5
f 717/2/5 714/2/5 713/2/5
f 717/2/5 713/2/5 709/2/5
f 718/2/5 714/2/5 717/2/5
f 721/2/5 720/2/5 719/2/5
f 722/2/5 720/2/5 721/2/5
f 727/2/5 724/2/5 723/2/5
f 730/2/5 726/2/5 725/2/5
f 731/2/5 728/2/5 727/2/5
f 731/2/5 727/2/5 723/2/5
f 732/2/5 728/2/5 731/2/5
f 733/2/5 728/2/5 732/2/5
f 734/2/5 730/2/5 729/2/5
f 735/2/5 726/2/5 730/2/5
f 735/2/5 730/2/5 734/2/5
f 736/2/5 726/2/5 735/2/5
f 737/2/5 733/2/5 732/2/5
f 737/2/5 734/2/5 733/2/5
f 737/2/5 735/2/5 734/2/5
f 738/2/5 735/2/5 737/2/5
f 739/1/6 740/1/6 743/1/6
f 743/1/6 740/1/6 744/1/6
f 741/2/6 742/2/6 747/2/6
f 747/2/6 742/2/6 748/2/6
f 745/2/6 746/2/6 749/2/6
f 749/2/6 746/2/6 750/2/6
f 751/2/6 752/2/6 755/2/6
f 755/2/6 752/2/6 756/2/6
f 753/2/6 754/2/6 760/2/6
f 757/2/6 758/2/6 761/2/6
f 759/2/6 760/2/6 764/2/6
f 760/2/6 754/2/6 765/2/6
f 764/2/6 760/2/6 765/2/6
f 765/2/6 754/2/6 766/2/6
f 761/2/6 762/2/6 767/2/6
f 757/2/6 761/2/6 767/2/6
f 767/2/6 762/2/6 768/2/6
f 768/2/6 762/2/6 769/2/6
f 763/2/6 764/2/6 771/2/6
f 764/2/6 765/2/6 771/2/6
f 771/2/6 765/2/6 772/2/6
f 769/2/6 770/2/6 775/2/6
f 768/2/6 769/2/6 775/2/6
f 775/2/6 770/2/6 776/2/6
f 772/2/6 773/2/6 777/2/6
f 777/2/6 773/2/6 778/2/6
f 774/2/6 775/2/6 781/2/6
f 781/2/6 775/2/6 782/2/6
f 778/2/6 779/2/6 783/2/6
f 783/2/6 779/2/6 784/2/6
f 780/2/6 781/2/6 785/2/6
f 785/2/6 781/2/6 786/2/6
f 787/2/6 788/2/6 791/2/6
f 791/2/6 788/2/6 792/2/6
f 789/2/6 790/2/6 793/2/6
f 793/2/6 790/2/6 794/2/6
f 795/2/6 796/2/6 799/2/6
f 799/2/6 796/2/6 800/2/6
f 797/2/6 798/2/6 803/2/6
f 803/2/6 798/2/6 804/2/6
f 800/2/6 801/2/6 805/2/6
f 805/2/6 801/2/6 806/2/6
f 802/2/6 803/2/6 807/2/6
f 807/2/6 803/2/6 808/2/6
f 806/2/6 807/2/6 809/2/6
f 809/2/6 807/2/6 810/2/6
f 811/2/6 812/2/6 815/2/6
f 815/2/6 812/2/6 816/2/6
f 813/2/6 814/2/6 819/2/6
f 819/2/6 814/2/6 820/2/6
f 817/2/6 818/2/6 821/2/6
f 821/2/6 818/2/6 822/2/6
f 823/2/6 824/2/6 825/2/6
f 825/2/6 824/2/6 826/2/6
f 827/2/6 828/2/6 831/2/6
f 831/2/6 828/2/6 832/2/6
f 829/2/6 830/2/6 835/2/6
f 835/2/6 830/2/6 836/2/6
f 832/2/6 833/2/6 837/2/6
f 837/2/6 833/2/6 838/2/6
f 834/2/6 835/2/6 839/2/6
f 839/2/6 835/2/6 840/2/6
f 841/2/6 842/2/6 843/2/6
f 843/2/6 842/2/6 844/2/6
f 845/2/6 846/2/6 847/2/6
f 847/2/6 846/2/6 848/2/6
f 849/2/6 850/2/6 853/2/6
f 853/2/6 850/2/6 854/2/6
f 851/2/6 852/2/6 855/2/6
f 855/2/6 852/2/6 856/2/6
f 857/2/6 858/2/6 861/2/6
f 861/2/6 858/2/6 862/2/6
f 859/2/6 860/2/6 863/2/6
f 863/2/6 860/2/6 864/2/6
f 865/2/6 866/2/6 869/2/6
f 869/2/6 866/2/6 870/2/6
f 867/2/6 868/2/6 873/2/6
f 873/2/6 868/2/6 874/2/6
f 870/2/6 871/2/6 875/2/6
f 875/2/6 871/2/6 876/2/6
f 872/2/6 873/2/6 877/2/6
f 877/2/6 873/2/6 878/2/6
f 876/2/6 877/2/6 879/2/6
f 879/2/6 877/2/6 880/2/6
f 881/2/6 882/2/6 885/2/6
f 885/2/6 882/2/6 886/2/6
f 883/2/6 884/2/6 887/2/6
f 887/2/6 884/2/6 888/2/6
f 889/2/6 890/2/6 891/2/6
f 891/2/6 890/2/6 892/2/6
f 893/2/6 894/2/6 896/2/6
f 896/2/6 894/2/6 897/2/6
f 895/2/6 896/2/6 899/2/6
f 897/2/6 898/2/6 899/2/6
f 896/2/6 897/2/6 899/2/6
f 899/2/6 898/2/6 900/2/6
f 900/2/6 898/2/6 901/2/6
f 901/2/6 898/2/6 902/2/6
f 900/2/6 901/2/6 903/2/6
f 903/2/6 901/2/6 904/2/6
