# MagicaVoxel @ Ephtracy

# material
mtllib Farmer's house.mtl
usemtl palette

# normals
vn -1 0 0
vn 1 0 0
vn 0 0 1
vn 0 0 -1
vn 0 -1 0
vn 0 1 0

# texcoords
vt 0.0605469 0.5
vt 0.798828 0.5
vt 0.802734 0.5
vt 0.806641 0.5
vt 0.837891 0.5
vt 0.947266 0.5
vt 0.951172 0.5
vt 0.955078 0.5
vt 0.958984 0.5

# verts
v -4 6 17
v -4 6 16
v -4 6 13
v -4 6 12
v -4 7 17
v -4 7 16
v -4 7 15
v -4 7 14
v -4 7 13
v -4 7 12
v -4 8 16
v -4 8 15
v -4 8 14
v -4 8 13
v -4 9 15
v -4 9 14
v -3 7 19
v -3 7 17
v -3 7 16
v -3 7 13
v -3 7 12
v -3 7 10
v -3 8 19
v -3 8 16
v -3 8 13
v -3 8 10
v -2 0 18
v -2 0 17
v -2 0 16
v -2 0 13
v -2 0 12
v -2 0 11
v -2 1 18
v -2 1 17
v -2 1 12
v -2 1 11
v -2 3 18
v -2 3 17
v -2 4 18
v -2 4 17
v -2 4 13
v -2 4 11
v -2 5 18
v -2 5 16
v -2 5 13
v -2 5 11
v -2 6 18
v -2 6 17
v -2 6 16
v -2 6 13
v -2 6 12
v -2 7 18
v -2 7 17
v -2 7 16
v -2 7 15
v -2 7 14
v -2 7 13
v -2 7 12
v -2 7 11
v -2 8 19
v -2 8 16
v -2 8 15
v -2 8 14
v -2 8 13
v -2 8 10
v -2 9 19
v -2 9 16
v -2 9 15
v -2 9 14
v -2 9 13
v -2 9 10
v -1 0 16
v -1 0 13
v -1 4 13
v -1 5 16
v -1 5 13
v -1 6 16
v -1 6 13
v -1 9 19
v -1 9 16
v -1 9 13
v -1 9 10
v -1 10 19
v -1 10 16
v -1 10 13
v -1 10 10
v 0 10 19
v 0 10 16
v 0 10 13
v 0 10 10
v 0 11 19
v 0 11 16
v 0 11 13
v 0 11 10
v 1 9 19
v 1 9 18
v 1 9 11
v 1 9 10
v 1 10 19
v 1 10 18
v 1 10 11
v 1 10 10
v 2 0 17
v 2 0 13
v 2 0 12
v 2 1 17
v 2 1 13
v 2 1 12
v 2 2 17
v 2 2 14
v 2 2 12
v 2 3 17
v 2 3 15
v 2 3 14
v 2 3 13
v 2 3 12
v 2 4 15
v 2 4 13
v 2 4 12
v 2 5 17
v 2 5 16
v 2 5 12
v 2 6 17
v 2 6 16
v 2 6 14
v 2 6 12
v 2 7 17
v 2 7 16
v 2 7 14
v 2 7 12
v 2 8 19
v 2 8 18
v 2 8 17
v 2 8 12
v 2 8 11
v 2 8 10
v 2 9 19
v 2 9 18
v 2 9 11
v 2 9 10
v 3 7 19
v 3 7 18
v 3 7 11
v 3 7 10
v 3 8 19
v 3 8 18
v 3 8 11
v 3 8 10
v -2 7 19
v -2 7 18
v -2 7 11
v -2 7 10
v -2 8 19
v -2 8 18
v -2 8 11
v -2 8 10
v -1 0 17
v -1 0 16
v -1 0 13
v -1 0 12
v -1 1 17
v -1 1 12
v -1 3 17
v -1 4 17
v -1 4 13
v -1 4 12
v -1 5 17
v -1 5 16
v -1 5 13
v -1 5 12
v -1 6 17
v -1 6 16
v -1 6 13
v -1 6 12
v -1 7 17
v -1 7 15
v -1 7 14
v -1 7 13
v -1 7 12
v -1 8 19
v -1 8 18
v -1 8 17
v -1 8 15
v -1 8 14
v -1 8 13
v -1 8 12
v -1 8 11
v -1 8 10
v -1 9 19
v -1 9 18
v -1 9 11
v -1 9 10
v 0 0 16
v 0 0 13
v 0 6 16
v 0 6 13
v 0 9 19
v 0 9 18
v 0 9 11
v 0 9 10
v 0 10 19
v 0 10 18
v 0 10 11
v 0 10 10
v 1 10 19
v 1 10 16
v 1 10 13
v 1 10 10
v 1 11 19
v 1 11 16
v 1 11 13
v 1 11 10
v 2 9 19
v 2 9 16
v 2 9 13
v 2 9 10
v 2 10 19
v 2 10 16
v 2 10 13
v 2 10 10
v 3 0 18
v 3 0 13
v 3 0 11
v 3 1 18
v 3 1 17
v 3 1 13
v 3 1 11
v 3 2 18
v 3 2 17
v 3 2 14
v 3 2 12
v 3 3 18
v 3 3 17
v 3 3 15
v 3 3 14
v 3 3 13
v 3 3 12
v 3 4 15
v 3 4 13
v 3 5 18
v 3 5 16
v 3 5 12
v 3 5 11
v 3 6 18
v 3 6 16
v 3 6 14
v 3 6 12
v 3 6 11
v 3 7 18
v 3 7 16
v 3 7 14
v 3 7 13
v 3 7 11
v 3 8 19
v 3 8 16
v 3 8 13
v 3 8 10
v 3 9 19
v 3 9 16
v 3 9 13
v 3 9 10
v 4 7 19
v 4 7 16
v 4 7 13
v 4 7 10
v 4 8 19
v 4 8 16
v 4 8 13
v 4 8 10
v -3 7 19
v -3 8 19
v -2 7 19
v -2 8 19
v -2 9 19
v -1 8 19
v -1 9 19
v -1 10 19
v 0 9 19
v 0 10 19
v 0 11 19
v 1 9 19
v 1 10 19
v 1 11 19
v 2 8 19
v 2 9 19
v 2 10 19
v 3 7 19
v 3 8 19
v 3 9 19
v 4 7 19
v 4 8 19
v -2 0 18
v -2 1 18
v -2 3 18
v -2 4 18
v -2 5 18
v -2 6 18
v -2 7 18
v -2 8 18
v -1 5 18
v -1 6 18
v -1 7 18
v -1 8 18
v -1 9 18
v 0 0 18
v 0 1 18
v 0 3 18
v 0 4 18
v 0 7 18
v 0 8 18
v 0 9 18
v 0 10 18
v 1 1 18
v 1 2 18
v 1 3 18
v 1 6 18
v 1 7 18
v 1 9 18
v 1 10 18
v 2 5 18
v 2 6 18
v 2 8 18
v 2 9 18
v 3 0 18
v 3 1 18
v 3 2 18
v 3 3 18
v 3 5 18
v 3 6 18
v 3 7 18
v 3 8 18
v -4 6 17
v -4 7 17
v -3 6 17
v -3 7 17
v -2 6 17
v -2 7 17
v -4 7 16
v -4 8 16
v -3 7 16
v -3 8 16
v -1 0 16
v -1 5 16
v -1 6 16
v 0 0 16
v 0 6 16
v -4 8 15
v -4 9 15
v -3 8 15
v -2 8 15
v -2 9 15
v -4 7 14
v -4 8 14
v -3 7 14
v -3 8 14
v -2 7 14
v -2 8 14
v -4 6 13
v -4 7 13
v -3 6 13
v -3 7 13
v -2 0 13
v -2 4 13
v -2 5 13
v -2 6 13
v -2 7 13
v -1 0 13
v -1 4 13
v -1 5 13
v -1 6 13
v -1 0 12
v -1 1 12
v -1 4 12
v -1 5 12
v -1 6 12
v -1 7 12
v -1 8 12
v 0 0 12
v 0 1 12
v 0 3 12
v 0 4 12
v 1 5 12
v 1 6 12
v 1 7 12
v 1 8 12
v 2 0 12
v 2 1 12
v 2 2 12
v 2 3 12
v 2 4 12
v 2 5 12
v 2 6 12
v 2 7 12
v 2 8 12
v -1 0 17
v -1 1 17
v -1 3 17
v -1 4 17
v -1 5 17
v -1 6 17
v -1 7 17
v -1 8 17
v 0 0 17
v 0 1 17
v 0 3 17
v 0 4 17
v 0 7 17
v 0 8 17
v 1 1 17
v 1 2 17
v 1 3 17
v 1 6 17
v 1 7 17
v 2 0 17
v 2 1 17
v 2 2 17
v 2 3 17
v 2 5 17
v 2 6 17
v 2 7 17
v 2 8 17
v -4 6 16
v -4 7 16
v -3 6 16
v -3 7 16
v -2 0 16
v -2 5 16
v -2 6 16
v -2 7 16
v -1 0 16
v -1 5 16
v -1 6 16
v -4 7 15
v -4 8 15
v -3 7 15
v -3 8 15
v -2 7 15
v -2 8 15
v -4 8 14
v -4 9 14
v -3 8 14
v -2 8 14
v -2 9 14
v -4 7 13
v -4 8 13
v -3 7 13
v -3 8 13
v -1 0 13
v -1 4 13
v -1 5 13
v -1 6 13
v 0 0 13
v 0 6 13
v -4 6 12
v -4 7 12
v -3 6 12
v -3 7 12
v -2 6 12
v -2 7 12
v -2 0 11
v -2 1 11
v -2 4 11
v -2 5 11
v -2 7 11
v -2 8 11
v -1 4 11
v -1 5 11
v -1 6 11
v -1 7 11
v -1 8 11
v -1 9 11
v 0 0 11
v 0 1 11
v 0 3 11
v 0 4 11
v 0 9 11
v 0 10 11
v 1 5 11
v 1 6 11
v 1 7 11
v 1 8 11
v 1 9 11
v 1 10 11
v 2 0 11
v 2 1 11
v 2 3 11
v 2 4 11
v 2 8 11
v 2 9 11
v 3 0 11
v 3 1 11
v 3 5 11
v 3 6 11
v 3 7 11
v 3 8 11
v -3 7 10
v -3 8 10
v -2 7 10
v -2 8 10
v -2 9 10
v -1 8 10
v -1 9 10
v -1 10 10
v 0 9 10
v 0 10 10
v 0 11 10
v 1 9 10
v 1 10 10
v 1 11 10
v 2 8 10
v 2 9 10
v 2 10 10
v 3 7 10
v 3 8 10
v 3 9 10
v 4 7 10
v 4 8 10
v -2 0 18
v 0 0 18
v 3 0 18
v -2 0 17
v -1 0 17
v 0 0 17
v 2 0 17
v -2 0 16
v -1 0 16
v 0 0 16
v -2 0 13
v -1 0 13
v 0 0 13
v 2 0 13
v 3 0 13
v -2 0 12
v -1 0 12
v 0 0 12
v 2 0 12
v -2 0 11
v 0 0 11
v 2 0 11
v 3 0 11
v -4 6 17
v -3 6 17
v -2 6 17
v -4 6 16
v -3 6 16
v -2 6 16
v -1 6 16
v -4 6 13
v -3 6 13
v -2 6 13
v -1 6 13
v -4 6 12
v -3 6 12
v -2 6 12
v -3 7 19
v -2 7 19
v 3 7 19
v 4 7 19
v -2 7 18
v 3 7 18
v -3 7 17
v -2 7 17
v -4 7 16
v -3 7 16
v -2 7 16
v 3 7 16
v 4 7 16
v -4 7 15
v -3 7 15
v -2 7 15
v -4 7 14
v -3 7 14
v -2 7 14
v 3 7 14
v -4 7 13
v -3 7 13
v -2 7 13
v 3 7 13
v 4 7 13
v -3 7 12
v -2 7 12
v -2 7 11
v 3 7 11
v -3 7 10
v -2 7 10
v 3 7 10
v 4 7 10
v -2 8 19
v -1 8 19
v 2 8 19
v 3 8 19
v -2 8 18
v -1 8 18
v 2 8 18
v 3 8 18
v -1 8 17
v 0 8 17
v 2 8 17
v -4 8 15
v -3 8 15
v -2 8 15
v -1 8 15
v -4 8 14
v -3 8 14
v -2 8 14
v -1 8 14
v -1 8 13
v -1 8 12
v 1 8 12
v 2 8 12
v -2 8 11
v -1 8 11
v 2 8 11
v 3 8 11
v -2 8 10
v -1 8 10
v 2 8 10
v 3 8 10
v -1 9 19
v 0 9 19
v 1 9 19
v 2 9 19
v -1 9 18
v 0 9 18
v 1 9 18
v 2 9 18
v -1 9 11
v 0 9 11
v 1 9 11
v 2 9 11
v -1 9 10
v 0 9 10
v 1 9 10
v 2 9 10
v 0 10 19
v 1 10 19
v 0 10 18
v 1 10 18
v 0 10 11
v 1 10 11
v 0 10 10
v 1 10 10
v -1 6 16
v 0 6 16
v -1 6 13
v 0 6 13
v -4 7 17
v -3 7 17
v -4 7 16
v -3 7 16
v -4 7 13
v -3 7 13
v -4 7 12
v -3 7 12
v -3 8 19
v -2 8 19
v 3 8 19
v 4 8 19
v -4 8 16
v -3 8 16
v -2 8 16
v 3 8 16
v 4 8 16
v -4 8 15
v -3 8 15
v -2 8 15
v -4 8 14
v -3 8 14
v -2 8 14
v -4 8 13
v -3 8 13
v -2 8 13
v 3 8 13
v 4 8 13
v -3 8 10
v -2 8 10
v 3 8 10
v 4 8 10
v -2 9 19
v -1 9 19
v 2 9 19
v 3 9 19
v -2 9 16
v -1 9 16
v 2 9 16
v 3 9 16
v -4 9 15
v -2 9 15
v -4 9 14
v -2 9 14
v -2 9 13
v -1 9 13
v 2 9 13
v 3 9 13
v -2 9 10
v -1 9 10
v 2 9 10
v 3 9 10
v -1 10 19
v 0 10 19
v 1 10 19
v 2 10 19
v -1 10 16
v 0 10 16
v 1 10 16
v 2 10 16
v -1 10 13
v 0 10 13
v 1 10 13
v 2 10 13
v -1 10 10
v 0 10 10
v 1 10 10
v 2 10 10
v 0 11 19
v 1 11 19
v 0 11 16
v 1 11 16
v 0 11 13
v 1 11 13
v 0 11 10
v 1 11 10

# faces
f 5/3/1 2/3/1 1/3/1
f 6/3/1 2/3/1 5/3/1
f 9/3/1 4/3/1 3/3/1
f 10/3/1 4/3/1 9/3/1
f 11/2/1 7/2/1 6/2/1
f 12/2/1 7/2/1 11/2/1
f 13/2/1 9/2/1 8/2/1
f 14/2/1 9/2/1 13/2/1
f 15/3/1 13/3/1 12/3/1
f 16/3/1 13/3/1 15/3/1
f 23/2/1 18/2/1 17/2/1
f 23/2/1 19/2/1 18/2/1
f 24/2/1 19/2/1 23/2/1
f 25/2/1 22/2/1 21/2/1
f 25/2/1 21/2/1 20/2/1
f 26/2/1 22/2/1 25/2/1
f 33/9/1 28/9/1 27/9/1
f 34/8/1 29/8/1 28/8/1
f 34/9/1 28/9/1 33/9/1
f 35/9/1 32/9/1 31/9/1
f 35/8/1 31/8/1 30/8/1
f 36/9/1 32/9/1 35/9/1
f 37/8/1 34/8/1 33/8/1
f 38/8/1 29/8/1 34/8/1
f 38/8/1 34/8/1 37/8/1
f 39/9/1 38/9/1 37/9/1
f 40/8/1 29/8/1 38/8/1
f 40/9/1 38/9/1 39/9/1
f 41/8/1 35/8/1 30/8/1
f 41/8/1 36/8/1 35/8/1
f 42/8/1 36/8/1 41/8/1
f 43/8/1 40/8/1 39/8/1
f 44/8/1 29/8/1 40/8/1
f 44/8/1 40/8/1 43/8/1
f 45/9/1 42/9/1 41/9/1
f 46/9/1 42/9/1 45/9/1
f 47/7/1 44/7/1 43/7/1
f 48/7/1 44/7/1 47/7/1
f 49/7/1 44/7/1 48/7/1
f 50/8/1 46/8/1 45/8/1
f 51/8/1 46/8/1 50/8/1
f 52/8/1 48/8/1 47/8/1
f 53/8/1 48/8/1 52/8/1
f 54/8/1 50/8/1 49/8/1
f 55/8/1 50/8/1 54/8/1
f 56/8/1 50/8/1 55/8/1
f 57/8/1 50/8/1 56/8/1
f 58/8/1 46/8/1 51/8/1
f 59/8/1 46/8/1 58/8/1
f 62/8/1 56/8/1 55/8/1
f 63/8/1 56/8/1 62/8/1
f 66/3/1 61/3/1 60/3/1
f 67/2/1 62/2/1 61/2/1
f 67/3/1 61/3/1 66/3/1
f 68/2/1 62/2/1 67/2/1
f 69/2/1 64/2/1 63/2/1
f 70/3/1 65/3/1 64/3/1
f 70/2/1 64/2/1 69/2/1
f 71/3/1 65/3/1 70/3/1
f 74/1/1 73/1/1 72/1/1
f 75/1/1 74/1/1 72/1/1
f 76/1/1 74/1/1 75/1/1
f 77/1/1 76/1/1 75/1/1
f 78/1/1 76/1/1 77/1/1
f 83/2/1 80/2/1 79/2/1
f 84/3/1 81/3/1 80/3/1
f 84/2/1 80/2/1 83/2/1
f 85/2/1 82/2/1 81/2/1
f 85/3/1 81/3/1 84/3/1
f 86/2/1 82/2/1 85/2/1
f 91/3/1 88/3/1 87/3/1
f 92/2/1 89/2/1 88/2/1
f 92/3/1 88/3/1 91/3/1
f 93/3/1 90/3/1 89/3/1
f 93/2/1 89/2/1 92/2/1
f 94/3/1 90/3/1 93/3/1
f 99/2/1 96/2/1 95/2/1
f 100/2/1 96/2/1 99/2/1
f 101/2/1 98/2/1 97/2/1
f 102/2/1 98/2/1 101/2/1
f 106/8/1 104/8/1 103/8/1
f 107/7/1 105/7/1 104/7/1
f 107/8/1 104/8/1 106/8/1
f 108/7/1 105/7/1 107/7/1
f 109/8/1 107/8/1 106/8/1
f 109/8/1 108/8/1 107/8/1
f 110/8/1 108/8/1 109/8/1
f 111/8/1 108/8/1 110/8/1
f 112/8/1 110/8/1 109/8/1
f 113/8/1 110/8/1 112/8/1
f 114/9/1 111/9/1 110/9/1
f 114/8/1 110/8/1 113/8/1
f 115/9/1 111/9/1 114/9/1
f 116/9/1 111/9/1 115/9/1
f 117/8/1 113/8/1 112/8/1
f 117/7/1 114/7/1 113/7/1
f 117/7/1 115/7/1 114/7/1
f 118/8/1 116/8/1 115/8/1
f 118/7/1 115/7/1 117/7/1
f 119/8/1 116/8/1 118/8/1
f 120/8/1 117/8/1 112/8/1
f 120/8/1 118/8/1 117/8/1
f 120/8/1 119/8/1 118/8/1
f 121/8/1 119/8/1 120/8/1
f 122/8/1 119/8/1 121/8/1
f 123/9/1 121/9/1 120/9/1
f 124/8/1 122/8/1 121/8/1
f 124/9/1 121/9/1 123/9/1
f 125/8/1 122/8/1 124/8/1
f 126/8/1 122/8/1 125/8/1
f 127/8/1 124/8/1 123/8/1
f 128/7/1 125/7/1 124/7/1
f 128/8/1 124/8/1 127/8/1
f 129/8/1 126/8/1 125/8/1
f 129/7/1 125/7/1 128/7/1
f 130/8/1 126/8/1 129/8/1
f 133/9/1 128/9/1 127/9/1
f 133/9/1 129/9/1 128/9/1
f 133/9/1 130/9/1 129/9/1
f 134/9/1 130/9/1 133/9/1
f 137/3/1 132/3/1 131/3/1
f 138/3/1 132/3/1 137/3/1
f 139/3/1 136/3/1 135/3/1
f 140/3/1 136/3/1 139/3/1
f 145/2/1 142/2/1 141/2/1
f 146/2/1 142/2/1 145/2/1
f 147/2/1 144/2/1 143/2/1
f 148/2/1 144/2/1 147/2/1
f 149/2/2 150/2/2 153/2/2
f 153/2/2 150/2/2 154/2/2
f 151/2/2 152/2/2 155/2/2
f 155/2/2 152/2/2 156/2/2
f 157/8/2 158/8/2 161/8/2
f 159/8/2 160/8/2 162/8/2
f 161/8/2 158/8/2 163/8/2
f 163/8/2 158/8/2 164/8/2
f 159/8/2 162/8/2 165/8/2
f 165/8/2 162/8/2 166/8/2
f 164/8/2 158/8/2 167/8/2
f 167/8/2 158/8/2 168/8/2
f 165/9/2 166/9/2 169/9/2
f 169/9/2 166/9/2 170/9/2
f 167/7/2 168/7/2 171/7/2
f 171/7/2 168/7/2 172/7/2
f 169/8/2 170/8/2 173/8/2
f 173/8/2 170/8/2 174/8/2
f 171/8/2 172/8/2 175/8/2
f 172/8/2 173/8/2 175/8/2
f 173/8/2 174/8/2 175/8/2
f 175/8/2 174/8/2 176/8/2
f 176/8/2 174/8/2 177/8/2
f 177/8/2 174/8/2 178/8/2
f 178/8/2 174/8/2 179/8/2
f 175/9/2 176/9/2 182/9/2
f 176/8/2 177/8/2 183/8/2
f 182/9/2 176/9/2 183/9/2
f 177/9/2 178/9/2 184/9/2
f 183/8/2 177/8/2 184/8/2
f 178/6/2 179/6/2 185/6/2
f 184/9/2 178/9/2 185/9/2
f 185/6/2 179/6/2 186/6/2
f 180/3/2 181/3/2 189/3/2
f 189/3/2 181/3/2 190/3/2
f 187/3/2 188/3/2 191/3/2
f 191/3/2 188/3/2 192/3/2
f 193/1/2 194/1/2 195/1/2
f 195/1/2 194/1/2 196/1/2
f 197/2/2 198/2/2 201/2/2
f 201/2/2 198/2/2 202/2/2
f 199/2/2 200/2/2 203/2/2
f 203/2/2 200/2/2 204/2/2
f 205/3/2 206/3/2 209/3/2
f 206/2/2 207/2/2 210/2/2
f 209/3/2 206/3/2 210/3/2
f 207/3/2 208/3/2 211/3/2
f 210/2/2 207/2/2 211/2/2
f 211/3/2 208/3/2 212/3/2
f 213/2/2 214/2/2 217/2/2
f 214/3/2 215/3/2 218/3/2
f 217/2/2 214/2/2 218/2/2
f 215/2/2 216/2/2 219/2/2
f 218/3/2 215/3/2 219/3/2
f 219/2/2 216/2/2 220/2/2
f 221/8/2 222/8/2 224/8/2
f 224/8/2 222/8/2 225/8/2
f 222/7/2 223/7/2 226/7/2
f 225/8/2 222/8/2 226/8/2
f 226/7/2 223/7/2 227/7/2
f 224/9/2 225/9/2 228/9/2
f 225/8/2 226/8/2 229/8/2
f 228/9/2 225/9/2 229/9/2
f 226/8/2 227/8/2 229/8/2
f 229/8/2 227/8/2 230/8/2
f 230/8/2 227/8/2 231/8/2
f 228/7/2 229/7/2 232/7/2
f 229/8/2 230/8/2 233/8/2
f 232/7/2 229/7/2 233/7/2
f 233/8/2 230/8/2 234/8/2
f 230/9/2 231/9/2 235/9/2
f 234/8/2 230/8/2 235/8/2
f 235/9/2 231/9/2 236/9/2
f 231/8/2 227/8/2 237/8/2
f 236/9/2 231/9/2 237/9/2
f 235/7/2 236/7/2 238/7/2
f 233/8/2 234/8/2 238/8/2
f 232/8/2 233/8/2 238/8/2
f 234/7/2 235/7/2 238/7/2
f 236/8/2 237/8/2 239/8/2
f 238/7/2 236/7/2 239/7/2
f 232/8/2 238/8/2 240/8/2
f 238/8/2 239/8/2 240/8/2
f 240/8/2 239/8/2 241/8/2
f 237/8/2 227/8/2 242/8/2
f 241/8/2 239/8/2 242/8/2
f 239/8/2 237/8/2 242/8/2
f 242/8/2 227/8/2 243/8/2
f 240/9/2 241/9/2 244/9/2
f 241/8/2 242/8/2 245/8/2
f 244/9/2 241/9/2 245/9/2
f 245/8/2 242/8/2 246/8/2
f 242/9/2 243/9/2 247/9/2
f 246/8/2 242/8/2 247/8/2
f 247/9/2 243/9/2 248/9/2
f 244/8/2 245/8/2 249/8/2
f 245/7/2 246/7/2 250/7/2
f 249/8/2 245/8/2 250/8/2
f 246/8/2 247/8/2 251/8/2
f 250/7/2 246/7/2 251/7/2
f 247/8/2 248/8/2 251/8/2
f 251/8/2 248/8/2 252/8/2
f 252/8/2 248/8/2 253/8/2
f 254/3/2 255/3/2 258/3/2
f 255/2/2 256/2/2 259/2/2
f 258/3/2 255/3/2 259/3/2
f 256/3/2 257/3/2 260/3/2
f 259/2/2 256/2/2 260/2/2
f 260/3/2 257/3/2 261/3/2
f 262/2/2 263/2/2 266/2/2
f 263/3/2 264/3/2 267/3/2
f 266/2/2 263/2/2 267/2/2
f 264/2/2 265/2/2 268/2/2
f 267/3/2 264/3/2 268/3/2
f 268/2/2 265/2/2 269/2/2
f 272/2/3 271/2/3 270/2/3
f 273/2/3 271/2/3 272/2/3
f 275/3/3 274/3/3 273/3/3
f 276/3/3 274/3/3 275/3/3
f 278/2/3 277/2/3 276/2/3
f 279/2/3 277/2/3 278/2/3
f 282/3/3 280/3/3 279/3/3
f 283/3/3 280/3/3 282/3/3
f 285/2/3 282/2/3 281/2/3
f 286/2/3 282/2/3 285/2/3
f 288/3/3 285/3/3 284/3/3
f 289/3/3 285/3/3 288/3/3
f 290/2/3 288/2/3 287/2/3
f 291/2/3 288/2/3 290/2/3
f 300/8/3 296/8/3 295/8/3
f 300/7/3 297/7/3 296/7/3
f 301/8/3 298/8/3 297/8/3
f 301/7/3 297/7/3 300/7/3
f 302/7/3 299/7/3 298/7/3
f 302/8/3 298/8/3 301/8/3
f 303/7/3 299/7/3 302/7/3
f 305/9/3 293/9/3 292/9/3
f 306/8/3 294/8/3 293/8/3
f 306/9/3 293/9/3 305/9/3
f 307/9/3 295/9/3 294/9/3
f 307/8/3 294/8/3 306/8/3
f 308/8/3 301/8/3 300/8/3
f 308/9/3 295/9/3 307/9/3
f 308/8/3 300/8/3 295/8/3
f 309/7/3 303/7/3 302/7/3
f 309/9/3 302/9/3 301/9/3
f 310/8/3 304/8/3 303/8/3
f 310/7/3 303/7/3 309/7/3
f 311/8/3 304/8/3 310/8/3
f 313/8/3 306/8/3 305/8/3
f 313/8/3 307/8/3 306/8/3
f 313/8/3 308/8/3 307/8/3
f 314/8/3 308/8/3 313/8/3
f 315/8/3 308/8/3 314/8/3
f 316/9/3 309/9/3 301/9/3
f 316/8/3 308/8/3 315/8/3
f 316/8/3 301/8/3 308/8/3
f 317/8/3 312/8/3 311/8/3
f 317/9/3 309/9/3 316/9/3
f 317/8/3 311/8/3 310/8/3
f 317/8/3 310/8/3 309/8/3
f 318/8/3 312/8/3 317/8/3
f 319/8/3 312/8/3 318/8/3
f 320/8/3 316/8/3 315/8/3
f 320/8/3 317/8/3 316/8/3
f 320/8/3 318/8/3 317/8/3
f 321/8/3 318/8/3 320/8/3
f 322/8/3 318/8/3 321/8/3
f 323/8/3 318/8/3 322/8/3
f 324/8/3 313/8/3 305/8/3
f 325/9/3 314/9/3 313/9/3
f 325/8/3 313/8/3 324/8/3
f 326/7/3 315/7/3 314/7/3
f 326/9/3 314/9/3 325/9/3
f 327/8/3 320/8/3 315/8/3
f 327/7/3 315/7/3 326/7/3
f 328/9/3 321/9/3 320/9/3
f 328/8/3 320/8/3 327/8/3
f 329/8/3 322/8/3 321/8/3
f 329/9/3 321/9/3 328/9/3
f 330/8/3 322/8/3 329/8/3
f 331/8/3 322/8/3 330/8/3
f 334/3/3 333/3/3 332/3/3
f 335/3/3 333/3/3 334/3/3
f 336/5/3 335/5/3 334/5/3
f 337/5/3 335/5/3 336/5/3
f 340/2/3 339/2/3 338/2/3
f 341/2/3 339/2/3 340/2/3
f 345/1/3 343/1/3 342/1/3
f 345/1/3 344/1/3 343/1/3
f 346/1/3 344/1/3 345/1/3
f 349/3/3 348/3/3 347/3/3
f 350/3/3 348/3/3 349/3/3
f 351/3/3 348/3/3 350/3/3
f 354/2/3 353/2/3 352/2/3
f 355/2/3 353/2/3 354/2/3
f 356/3/3 355/3/3 354/3/3
f 357/3/3 355/3/3 356/3/3
f 360/3/3 359/3/3 358/3/3
f 361/3/3 359/3/3 360/3/3
f 365/5/3 361/5/3 360/5/3
f 366/5/3 361/5/3 365/5/3
f 367/8/3 363/8/3 362/8/3
f 368/9/3 364/9/3 363/9/3
f 368/8/3 363/8/3 367/8/3
f 369/8/3 365/8/3 364/8/3
f 369/9/3 364/9/3 368/9/3
f 370/8/3 365/8/3 369/8/3
f 378/9/3 372/9/3 371/9/3
f 379/8/3 373/8/3 372/8/3
f 379/9/3 372/9/3 378/9/3
f 379/8/3 374/8/3 373/8/3
f 379/8/3 375/8/3 374/8/3
f 380/8/3 375/8/3 379/8/3
f 381/8/3 375/8/3 380/8/3
f 382/8/3 375/8/3 381/8/3
f 383/7/3 376/7/3 375/7/3
f 383/8/3 375/8/3 382/8/3
f 384/9/3 377/9/3 376/9/3
f 384/7/3 376/7/3 383/7/3
f 385/9/3 377/9/3 384/9/3
f 386/8/3 379/8/3 378/8/3
f 386/8/3 380/8/3 379/8/3
f 387/8/3 380/8/3 386/8/3
f 388/8/3 380/8/3 387/8/3
f 389/7/3 381/7/3 380/7/3
f 389/8/3 380/8/3 388/8/3
f 390/8/3 382/8/3 381/8/3
f 390/7/3 381/7/3 389/7/3
f 391/9/3 383/9/3 382/9/3
f 391/8/3 382/8/3 390/8/3
f 392/8/3 385/8/3 384/8/3
f 392/9/3 383/9/3 391/9/3
f 392/8/3 384/8/3 383/8/3
f 393/8/3 385/8/3 392/8/3
f 394/8/3 385/8/3 393/8/3
f 395/9/4 396/9/4 403/9/4
f 396/8/4 397/8/4 404/8/4
f 403/9/4 396/9/4 404/9/4
f 397/9/4 398/9/4 405/9/4
f 404/8/4 397/8/4 405/8/4
f 398/8/4 399/8/4 406/8/4
f 405/9/4 398/9/4 406/9/4
f 399/8/4 400/8/4 406/8/4
f 401/7/4 402/7/4 407/7/4
f 400/9/4 401/9/4 407/9/4
f 407/7/4 402/7/4 408/7/4
f 403/8/4 404/8/4 409/8/4
f 404/8/4 405/8/4 409/8/4
f 405/8/4 406/8/4 409/8/4
f 409/8/4 406/8/4 410/8/4
f 410/8/4 406/8/4 411/8/4
f 406/8/4 400/8/4 412/8/4
f 411/8/4 406/8/4 412/8/4
f 400/9/4 407/9/4 412/9/4
f 407/8/4 408/8/4 413/8/4
f 412/9/4 407/9/4 413/9/4
f 403/8/4 409/8/4 414/8/4
f 409/9/4 410/9/4 415/9/4
f 414/8/4 409/8/4 415/8/4
f 410/7/4 411/7/4 416/7/4
f 415/9/4 410/9/4 416/9/4
f 411/8/4 412/8/4 417/8/4
f 416/7/4 411/7/4 417/7/4
f 412/8/4 413/8/4 417/8/4
f 417/8/4 413/8/4 418/8/4
f 418/8/4 413/8/4 419/8/4
f 413/8/4 408/8/4 420/8/4
f 419/8/4 413/8/4 420/8/4
f 420/8/4 408/8/4 421/8/4
f 422/3/4 423/3/4 424/3/4
f 424/3/4 423/3/4 425/3/4
f 424/5/4 425/5/4 428/5/4
f 428/5/4 425/5/4 429/5/4
f 426/8/4 427/8/4 430/8/4
f 427/7/4 428/7/4 431/7/4
f 430/8/4 427/8/4 431/8/4
f 431/7/4 428/7/4 432/7/4
f 433/2/4 434/2/4 435/2/4
f 435/2/4 434/2/4 436/2/4
f 435/3/4 436/3/4 437/3/4
f 437/3/4 436/3/4 438/3/4
f 439/3/4 440/3/4 441/3/4
f 441/3/4 440/3/4 442/3/4
f 442/3/4 440/3/4 443/3/4
f 444/2/4 445/2/4 446/2/4
f 446/2/4 445/2/4 447/2/4
f 448/1/4 449/1/4 452/1/4
f 450/1/4 451/1/4 452/1/4
f 449/1/4 450/1/4 452/1/4
f 452/1/4 451/1/4 453/1/4
f 454/3/4 455/3/4 456/3/4
f 456/3/4 455/3/4 457/3/4
f 456/5/4 457/5/4 458/5/4
f 458/5/4 457/5/4 459/5/4
f 461/8/4 462/8/4 466/8/4
f 462/9/4 463/9/4 466/9/4
f 464/8/4 465/8/4 467/8/4
f 466/9/4 463/9/4 467/9/4
f 463/8/4 464/8/4 467/8/4
f 467/8/4 465/8/4 468/8/4
f 468/8/4 465/8/4 469/8/4
f 469/8/4 465/8/4 470/8/4
f 460/9/4 461/9/4 472/9/4
f 461/8/4 466/8/4 473/8/4
f 472/9/4 461/9/4 473/9/4
f 466/8/4 467/8/4 473/8/4
f 467/8/4 468/8/4 473/8/4
f 473/8/4 468/8/4 474/8/4
f 474/8/4 468/8/4 475/8/4
f 470/8/4 471/8/4 476/8/4
f 475/8/4 468/8/4 478/8/4
f 468/7/4 469/7/4 479/7/4
f 478/8/4 468/8/4 479/8/4
f 469/9/4 470/9/4 480/9/4
f 479/7/4 469/7/4 480/7/4
f 476/8/4 477/8/4 481/8/4
f 480/9/4 470/9/4 481/9/4
f 470/8/4 476/8/4 481/8/4
f 481/8/4 477/8/4 482/8/4
f 482/8/4 477/8/4 483/8/4
f 472/8/4 473/8/4 484/8/4
f 473/8/4 474/8/4 484/8/4
f 484/8/4 474/8/4 485/8/4
f 474/7/4 475/7/4 486/7/4
f 485/8/4 474/8/4 486/8/4
f 475/8/4 478/8/4 487/8/4
f 486/7/4 475/7/4 487/7/4
f 479/8/4 480/8/4 488/8/4
f 481/8/4 482/8/4 488/8/4
f 480/8/4 481/8/4 488/8/4
f 488/8/4 482/8/4 489/8/4
f 484/7/4 485/7/4 490/7/4
f 485/8/4 486/8/4 491/8/4
f 490/7/4 485/7/4 491/7/4
f 486/8/4 487/8/4 491/8/4
f 487/8/4 478/8/4 492/8/4
f 491/8/4 487/8/4 492/8/4
f 478/9/4 479/9/4 492/9/4
f 479/8/4 488/8/4 493/8/4
f 492/9/4 479/9/4 493/9/4
f 493/8/4 488/8/4 494/8/4
f 494/8/4 488/8/4 495/8/4
f 496/2/4 497/2/4 498/2/4
f 498/2/4 497/2/4 499/2/4
f 499/3/4 500/3/4 501/3/4
f 501/3/4 500/3/4 502/3/4
f 502/2/4 503/2/4 504/2/4
f 504/2/4 503/2/4 505/2/4
f 505/3/4 506/3/4 508/3/4
f 508/3/4 506/3/4 509/3/4
f 507/2/4 508/2/4 511/2/4
f 511/2/4 508/2/4 512/2/4
f 510/3/4 511/3/4 514/3/4
f 514/3/4 511/3/4 515/3/4
f 513/2/4 514/2/4 516/2/4
f 516/2/4 514/2/4 517/2/4
f 521/9/5 519/9/5 518/9/5
f 522/9/5 519/9/5 521/9/5
f 523/8/5 520/8/5 519/8/5
f 523/9/5 519/9/5 522/9/5
f 524/8/5 520/8/5 523/8/5
f 525/8/5 522/8/5 521/8/5
f 526/8/5 522/8/5 525/8/5
f 529/1/5 527/1/5 526/1/5
f 530/1/5 527/1/5 529/1/5
f 531/8/5 520/8/5 524/8/5
f 532/8/5 520/8/5 531/8/5
f 533/8/5 529/8/5 528/8/5
f 534/8/5 529/8/5 533/8/5
f 536/7/5 532/7/5 531/7/5
f 537/9/5 535/9/5 534/9/5
f 537/9/5 534/9/5 533/9/5
f 538/8/5 536/8/5 535/8/5
f 538/9/5 535/9/5 537/9/5
f 539/7/5 532/7/5 536/7/5
f 539/8/5 536/8/5 538/8/5
f 540/7/5 532/7/5 539/7/5
f 544/3/5 542/3/5 541/3/5
f 545/5/5 543/5/5 542/5/5
f 545/3/5 542/3/5 544/3/5
f 546/5/5 543/5/5 545/5/5
f 550/8/5 547/8/5 546/8/5
f 551/8/5 547/8/5 550/8/5
f 552/3/5 549/3/5 548/3/5
f 553/5/5 550/5/5 549/5/5
f 553/3/5 549/3/5 552/3/5
f 554/5/5 550/5/5 553/5/5
f 559/2/5 556/2/5 555/2/5
f 560/2/5 558/2/5 557/2/5
f 561/2/5 559/2/5 555/2/5
f 562/2/5 559/2/5 561/2/5
f 566/2/5 558/2/5 560/2/5
f 567/2/5 558/2/5 566/2/5
f 568/2/5 564/2/5 563/2/5
f 569/3/5 565/3/5 564/3/5
f 569/2/5 564/2/5 568/2/5
f 570/3/5 565/3/5 569/3/5
f 574/3/5 567/3/5 566/3/5
f 575/2/5 572/2/5 571/2/5
f 576/3/5 573/3/5 572/3/5
f 576/2/5 572/2/5 575/2/5
f 577/3/5 573/3/5 576/3/5
f 578/3/5 567/3/5 574/3/5
f 579/3/5 567/3/5 578/3/5
f 582/2/5 581/2/5 580/2/5
f 583/2/5 579/2/5 578/2/5
f 584/2/5 582/2/5 580/2/5
f 585/2/5 582/2/5 584/2/5
f 586/2/5 579/2/5 583/2/5
f 587/2/5 579/2/5 586/2/5
f 592/3/5 589/3/5 588/3/5
f 593/3/5 589/3/5 592/3/5
f 594/3/5 591/3/5 590/3/5
f 595/3/5 591/3/5 594/3/5
f 602/4/5 597/4/5 596/4/5
f 602/4/5 598/4/5 597/4/5
f 603/3/5 601/3/5 600/3/5
f 603/3/5 600/3/5 599/3/5
f 604/3/5 601/3/5 603/3/5
f 605/3/5 601/3/5 604/3/5
f 606/4/5 598/4/5 602/4/5
f 607/4/5 598/4/5 606/4/5
f 608/4/5 598/4/5 607/4/5
f 609/4/5 598/4/5 608/4/5
f 610/4/5 598/4/5 609/4/5
f 615/3/5 612/3/5 611/3/5
f 616/3/5 612/3/5 615/3/5
f 617/3/5 614/3/5 613/3/5
f 618/3/5 614/3/5 617/3/5
f 623/2/5 620/2/5 619/2/5
f 624/2/5 620/2/5 623/2/5
f 625/2/5 622/2/5 621/2/5
f 626/2/5 622/2/5 625/2/5
f 631/2/5 628/2/5 627/2/5
f 632/2/5 628/2/5 631/2/5
f 633/2/5 630/2/5 629/2/5
f 634/2/5 630/2/5 633/2/5
f 637/3/5 636/3/5 635/3/5
f 638/3/5 636/3/5 637/3/5
f 641/3/5 640/3/5 639/3/5
f 642/3/5 640/3/5 641/3/5
f 643/1/6 644/1/6 645/1/6
f 645/1/6 644/1/6 646/1/6
f 647/3/6 648/3/6 649/3/6
f 649/3/6 648/3/6 650/3/6
f 651/3/6 652/3/6 653/3/6
f 653/3/6 652/3/6 654/3/6
f 655/2/6 656/2/6 660/2/6
f 660/2/6 656/2/6 661/2/6
f 657/2/6 658/2/6 662/2/6
f 662/2/6 658/2/6 663/2/6
f 659/2/6 660/2/6 664/2/6
f 660/3/6 661/3/6 665/3/6
f 664/2/6 660/2/6 665/2/6
f 665/3/6 661/3/6 666/3/6
f 667/2/6 668/2/6 670/2/6
f 668/3/6 669/3/6 671/3/6
f 670/2/6 668/2/6 671/2/6
f 671/3/6 669/3/6 672/3/6
f 662/3/6 663/3/6 673/3/6
f 673/3/6 663/3/6 674/3/6
f 671/2/6 672/2/6 675/2/6
f 675/2/6 672/2/6 676/2/6
f 673/2/6 674/2/6 677/2/6
f 677/2/6 674/2/6 678/2/6
f 679/3/6 680/3/6 683/3/6
f 683/3/6 680/3/6 684/3/6
f 681/3/6 682/3/6 685/3/6
f 685/3/6 682/3/6 686/3/6
f 683/2/6 684/2/6 688/2/6
f 687/3/6 688/3/6 689/3/6
f 688/2/6 684/2/6 690/2/6
f 689/3/6 688/3/6 690/3/6
f 690/2/6 684/2/6 691/2/6
f 691/2/6 684/2/6 692/2/6
f 685/2/6 686/2/6 693/2/6
f 693/2/6 686/2/6 694/2/6
f 691/3/6 692/3/6 695/3/6
f 695/3/6 692/3/6 696/3/6
f 693/3/6 694/3/6 697/3/6
f 697/3/6 694/3/6 698/3/6
f 699/2/6 700/2/6 703/2/6
f 703/2/6 700/2/6 704/2/6
f 701/2/6 702/2/6 705/2/6
f 705/2/6 702/2/6 706/2/6
f 703/3/6 704/3/6 707/3/6
f 707/3/6 704/3/6 708/3/6
f 705/3/6 706/3/6 709/3/6
f 709/3/6 706/3/6 710/3/6
f 707/2/6 708/2/6 711/2/6
f 711/2/6 708/2/6 712/2/6
f 709/2/6 710/2/6 713/2/6
f 713/2/6 710/2/6 714/2/6
f 715/3/6 716/3/6 717/3/6
f 717/3/6 716/3/6 718/3/6
f 717/2/6 718/2/6 719/2/6
f 719/2/6 718/2/6 720/2/6
f 719/3/6 720/3/6 721/3/6
f 721/3/6 720/3/6 722/3/6
