# MagicaVoxel @ Ephtracy

# material
mtllib fireball.mtl
usemtl palette

# normals
vn -1 0 0
vn 1 0 0
vn 0 0 1
vn 0 0 -1
vn 0 -1 0
vn 0 1 0

# texcoords
vt 0.845703 0.5
vt 0.908203 0.5
vt 0.943359 0.5

# verts
v -2 6 21
v -2 6 20
v -2 7 22
v -2 7 21
v -2 7 20
v -2 7 19
v -2 8 22
v -2 8 21
v -2 8 20
v -2 8 19
v -2 8 18
v -2 9 22
v -2 9 21
v -2 9 20
v -2 9 18
v -1 5 22
v -1 5 21
v -1 5 20
v -1 5 19
v -1 6 22
v -1 6 21
v -1 6 20
v -1 6 19
v -1 6 18
v -1 7 23
v -1 7 22
v -1 7 21
v -1 7 20
v -1 7 19
v -1 7 18
v -1 7 15
v -1 8 23
v -1 8 22
v -1 8 19
v -1 8 18
v -1 8 16
v -1 8 15
v -1 9 21
v -1 9 20
v -1 9 19
v -1 9 18
v -1 9 16
v -1 10 21
v -1 10 20
v -1 10 19
v 0 6 23
v 0 6 22
v 0 6 18
v 0 6 16
v 0 7 23
v 0 7 22
v 0 7 18
v 0 7 16
v 0 7 15
v 0 7 12
v 0 8 23
v 0 8 22
v 0 8 15
v 0 8 12
v 0 9 23
v 0 9 22
v 0 9 21
v 0 9 19
v 0 9 18
v 0 9 17
v 0 10 22
v 0 10 21
v 0 10 19
v 0 10 17
v 1 5 22
v 1 5 21
v 1 6 23
v 1 6 22
v 1 6 21
v 1 6 17
v 1 6 16
v 1 7 23
v 1 7 22
v 1 7 17
v 1 7 16
v 1 7 15
v 1 7 12
v 1 8 23
v 1 8 22
v 1 8 17
v 1 8 16
v 1 8 15
v 1 8 12
v 1 9 23
v 1 9 22
v 1 9 21
v 1 9 19
v 1 9 18
v 1 9 17
v 1 9 16
v 1 10 22
v 1 10 21
v 1 10 19
v 1 10 17
v 2 5 21
v 2 5 20
v 2 5 19
v 2 6 22
v 2 6 21
v 2 6 20
v 2 6 19
v 2 6 17
v 2 7 23
v 2 7 22
v 2 7 21
v 2 7 20
v 2 7 19
v 2 7 17
v 2 7 15
v 2 8 23
v 2 8 22
v 2 8 19
v 2 8 18
v 2 8 17
v 2 8 15
v 2 9 21
v 2 9 20
v 2 9 19
v 2 9 18
v 2 9 17
v 2 10 21
v 2 10 20
v 2 10 19
v 3 6 21
v 3 6 20
v 3 7 22
v 3 7 21
v 3 7 20
v 3 7 19
v 3 7 17
v 3 8 22
v 3 8 21
v 3 8 20
v 3 8 19
v 3 8 17
v 3 9 22
v 3 9 21
v 3 9 20
v 3 9 19
v -1 7 23
v -1 8 23
v 0 6 23
v 0 7 23
v 0 8 23
v 0 9 23
v 1 6 23
v 1 7 23
v 1 8 23
v 1 9 23
v 2 7 23
v 2 8 23
v -2 7 22
v -2 8 22
v -2 9 22
v -1 5 22
v -1 6 22
v -1 7 22
v -1 8 22
v -1 9 22
v 0 5 22
v 0 6 22
v 0 7 22
v 0 8 22
v 0 9 22
v 0 10 22
v 1 5 22
v 1 6 22
v 1 7 22
v 1 8 22
v 1 9 22
v 1 10 22
v 2 6 22
v 2 7 22
v 2 8 22
v 2 9 22
v 3 7 22
v 3 8 22
v 3 9 22
v -2 6 21
v -2 7 21
v -1 6 21
v -1 7 21
v -1 9 21
v -1 10 21
v 0 9 21
v 0 10 21
v 1 5 21
v 1 6 21
v 1 9 21
v 1 10 21
v 2 5 21
v 2 6 21
v 2 7 21
v 2 9 21
v 2 10 21
v 3 6 21
v 3 7 21
v -2 6 20
v -2 7 20
v -1 6 20
v -1 7 20
v 2 6 20
v 2 7 20
v 3 6 20
v 3 7 20
v -2 7 19
v -2 8 19
v -1 5 19
v -1 6 19
v -1 7 19
v -1 8 19
v -1 9 19
v -1 10 19
v 0 5 19
v 0 6 19
v 0 9 19
v 0 10 19
v 1 5 19
v 1 6 19
v 1 9 19
v 1 10 19
v 2 5 19
v 2 6 19
v 2 8 19
v 2 9 19
v 2 10 19
v 3 8 19
v 3 9 19
v -2 8 18
v -2 9 18
v -1 6 18
v -1 7 18
v -1 8 18
v -1 9 18
v 0 6 18
v 0 7 18
v 0 9 17
v 0 10 17
v 1 6 17
v 1 7 17
v 1 8 17
v 1 9 17
v 1 10 17
v 2 6 17
v 2 7 17
v 2 8 17
v 2 9 17
v 3 7 17
v 3 8 17
v -1 8 16
v -1 9 16
v 0 6 16
v 0 7 16
v 1 6 16
v 1 7 16
v 1 8 16
v 1 9 16
v -1 7 15
v -1 8 15
v 0 7 15
v 0 8 15
v 1 7 15
v 1 8 15
v 2 7 15
v 2 8 15
v 0 7 12
v 0 8 12
v 1 7 12
v 1 8 12
v -1 5 22
v 0 5 22
v 1 5 22
v -1 5 21
v 0 5 21
v 1 5 21
v 2 5 21
v -1 5 20
v 0 5 20
v 1 5 20
v 2 5 20
v -1 5 19
v 0 5 19
v 1 5 19
v 2 5 19
v 0 6 23
v 1 6 23
v 0 6 22
v 1 6 22
v 2 6 22
v -2 6 21
v -1 6 21
v 1 6 21
v 2 6 21
v 3 6 21
v -2 6 20
v -1 6 20
v 2 6 20
v 3 6 20
v -1 6 19
v 0 6 19
v 1 6 19
v 2 6 19
v -1 6 18
v 0 6 18
v 1 6 18
v 1 6 17
v 2 6 17
v 0 6 16
v 1 6 16
v -1 7 23
v 0 7 23
v 1 7 23
v 2 7 23
v -2 7 22
v -1 7 22
v 0 7 22
v 1 7 22
v 2 7 22
v 3 7 22
v -2 7 21
v -1 7 21
v 2 7 21
v 3 7 21
v -2 7 20
v -1 7 20
v 2 7 20
v 3 7 20
v -2 7 19
v -1 7 19
v 2 7 19
v 3 7 19
v -1 7 18
v 0 7 18
v 1 7 17
v 2 7 17
v 3 7 17
v 0 7 16
v 1 7 16
v -1 7 15
v 0 7 15
v 1 7 15
v 2 7 15
v 0 7 12
v 1 7 12
v -2 8 19
v -1 8 19
v -2 8 18
v -1 8 18
v -1 8 23
v 0 8 23
v 1 8 23
v 2 8 23
v -1 8 22
v 0 8 22
v 1 8 22
v 2 8 22
v 2 8 19
v 3 8 19
v 2 8 18
v 1 8 17
v 2 8 17
v 3 8 17
v -1 8 16
v 1 8 16
v -1 8 15
v 0 8 15
v 1 8 15
v 2 8 15
v 0 8 12
v 1 8 12
v 0 9 23
v 1 9 23
v -2 9 22
v -1 9 22
v 0 9 22
v 1 9 22
v 2 9 22
v 3 9 22
v -2 9 21
v -1 9 21
v 0 9 21
v 1 9 21
v 2 9 21
v 3 9 21
v -2 9 20
v -1 9 20
v 2 9 20
v 3 9 20
v -1 9 19
v 0 9 19
v 1 9 19
v 2 9 19
v 3 9 19
v -2 9 18
v -1 9 18
v 0 9 18
v 1 9 18
v 2 9 18
v 0 9 17
v 1 9 17
v 2 9 17
v -1 9 16
v 1 9 16
v 0 10 22
v 1 10 22
v -1 10 21
v 0 10 21
v 1 10 21
v 2 10 21
v -1 10 20
v 0 10 20
v 1 10 20
v 2 10 20
v -1 10 19
v 0 10 19
v 1 10 19
v 2 10 19
v 0 10 17
v 1 10 17

# faces
f 4/3/1 2/3/1 1/3/1
f 5/3/1 2/3/1 4/3/1
f 7/3/1 4/3/1 3/3/1
f 7/3/1 6/3/1 5/3/1
f 7/3/1 5/3/1 4/3/1
f 8/3/1 6/3/1 7/3/1
f 9/3/1 6/3/1 8/3/1
f 10/3/1 6/3/1 9/3/1
f 12/2/1 8/2/1 7/2/1
f 13/3/1 9/3/1 8/3/1
f 13/2/1 8/2/1 12/2/1
f 14/2/1 11/2/1 10/2/1
f 14/3/1 9/3/1 13/3/1
f 14/2/1 10/2/1 9/2/1
f 15/2/1 11/2/1 14/2/1
f 20/2/1 17/2/1 16/2/1
f 21/3/1 18/3/1 17/3/1
f 21/2/1 17/2/1 20/2/1
f 22/1/1 19/1/1 18/1/1
f 22/3/1 18/3/1 21/3/1
f 23/1/1 19/1/1 22/1/1
f 26/3/1 21/3/1 20/3/1
f 27/3/1 21/3/1 26/3/1
f 28/3/1 23/3/1 22/3/1
f 29/2/1 24/2/1 23/2/1
f 29/3/1 23/3/1 28/3/1
f 30/2/1 24/2/1 29/2/1
f 32/3/1 26/3/1 25/3/1
f 33/3/1 26/3/1 32/3/1
f 34/2/1 30/2/1 29/2/1
f 35/1/1 31/1/1 30/1/1
f 35/2/1 30/2/1 34/2/1
f 36/1/1 31/1/1 35/1/1
f 37/1/1 31/1/1 36/1/1
f 41/1/1 36/1/1 35/1/1
f 42/1/1 36/1/1 41/1/1
f 43/3/1 39/3/1 38/3/1
f 44/1/1 40/1/1 39/1/1
f 44/3/1 39/3/1 43/3/1
f 45/1/1 40/1/1 44/1/1
f 50/3/1 47/3/1 46/3/1
f 51/3/1 47/3/1 50/3/1
f 52/1/1 49/1/1 48/1/1
f 53/1/1 49/1/1 52/1/1
f 58/1/1 55/1/1 54/1/1
f 59/1/1 55/1/1 58/1/1
f 60/3/1 57/3/1 56/3/1
f 61/3/1 57/3/1 60/3/1
f 66/3/1 62/3/1 61/3/1
f 67/3/1 62/3/1 66/3/1
f 68/2/1 65/2/1 64/2/1
f 68/2/1 64/2/1 63/2/1
f 69/2/1 65/2/1 68/2/1
f 70/3/2 71/3/2 73/3/2
f 73/3/2 71/3/2 74/3/2
f 72/3/2 73/3/2 77/3/2
f 77/3/2 73/3/2 78/3/2
f 75/1/2 76/1/2 79/1/2
f 79/1/2 76/1/2 80/1/2
f 81/1/2 82/1/2 87/1/2
f 87/1/2 82/1/2 88/1/2
f 83/3/2 84/3/2 89/3/2
f 89/3/2 84/3/2 90/3/2
f 85/1/2 86/1/2 94/1/2
f 94/1/2 86/1/2 95/1/2
f 90/3/2 91/3/2 96/3/2
f 96/3/2 91/3/2 97/3/2
f 92/2/2 93/2/2 98/2/2
f 93/2/2 94/2/2 98/2/2
f 98/2/2 94/2/2 99/2/2
f 100/3/2 101/3/2 104/3/2
f 101/2/2 102/2/2 105/2/2
f 104/3/2 101/3/2 105/3/2
f 105/2/2 102/2/2 106/2/2
f 103/3/2 104/3/2 109/3/2
f 109/3/2 104/3/2 110/3/2
f 105/3/2 106/3/2 111/3/2
f 106/2/2 107/2/2 112/2/2
f 111/3/2 106/3/2 112/3/2
f 112/2/2 107/2/2 113/2/2
f 108/3/2 109/3/2 115/3/2
f 115/3/2 109/3/2 116/3/2
f 113/1/2 114/1/2 119/1/2
f 119/1/2 114/1/2 120/1/2
f 117/2/2 118/2/2 123/2/2
f 118/1/2 119/1/2 124/1/2
f 123/2/2 118/2/2 124/2/2
f 124/1/2 119/1/2 125/1/2
f 121/3/2 122/3/2 126/3/2
f 122/2/2 123/2/2 127/2/2
f 126/3/2 122/3/2 127/3/2
f 127/2/2 123/2/2 128/2/2
f 129/3/2 130/3/2 132/3/2
f 132/3/2 130/3/2 133/3/2
f 131/3/2 132/3/2 136/3/2
f 132/3/2 133/3/2 136/3/2
f 133/3/2 134/3/2 136/3/2
f 136/3/2 134/3/2 137/3/2
f 137/3/2 134/3/2 138/3/2
f 134/2/2 135/2/2 139/2/2
f 138/3/2 134/3/2 139/3/2
f 139/2/2 135/2/2 140/2/2
f 136/2/2 137/2/2 141/2/2
f 137/3/2 138/3/2 142/3/2
f 141/2/2 137/2/2 142/2/2
f 138/1/2 139/1/2 143/1/2
f 142/3/2 138/3/2 143/3/2
f 143/1/2 139/1/2 144/1/2
f 148/3/3 146/3/3 145/3/3
f 149/3/3 146/3/3 148/3/3
f 151/3/3 148/3/3 147/3/3
f 151/3/3 150/3/3 149/3/3
f 151/3/3 149/3/3 148/3/3
f 152/3/3 150/3/3 151/3/3
f 153/3/3 150/3/3 152/3/3
f 154/3/3 150/3/3 153/3/3
f 155/3/3 153/3/3 152/3/3
f 156/3/3 153/3/3 155/3/3
f 162/3/3 158/3/3 157/3/3
f 163/2/3 159/2/3 158/2/3
f 163/3/3 158/3/3 162/3/3
f 164/2/3 159/2/3 163/2/3
f 165/2/3 161/2/3 160/2/3
f 166/3/3 162/3/3 161/3/3
f 166/2/3 161/2/3 165/2/3
f 167/3/3 162/3/3 166/3/3
f 168/3/3 164/3/3 163/3/3
f 169/3/3 164/3/3 168/3/3
f 171/3/3 166/3/3 165/3/3
f 172/3/3 166/3/3 171/3/3
f 175/3/3 170/3/3 169/3/3
f 176/3/3 170/3/3 175/3/3
f 177/3/3 173/3/3 172/3/3
f 178/3/3 173/3/3 177/3/3
f 179/3/3 175/3/3 174/3/3
f 180/3/3 175/3/3 179/3/3
f 181/3/3 179/3/3 178/3/3
f 182/2/3 180/2/3 179/2/3
f 182/3/3 179/3/3 181/3/3
f 183/2/3 180/2/3 182/2/3
f 186/3/3 185/3/3 184/3/3
f 187/3/3 185/3/3 186/3/3
f 190/3/3 189/3/3 188/3/3
f 191/3/3 189/3/3 190/3/3
f 196/3/3 193/3/3 192/3/3
f 197/3/3 193/3/3 196/3/3
f 199/3/3 195/3/3 194/3/3
f 200/3/3 195/3/3 199/3/3
f 201/3/3 198/3/3 197/3/3
f 202/3/3 198/3/3 201/3/3
f 203/3/4 204/3/4 205/3/4
f 205/3/4 204/3/4 206/3/4
f 207/3/4 208/3/4 209/3/4
f 209/3/4 208/3/4 210/3/4
f 211/3/4 212/3/4 215/3/4
f 215/3/4 212/3/4 216/3/4
f 213/1/4 214/1/4 219/1/4
f 219/1/4 214/1/4 220/1/4
f 217/1/4 218/1/4 221/1/4
f 221/1/4 218/1/4 222/1/4
f 219/3/4 220/3/4 223/3/4
f 223/3/4 220/3/4 224/3/4
f 223/2/4 224/2/4 227/2/4
f 227/2/4 224/2/4 228/2/4
f 225/2/4 226/2/4 230/2/4
f 230/2/4 226/2/4 231/2/4
f 229/1/4 230/1/4 232/1/4
f 232/1/4 230/1/4 233/1/4
f 234/2/4 235/2/4 238/2/4
f 238/2/4 235/2/4 239/2/4
f 236/2/4 237/2/4 240/2/4
f 240/2/4 237/2/4 241/2/4
f 242/2/4 243/2/4 247/2/4
f 247/2/4 243/2/4 248/2/4
f 244/2/4 245/2/4 249/2/4
f 249/2/4 245/2/4 250/2/4
f 246/1/4 247/1/4 251/1/4
f 251/1/4 247/1/4 252/1/4
f 250/2/4 251/2/4 253/2/4
f 253/2/4 251/2/4 254/2/4
f 257/1/4 258/1/4 259/1/4
f 259/1/4 258/1/4 260/1/4
f 255/1/4 256/1/4 261/1/4
f 261/1/4 256/1/4 262/1/4
f 263/1/4 264/1/4 265/1/4
f 265/1/4 264/1/4 266/1/4
f 267/1/4 268/1/4 269/1/4
f 269/1/4 268/1/4 270/1/4
f 271/1/4 272/1/4 273/1/4
f 273/1/4 272/1/4 274/1/4
f 278/2/5 276/2/5 275/2/5
f 279/3/5 277/3/5 276/3/5
f 279/2/5 276/2/5 278/2/5
f 280/3/5 277/3/5 279/3/5
f 282/3/5 279/3/5 278/3/5
f 282/3/5 281/3/5 280/3/5
f 282/3/5 280/3/5 279/3/5
f 283/3/5 281/3/5 282/3/5
f 284/3/5 281/3/5 283/3/5
f 285/3/5 281/3/5 284/3/5
f 286/1/5 283/1/5 282/1/5
f 287/3/5 284/3/5 283/3/5
f 287/1/5 283/1/5 286/1/5
f 288/2/5 285/2/5 284/2/5
f 288/3/5 284/3/5 287/3/5
f 289/2/5 285/2/5 288/2/5
f 292/3/5 291/3/5 290/3/5
f 293/3/5 291/3/5 292/3/5
f 297/3/5 294/3/5 293/3/5
f 298/3/5 294/3/5 297/3/5
f 300/3/5 296/3/5 295/3/5
f 301/3/5 296/3/5 300/3/5
f 302/3/5 299/3/5 298/3/5
f 303/3/5 299/3/5 302/3/5
f 308/2/5 305/2/5 304/2/5
f 308/2/5 307/2/5 306/2/5
f 308/2/5 306/2/5 305/2/5
f 309/2/5 307/2/5 308/2/5
f 310/2/5 307/2/5 309/2/5
f 311/2/5 307/2/5 310/2/5
f 311/1/5 310/1/5 309/1/5
f 312/2/5 307/2/5 311/2/5
f 313/1/5 311/1/5 309/1/5
f 314/1/5 311/1/5 313/1/5
f 320/3/5 316/3/5 315/3/5
f 321/3/5 316/3/5 320/3/5
f 322/3/5 318/3/5 317/3/5
f 323/3/5 318/3/5 322/3/5
f 325/3/5 320/3/5 319/3/5
f 326/3/5 320/3/5 325/3/5
f 327/3/5 324/3/5 323/3/5
f 328/3/5 324/3/5 327/3/5
f 333/3/5 330/3/5 329/3/5
f 334/3/5 330/3/5 333/3/5
f 335/3/5 332/3/5 331/3/5
f 336/3/5 332/3/5 335/3/5
f 340/2/5 336/2/5 335/2/5
f 341/2/5 336/2/5 340/2/5
f 342/1/5 338/1/5 337/1/5
f 343/1/5 340/1/5 339/1/5
f 344/1/5 342/1/5 337/1/5
f 344/1/5 343/1/5 342/1/5
f 345/1/5 343/1/5 344/1/5
f 346/1/5 340/1/5 343/1/5
f 346/1/5 343/1/5 345/1/5
f 347/1/5 340/1/5 346/1/5
f 348/1/5 346/1/5 345/1/5
f 349/1/5 346/1/5 348/1/5
f 352/2/5 351/2/5 350/2/5
f 353/2/5 351/2/5 352/2/5
f 354/3/6 355/3/6 358/3/6
f 358/3/6 355/3/6 359/3/6
f 356/3/6 357/3/6 360/3/6
f 360/3/6 357/3/6 361/3/6
f 362/2/6 363/2/6 364/2/6
f 364/2/6 363/2/6 366/2/6
f 366/2/6 363/2/6 367/2/6
f 365/1/6 366/1/6 369/1/6
f 368/1/6 369/1/6 370/1/6
f 370/1/6 369/1/6 371/1/6
f 369/1/6 366/1/6 372/1/6
f 371/1/6 369/1/6 372/1/6
f 372/1/6 366/1/6 373/1/6
f 371/1/6 372/1/6 374/1/6
f 374/1/6 372/1/6 375/1/6
f 376/3/6 377/3/6 380/3/6
f 380/3/6 377/3/6 381/3/6
f 378/2/6 379/2/6 384/2/6
f 379/3/6 380/3/6 385/3/6
f 384/2/6 379/2/6 385/2/6
f 385/3/6 380/3/6 386/3/6
f 381/3/6 382/3/6 387/3/6
f 382/2/6 383/2/6 388/2/6
f 387/3/6 382/3/6 388/3/6
f 388/2/6 383/2/6 389/2/6
f 384/3/6 385/3/6 390/3/6
f 390/3/6 385/3/6 391/3/6
f 388/3/6 389/3/6 392/3/6
f 392/3/6 389/3/6 393/3/6
f 390/2/6 391/2/6 394/2/6
f 392/1/6 393/1/6 397/1/6
f 397/1/6 393/1/6 398/1/6
f 394/2/6 395/2/6 399/2/6
f 390/2/6 394/2/6 399/2/6
f 399/2/6 395/2/6 400/2/6
f 400/2/6 395/2/6 401/2/6
f 396/2/6 397/2/6 402/2/6
f 402/2/6 397/2/6 403/2/6
f 400/1/6 401/1/6 404/1/6
f 402/1/6 403/1/6 405/1/6
f 405/1/6 403/1/6 406/1/6
f 400/1/6 404/1/6 407/1/6
f 404/1/6 405/1/6 407/1/6
f 407/1/6 405/1/6 408/1/6
f 409/3/6 410/3/6 412/3/6
f 412/3/6 410/3/6 413/3/6
f 411/3/6 412/3/6 415/3/6
f 413/3/6 414/3/6 415/3/6
f 412/3/6 413/3/6 415/3/6
f 415/3/6 414/3/6 416/3/6
f 416/3/6 414/3/6 417/3/6
f 417/3/6 414/3/6 418/3/6
f 415/1/6 416/1/6 419/1/6
f 416/3/6 417/3/6 420/3/6
f 419/1/6 416/1/6 420/1/6
f 417/2/6 418/2/6 421/2/6
f 420/3/6 417/3/6 421/3/6
f 421/2/6 418/2/6 422/2/6
f 420/2/6 421/2/6 423/2/6
f 423/2/6 421/2/6 424/2/6
