# MagicaVoxel @ Ephtracy

# material
mtllib frozenLlama.mtl
usemtl palette

# normals
vn -1 0 0
vn 1 0 0
vn 0 0 1
vn 0 0 -1
vn 0 -1 0
vn 0 1 0

# texcoords
vt 0.427734 0.5
vt 0.431641 0.5
vt 0.482422 0.5
vt 0.494141 0.5
vt 0.755859 0.5
vt 0.845703 0.5

# verts
v -4 17 -2
v -4 17 -3
v -4 18 -2
v -4 18 -3
v -4 18 -4
v -4 19 -3
v -4 19 -4
v -3 10 8
v -3 10 7
v -3 10 3
v -3 10 2
v -3 11 8
v -3 11 7
v -3 11 3
v -3 11 2
v -3 12 9
v -3 12 8
v -3 12 4
v -3 12 3
v -3 13 3
v -3 13 2
v -3 14 8
v -3 14 7
v -3 14 5
v -3 14 4
v -3 15 9
v -3 15 8
v -3 15 7
v -3 15 5
v -3 18 9
v -3 18 2
v -2 13 -1
v -2 13 -3
v -2 13 -4
v -2 13 -5
v -2 14 7
v -2 14 5
v -2 14 -3
v -2 14 -4
v -2 14 -5
v -2 14 -6
v -2 15 10
v -2 15 9
v -2 15 7
v -2 15 5
v -2 15 2
v -2 15 1
v -2 15 -1
v -2 15 -4
v -2 15 -5
v -2 15 -6
v -2 17 -2
v -2 17 -4
v -2 17 -5
v -2 17 -6
v -2 18 9
v -2 18 2
v -2 18 -4
v -2 18 -5
v -2 18 -6
v -2 18 -7
v -2 19 1
v -2 19 -0
v -2 19 -2
v -2 19 -5
v -2 19 -6
v -2 19 -7
v -2 20 12
v -2 20 10
v -2 20 7
v -2 20 2
v -2 21 2
v -2 21 -0
v -2 22 12
v -2 22 11
v -2 24 11
v -2 24 8
v -2 24 7
v -2 26 8
v -2 26 7
v -1 14 9
v -1 14 8
v -1 14 3
v -1 14 2
v -1 15 9
v -1 15 2
v -1 16 9
v -1 16 8
v -1 16 3
v -1 16 2
v -1 20 -0
v -1 20 -1
v -1 21 1
v -1 21 -0
v -1 22 1
v -1 22 -0
v -1 22 -1
v 0 12 -1
v 0 12 -2
v 0 13 -1
v 0 13 -2
v 0 13 -3
v 0 14 -2
v 0 14 -3
v 0 15 -0
v 0 15 -3
v 0 15 -4
v 0 15 -5
v 0 16 -2
v 0 16 -3
v 0 16 -4
v 0 16 -5
v 0 17 -0
v 0 17 -2
v 0 17 -3
v 0 17 -4
v 0 24 8
v 0 24 7
v 0 26 8
v 0 26 7
v 1 10 8
v 1 10 7
v 1 10 3
v 1 10 2
v 1 11 8
v 1 11 7
v 1 11 3
v 1 11 2
v 1 12 9
v 1 12 8
v 1 12 4
v 1 12 3
v 1 12 2
v 1 14 9
v 1 14 7
v 1 14 4
v 1 14 2
v 1 15 -7
v 1 15 -8
v 1 16 -6
v 1 16 -7
v 1 16 -8
v 1 17 -6
v 1 17 -7
v -3 17 -2
v -3 17 -3
v -3 18 -2
v -3 18 -3
v -3 18 -4
v -3 19 -3
v -3 19 -4
v -2 10 8
v -2 10 7
v -2 10 3
v -2 10 2
v -2 11 8
v -2 11 7
v -2 11 3
v -2 11 2
v -2 12 9
v -2 12 8
v -2 12 4
v -2 12 3
v -2 13 3
v -2 13 2
v -2 14 8
v -2 14 7
v -2 14 4
v -2 14 3
v -2 15 9
v -2 15 8
v -2 15 2
v -2 16 9
v -2 16 8
v -2 16 3
v -2 16 2
v -1 13 -1
v -1 13 -3
v -1 13 -4
v -1 13 -5
v -1 14 -3
v -1 14 -4
v -1 14 -5
v -1 14 -6
v -1 15 -1
v -1 15 -4
v -1 15 -5
v -1 15 -6
v -1 17 -2
v -1 17 -4
v -1 17 -5
v -1 17 -6
v -1 18 -4
v -1 18 -5
v -1 18 -6
v -1 18 -7
v -1 19 -2
v -1 19 -5
v -1 19 -6
v -1 19 -7
v -1 24 8
v -1 24 7
v -1 26 8
v -1 26 7
v 0 20 -0
v 0 20 -1
v 0 21 -0
v 0 22 -0
v 0 22 -1
v 1 12 -1
v 1 12 -2
v 1 13 -1
v 1 13 -2
v 1 13 -3
v 1 14 7
v 1 14 5
v 1 14 -2
v 1 14 -3
v 1 15 10
v 1 15 9
v 1 15 7
v 1 15 5
v 1 15 2
v 1 15 1
v 1 15 -0
v 1 15 -3
v 1 15 -4
v 1 15 -5
v 1 16 -2
v 1 16 -3
v 1 16 -4
v 1 16 -5
v 1 17 -0
v 1 17 -2
v 1 17 -3
v 1 17 -4
v 1 18 9
v 1 18 2
v 1 19 1
v 1 19 -0
v 1 20 12
v 1 20 10
v 1 20 7
v 1 20 2
v 1 21 2
v 1 21 1
v 1 21 -0
v 1 22 12
v 1 22 11
v 1 22 1
v 1 22 -0
v 1 24 11
v 1 24 8
v 1 24 7
v 1 26 8
v 1 26 7
v 2 10 8
v 2 10 7
v 2 10 3
v 2 10 2
v 2 11 8
v 2 11 7
v 2 11 3
v 2 11 2
v 2 12 9
v 2 12 8
v 2 12 4
v 2 12 3
v 2 12 2
v 2 14 8
v 2 14 7
v 2 14 5
v 2 14 4
v 2 15 9
v 2 15 8
v 2 15 7
v 2 15 5
v 2 15 -7
v 2 15 -8
v 2 16 -6
v 2 16 -7
v 2 16 -8
v 2 17 -6
v 2 17 -7
v 2 18 9
v 2 18 2
v -2 20 12
v -2 22 12
v 1 20 12
v 1 22 12
v -2 22 11
v -2 24 11
v 1 22 11
v 1 24 11
v -2 15 10
v -2 20 10
v 1 15 10
v 1 20 10
v -3 12 9
v -3 15 9
v -3 18 9
v -2 12 9
v -2 15 9
v -2 18 9
v -1 14 9
v -1 15 9
v 1 12 9
v 1 14 9
v 1 15 9
v 1 18 9
v 2 12 9
v 2 15 9
v 2 18 9
v -3 10 8
v -3 11 8
v -3 12 8
v -2 10 8
v -2 11 8
v -2 12 8
v -2 14 8
v -2 15 8
v -2 16 8
v -2 24 8
v -2 26 8
v -1 14 8
v -1 16 8
v -1 24 8
v -1 26 8
v 0 24 8
v 0 26 8
v 1 10 8
v 1 11 8
v 1 12 8
v 1 24 8
v 1 26 8
v 2 10 8
v 2 11 8
v 2 12 8
v -3 14 5
v -3 15 5
v -2 14 5
v -2 15 5
v 1 14 5
v 1 15 5
v 2 14 5
v 2 15 5
v -3 12 4
v -3 14 4
v -2 12 4
v -2 14 4
v 1 12 4
v 1 14 4
v 2 12 4
v 2 14 4
v -3 10 3
v -3 11 3
v -3 12 3
v -2 10 3
v -2 11 3
v -2 12 3
v 1 10 3
v 1 11 3
v 1 12 3
v 2 10 3
v 2 11 3
v 2 12 3
v -2 15 2
v -2 16 2
v -2 20 2
v -2 21 2
v -1 15 2
v -1 16 2
v 1 20 2
v 1 21 2
v -1 21 1
v -1 22 1
v 0 21 1
v 0 22 1
v 1 21 1
v 1 22 1
v 0 15 -0
v 0 17 -0
v 1 15 -0
v 1 17 -0
v -2 13 -1
v -2 15 -1
v -1 13 -1
v -1 15 -1
v 0 12 -1
v 0 13 -1
v 1 12 -1
v 1 13 -1
v -4 17 -2
v -4 18 -2
v -3 17 -2
v -3 18 -2
v -2 17 -2
v -2 19 -2
v -1 17 -2
v -1 19 -2
v 0 13 -2
v 0 14 -2
v 1 13 -2
v 1 14 -2
v -4 18 -3
v -4 19 -3
v -3 18 -3
v -3 19 -3
v 0 16 -3
v 0 17 -3
v 1 16 -3
v 1 17 -3
v -2 13 -4
v -2 14 -4
v -1 13 -4
v -1 14 -4
v 0 15 -4
v 0 16 -4
v 1 15 -4
v 1 16 -4
v -2 14 -5
v -2 15 -5
v -2 17 -5
v -2 18 -5
v -1 14 -5
v -1 15 -5
v -1 17 -5
v -1 18 -5
v -2 18 -6
v -2 19 -6
v -1 18 -6
v -1 19 -6
v 1 16 -6
v 1 17 -6
v 2 16 -6
v 2 17 -6
v 1 15 -7
v 1 16 -7
v 2 15 -7
v 2 16 -7
v -2 15 9
v -2 16 9
v -1 15 9
v -1 16 9
v -3 10 7
v -3 11 7
v -3 14 7
v -3 15 7
v -2 10 7
v -2 11 7
v -2 14 7
v -2 15 7
v -2 20 7
v -2 24 7
v -2 26 7
v -1 24 7
v -1 26 7
v 0 24 7
v 0 26 7
v 1 10 7
v 1 11 7
v 1 14 7
v 1 15 7
v 1 20 7
v 1 24 7
v 1 26 7
v 2 10 7
v 2 11 7
v 2 14 7
v 2 15 7
v -2 14 3
v -2 16 3
v -1 14 3
v -1 16 3
v -3 10 2
v -3 11 2
v -3 13 2
v -3 18 2
v -2 10 2
v -2 11 2
v -2 13 2
v -2 15 2
v -2 18 2
v -1 14 2
v -1 15 2
v 1 10 2
v 1 11 2
v 1 12 2
v 1 14 2
v 1 15 2
v 1 18 2
v 2 10 2
v 2 11 2
v 2 12 2
v 2 18 2
v -2 15 1
v -2 19 1
v 1 15 1
v 1 19 1
v -2 19 -0
v -2 21 -0
v -1 20 -0
v -1 21 -0
v 0 20 -0
v 0 21 -0
v 0 22 -0
v 1 19 -0
v 1 21 -0
v 1 22 -0
v -1 20 -1
v -1 22 -1
v 0 20 -1
v 0 22 -1
v 0 12 -2
v 0 13 -2
v 0 16 -2
v 0 17 -2
v 1 12 -2
v 1 13 -2
v 1 16 -2
v 1 17 -2
v -4 17 -3
v -4 18 -3
v -3 17 -3
v -3 18 -3
v -2 13 -3
v -2 14 -3
v -1 13 -3
v -1 14 -3
v 0 13 -3
v 0 14 -3
v 0 15 -3
v 0 16 -3
v 1 13 -3
v 1 14 -3
v 1 15 -3
v 1 16 -3
v -4 18 -4
v -4 19 -4
v -3 18 -4
v -3 19 -4
v -2 14 -4
v -2 15 -4
v -2 17 -4
v -2 18 -4
v -1 14 -4
v -1 15 -4
v -1 17 -4
v -1 18 -4
v 0 16 -4
v 0 17 -4
v 1 16 -4
v 1 17 -4
v -2 13 -5
v -2 14 -5
v -2 18 -5
v -2 19 -5
v -1 13 -5
v -1 14 -5
v -1 18 -5
v -1 19 -5
v 0 15 -5
v 0 16 -5
v 1 15 -5
v 1 16 -5
v -2 14 -6
v -2 15 -6
v -2 17 -6
v -2 18 -6
v -1 14 -6
v -1 15 -6
v -1 17 -6
v -1 18 -6
v -2 18 -7
v -2 19 -7
v -1 18 -7
v -1 19 -7
v 1 16 -7
v 1 17 -7
v 2 16 -7
v 2 17 -7
v 1 15 -8
v 1 16 -8
v 2 15 -8
v 2 16 -8
v -3 10 8
v -2 10 8
v 1 10 8
v 2 10 8
v -3 10 7
v -2 10 7
v 1 10 7
v 2 10 7
v -3 10 3
v -2 10 3
v 1 10 3
v 2 10 3
v -3 10 2
v -2 10 2
v 1 10 2
v 2 10 2
v -3 12 9
v -2 12 9
v 1 12 9
v 2 12 9
v -3 12 8
v -2 12 8
v 1 12 8
v 2 12 8
v -3 12 4
v -2 12 4
v 1 12 4
v 2 12 4
v -3 12 3
v -2 12 3
v 1 12 3
v 2 12 3
v 0 12 -1
v 1 12 -1
v 0 12 -2
v 1 12 -2
v -2 13 -1
v -1 13 -1
v 0 13 -2
v 1 13 -2
v -2 13 -3
v -1 13 -3
v 0 13 -3
v 1 13 -3
v -2 13 -4
v -1 13 -4
v -2 13 -5
v -1 13 -5
v -1 14 9
v 1 14 9
v -2 14 8
v -1 14 8
v -2 14 7
v 1 14 7
v -3 14 5
v -2 14 5
v 1 14 5
v 2 14 5
v -3 14 4
v -2 14 4
v 1 14 4
v 2 14 4
v -2 14 3
v -1 14 3
v -1 14 2
v 1 14 2
v -2 14 -3
v -1 14 -3
v -2 14 -4
v -1 14 -4
v -2 14 -5
v -1 14 -5
v -2 14 -6
v -1 14 -6
v -2 15 10
v 1 15 10
v -2 15 9
v -1 15 9
v 1 15 9
v -3 15 7
v -2 15 7
v 1 15 7
v 2 15 7
v -3 15 5
v -2 15 5
v 1 15 5
v 2 15 5
v -2 15 2
v -1 15 2
v 1 15 2
v -2 15 1
v 1 15 1
v 0 15 -0
v 1 15 -0
v 0 15 -3
v 1 15 -3
v 0 15 -4
v 1 15 -4
v 0 15 -5
v 1 15 -5
v 1 15 -7
v 2 15 -7
v 1 15 -8
v 2 15 -8
v -2 16 9
v -1 16 9
v -2 16 8
v -1 16 8
v -2 16 3
v -1 16 3
v -2 16 2
v -1 16 2
v 0 16 -3
v 1 16 -3
v 0 16 -4
v 1 16 -4
v 1 16 -6
v 2 16 -6
v 1 16 -7
v 2 16 -7
v -4 17 -2
v -3 17 -2
v -2 17 -2
v -1 17 -2
v -4 17 -3
v -3 17 -3
v -2 17 -4
v -1 17 -4
v -2 17 -5
v -1 17 -5
v -2 17 -6
v -1 17 -6
v -4 18 -3
v -3 18 -3
v -4 18 -4
v -3 18 -4
v -2 18 -4
v -1 18 -4
v -2 18 -5
v -1 18 -5
v -2 18 -6
v -1 18 -6
v -2 18 -7
v -1 18 -7
v -2 19 1
v 1 19 1
v -2 19 -0
v 1 19 -0
v -2 20 12
v 1 20 12
v -2 20 10
v 1 20 10
v -1 20 -0
v 0 20 -0
v -1 20 -1
v 0 20 -1
v 0 13 -1
v 1 13 -1
v 0 13 -2
v 1 13 -2
v 0 14 -2
v 1 14 -2
v 0 14 -3
v 1 14 -3
v -2 14 -4
v -1 14 -4
v -2 14 -5
v -1 14 -5
v -2 15 -1
v -1 15 -1
v -2 15 -4
v -1 15 -4
v -2 15 -5
v -1 15 -5
v -2 15 -6
v -1 15 -6
v 0 16 -2
v 1 16 -2
v 0 16 -3
v 1 16 -3
v 0 16 -4
v 1 16 -4
v 0 16 -5
v 1 16 -5
v 1 16 -7
v 2 16 -7
v 1 16 -8
v 2 16 -8
v 0 17 -0
v 1 17 -0
v 0 17 -2
v 1 17 -2
v 0 17 -3
v 1 17 -3
v 0 17 -4
v 1 17 -4
v 1 17 -6
v 2 17 -6
v 1 17 -7
v 2 17 -7
v -3 18 9
v -2 18 9
v 1 18 9
v 2 18 9
v -3 18 2
v -2 18 2
v 1 18 2
v 2 18 2
v -4 18 -2
v -3 18 -2
v -4 18 -3
v -3 18 -3
v -2 18 -5
v -1 18 -5
v -2 18 -6
v -1 18 -6
v -2 19 -2
v -1 19 -2
v -4 19 -3
v -3 19 -3
v -4 19 -4
v -3 19 -4
v -2 19 -5
v -1 19 -5
v -2 19 -6
v -1 19 -6
v -2 19 -7
v -1 19 -7
v -2 20 7
v 1 20 7
v -2 20 2
v 1 20 2
v -2 21 2
v 1 21 2
v -1 21 1
v 0 21 1
v 1 21 1
v -2 21 -0
v -1 21 -0
v -2 22 12
v 1 22 12
v -2 22 11
v 1 22 11
v -1 22 1
v 0 22 1
v 1 22 1
v -1 22 -0
v 0 22 -0
v 1 22 -0
v -1 22 -1
v 0 22 -1
v -2 24 11
v 1 24 11
v -2 24 8
v -1 24 8
v 0 24 8
v 1 24 8
v -1 24 7
v 0 24 7
v -2 26 8
v -1 26 8
v 0 26 8
v 1 26 8
v -2 26 7
v -1 26 7
v 0 26 7
v 1 26 7

# faces
f 3/2/1 2/2/1 1/2/1
f 4/2/1 2/2/1 3/2/1
f 6/2/1 5/2/1 4/2/1
f 7/2/1 5/2/1 6/2/1
f 12/1/1 9/1/1 8/1/1
f 13/1/1 9/1/1 12/1/1
f 14/1/1 11/1/1 10/1/1
f 15/1/1 11/1/1 14/1/1
f 17/4/1 13/4/1 12/4/1
f 19/4/1 15/4/1 14/4/1
f 20/4/1 15/4/1 19/4/1
f 20/3/1 19/3/1 18/3/1
f 21/4/1 15/4/1 20/4/1
f 22/4/1 17/4/1 16/4/1
f 22/4/1 13/4/1 17/4/1
f 23/4/1 13/4/1 22/4/1
f 25/3/1 21/3/1 20/3/1
f 25/3/1 20/3/1 18/3/1
f 26/4/1 22/4/1 16/4/1
f 27/3/1 23/3/1 22/3/1
f 27/4/1 22/4/1 26/4/1
f 28/3/1 23/3/1 27/3/1
f 29/3/1 25/3/1 24/3/1
f 30/3/1 28/3/1 27/3/1
f 30/3/1 29/3/1 28/3/1
f 30/3/1 27/3/1 26/3/1
f 31/3/1 25/3/1 29/3/1
f 31/3/1 29/3/1 30/3/1
f 31/3/1 21/3/1 25/3/1
f 38/2/1 33/2/1 32/2/1
f 39/2/1 35/2/1 34/2/1
f 40/2/1 35/2/1 39/2/1
f 44/4/1 37/4/1 36/4/1
f 45/4/1 37/4/1 44/4/1
f 48/2/1 38/2/1 32/2/1
f 48/2/1 39/2/1 38/2/1
f 49/2/1 39/2/1 48/2/1
f 50/2/1 41/2/1 40/2/1
f 51/2/1 41/2/1 50/2/1
f 56/4/1 43/4/1 42/4/1
f 57/4/1 47/4/1 46/4/1
f 58/2/1 53/2/1 52/2/1
f 59/2/1 55/2/1 54/2/1
f 60/2/1 55/2/1 59/2/1
f 62/4/1 57/4/1 56/4/1
f 62/4/1 47/4/1 57/4/1
f 64/2/1 58/2/1 52/2/1
f 64/2/1 59/2/1 58/2/1
f 65/2/1 59/2/1 64/2/1
f 66/2/1 61/2/1 60/2/1
f 67/2/1 61/2/1 66/2/1
f 69/4/1 63/4/1 62/4/1
f 69/4/1 56/4/1 42/4/1
f 69/4/1 62/4/1 56/4/1
f 70/4/1 63/4/1 69/4/1
f 71/4/1 63/4/1 70/4/1
f 72/4/1 63/4/1 71/4/1
f 73/4/1 63/4/1 72/4/1
f 74/4/1 69/4/1 68/4/1
f 74/4/1 70/4/1 69/4/1
f 75/4/1 70/4/1 74/4/1
f 76/4/1 70/4/1 75/4/1
f 77/4/1 70/4/1 76/4/1
f 78/4/1 70/4/1 77/4/1
f 79/1/1 78/1/1 77/1/1
f 80/1/1 78/1/1 79/1/1
f 85/4/1 82/4/1 81/4/1
f 86/4/1 84/4/1 83/4/1
f 87/4/1 82/4/1 85/4/1
f 88/4/1 82/4/1 87/4/1
f 89/4/1 86/4/1 83/4/1
f 90/4/1 86/4/1 89/4/1
f 94/1/1 92/1/1 91/1/1
f 95/4/1 94/4/1 93/4/1
f 96/1/1 92/1/1 94/1/1
f 96/4/1 94/4/1 95/4/1
f 97/1/1 92/1/1 96/1/1
f 100/2/1 99/2/1 98/2/1
f 101/2/1 99/2/1 100/2/1
f 103/2/1 102/2/1 101/2/1
f 104/2/1 102/2/1 103/2/1
f 109/2/1 106/2/1 105/2/1
f 110/2/1 106/2/1 109/2/1
f 111/2/1 108/2/1 107/2/1
f 112/2/1 108/2/1 111/2/1
f 113/2/1 109/2/1 105/2/1
f 114/2/1 109/2/1 113/2/1
f 115/2/1 111/2/1 110/2/1
f 116/2/1 111/2/1 115/2/1
f 119/1/1 118/1/1 117/1/1
f 120/1/1 118/1/1 119/1/1
f 125/1/1 122/1/1 121/1/1
f 126/1/1 122/1/1 125/1/1
f 127/1/1 124/1/1 123/1/1
f 128/1/1 124/1/1 127/1/1
f 130/4/1 126/4/1 125/4/1
f 132/4/1 128/4/1 127/4/1
f 133/4/1 128/4/1 132/4/1
f 134/4/1 130/4/1 129/4/1
f 135/4/1 126/4/1 130/4/1
f 135/4/1 130/4/1 134/4/1
f 136/3/1 132/3/1 131/3/1
f 136/3/1 133/3/1 132/3/1
f 137/3/1 133/3/1 136/3/1
f 141/2/1 139/2/1 138/2/1
f 142/2/1 139/2/1 141/2/1
f 143/2/1 141/2/1 140/2/1
f 144/2/1 141/2/1 143/2/1
f 145/2/2 146/2/2 147/2/2
f 147/2/2 146/2/2 148/2/2
f 148/2/2 149/2/2 150/2/2
f 150/2/2 149/2/2 151/2/2
f 152/1/2 153/1/2 156/1/2
f 156/1/2 153/1/2 157/1/2
f 154/1/2 155/1/2 158/1/2
f 158/1/2 155/1/2 159/1/2
f 156/4/2 157/4/2 161/4/2
f 158/4/2 159/4/2 163/4/2
f 163/4/2 159/4/2 164/4/2
f 162/3/2 163/3/2 164/3/2
f 164/4/2 159/4/2 165/4/2
f 160/4/2 161/4/2 166/4/2
f 161/4/2 157/4/2 166/4/2
f 166/4/2 157/4/2 167/4/2
f 164/3/2 165/3/2 168/3/2
f 162/3/2 164/3/2 168/3/2
f 168/3/2 165/3/2 169/3/2
f 160/4/2 166/4/2 170/4/2
f 170/4/2 166/4/2 171/4/2
f 169/3/2 165/3/2 172/3/2
f 170/3/2 171/3/2 173/3/2
f 173/3/2 171/3/2 174/3/2
f 169/3/2 172/3/2 175/3/2
f 175/3/2 172/3/2 176/3/2
f 177/2/2 178/2/2 181/2/2
f 179/2/2 180/2/2 182/2/2
f 182/2/2 180/2/2 183/2/2
f 177/2/2 181/2/2 185/2/2
f 181/2/2 182/2/2 185/2/2
f 185/2/2 182/2/2 186/2/2
f 183/2/2 184/2/2 187/2/2
f 187/2/2 184/2/2 188/2/2
f 189/2/2 190/2/2 193/2/2
f 191/2/2 192/2/2 194/2/2
f 194/2/2 192/2/2 195/2/2
f 189/2/2 193/2/2 197/2/2
f 193/2/2 194/2/2 197/2/2
f 197/2/2 194/2/2 198/2/2
f 195/2/2 196/2/2 199/2/2
f 199/2/2 196/2/2 200/2/2
f 201/1/2 202/1/2 203/1/2
f 203/1/2 202/1/2 204/1/2
f 205/1/2 206/1/2 207/1/2
f 207/1/2 206/1/2 208/1/2
f 208/1/2 206/1/2 209/1/2
f 210/2/2 211/2/2 212/2/2
f 212/2/2 211/2/2 213/2/2
f 213/2/2 214/2/2 217/2/2
f 217/2/2 214/2/2 218/2/2
f 215/4/2 216/4/2 221/4/2
f 221/4/2 216/4/2 222/4/2
f 225/2/2 226/2/2 229/2/2
f 229/2/2 226/2/2 230/2/2
f 227/2/2 228/2/2 231/2/2
f 231/2/2 228/2/2 232/2/2
f 225/2/2 229/2/2 233/2/2
f 233/2/2 229/2/2 234/2/2
f 230/2/2 231/2/2 235/2/2
f 235/2/2 231/2/2 236/2/2
f 219/4/2 220/4/2 237/4/2
f 223/4/2 224/4/2 238/4/2
f 238/4/2 224/4/2 239/4/2
f 237/4/2 238/4/2 239/4/2
f 219/4/2 237/4/2 242/4/2
f 239/4/2 240/4/2 242/4/2
f 237/4/2 239/4/2 242/4/2
f 242/4/2 240/4/2 243/4/2
f 243/4/2 240/4/2 244/4/2
f 244/4/2 240/4/2 245/4/2
f 245/4/2 240/4/2 246/4/2
f 246/4/2 240/4/2 247/4/2
f 241/4/2 242/4/2 248/4/2
f 242/4/2 243/4/2 248/4/2
f 248/4/2 243/4/2 249/4/2
f 246/1/2 247/1/2 250/1/2
f 250/1/2 247/1/2 251/1/2
f 249/4/2 243/4/2 252/4/2
f 252/4/2 243/4/2 253/4/2
f 253/4/2 243/4/2 254/4/2
f 253/1/2 254/1/2 255/1/2
f 255/1/2 254/1/2 256/1/2
f 257/1/2 258/1/2 261/1/2
f 261/1/2 258/1/2 262/1/2
f 259/1/2 260/1/2 263/1/2
f 263/1/2 260/1/2 264/1/2
f 261/4/2 262/4/2 266/4/2
f 263/4/2 264/4/2 268/4/2
f 268/4/2 264/4/2 269/4/2
f 265/4/2 266/4/2 270/4/2
f 266/4/2 262/4/2 270/4/2
f 270/4/2 262/4/2 271/4/2
f 268/3/2 269/3/2 273/3/2
f 267/3/2 268/3/2 273/3/2
f 265/4/2 270/4/2 274/4/2
f 270/3/2 271/3/2 275/3/2
f 274/4/2 270/4/2 275/4/2
f 275/3/2 271/3/2 276/3/2
f 272/3/2 273/3/2 277/3/2
f 278/2/2 279/2/2 281/2/2
f 281/2/2 279/2/2 282/2/2
f 280/2/2 281/2/2 283/2/2
f 283/2/2 281/2/2 284/2/2
f 276/3/2 277/3/2 285/3/2
f 275/3/2 276/3/2 285/3/2
f 274/3/2 275/3/2 285/3/2
f 277/3/2 273/3/2 286/3/2
f 285/3/2 277/3/2 286/3/2
f 273/3/2 269/3/2 286/3/2
f 289/4/3 288/4/3 287/4/3
f 290/4/3 288/4/3 289/4/3
f 293/4/3 292/4/3 291/4/3
f 294/4/3 292/4/3 293/4/3
f 297/4/3 296/4/3 295/4/3
f 298/4/3 296/4/3 297/4/3
f 302/4/3 300/4/3 299/4/3
f 303/3/3 301/3/3 300/3/3
f 303/4/3 300/4/3 302/4/3
f 304/3/3 301/3/3 303/3/3
f 308/4/3 306/4/3 305/4/3
f 309/4/3 306/4/3 308/4/3
f 311/4/3 308/4/3 307/4/3
f 311/4/3 309/4/3 308/4/3
f 312/3/3 310/3/3 309/3/3
f 312/4/3 309/4/3 311/4/3
f 313/3/3 310/3/3 312/3/3
f 317/1/3 315/1/3 314/1/3
f 318/4/3 316/4/3 315/4/3
f 318/1/3 315/1/3 317/1/3
f 319/4/3 316/4/3 318/4/3
f 325/4/3 322/4/3 321/4/3
f 325/4/3 321/4/3 320/4/3
f 326/4/3 322/4/3 325/4/3
f 327/1/3 324/1/3 323/1/3
f 328/1/3 324/1/3 327/1/3
f 334/1/3 330/1/3 329/1/3
f 335/1/3 330/1/3 334/1/3
f 336/1/3 332/1/3 331/1/3
f 337/4/3 333/4/3 332/4/3
f 337/1/3 332/1/3 336/1/3
f 338/4/3 333/4/3 337/4/3
f 341/3/3 340/3/3 339/3/3
f 342/3/3 340/3/3 341/3/3
f 345/3/3 344/3/3 343/3/3
f 346/3/3 344/3/3 345/3/3
f 349/3/3 348/3/3 347/3/3
f 350/3/3 348/3/3 349/3/3
f 353/3/3 352/3/3 351/3/3
f 354/3/3 352/3/3 353/3/3
f 358/1/3 356/1/3 355/1/3
f 359/4/3 357/4/3 356/4/3
f 359/1/3 356/1/3 358/1/3
f 360/4/3 357/4/3 359/4/3
f 364/1/3 362/1/3 361/1/3
f 365/4/3 363/4/3 362/4/3
f 365/1/3 362/1/3 364/1/3
f 366/4/3 363/4/3 365/4/3
f 371/4/3 368/4/3 367/4/3
f 372/4/3 368/4/3 371/4/3
f 373/4/3 370/4/3 369/4/3
f 374/4/3 370/4/3 373/4/3
f 377/4/3 376/4/3 375/4/3
f 378/4/3 376/4/3 377/4/3
f 379/1/3 378/1/3 377/1/3
f 380/1/3 378/1/3 379/1/3
f 383/2/3 382/2/3 381/2/3
f 384/2/3 382/2/3 383/2/3
f 387/2/3 386/2/3 385/2/3
f 388/2/3 386/2/3 387/2/3
f 391/2/3 390/2/3 389/2/3
f 392/2/3 390/2/3 391/2/3
f 395/2/3 394/2/3 393/2/3
f 396/2/3 394/2/3 395/2/3
f 399/2/3 398/2/3 397/2/3
f 400/2/3 398/2/3 399/2/3
f 403/2/3 402/2/3 401/2/3
f 404/2/3 402/2/3 403/2/3
f 407/2/3 406/2/3 405/2/3
f 408/2/3 406/2/3 407/2/3
f 411/2/3 410/2/3 409/2/3
f 412/2/3 410/2/3 411/2/3
f 415/2/3 414/2/3 413/2/3
f 416/2/3 414/2/3 415/2/3
f 419/2/3 418/2/3 417/2/3
f 420/2/3 418/2/3 419/2/3
f 425/2/3 422/2/3 421/2/3
f 426/2/3 422/2/3 425/2/3
f 427/2/3 424/2/3 423/2/3
f 428/2/3 424/2/3 427/2/3
f 431/2/3 430/2/3 429/2/3
f 432/2/3 430/2/3 431/2/3
f 435/2/3 434/2/3 433/2/3
f 436/2/3 434/2/3 435/2/3
f 439/2/3 438/2/3 437/2/3
f 440/2/3 438/2/3 439/2/3
f 441/4/4 442/4/4 443/4/4
f 443/4/4 442/4/4 444/4/4
f 445/1/4 446/1/4 449/1/4
f 446/4/4 447/4/4 450/4/4
f 449/1/4 446/1/4 450/1/4
f 447/3/4 448/3/4 451/3/4
f 450/4/4 447/4/4 451/4/4
f 451/3/4 448/3/4 452/3/4
f 454/1/4 455/1/4 456/1/4
f 453/4/4 454/4/4 456/4/4
f 456/1/4 455/1/4 457/1/4
f 453/4/4 456/4/4 458/4/4
f 453/4/4 458/4/4 464/4/4
f 458/1/4 459/1/4 465/1/4
f 464/4/4 458/4/4 465/4/4
f 465/1/4 459/1/4 466/1/4
f 460/1/4 461/1/4 467/1/4
f 461/4/4 462/4/4 468/4/4
f 467/1/4 461/1/4 468/1/4
f 462/3/4 463/3/4 469/3/4
f 468/4/4 462/4/4 469/4/4
f 469/3/4 463/3/4 470/3/4
f 471/4/4 472/4/4 473/4/4
f 473/4/4 472/4/4 474/4/4
f 475/1/4 476/1/4 479/1/4
f 476/4/4 477/4/4 480/4/4
f 479/1/4 476/1/4 480/1/4
f 477/3/4 478/3/4 481/3/4
f 480/4/4 477/4/4 481/4/4
f 481/3/4 478/3/4 482/3/4
f 482/3/4 478/3/4 483/3/4
f 484/4/4 485/4/4 489/4/4
f 489/4/4 485/4/4 490/4/4
f 486/1/4 487/1/4 492/1/4
f 487/4/4 488/4/4 493/4/4
f 492/1/4 487/1/4 493/1/4
f 490/3/4 491/3/4 494/3/4
f 493/4/4 488/4/4 494/4/4
f 488/3/4 489/3/4 494/3/4
f 489/3/4 490/3/4 494/3/4
f 494/3/4 491/3/4 495/3/4
f 496/4/4 497/4/4 498/4/4
f 498/4/4 497/4/4 499/4/4
f 500/4/4 501/4/4 502/4/4
f 502/4/4 501/4/4 503/4/4
f 500/4/4 502/4/4 504/4/4
f 504/4/4 505/4/4 507/4/4
f 500/4/4 504/4/4 507/4/4
f 505/1/4 506/1/4 508/1/4
f 507/4/4 505/4/4 508/4/4
f 508/1/4 506/1/4 509/1/4
f 510/1/4 511/1/4 512/1/4
f 512/1/4 511/1/4 513/1/4
f 514/2/4 515/2/4 518/2/4
f 518/2/4 515/2/4 519/2/4
f 516/2/4 517/2/4 520/2/4
f 520/2/4 517/2/4 521/2/4
f 522/2/4 523/2/4 524/2/4
f 524/2/4 523/2/4 525/2/4
f 526/2/4 527/2/4 528/2/4
f 528/2/4 527/2/4 529/2/4
f 530/2/4 531/2/4 534/2/4
f 534/2/4 531/2/4 535/2/4
f 532/2/4 533/2/4 536/2/4
f 536/2/4 533/2/4 537/2/4
f 538/2/4 539/2/4 540/2/4
f 540/2/4 539/2/4 541/2/4
f 542/2/4 543/2/4 546/2/4
f 546/2/4 543/2/4 547/2/4
f 544/2/4 545/2/4 548/2/4
f 548/2/4 545/2/4 549/2/4
f 550/2/4 551/2/4 552/2/4
f 552/2/4 551/2/4 553/2/4
f 554/2/4 555/2/4 558/2/4
f 558/2/4 555/2/4 559/2/4
f 556/2/4 557/2/4 560/2/4
f 560/2/4 557/2/4 561/2/4
f 562/2/4 563/2/4 564/2/4
f 564/2/4 563/2/4 565/2/4
f 566/2/4 567/2/4 570/2/4
f 570/2/4 567/2/4 571/2/4
f 568/2/4 569/2/4 572/2/4
f 572/2/4 569/2/4 573/2/4
f 574/2/4 575/2/4 576/2/4
f 576/2/4 575/2/4 577/2/4
f 578/2/4 579/2/4 580/2/4
f 580/2/4 579/2/4 581/2/4
f 582/2/4 583/2/4 584/2/4
f 584/2/4 583/2/4 585/2/4
f 590/1/5 587/1/5 586/1/5
f 591/1/5 587/1/5 590/1/5
f 592/1/5 589/1/5 588/1/5
f 593/1/5 589/1/5 592/1/5
f 598/1/5 595/1/5 594/1/5
f 599/1/5 595/1/5 598/1/5
f 600/1/5 597/1/5 596/1/5
f 601/1/5 597/1/5 600/1/5
f 606/4/5 603/4/5 602/4/5
f 607/4/5 603/4/5 606/4/5
f 608/4/5 605/4/5 604/4/5
f 609/4/5 605/4/5 608/4/5
f 614/3/5 611/3/5 610/3/5
f 615/3/5 611/3/5 614/3/5
f 616/3/5 613/3/5 612/3/5
f 617/3/5 613/3/5 616/3/5
f 620/2/5 619/2/5 618/2/5
f 621/2/5 619/2/5 620/2/5
f 626/2/5 623/2/5 622/2/5
f 627/2/5 623/2/5 626/2/5
f 628/2/5 625/2/5 624/2/5
f 629/2/5 625/2/5 628/2/5
f 632/2/5 631/2/5 630/2/5
f 633/2/5 631/2/5 632/2/5
f 637/4/5 635/4/5 634/4/5
f 638/4/5 637/4/5 636/4/5
f 639/4/5 635/4/5 637/4/5
f 639/4/5 637/4/5 638/4/5
f 641/4/5 639/4/5 638/4/5
f 642/4/5 639/4/5 641/4/5
f 644/3/5 641/3/5 640/3/5
f 645/4/5 642/4/5 641/4/5
f 645/3/5 641/3/5 644/3/5
f 646/3/5 643/3/5 642/3/5
f 646/4/5 642/4/5 645/4/5
f 647/3/5 643/3/5 646/3/5
f 648/4/5 646/4/5 645/4/5
f 649/4/5 646/4/5 648/4/5
f 650/4/5 646/4/5 649/4/5
f 651/4/5 646/4/5 650/4/5
f 654/2/5 653/2/5 652/2/5
f 655/2/5 653/2/5 654/2/5
f 658/2/5 657/2/5 656/2/5
f 659/2/5 657/2/5 658/2/5
f 662/4/5 661/4/5 660/4/5
f 663/4/5 661/4/5 662/4/5
f 664/4/5 661/4/5 663/4/5
f 669/3/5 666/3/5 665/3/5
f 670/3/5 666/3/5 669/3/5
f 671/3/5 668/3/5 667/3/5
f 672/3/5 668/3/5 671/3/5
f 676/4/5 674/4/5 673/4/5
f 676/4/5 675/4/5 674/4/5
f 677/4/5 675/4/5 676/4/5
f 680/2/5 679/2/5 678/2/5
f 681/2/5 679/2/5 680/2/5
f 684/2/5 683/2/5 682/2/5
f 685/2/5 683/2/5 684/2/5
f 688/2/5 687/2/5 686/2/5
f 689/2/5 687/2/5 688/2/5
f 692/4/5 691/4/5 690/4/5
f 693/4/5 691/4/5 692/4/5
f 696/4/5 695/4/5 694/4/5
f 697/4/5 695/4/5 696/4/5
f 700/2/5 699/2/5 698/2/5
f 701/2/5 699/2/5 700/2/5
f 704/2/5 703/2/5 702/2/5
f 705/2/5 703/2/5 704/2/5
f 710/2/5 707/2/5 706/2/5
f 711/2/5 707/2/5 710/2/5
f 712/2/5 709/2/5 708/2/5
f 713/2/5 709/2/5 712/2/5
f 716/2/5 715/2/5 714/2/5
f 717/2/5 715/2/5 716/2/5
f 720/2/5 719/2/5 718/2/5
f 721/2/5 719/2/5 720/2/5
f 724/2/5 723/2/5 722/2/5
f 725/2/5 723/2/5 724/2/5
f 728/2/5 727/2/5 726/2/5
f 729/2/5 727/2/5 728/2/5
f 732/4/5 731/4/5 730/4/5
f 733/4/5 731/4/5 732/4/5
f 736/4/5 735/4/5 734/4/5
f 737/4/5 735/4/5 736/4/5
f 740/1/5 739/1/5 738/1/5
f 741/1/5 739/1/5 740/1/5
f 742/2/6 743/2/6 744/2/6
f 744/2/6 743/2/6 745/2/6
f 746/2/6 747/2/6 748/2/6
f 748/2/6 747/2/6 749/2/6
f 750/2/6 751/2/6 752/2/6
f 752/2/6 751/2/6 753/2/6
f 754/2/6 755/2/6 756/2/6
f 756/2/6 755/2/6 757/2/6
f 758/2/6 759/2/6 760/2/6
f 760/2/6 759/2/6 761/2/6
f 762/2/6 763/2/6 764/2/6
f 764/2/6 763/2/6 765/2/6
f 766/2/6 767/2/6 768/2/6
f 768/2/6 767/2/6 769/2/6
f 770/2/6 771/2/6 772/2/6
f 772/2/6 771/2/6 773/2/6
f 774/2/6 775/2/6 776/2/6
f 776/2/6 775/2/6 777/2/6
f 778/2/6 779/2/6 780/2/6
f 780/2/6 779/2/6 781/2/6
f 782/2/6 783/2/6 784/2/6
f 784/2/6 783/2/6 785/2/6
f 786/3/6 787/3/6 790/3/6
f 790/3/6 787/3/6 791/3/6
f 788/3/6 789/3/6 792/3/6
f 792/3/6 789/3/6 793/3/6
f 794/2/6 795/2/6 796/2/6
f 796/2/6 795/2/6 797/2/6
f 798/2/6 799/2/6 800/2/6
f 800/2/6 799/2/6 801/2/6
f 804/2/6 805/2/6 806/2/6
f 806/2/6 805/2/6 807/2/6
f 802/2/6 803/2/6 808/2/6
f 808/2/6 803/2/6 809/2/6
f 810/2/6 811/2/6 812/2/6
f 812/2/6 811/2/6 813/2/6
f 814/4/6 815/4/6 816/4/6
f 816/4/6 815/4/6 817/4/6
f 818/4/6 819/4/6 820/4/6
f 820/4/6 819/4/6 821/4/6
f 821/4/6 819/4/6 822/4/6
f 818/4/6 820/4/6 823/4/6
f 823/4/6 820/4/6 824/4/6
f 825/4/6 826/4/6 827/4/6
f 827/4/6 826/4/6 828/4/6
f 829/4/6 830/4/6 832/4/6
f 830/1/6 831/1/6 833/1/6
f 832/4/6 830/4/6 833/4/6
f 833/1/6 831/1/6 834/1/6
f 832/1/6 833/1/6 835/1/6
f 835/1/6 833/1/6 836/1/6
f 837/4/6 838/4/6 839/4/6
f 839/4/6 838/4/6 840/4/6
f 840/4/6 838/4/6 841/4/6
f 841/4/6 838/4/6 842/4/6
f 840/4/6 841/4/6 843/4/6
f 843/4/6 841/4/6 844/4/6
f 845/1/6 846/1/6 849/1/6
f 849/1/6 846/1/6 850/1/6
f 847/1/6 848/1/6 851/1/6
f 851/1/6 848/1/6 852/1/6
