# MagicaVoxel @ Ephtracy

# material
mtllib Hunter_rifle.mtl
usemtl palette

# normals
vn -1 0 0
vn 1 0 0
vn 0 0 1
vn 0 0 -1
vn 0 -1 0
vn 0 1 0

# texcoords
vt 0.0488281 0.5
vt 0.0566406 0.5
vt 0.439453 0.5
vt 0.474609 0.5
vt 0.482422 0.5
vt 0.955078 0.5
vt 0.958984 0.5
vt 0.982422 0.5
vt 0.986328 0.5
vt 0.994141 0.5

# verts
v -6 9 9
v -6 9 7
v -6 10 10
v -6 10 9
v -6 10 7
v -6 11 10
v -6 11 9
v -5 0 9
v -5 0 8
v -5 1 9
v -5 1 8
v -5 3 9
v -5 3 8
v -5 4 9
v -5 4 8
v -5 5 9
v -5 5 8
v -5 6 12
v -5 6 11
v -5 6 10
v -5 6 9
v -5 6 8
v -5 7 12
v -5 7 11
v -5 7 10
v -5 7 9
v -5 7 8
v -5 8 10
v -5 8 8
v -5 8 7
v -5 9 10
v -5 9 9
v -5 9 8
v -5 9 7
v -5 9 6
v -5 10 11
v -5 10 10
v -5 10 9
v -5 10 7
v -5 10 6
v -5 11 11
v -5 11 10
v -5 11 9
v -5 11 7
v -5 12 10
v -5 12 9
v -4 5 11
v -4 5 9
v -4 6 13
v -4 6 12
v -4 6 11
v -4 6 10
v -4 6 9
v -4 6 7
v -4 6 6
v -4 7 19
v -4 7 13
v -4 7 12
v -4 7 11
v -4 7 9
v -4 7 8
v -4 7 7
v -4 7 6
v -4 8 19
v -4 8 15
v -4 8 13
v -4 8 11
v -4 8 9
v -4 8 8
v -4 8 7
v -4 8 6
v -4 9 16
v -4 9 15
v -4 9 13
v -4 9 12
v -4 9 7
v -4 9 6
v -4 10 16
v -4 10 12
v -3 0 9
v -3 0 8
v -3 1 9
v -3 1 8
v -3 3 9
v -3 3 8
v -4 0 9
v -4 0 8
v -4 1 9
v -4 1 8
v -4 3 9
v -4 3 8
v -3 5 11
v -3 5 9
v -3 6 13
v -3 6 12
v -3 6 11
v -3 6 10
v -3 6 9
v -3 6 7
v -3 6 6
v -3 7 19
v -3 7 13
v -3 7 12
v -3 7 11
v -3 7 9
v -3 7 8
v -3 7 7
v -3 7 6
v -3 8 19
v -3 8 15
v -3 8 13
v -3 8 11
v -3 8 9
v -3 8 8
v -3 8 7
v -3 8 6
v -3 9 16
v -3 9 15
v -3 9 13
v -3 9 12
v -3 9 7
v -3 9 6
v -3 10 16
v -3 10 12
v -2 0 9
v -2 0 8
v -2 1 9
v -2 1 8
v -2 3 9
v -2 3 8
v -2 4 9
v -2 4 8
v -2 5 9
v -2 5 8
v -2 6 12
v -2 6 11
v -2 6 10
v -2 6 9
v -2 6 8
v -2 7 12
v -2 7 11
v -2 7 10
v -2 7 9
v -2 7 8
v -2 8 10
v -2 8 8
v -2 8 7
v -2 9 10
v -2 9 9
v -2 9 8
v -2 9 7
v -2 9 6
v -2 10 11
v -2 10 10
v -2 10 9
v -2 10 7
v -2 10 6
v -2 11 11
v -2 11 10
v -2 11 9
v -2 11 7
v -2 12 10
v -2 12 9
v -1 9 9
v -1 9 7
v -1 10 10
v -1 10 9
v -1 10 7
v -1 11 10
v -1 11 9
v -4 7 19
v -4 8 19
v -3 7 19
v -3 8 19
v -4 9 16
v -4 10 16
v -3 9 16
v -3 10 16
v -4 8 15
v -4 9 15
v -3 8 15
v -3 9 15
v -4 6 13
v -4 7 13
v -3 6 13
v -3 7 13
v -5 6 12
v -5 7 12
v -4 6 12
v -4 7 12
v -3 6 12
v -3 7 12
v -2 6 12
v -2 7 12
v -5 10 11
v -5 11 11
v -4 5 11
v -4 6 11
v -3 5 11
v -3 6 11
v -2 10 11
v -2 11 11
v -6 10 10
v -6 11 10
v -5 8 10
v -5 9 10
v -5 10 10
v -5 11 10
v -5 12 10
v -2 8 10
v -2 9 10
v -2 10 10
v -2 11 10
v -2 12 10
v -1 10 10
v -1 11 10
v -6 9 9
v -6 10 9
v -5 0 9
v -5 1 9
v -5 3 9
v -5 4 9
v -5 5 9
v -5 6 9
v -5 9 9
v -5 10 9
v -4 0 9
v -4 1 9
v -4 3 9
v -4 4 9
v -4 5 9
v -4 6 9
v -4 7 9
v -4 8 9
v -3 0 9
v -3 1 9
v -3 3 9
v -3 4 9
v -3 5 9
v -3 6 9
v -3 7 9
v -3 8 9
v -2 0 9
v -2 1 9
v -2 3 9
v -2 4 9
v -2 5 9
v -2 6 9
v -2 9 9
v -2 10 9
v -1 9 9
v -1 10 9
v -4 6 7
v -4 7 7
v -4 8 7
v -3 6 7
v -3 7 7
v -3 8 7
v -4 8 13
v -4 9 13
v -3 8 13
v -3 9 13
v -4 9 12
v -4 10 12
v -3 9 12
v -3 10 12
v -4 7 11
v -4 8 11
v -3 7 11
v -3 8 11
v -6 10 9
v -6 11 9
v -5 10 9
v -5 11 9
v -5 12 9
v -2 10 9
v -2 11 9
v -2 12 9
v -1 10 9
v -1 11 9
v -5 0 8
v -5 1 8
v -5 3 8
v -5 4 8
v -5 5 8
v -5 6 8
v -5 7 8
v -4 0 8
v -4 1 8
v -4 3 8
v -4 4 8
v -4 5 8
v -4 6 8
v -4 7 8
v -4 8 8
v -3 0 8
v -3 1 8
v -3 3 8
v -3 4 8
v -3 5 8
v -3 6 8
v -3 7 8
v -3 8 8
v -2 0 8
v -2 1 8
v -2 3 8
v -2 4 8
v -2 5 8
v -2 6 8
v -2 7 8
v -6 9 7
v -6 10 7
v -5 8 7
v -5 9 7
v -5 10 7
v -5 11 7
v -4 8 7
v -4 9 7
v -3 8 7
v -3 9 7
v -2 8 7
v -2 9 7
v -2 10 7
v -2 11 7
v -1 9 7
v -1 10 7
v -5 9 6
v -5 10 6
v -4 6 6
v -4 7 6
v -4 8 6
v -4 9 6
v -3 6 6
v -3 7 6
v -3 8 6
v -3 9 6
v -2 9 6
v -2 10 6
v -5 0 9
v -4 0 9
v -3 0 9
v -2 0 9
v -5 0 8
v -4 0 8
v -3 0 8
v -2 0 8
v -4 3 9
v -3 3 9
v -4 3 8
v -3 3 8
v -4 5 11
v -3 5 11
v -4 5 9
v -3 5 9
v -4 6 13
v -3 6 13
v -5 6 12
v -4 6 12
v -3 6 12
v -2 6 12
v -5 6 11
v -4 6 11
v -3 6 11
v -2 6 11
v -5 6 10
v -4 6 10
v -3 6 10
v -2 6 10
v -5 6 9
v -4 6 9
v -3 6 9
v -2 6 9
v -4 6 7
v -3 6 7
v -4 6 6
v -3 6 6
v -4 7 19
v -3 7 19
v -4 7 13
v -3 7 13
v -5 8 10
v -2 8 10
v -4 8 9
v -3 8 9
v -5 8 8
v -4 8 8
v -3 8 8
v -2 8 8
v -5 8 7
v -4 8 7
v -3 8 7
v -2 8 7
v -4 9 16
v -3 9 16
v -4 9 15
v -3 9 15
v -4 9 13
v -3 9 13
v -4 9 12
v -3 9 12
v -6 9 9
v -5 9 9
v -2 9 9
v -1 9 9
v -5 9 8
v -2 9 8
v -6 9 7
v -5 9 7
v -4 9 7
v -3 9 7
v -2 9 7
v -1 9 7
v -5 9 6
v -4 9 6
v -3 9 6
v -2 9 6
v -5 10 11
v -2 10 11
v -6 10 10
v -5 10 10
v -2 10 10
v -1 10 10
v -6 10 9
v -5 10 9
v -2 10 9
v -1 10 9
v -5 7 12
v -4 7 12
v -3 7 12
v -2 7 12
v -5 7 11
v -4 7 11
v -3 7 11
v -2 7 11
v -5 7 10
v -4 7 10
v -3 7 10
v -2 7 10
v -5 7 9
v -4 7 9
v -3 7 9
v -2 7 9
v -5 7 8
v -4 7 8
v -3 7 8
v -2 7 8
v -4 8 19
v -3 8 19
v -4 8 15
v -3 8 15
v -4 8 13
v -3 8 13
v -4 8 11
v -3 8 11
v -4 10 16
v -3 10 16
v -4 10 12
v -3 10 12
v -6 10 9
v -5 10 9
v -2 10 9
v -1 10 9
v -6 10 7
v -5 10 7
v -2 10 7
v -1 10 7
v -5 10 6
v -2 10 6
v -5 11 11
v -2 11 11
v -6 11 10
v -5 11 10
v -2 11 10
v -1 11 10
v -6 11 9
v -5 11 9
v -2 11 9
v -1 11 9
v -5 11 7
v -2 11 7
v -5 12 10
v -2 12 10
v -5 12 9
v -2 12 9

# faces
f 4/9/1 2/9/1 1/9/1
f 5/9/1 2/9/1 4/9/1
f 6/9/1 4/9/1 3/9/1
f 7/9/1 4/9/1 6/9/1
f 10/2/1 9/2/1 8/2/1
f 11/2/1 9/2/1 10/2/1
f 12/3/1 11/3/1 10/3/1
f 13/3/1 11/3/1 12/3/1
f 14/6/1 13/6/1 12/6/1
f 15/6/1 13/6/1 14/6/1
f 16/7/1 15/7/1 14/7/1
f 17/7/1 15/7/1 16/7/1
f 21/6/1 17/6/1 16/6/1
f 22/6/1 17/6/1 21/6/1
f 23/4/1 19/4/1 18/4/1
f 24/7/1 20/7/1 19/7/1
f 24/4/1 19/4/1 23/4/1
f 25/6/1 21/6/1 20/6/1
f 25/7/1 20/7/1 24/7/1
f 26/7/1 22/7/1 21/7/1
f 26/6/1 21/6/1 25/6/1
f 27/7/1 22/7/1 26/7/1
f 31/5/1 29/5/1 28/5/1
f 32/5/1 29/5/1 31/5/1
f 33/10/1 30/10/1 29/10/1
f 33/5/1 29/5/1 32/5/1
f 34/10/1 30/10/1 33/10/1
f 37/4/1 32/4/1 31/4/1
f 38/4/1 32/4/1 37/4/1
f 39/9/1 35/9/1 34/9/1
f 40/9/1 35/9/1 39/9/1
f 41/9/1 37/9/1 36/9/1
f 42/9/1 37/9/1 41/9/1
f 43/9/1 39/9/1 38/9/1
f 44/9/1 39/9/1 43/9/1
f 45/9/1 43/9/1 42/9/1
f 46/9/1 43/9/1 45/9/1
f 51/1/1 48/1/1 47/1/1
f 52/1/1 48/1/1 51/1/1
f 53/1/1 48/1/1 52/1/1
f 57/1/1 50/1/1 49/1/1
f 58/1/1 50/1/1 57/1/1
f 62/8/1 55/8/1 54/8/1
f 63/8/1 55/8/1 62/8/1
f 64/1/1 57/1/1 56/1/1
f 64/1/1 58/1/1 57/1/1
f 64/1/1 59/1/1 58/1/1
f 65/1/1 59/1/1 64/1/1
f 66/1/1 59/1/1 65/1/1
f 67/1/1 59/1/1 66/1/1
f 68/4/1 61/4/1 60/4/1
f 69/4/1 61/4/1 68/4/1
f 70/9/1 63/9/1 62/9/1
f 71/9/1 63/9/1 70/9/1
f 73/1/1 66/1/1 65/1/1
f 74/1/1 66/1/1 73/1/1
f 76/8/1 71/8/1 70/8/1
f 77/8/1 71/8/1 76/8/1
f 78/1/1 75/1/1 74/1/1
f 78/1/1 73/1/1 72/1/1
f 78/1/1 74/1/1 73/1/1
f 79/1/1 75/1/1 78/1/1
f 82/2/1 81/2/1 80/2/1
f 83/2/1 81/2/1 82/2/1
f 84/3/1 83/3/1 82/3/1
f 85/3/1 83/3/1 84/3/1
f 86/2/2 87/2/2 88/2/2
f 88/2/2 87/2/2 89/2/2
f 88/3/2 89/3/2 90/3/2
f 90/3/2 89/3/2 91/3/2
f 92/1/2 93/1/2 96/1/2
f 96/1/2 93/1/2 97/1/2
f 97/1/2 93/1/2 98/1/2
f 94/1/2 95/1/2 102/1/2
f 102/1/2 95/1/2 103/1/2
f 99/8/2 100/8/2 107/8/2
f 107/8/2 100/8/2 108/8/2
f 101/1/2 102/1/2 109/1/2
f 102/1/2 103/1/2 109/1/2
f 103/1/2 104/1/2 109/1/2
f 109/1/2 104/1/2 110/1/2
f 110/1/2 104/1/2 111/1/2
f 111/1/2 104/1/2 112/1/2
f 105/4/2 106/4/2 113/4/2
f 113/4/2 106/4/2 114/4/2
f 107/9/2 108/9/2 115/9/2
f 115/9/2 108/9/2 116/9/2
f 110/1/2 111/1/2 118/1/2
f 118/1/2 111/1/2 119/1/2
f 115/8/2 116/8/2 121/8/2
f 121/8/2 116/8/2 122/8/2
f 119/1/2 120/1/2 123/1/2
f 117/1/2 118/1/2 123/1/2
f 118/1/2 119/1/2 123/1/2
f 123/1/2 120/1/2 124/1/2
f 125/2/2 126/2/2 127/2/2
f 127/2/2 126/2/2 128/2/2
f 127/3/2 128/3/2 129/3/2
f 129/3/2 128/3/2 130/3/2
f 129/6/2 130/6/2 131/6/2
f 131/6/2 130/6/2 132/6/2
f 131/7/2 132/7/2 133/7/2
f 133/7/2 132/7/2 134/7/2
f 133/6/2 134/6/2 138/6/2
f 138/6/2 134/6/2 139/6/2
f 135/4/2 136/4/2 140/4/2
f 136/7/2 137/7/2 141/7/2
f 140/4/2 136/4/2 141/4/2
f 137/6/2 138/6/2 142/6/2
f 141/7/2 137/7/2 142/7/2
f 138/7/2 139/7/2 143/7/2
f 142/6/2 138/6/2 143/6/2
f 143/7/2 139/7/2 144/7/2
f 145/5/2 146/5/2 148/5/2
f 148/5/2 146/5/2 149/5/2
f 146/10/2 147/10/2 150/10/2
f 149/5/2 146/5/2 150/5/2
f 150/10/2 147/10/2 151/10/2
f 148/4/2 149/4/2 154/4/2
f 154/4/2 149/4/2 155/4/2
f 151/9/2 152/9/2 156/9/2
f 156/9/2 152/9/2 157/9/2
f 153/9/2 154/9/2 158/9/2
f 158/9/2 154/9/2 159/9/2
f 155/9/2 156/9/2 160/9/2
f 160/9/2 156/9/2 161/9/2
f 159/9/2 160/9/2 162/9/2
f 162/9/2 160/9/2 163/9/2
f 164/9/2 165/9/2 167/9/2
f 167/9/2 165/9/2 168/9/2
f 166/9/2 167/9/2 169/9/2
f 169/9/2 167/9/2 170/9/2
f 173/1/3 172/1/3 171/1/3
f 174/1/3 172/1/3 173/1/3
f 177/1/3 176/1/3 175/1/3
f 178/1/3 176/1/3 177/1/3
f 181/1/3 180/1/3 179/1/3
f 182/1/3 180/1/3 181/1/3
f 185/1/3 184/1/3 183/1/3
f 186/1/3 184/1/3 185/1/3
f 189/4/3 188/4/3 187/4/3
f 190/4/3 188/4/3 189/4/3
f 193/4/3 192/4/3 191/4/3
f 194/4/3 192/4/3 193/4/3
f 199/1/3 198/1/3 197/1/3
f 200/1/3 198/1/3 199/1/3
f 201/9/3 196/9/3 195/9/3
f 202/9/3 196/9/3 201/9/3
f 207/9/3 204/9/3 203/9/3
f 208/9/3 204/9/3 207/9/3
f 210/5/3 206/5/3 205/5/3
f 211/4/3 207/4/3 206/4/3
f 211/5/3 206/5/3 210/5/3
f 212/4/3 207/4/3 211/4/3
f 213/9/3 209/9/3 208/9/3
f 214/9/3 209/9/3 213/9/3
f 215/9/3 213/9/3 212/9/3
f 216/9/3 213/9/3 215/9/3
f 225/9/3 218/9/3 217/9/3
f 226/9/3 218/9/3 225/9/3
f 227/2/3 220/2/3 219/2/3
f 228/3/3 221/3/3 220/3/3
f 228/2/3 220/2/3 227/2/3
f 229/6/3 222/6/3 221/6/3
f 229/3/3 221/3/3 228/3/3
f 230/7/3 223/7/3 222/7/3
f 230/6/3 222/6/3 229/6/3
f 231/6/3 224/6/3 223/6/3
f 231/7/3 223/7/3 230/7/3
f 232/6/3 224/6/3 231/6/3
f 237/7/3 230/7/3 229/7/3
f 238/6/3 231/6/3 230/6/3
f 238/7/3 230/7/3 237/7/3
f 239/6/3 231/6/3 238/6/3
f 241/4/3 234/4/3 233/4/3
f 242/4/3 234/4/3 241/4/3
f 243/2/3 236/2/3 235/2/3
f 244/3/3 237/3/3 236/3/3
f 244/2/3 236/2/3 243/2/3
f 245/6/3 238/6/3 237/6/3
f 245/3/3 237/3/3 244/3/3
f 246/7/3 239/7/3 238/7/3
f 246/6/3 238/6/3 245/6/3
f 247/6/3 240/6/3 239/6/3
f 247/7/3 239/7/3 246/7/3
f 248/6/3 240/6/3 247/6/3
f 251/9/3 250/9/3 249/9/3
f 252/9/3 250/9/3 251/9/3
f 256/8/3 254/8/3 253/8/3
f 257/9/3 255/9/3 254/9/3
f 257/8/3 254/8/3 256/8/3
f 258/9/3 255/9/3 257/9/3
f 259/1/4 260/1/4 261/1/4
f 261/1/4 260/1/4 262/1/4
f 263/1/4 264/1/4 265/1/4
f 265/1/4 264/1/4 266/1/4
f 267/1/4 268/1/4 269/1/4
f 269/1/4 268/1/4 270/1/4
f 271/9/4 272/9/4 273/9/4
f 273/9/4 272/9/4 274/9/4
f 274/9/4 275/9/4 277/9/4
f 277/9/4 275/9/4 278/9/4
f 276/9/4 277/9/4 279/9/4
f 279/9/4 277/9/4 280/9/4
f 281/2/4 282/2/4 288/2/4
f 282/3/4 283/3/4 289/3/4
f 288/2/4 282/2/4 289/2/4
f 283/6/4 284/6/4 290/6/4
f 289/3/4 283/3/4 290/3/4
f 284/7/4 285/7/4 291/7/4
f 290/6/4 284/6/4 291/6/4
f 285/6/4 286/6/4 292/6/4
f 291/7/4 285/7/4 292/7/4
f 286/7/4 287/7/4 293/7/4
f 292/6/4 286/6/4 293/6/4
f 293/7/4 287/7/4 294/7/4
f 290/7/4 291/7/4 298/7/4
f 291/6/4 292/6/4 299/6/4
f 298/7/4 291/7/4 299/7/4
f 292/7/4 293/7/4 300/7/4
f 299/6/4 292/6/4 300/6/4
f 293/6/4 294/6/4 301/6/4
f 300/7/4 293/7/4 301/7/4
f 294/4/4 295/4/4 302/4/4
f 301/6/4 294/6/4 302/6/4
f 302/4/4 295/4/4 303/4/4
f 296/2/4 297/2/4 304/2/4
f 297/3/4 298/3/4 305/3/4
f 304/2/4 297/2/4 305/2/4
f 298/6/4 299/6/4 306/6/4
f 305/3/4 298/3/4 306/3/4
f 299/7/4 300/7/4 307/7/4
f 306/6/4 299/6/4 307/6/4
f 300/6/4 301/6/4 308/6/4
f 307/7/4 300/7/4 308/7/4
f 301/7/4 302/7/4 309/7/4
f 308/6/4 301/6/4 309/6/4
f 309/7/4 302/7/4 310/7/4
f 311/9/4 312/9/4 314/9/4
f 314/9/4 312/9/4 315/9/4
f 313/10/4 314/10/4 317/10/4
f 317/10/4 314/10/4 318/10/4
f 319/10/4 320/10/4 321/10/4
f 321/10/4 320/10/4 322/10/4
f 315/9/4 316/9/4 323/9/4
f 323/9/4 316/9/4 324/9/4
f 322/9/4 323/9/4 325/9/4
f 325/9/4 323/9/4 326/9/4
f 327/9/4 328/9/4 332/9/4
f 329/8/4 330/8/4 333/8/4
f 330/9/4 331/9/4 334/9/4
f 333/8/4 330/8/4 334/8/4
f 331/8/4 332/8/4 335/8/4
f 334/9/4 331/9/4 335/9/4
f 332/9/4 328/9/4 336/9/4
f 335/8/4 332/8/4 336/8/4
f 336/9/4 328/9/4 337/9/4
f 337/9/4 328/9/4 338/9/4
f 343/2/5 340/2/5 339/2/5
f 344/2/5 340/2/5 343/2/5
f 345/2/5 342/2/5 341/2/5
f 346/2/5 342/2/5 345/2/5
f 349/7/5 348/7/5 347/7/5
f 350/7/5 348/7/5 349/7/5
f 353/1/5 352/1/5 351/1/5
f 354/1/5 352/1/5 353/1/5
f 358/1/5 356/1/5 355/1/5
f 359/1/5 356/1/5 358/1/5
f 361/4/5 358/4/5 357/4/5
f 362/1/5 359/1/5 358/1/5
f 362/4/5 358/4/5 361/4/5
f 363/4/5 360/4/5 359/4/5
f 363/1/5 359/1/5 362/1/5
f 364/4/5 360/4/5 363/4/5
f 365/7/5 362/7/5 361/7/5
f 366/7/5 362/7/5 365/7/5
f 367/7/5 364/7/5 363/7/5
f 368/7/5 364/7/5 367/7/5
f 369/6/5 366/6/5 365/6/5
f 370/6/5 366/6/5 369/6/5
f 371/6/5 368/6/5 367/6/5
f 372/6/5 368/6/5 371/6/5
f 375/8/5 374/8/5 373/8/5
f 376/8/5 374/8/5 375/8/5
f 379/1/5 378/1/5 377/1/5
f 380/1/5 378/1/5 379/1/5
f 383/5/5 382/5/5 381/5/5
f 384/5/5 382/5/5 383/5/5
f 385/5/5 383/5/5 381/5/5
f 386/5/5 383/5/5 385/5/5
f 387/5/5 382/5/5 384/5/5
f 388/5/5 382/5/5 387/5/5
f 389/10/5 386/10/5 385/10/5
f 389/10/5 387/10/5 386/10/5
f 389/10/5 388/10/5 387/10/5
f 390/10/5 388/10/5 389/10/5
f 391/10/5 388/10/5 390/10/5
f 392/10/5 388/10/5 391/10/5
f 395/1/5 394/1/5 393/1/5
f 396/1/5 394/1/5 395/1/5
f 399/1/5 398/1/5 397/1/5
f 400/1/5 398/1/5 399/1/5
f 405/9/5 402/9/5 401/9/5
f 406/9/5 404/9/5 403/9/5
f 407/9/5 405/9/5 401/9/5
f 408/9/5 405/9/5 407/9/5
f 411/9/5 404/9/5 406/9/5
f 412/9/5 404/9/5 411/9/5
f 413/9/5 409/9/5 408/9/5
f 414/9/5 409/9/5 413/9/5
f 415/9/5 411/9/5 410/9/5
f 416/9/5 411/9/5 415/9/5
f 420/9/5 418/9/5 417/9/5
f 421/9/5 418/9/5 420/9/5
f 423/9/5 420/9/5 419/9/5
f 424/9/5 420/9/5 423/9/5
f 425/9/5 422/9/5 421/9/5
f 426/9/5 422/9/5 425/9/5
f 427/4/6 428/4/6 431/4/6
f 431/4/6 428/4/6 432/4/6
f 429/4/6 430/4/6 433/4/6
f 433/4/6 430/4/6 434/4/6
f 431/7/6 432/7/6 435/7/6
f 432/1/6 433/1/6 436/1/6
f 435/7/6 432/7/6 436/7/6
f 433/7/6 434/7/6 437/7/6
f 436/1/6 433/1/6 437/1/6
f 437/7/6 434/7/6 438/7/6
f 435/6/6 436/6/6 439/6/6
f 436/1/6 437/1/6 440/1/6
f 439/6/6 436/6/6 440/6/6
f 437/6/6 438/6/6 441/6/6
f 440/1/6 437/1/6 441/1/6
f 441/6/6 438/6/6 442/6/6
f 439/7/6 440/7/6 443/7/6
f 443/7/6 440/7/6 444/7/6
f 441/7/6 442/7/6 445/7/6
f 445/7/6 442/7/6 446/7/6
f 447/1/6 448/1/6 449/1/6
f 449/1/6 448/1/6 450/1/6
f 451/1/6 452/1/6 453/1/6
f 453/1/6 452/1/6 454/1/6
f 455/1/6 456/1/6 457/1/6
f 457/1/6 456/1/6 458/1/6
f 459/9/6 460/9/6 463/9/6
f 463/9/6 460/9/6 464/9/6
f 461/9/6 462/9/6 465/9/6
f 465/9/6 462/9/6 466/9/6
f 464/9/6 465/9/6 467/9/6
f 467/9/6 465/9/6 468/9/6
f 469/9/6 470/9/6 472/9/6
f 472/9/6 470/9/6 473/9/6
f 471/9/6 472/9/6 475/9/6
f 475/9/6 472/9/6 476/9/6
f 473/9/6 474/9/6 477/9/6
f 477/9/6 474/9/6 478/9/6
f 476/9/6 477/9/6 479/9/6
f 479/9/6 477/9/6 480/9/6
f 481/9/6 482/9/6 483/9/6
f 483/9/6 482/9/6 484/9/6
