# MagicaVoxel @ Ephtracy

# material
mtllib Hunter.mtl
usemtl palette

# normals
vn -1 0 0
vn 1 0 0
vn 0 0 1
vn 0 0 -1
vn 0 -1 0
vn 0 1 0

# texcoords
vt 0.00195313 0.5
vt 0.0566406 0.5
vt 0.439453 0.5
vt 0.474609 0.5
vt 0.482422 0.5
vt 0.955078 0.5
vt 0.958984 0.5
vt 0.982422 0.5
vt 0.986328 0.5
vt 0.994141 0.5

# verts
v -7 7 13
v -7 7 12
v -7 8 13
v -7 8 12
v -6 7 14
v -6 7 13
v -6 7 12
v -6 7 11
v -6 8 14
v -6 8 13
v -6 8 12
v -6 8 11
v -6 9 9
v -6 9 7
v -6 10 10
v -6 10 9
v -6 10 7
v -6 11 10
v -6 11 9
v -5 0 9
v -5 0 8
v -5 1 9
v -5 1 8
v -5 3 9
v -5 3 8
v -5 4 9
v -5 4 8
v -5 5 9
v -5 5 8
v -5 6 12
v -5 6 11
v -5 6 10
v -5 6 9
v -5 6 8
v -5 7 12
v -5 7 11
v -5 7 10
v -5 7 9
v -5 7 8
v -5 8 11
v -5 8 10
v -5 8 8
v -5 8 7
v -5 9 10
v -5 9 9
v -5 9 8
v -5 9 7
v -5 9 6
v -5 10 11
v -5 10 10
v -5 10 9
v -5 10 7
v -5 10 6
v -5 11 11
v -5 11 10
v -5 11 9
v -5 11 7
v -5 12 10
v -5 12 9
v -4 6 14
v -4 6 12
v -4 6 7
v -4 6 6
v -4 7 15
v -4 7 14
v -4 7 13
v -4 7 12
v -4 7 11
v -4 7 9
v -4 7 8
v -4 7 7
v -4 7 6
v -4 8 15
v -4 8 14
v -4 8 13
v -4 8 11
v -4 8 9
v -4 8 8
v -4 8 7
v -4 8 6
v -4 9 7
v -4 9 6
v -3 0 9
v -3 0 8
v -3 1 9
v -3 1 8
v -3 3 9
v -3 3 8
v -3 6 11
v -3 6 10
v -3 6 9
v -3 7 11
v -3 7 10
v -3 7 9
v -2 7 12
v -2 7 11
v -2 8 12
v -2 8 11
v -1 7 13
v -1 7 12
v -1 8 13
v -1 8 12
v -6 7 13
v -6 7 12
v -6 8 13
v -6 8 12
v -5 7 12
v -5 7 11
v -5 8 12
v -5 8 11
v -4 0 9
v -4 0 8
v -4 1 9
v -4 1 8
v -4 3 9
v -4 3 8
v -4 6 11
v -4 6 10
v -4 6 9
v -4 7 11
v -4 7 10
v -4 7 9
v -3 6 14
v -3 6 12
v -3 6 7
v -3 6 6
v -3 7 15
v -3 7 14
v -3 7 13
v -3 7 12
v -3 7 11
v -3 7 9
v -3 7 8
v -3 7 7
v -3 7 6
v -3 8 15
v -3 8 14
v -3 8 13
v -3 8 11
v -3 8 9
v -3 8 8
v -3 8 7
v -3 8 6
v -3 9 7
v -3 9 6
v -2 0 9
v -2 0 8
v -2 1 9
v -2 1 8
v -2 3 9
v -2 3 8
v -2 4 9
v -2 4 8
v -2 5 9
v -2 5 8
v -2 6 12
v -2 6 11
v -2 6 10
v -2 6 9
v -2 6 8
v -2 7 12
v -2 7 11
v -2 7 10
v -2 7 9
v -2 7 8
v -2 8 11
v -2 8 10
v -2 8 8
v -2 8 7
v -2 9 10
v -2 9 9
v -2 9 8
v -2 9 7
v -2 9 6
v -2 10 11
v -2 10 10
v -2 10 9
v -2 10 7
v -2 10 6
v -2 11 11
v -2 11 10
v -2 11 9
v -2 11 7
v -2 12 10
v -2 12 9
v -1 7 14
v -1 7 13
v -1 7 12
v -1 7 11
v -1 8 14
v -1 8 13
v -1 8 12
v -1 8 11
v -1 9 9
v -1 9 7
v -1 10 10
v -1 10 9
v -1 10 7
v -1 11 10
v -1 11 9
v 0 7 13
v 0 7 12
v 0 8 13
v 0 8 12
v -4 7 15
v -4 8 15
v -3 7 15
v -3 8 15
v -6 7 14
v -6 8 14
v -4 6 14
v -4 7 14
v -4 8 14
v -3 6 14
v -3 7 14
v -3 8 14
v -1 7 14
v -1 8 14
v -7 7 13
v -7 8 13
v -6 7 13
v -6 8 13
v -1 7 13
v -1 8 13
v 0 7 13
v 0 8 13
v -6 7 12
v -6 8 12
v -5 6 12
v -5 7 12
v -5 8 12
v -4 6 12
v -4 7 12
v -3 6 12
v -3 7 12
v -2 6 12
v -2 7 12
v -2 8 12
v -1 7 12
v -1 8 12
v -5 7 11
v -5 8 11
v -5 10 11
v -5 11 11
v -4 7 11
v -4 8 11
v -3 7 11
v -3 8 11
v -2 7 11
v -2 8 11
v -2 10 11
v -2 11 11
v -6 10 10
v -6 11 10
v -5 8 10
v -5 9 10
v -5 10 10
v -5 11 10
v -5 12 10
v -4 8 10
v -3 8 10
v -2 8 10
v -2 9 10
v -2 10 10
v -2 11 10
v -2 12 10
v -1 10 10
v -1 11 10
v -6 9 9
v -6 10 9
v -5 0 9
v -5 1 9
v -5 3 9
v -5 4 9
v -5 5 9
v -5 6 9
v -5 9 9
v -5 10 9
v -4 0 9
v -4 1 9
v -4 3 9
v -4 4 9
v -4 5 9
v -4 6 9
v -4 7 9
v -4 8 9
v -3 0 9
v -3 1 9
v -3 3 9
v -3 4 9
v -3 5 9
v -3 6 9
v -3 7 9
v -3 8 9
v -2 0 9
v -2 1 9
v -2 3 9
v -2 4 9
v -2 5 9
v -2 6 9
v -2 9 9
v -2 10 9
v -1 9 9
v -1 10 9
v -4 6 7
v -4 7 7
v -4 8 7
v -3 6 7
v -3 7 7
v -3 8 7
v -6 7 13
v -6 8 13
v -4 7 13
v -4 8 13
v -3 7 13
v -3 8 13
v -1 7 13
v -1 8 13
v -7 7 12
v -7 8 12
v -6 7 12
v -6 8 12
v -1 7 12
v -1 8 12
v 0 7 12
v 0 8 12
v -6 7 11
v -6 8 11
v -5 7 11
v -5 8 11
v -4 6 11
v -4 7 11
v -3 6 11
v -3 7 11
v -2 7 11
v -2 8 11
v -1 7 11
v -1 8 11
v -5 7 10
v -5 8 10
v -4 7 10
v -4 8 10
v -3 7 10
v -3 8 10
v -2 7 10
v -2 8 10
v -6 10 9
v -6 11 9
v -5 10 9
v -5 11 9
v -5 12 9
v -2 10 9
v -2 11 9
v -2 12 9
v -1 10 9
v -1 11 9
v -5 0 8
v -5 1 8
v -5 3 8
v -5 4 8
v -5 5 8
v -5 6 8
v -5 7 8
v -4 0 8
v -4 1 8
v -4 3 8
v -4 4 8
v -4 5 8
v -4 6 8
v -4 7 8
v -4 8 8
v -3 0 8
v -3 1 8
v -3 3 8
v -3 4 8
v -3 5 8
v -3 6 8
v -3 7 8
v -3 8 8
v -2 0 8
v -2 1 8
v -2 3 8
v -2 4 8
v -2 5 8
v -2 6 8
v -2 7 8
v -6 9 7
v -6 10 7
v -5 8 7
v -5 9 7
v -5 10 7
v -5 11 7
v -4 8 7
v -4 9 7
v -3 8 7
v -3 9 7
v -2 8 7
v -2 9 7
v -2 10 7
v -2 11 7
v -1 9 7
v -1 10 7
v -5 9 6
v -5 10 6
v -4 6 6
v -4 7 6
v -4 8 6
v -4 9 6
v -3 6 6
v -3 7 6
v -3 8 6
v -3 9 6
v -2 9 6
v -2 10 6
v -5 0 9
v -4 0 9
v -3 0 9
v -2 0 9
v -5 0 8
v -4 0 8
v -3 0 8
v -2 0 8
v -4 3 9
v -3 3 9
v -4 3 8
v -3 3 8
v -4 6 14
v -3 6 14
v -5 6 12
v -4 6 12
v -3 6 12
v -2 6 12
v -5 6 11
v -4 6 11
v -3 6 11
v -2 6 11
v -5 6 10
v -4 6 10
v -3 6 10
v -2 6 10
v -5 6 9
v -4 6 9
v -3 6 9
v -2 6 9
v -4 6 7
v -3 6 7
v -4 6 6
v -3 6 6
v -4 7 15
v -3 7 15
v -6 7 14
v -4 7 14
v -3 7 14
v -1 7 14
v -7 7 13
v -6 7 13
v -4 7 13
v -3 7 13
v -1 7 13
v 0 7 13
v -7 7 12
v -6 7 12
v -5 7 12
v -2 7 12
v -1 7 12
v 0 7 12
v -6 7 11
v -5 7 11
v -4 7 11
v -3 7 11
v -2 7 11
v -1 7 11
v -4 7 10
v -3 7 10
v -5 8 10
v -4 8 10
v -3 8 10
v -2 8 10
v -4 8 9
v -3 8 9
v -5 8 8
v -4 8 8
v -3 8 8
v -2 8 8
v -5 8 7
v -4 8 7
v -3 8 7
v -2 8 7
v -6 9 9
v -5 9 9
v -2 9 9
v -1 9 9
v -5 9 8
v -2 9 8
v -6 9 7
v -5 9 7
v -4 9 7
v -3 9 7
v -2 9 7
v -1 9 7
v -5 9 6
v -4 9 6
v -3 9 6
v -2 9 6
v -5 10 11
v -2 10 11
v -6 10 10
v -5 10 10
v -2 10 10
v -1 10 10
v -6 10 9
v -5 10 9
v -2 10 9
v -1 10 9
v -5 7 12
v -4 7 12
v -3 7 12
v -2 7 12
v -5 7 11
v -4 7 11
v -3 7 11
v -2 7 11
v -5 7 10
v -4 7 10
v -3 7 10
v -2 7 10
v -5 7 9
v -4 7 9
v -3 7 9
v -2 7 9
v -5 7 8
v -4 7 8
v -3 7 8
v -2 7 8
v -4 8 15
v -3 8 15
v -6 8 14
v -4 8 14
v -3 8 14
v -1 8 14
v -7 8 13
v -6 8 13
v -4 8 13
v -3 8 13
v -1 8 13
v 0 8 13
v -7 8 12
v -6 8 12
v -5 8 12
v -2 8 12
v -1 8 12
v 0 8 12
v -6 8 11
v -5 8 11
v -4 8 11
v -3 8 11
v -2 8 11
v -1 8 11
v -5 8 10
v -4 8 10
v -3 8 10
v -2 8 10
v -6 10 9
v -5 10 9
v -2 10 9
v -1 10 9
v -6 10 7
v -5 10 7
v -2 10 7
v -1 10 7
v -5 10 6
v -2 10 6
v -5 11 11
v -2 11 11
v -6 11 10
v -5 11 10
v -2 11 10
v -1 11 10
v -6 11 9
v -5 11 9
v -2 11 9
v -1 11 9
v -5 11 7
v -2 11 7
v -5 12 10
v -2 12 10
v -5 12 9
v -2 12 9

# faces
f 3/10/1 2/10/1 1/10/1
f 4/10/1 2/10/1 3/10/1
f 9/10/1 6/10/1 5/10/1
f 10/10/1 6/10/1 9/10/1
f 11/1/1 8/1/1 7/1/1
f 12/1/1 8/1/1 11/1/1
f 16/9/1 14/9/1 13/9/1
f 17/9/1 14/9/1 16/9/1
f 18/9/1 16/9/1 15/9/1
f 19/9/1 16/9/1 18/9/1
f 22/2/1 21/2/1 20/2/1
f 23/2/1 21/2/1 22/2/1
f 24/3/1 23/3/1 22/3/1
f 25/3/1 23/3/1 24/3/1
f 26/6/1 25/6/1 24/6/1
f 27/6/1 25/6/1 26/6/1
f 28/7/1 27/7/1 26/7/1
f 29/7/1 27/7/1 28/7/1
f 33/6/1 29/6/1 28/6/1
f 34/6/1 29/6/1 33/6/1
f 35/4/1 31/4/1 30/4/1
f 36/7/1 32/7/1 31/7/1
f 36/4/1 31/4/1 35/4/1
f 37/6/1 33/6/1 32/6/1
f 37/7/1 32/7/1 36/7/1
f 38/7/1 34/7/1 33/7/1
f 38/6/1 33/6/1 37/6/1
f 39/7/1 34/7/1 38/7/1
f 40/1/1 37/1/1 36/1/1
f 41/1/1 37/1/1 40/1/1
f 44/5/1 42/5/1 41/5/1
f 45/5/1 42/5/1 44/5/1
f 46/10/1 43/10/1 42/10/1
f 46/5/1 42/5/1 45/5/1
f 47/10/1 43/10/1 46/10/1
f 50/4/1 45/4/1 44/4/1
f 51/4/1 45/4/1 50/4/1
f 52/9/1 48/9/1 47/9/1
f 53/9/1 48/9/1 52/9/1
f 54/9/1 50/9/1 49/9/1
f 55/9/1 50/9/1 54/9/1
f 56/9/1 52/9/1 51/9/1
f 57/9/1 52/9/1 56/9/1
f 58/9/1 56/9/1 55/9/1
f 59/9/1 56/9/1 58/9/1
f 65/10/1 61/10/1 60/10/1
f 66/10/1 61/10/1 65/10/1
f 67/10/1 61/10/1 66/10/1
f 71/8/1 63/8/1 62/8/1
f 72/8/1 63/8/1 71/8/1
f 73/10/1 65/10/1 64/10/1
f 74/10/1 65/10/1 73/10/1
f 75/10/1 67/10/1 66/10/1
f 75/10/1 68/10/1 67/10/1
f 76/10/1 68/10/1 75/10/1
f 77/4/1 70/4/1 69/4/1
f 78/4/1 70/4/1 77/4/1
f 79/9/1 72/9/1 71/9/1
f 80/9/1 72/9/1 79/9/1
f 81/8/1 80/8/1 79/8/1
f 82/8/1 80/8/1 81/8/1
f 85/2/1 84/2/1 83/2/1
f 86/2/1 84/2/1 85/2/1
f 87/3/1 86/3/1 85/3/1
f 88/3/1 86/3/1 87/3/1
f 92/7/1 90/7/1 89/7/1
f 93/6/1 91/6/1 90/6/1
f 93/7/1 90/7/1 92/7/1
f 94/6/1 91/6/1 93/6/1
f 97/1/1 96/1/1 95/1/1
f 98/1/1 96/1/1 97/1/1
f 101/10/1 100/10/1 99/10/1
f 102/10/1 100/10/1 101/10/1
f 103/10/2 104/10/2 105/10/2
f 105/10/2 104/10/2 106/10/2
f 107/1/2 108/1/2 109/1/2
f 109/1/2 108/1/2 110/1/2
f 111/2/2 112/2/2 113/2/2
f 113/2/2 112/2/2 114/2/2
f 113/3/2 114/3/2 115/3/2
f 115/3/2 114/3/2 116/3/2
f 117/7/2 118/7/2 120/7/2
f 118/6/2 119/6/2 121/6/2
f 120/7/2 118/7/2 121/7/2
f 121/6/2 119/6/2 122/6/2
f 123/10/2 124/10/2 128/10/2
f 128/10/2 124/10/2 129/10/2
f 129/10/2 124/10/2 130/10/2
f 125/8/2 126/8/2 134/8/2
f 134/8/2 126/8/2 135/8/2
f 127/10/2 128/10/2 136/10/2
f 136/10/2 128/10/2 137/10/2
f 129/10/2 130/10/2 138/10/2
f 130/10/2 131/10/2 138/10/2
f 138/10/2 131/10/2 139/10/2
f 132/4/2 133/4/2 140/4/2
f 140/4/2 133/4/2 141/4/2
f 134/9/2 135/9/2 142/9/2
f 142/9/2 135/9/2 143/9/2
f 142/8/2 143/8/2 144/8/2
f 144/8/2 143/8/2 145/8/2
f 146/2/2 147/2/2 148/2/2
f 148/2/2 147/2/2 149/2/2
f 148/3/2 149/3/2 150/3/2
f 150/3/2 149/3/2 151/3/2
f 150/6/2 151/6/2 152/6/2
f 152/6/2 151/6/2 153/6/2
f 152/7/2 153/7/2 154/7/2
f 154/7/2 153/7/2 155/7/2
f 154/6/2 155/6/2 159/6/2
f 159/6/2 155/6/2 160/6/2
f 156/4/2 157/4/2 161/4/2
f 157/7/2 158/7/2 162/7/2
f 161/4/2 157/4/2 162/4/2
f 158/6/2 159/6/2 163/6/2
f 162/7/2 158/7/2 163/7/2
f 159/7/2 160/7/2 164/7/2
f 163/6/2 159/6/2 164/6/2
f 164/7/2 160/7/2 165/7/2
f 162/1/2 163/1/2 166/1/2
f 166/1/2 163/1/2 167/1/2
f 167/5/2 168/5/2 170/5/2
f 170/5/2 168/5/2 171/5/2
f 168/10/2 169/10/2 172/10/2
f 171/5/2 168/5/2 172/5/2
f 172/10/2 169/10/2 173/10/2
f 170/4/2 171/4/2 176/4/2
f 176/4/2 171/4/2 177/4/2
f 173/9/2 174/9/2 178/9/2
f 178/9/2 174/9/2 179/9/2
f 175/9/2 176/9/2 180/9/2
f 180/9/2 176/9/2 181/9/2
f 177/9/2 178/9/2 182/9/2
f 182/9/2 178/9/2 183/9/2
f 181/9/2 182/9/2 184/9/2
f 184/9/2 182/9/2 185/9/2
f 186/10/2 187/10/2 190/10/2
f 190/10/2 187/10/2 191/10/2
f 188/1/2 189/1/2 192/1/2
f 192/1/2 189/1/2 193/1/2
f 194/9/2 195/9/2 197/9/2
f 197/9/2 195/9/2 198/9/2
f 196/9/2 197/9/2 199/9/2
f 199/9/2 197/9/2 200/9/2
f 201/10/2 202/10/2 203/10/2
f 203/10/2 202/10/2 204/10/2
f 207/10/3 206/10/3 205/10/3
f 208/10/3 206/10/3 207/10/3
f 212/10/3 210/10/3 209/10/3
f 213/10/3 210/10/3 212/10/3
f 214/10/3 212/10/3 211/10/3
f 215/10/3 212/10/3 214/10/3
f 217/10/3 216/10/3 215/10/3
f 218/10/3 216/10/3 217/10/3
f 221/10/3 220/10/3 219/10/3
f 222/10/3 220/10/3 221/10/3
f 225/10/3 224/10/3 223/10/3
f 226/10/3 224/10/3 225/10/3
f 230/1/3 228/1/3 227/1/3
f 231/1/3 228/1/3 230/1/3
f 232/4/3 230/4/3 229/4/3
f 233/4/3 230/4/3 232/4/3
f 236/4/3 235/4/3 234/4/3
f 237/4/3 235/4/3 236/4/3
f 239/1/3 238/1/3 237/1/3
f 240/1/3 238/1/3 239/1/3
f 245/1/3 242/1/3 241/1/3
f 246/1/3 242/1/3 245/1/3
f 249/1/3 248/1/3 247/1/3
f 250/1/3 248/1/3 249/1/3
f 251/9/3 244/9/3 243/9/3
f 252/9/3 244/9/3 251/9/3
f 257/9/3 254/9/3 253/9/3
f 258/9/3 254/9/3 257/9/3
f 260/5/3 256/5/3 255/5/3
f 261/5/3 256/5/3 260/5/3
f 262/5/3 256/5/3 261/5/3
f 263/4/3 257/4/3 256/4/3
f 263/5/3 256/5/3 262/5/3
f 264/4/3 257/4/3 263/4/3
f 265/9/3 259/9/3 258/9/3
f 266/9/3 259/9/3 265/9/3
f 267/9/3 265/9/3 264/9/3
f 268/9/3 265/9/3 267/9/3
f 277/9/3 270/9/3 269/9/3
f 278/9/3 270/9/3 277/9/3
f 279/2/3 272/2/3 271/2/3
f 280/3/3 273/3/3 272/3/3
f 280/2/3 272/2/3 279/2/3
f 281/6/3 274/6/3 273/6/3
f 281/3/3 273/3/3 280/3/3
f 282/7/3 275/7/3 274/7/3
f 282/6/3 274/6/3 281/6/3
f 283/6/3 276/6/3 275/6/3
f 283/7/3 275/7/3 282/7/3
f 284/6/3 276/6/3 283/6/3
f 289/7/3 282/7/3 281/7/3
f 290/6/3 283/6/3 282/6/3
f 290/7/3 282/7/3 289/7/3
f 291/7/3 284/7/3 283/7/3
f 291/6/3 283/6/3 290/6/3
f 292/6/3 285/6/3 284/6/3
f 292/7/3 284/7/3 291/7/3
f 293/4/3 286/4/3 285/4/3
f 293/6/3 285/6/3 292/6/3
f 294/4/3 286/4/3 293/4/3
f 295/2/3 288/2/3 287/2/3
f 296/3/3 289/3/3 288/3/3
f 296/2/3 288/2/3 295/2/3
f 297/6/3 290/6/3 289/6/3
f 297/3/3 289/3/3 296/3/3
f 298/7/3 291/7/3 290/7/3
f 298/6/3 290/6/3 297/6/3
f 299/6/3 292/6/3 291/6/3
f 299/7/3 291/7/3 298/7/3
f 300/6/3 292/6/3 299/6/3
f 303/9/3 302/9/3 301/9/3
f 304/9/3 302/9/3 303/9/3
f 308/8/3 306/8/3 305/8/3
f 309/9/3 307/9/3 306/9/3
f 309/8/3 306/8/3 308/8/3
f 310/9/3 307/9/3 309/9/3
f 311/10/4 312/10/4 313/10/4
f 313/10/4 312/10/4 314/10/4
f 315/10/4 316/10/4 317/10/4
f 317/10/4 316/10/4 318/10/4
f 319/10/4 320/10/4 321/10/4
f 321/10/4 320/10/4 322/10/4
f 323/10/4 324/10/4 325/10/4
f 325/10/4 324/10/4 326/10/4
f 327/1/4 328/1/4 329/1/4
f 329/1/4 328/1/4 330/1/4
f 331/10/4 332/10/4 333/10/4
f 333/10/4 332/10/4 334/10/4
f 335/1/4 336/1/4 337/1/4
f 337/1/4 336/1/4 338/1/4
f 339/1/4 340/1/4 341/1/4
f 341/1/4 340/1/4 342/1/4
f 341/10/4 342/10/4 343/10/4
f 343/10/4 342/10/4 344/10/4
f 343/1/4 344/1/4 345/1/4
f 345/1/4 344/1/4 346/1/4
f 347/9/4 348/9/4 349/9/4
f 349/9/4 348/9/4 350/9/4
f 350/9/4 351/9/4 353/9/4
f 353/9/4 351/9/4 354/9/4
f 352/9/4 353/9/4 355/9/4
f 355/9/4 353/9/4 356/9/4
f 357/2/4 358/2/4 364/2/4
f 358/3/4 359/3/4 365/3/4
f 364/2/4 358/2/4 365/2/4
f 359/6/4 360/6/4 366/6/4
f 365/3/4 359/3/4 366/3/4
f 360/7/4 361/7/4 367/7/4
f 366/6/4 360/6/4 367/6/4
f 361/6/4 362/6/4 368/6/4
f 367/7/4 361/7/4 368/7/4
f 362/7/4 363/7/4 369/7/4
f 368/6/4 362/6/4 369/6/4
f 369/7/4 363/7/4 370/7/4
f 366/7/4 367/7/4 374/7/4
f 367/6/4 368/6/4 375/6/4
f 374/7/4 367/7/4 375/7/4
f 368/7/4 369/7/4 376/7/4
f 375/6/4 368/6/4 376/6/4
f 369/6/4 370/6/4 377/6/4
f 376/7/4 369/7/4 377/7/4
f 370/4/4 371/4/4 378/4/4
f 377/6/4 370/6/4 378/6/4
f 378/4/4 371/4/4 379/4/4
f 372/2/4 373/2/4 380/2/4
f 373/3/4 374/3/4 381/3/4
f 380/2/4 373/2/4 381/2/4
f 374/6/4 375/6/4 382/6/4
f 381/3/4 374/3/4 382/3/4
f 375/7/4 376/7/4 383/7/4
f 382/6/4 375/6/4 383/6/4
f 376/6/4 377/6/4 384/6/4
f 383/7/4 376/7/4 384/7/4
f 377/7/4 378/7/4 385/7/4
f 384/6/4 377/6/4 385/6/4
f 385/7/4 378/7/4 386/7/4
f 387/9/4 388/9/4 390/9/4
f 390/9/4 388/9/4 391/9/4
f 389/10/4 390/10/4 393/10/4
f 393/10/4 390/10/4 394/10/4
f 395/10/4 396/10/4 397/10/4
f 397/10/4 396/10/4 398/10/4
f 391/9/4 392/9/4 399/9/4
f 399/9/4 392/9/4 400/9/4
f 398/9/4 399/9/4 401/9/4
f 401/9/4 399/9/4 402/9/4
f 403/9/4 404/9/4 408/9/4
f 405/8/4 406/8/4 409/8/4
f 406/9/4 407/9/4 410/9/4
f 409/8/4 406/8/4 410/8/4
f 407/8/4 408/8/4 411/8/4
f 410/9/4 407/9/4 411/9/4
f 408/9/4 404/9/4 412/9/4
f 411/8/4 408/8/4 412/8/4
f 412/9/4 404/9/4 413/9/4
f 413/9/4 404/9/4 414/9/4
f 419/2/5 416/2/5 415/2/5
f 420/2/5 416/2/5 419/2/5
f 421/2/5 418/2/5 417/2/5
f 422/2/5 418/2/5 421/2/5
f 425/7/5 424/7/5 423/7/5
f 426/7/5 424/7/5 425/7/5
f 430/10/5 428/10/5 427/10/5
f 431/10/5 428/10/5 430/10/5
f 433/4/5 430/4/5 429/4/5
f 434/10/5 431/10/5 430/10/5
f 434/4/5 430/4/5 433/4/5
f 435/4/5 432/4/5 431/4/5
f 435/10/5 431/10/5 434/10/5
f 436/4/5 432/4/5 435/4/5
f 437/7/5 434/7/5 433/7/5
f 438/7/5 434/7/5 437/7/5
f 439/7/5 436/7/5 435/7/5
f 440/7/5 436/7/5 439/7/5
f 441/6/5 438/6/5 437/6/5
f 442/6/5 438/6/5 441/6/5
f 443/6/5 440/6/5 439/6/5
f 444/6/5 440/6/5 443/6/5
f 447/8/5 446/8/5 445/8/5
f 448/8/5 446/8/5 447/8/5
f 452/10/5 450/10/5 449/10/5
f 453/10/5 450/10/5 452/10/5
f 456/10/5 452/10/5 451/10/5
f 457/10/5 452/10/5 456/10/5
f 458/10/5 454/10/5 453/10/5
f 459/10/5 454/10/5 458/10/5
f 461/10/5 456/10/5 455/10/5
f 462/10/5 456/10/5 461/10/5
f 465/10/5 460/10/5 459/10/5
f 466/10/5 460/10/5 465/10/5
f 467/1/5 463/1/5 462/1/5
f 468/1/5 463/1/5 467/1/5
f 471/1/5 465/1/5 464/1/5
f 472/1/5 465/1/5 471/1/5
f 473/10/5 470/10/5 469/10/5
f 474/10/5 470/10/5 473/10/5
f 479/5/5 476/5/5 475/5/5
f 479/5/5 478/5/5 477/5/5
f 479/5/5 477/5/5 476/5/5
f 480/5/5 478/5/5 479/5/5
f 481/5/5 479/5/5 475/5/5
f 482/5/5 479/5/5 481/5/5
f 483/5/5 478/5/5 480/5/5
f 484/5/5 478/5/5 483/5/5
f 485/10/5 482/10/5 481/10/5
f 485/10/5 483/10/5 482/10/5
f 485/10/5 484/10/5 483/10/5
f 486/10/5 484/10/5 485/10/5
f 487/10/5 484/10/5 486/10/5
f 488/10/5 484/10/5 487/10/5
f 493/9/5 490/9/5 489/9/5
f 494/9/5 492/9/5 491/9/5
f 495/9/5 493/9/5 489/9/5
f 496/9/5 493/9/5 495/9/5
f 499/9/5 492/9/5 494/9/5
f 500/9/5 492/9/5 499/9/5
f 501/9/5 497/9/5 496/9/5
f 502/9/5 497/9/5 501/9/5
f 503/9/5 499/9/5 498/9/5
f 504/9/5 499/9/5 503/9/5
f 508/9/5 506/9/5 505/9/5
f 509/9/5 506/9/5 508/9/5
f 511/9/5 508/9/5 507/9/5
f 512/9/5 508/9/5 511/9/5
f 513/9/5 510/9/5 509/9/5
f 514/9/5 510/9/5 513/9/5
f 515/4/6 516/4/6 519/4/6
f 519/4/6 516/4/6 520/4/6
f 517/4/6 518/4/6 521/4/6
f 521/4/6 518/4/6 522/4/6
f 523/6/6 524/6/6 527/6/6
f 527/6/6 524/6/6 528/6/6
f 525/6/6 526/6/6 529/6/6
f 529/6/6 526/6/6 530/6/6
f 527/7/6 528/7/6 531/7/6
f 531/7/6 528/7/6 532/7/6
f 529/7/6 530/7/6 533/7/6
f 533/7/6 530/7/6 534/7/6
f 535/10/6 536/10/6 538/10/6
f 538/10/6 536/10/6 539/10/6
f 537/10/6 538/10/6 542/10/6
f 539/10/6 540/10/6 542/10/6
f 538/10/6 539/10/6 542/10/6
f 542/10/6 540/10/6 543/10/6
f 543/10/6 540/10/6 544/10/6
f 544/10/6 540/10/6 545/10/6
f 541/10/6 542/10/6 547/10/6
f 547/10/6 542/10/6 548/10/6
f 545/10/6 546/10/6 551/10/6
f 551/10/6 546/10/6 552/10/6
f 548/1/6 549/1/6 553/1/6
f 553/1/6 549/1/6 554/1/6
f 543/10/6 544/10/6 555/10/6
f 555/10/6 544/10/6 556/10/6
f 550/1/6 551/1/6 557/1/6
f 557/1/6 551/1/6 558/1/6
f 554/1/6 555/1/6 559/1/6
f 555/10/6 556/10/6 560/10/6
f 559/1/6 555/1/6 560/1/6
f 556/1/6 557/1/6 561/1/6
f 560/10/6 556/10/6 561/10/6
f 561/1/6 557/1/6 562/1/6
f 563/9/6 564/9/6 567/9/6
f 567/9/6 564/9/6 568/9/6
f 565/9/6 566/9/6 569/9/6
f 569/9/6 566/9/6 570/9/6
f 568/9/6 569/9/6 571/9/6
f 571/9/6 569/9/6 572/9/6
f 573/9/6 574/9/6 576/9/6
f 576/9/6 574/9/6 577/9/6
f 575/9/6 576/9/6 579/9/6
f 579/9/6 576/9/6 580/9/6
f 577/9/6 578/9/6 581/9/6
f 581/9/6 578/9/6 582/9/6
f 580/9/6 581/9/6 583/9/6
f 583/9/6 581/9/6 584/9/6
f 585/9/6 586/9/6 587/9/6
f 587/9/6 586/9/6 588/9/6
