# MagicaVoxel @ Ephtracy

# material
mtllib Hunter_shotgun.mtl
usemtl palette

# normals
vn -1 0 0
vn 1 0 0
vn 0 0 1
vn 0 0 -1
vn 0 -1 0
vn 0 1 0

# texcoords
vt 0.0566406 0.5
vt 0.439453 0.5
vt 0.474609 0.5
vt 0.482422 0.5
vt 0.955078 0.5
vt 0.958984 0.5
vt 0.978516 0.5
vt 0.982422 0.5
vt 0.986328 0.5
vt 0.994141 0.5

# verts
v -6 9 9
v -6 9 7
v -6 10 10
v -6 10 9
v -6 10 7
v -6 11 10
v -6 11 9
v -5 0 9
v -5 0 8
v -5 1 9
v -5 1 8
v -5 3 9
v -5 3 8
v -5 4 9
v -5 4 8
v -5 5 9
v -5 5 8
v -5 6 12
v -5 6 11
v -5 6 10
v -5 6 9
v -5 6 8
v -5 7 17
v -5 7 12
v -5 7 11
v -5 7 10
v -5 7 9
v -5 7 8
v -5 8 17
v -5 8 12
v -5 8 10
v -5 8 8
v -5 8 7
v -5 9 10
v -5 9 9
v -5 9 8
v -5 9 7
v -5 9 6
v -5 10 11
v -5 10 10
v -5 10 9
v -5 10 7
v -5 10 6
v -5 11 11
v -5 11 10
v -5 11 9
v -5 11 7
v -5 12 10
v -5 12 9
v -4 5 12
v -4 5 10
v -4 6 16
v -4 6 12
v -4 6 11
v -4 6 10
v -4 6 7
v -4 6 6
v -4 7 16
v -4 7 12
v -4 7 11
v -4 7 9
v -4 7 8
v -4 7 7
v -4 7 6
v -4 8 12
v -4 8 11
v -4 8 9
v -4 8 8
v -4 8 7
v -4 8 6
v -4 9 7
v -4 9 6
v -3 0 9
v -3 0 8
v -3 1 9
v -3 1 8
v -3 3 9
v -3 3 8
v -3 6 10
v -3 6 9
v -3 7 10
v -3 7 9
v -4 0 9
v -4 0 8
v -4 1 9
v -4 1 8
v -4 3 9
v -4 3 8
v -4 6 10
v -4 6 9
v -4 7 10
v -4 7 9
v -3 5 12
v -3 5 10
v -3 6 16
v -3 6 12
v -3 6 11
v -3 6 10
v -3 6 7
v -3 6 6
v -3 7 16
v -3 7 12
v -3 7 11
v -3 7 9
v -3 7 8
v -3 7 7
v -3 7 6
v -3 8 12
v -3 8 11
v -3 8 9
v -3 8 8
v -3 8 7
v -3 8 6
v -3 9 7
v -3 9 6
v -2 0 9
v -2 0 8
v -2 1 9
v -2 1 8
v -2 3 9
v -2 3 8
v -2 4 9
v -2 4 8
v -2 5 9
v -2 5 8
v -2 6 12
v -2 6 11
v -2 6 10
v -2 6 9
v -2 6 8
v -2 7 17
v -2 7 12
v -2 7 11
v -2 7 10
v -2 7 9
v -2 7 8
v -2 8 17
v -2 8 12
v -2 8 10
v -2 8 8
v -2 8 7
v -2 9 10
v -2 9 9
v -2 9 8
v -2 9 7
v -2 9 6
v -2 10 11
v -2 10 10
v -2 10 9
v -2 10 7
v -2 10 6
v -2 11 11
v -2 11 10
v -2 11 9
v -2 11 7
v -2 12 10
v -2 12 9
v -1 9 9
v -1 9 7
v -1 10 10
v -1 10 9
v -1 10 7
v -1 11 10
v -1 11 9
v -5 7 17
v -5 8 17
v -2 7 17
v -2 8 17
v -4 6 16
v -4 7 16
v -3 6 16
v -3 7 16
v -5 6 12
v -5 7 12
v -4 5 12
v -4 6 12
v -4 7 12
v -3 5 12
v -3 6 12
v -3 7 12
v -2 6 12
v -2 7 12
v -5 10 11
v -5 11 11
v -2 10 11
v -2 11 11
v -6 10 10
v -6 11 10
v -5 8 10
v -5 9 10
v -5 10 10
v -5 11 10
v -5 12 10
v -2 8 10
v -2 9 10
v -2 10 10
v -2 11 10
v -2 12 10
v -1 10 10
v -1 11 10
v -6 9 9
v -6 10 9
v -5 0 9
v -5 1 9
v -5 3 9
v -5 4 9
v -5 5 9
v -5 6 9
v -5 9 9
v -5 10 9
v -4 0 9
v -4 1 9
v -4 3 9
v -4 4 9
v -4 5 9
v -4 6 9
v -4 7 9
v -4 8 9
v -3 0 9
v -3 1 9
v -3 3 9
v -3 4 9
v -3 5 9
v -3 6 9
v -3 7 9
v -3 8 9
v -2 0 9
v -2 1 9
v -2 3 9
v -2 4 9
v -2 5 9
v -2 6 9
v -2 9 9
v -2 10 9
v -1 9 9
v -1 10 9
v -4 6 7
v -4 7 7
v -4 8 7
v -3 6 7
v -3 7 7
v -3 8 7
v -5 7 12
v -5 8 12
v -4 7 12
v -4 8 12
v -3 7 12
v -3 8 12
v -2 7 12
v -2 8 12
v -4 7 11
v -4 8 11
v -3 7 11
v -3 8 11
v -4 5 10
v -4 6 10
v -4 7 10
v -3 5 10
v -3 6 10
v -3 7 10
v -6 10 9
v -6 11 9
v -5 10 9
v -5 11 9
v -5 12 9
v -2 10 9
v -2 11 9
v -2 12 9
v -1 10 9
v -1 11 9
v -5 0 8
v -5 1 8
v -5 3 8
v -5 4 8
v -5 5 8
v -5 6 8
v -5 7 8
v -4 0 8
v -4 1 8
v -4 3 8
v -4 4 8
v -4 5 8
v -4 6 8
v -4 7 8
v -4 8 8
v -3 0 8
v -3 1 8
v -3 3 8
v -3 4 8
v -3 5 8
v -3 6 8
v -3 7 8
v -3 8 8
v -2 0 8
v -2 1 8
v -2 3 8
v -2 4 8
v -2 5 8
v -2 6 8
v -2 7 8
v -6 9 7
v -6 10 7
v -5 8 7
v -5 9 7
v -5 10 7
v -5 11 7
v -4 8 7
v -4 9 7
v -3 8 7
v -3 9 7
v -2 8 7
v -2 9 7
v -2 10 7
v -2 11 7
v -1 9 7
v -1 10 7
v -5 9 6
v -5 10 6
v -4 6 6
v -4 7 6
v -4 8 6
v -4 9 6
v -3 6 6
v -3 7 6
v -3 8 6
v -3 9 6
v -2 9 6
v -2 10 6
v -5 0 9
v -4 0 9
v -3 0 9
v -2 0 9
v -5 0 8
v -4 0 8
v -3 0 8
v -2 0 8
v -4 3 9
v -3 3 9
v -4 3 8
v -3 3 8
v -4 5 12
v -3 5 12
v -4 5 10
v -3 5 10
v -4 6 16
v -3 6 16
v -5 6 12
v -4 6 12
v -3 6 12
v -2 6 12
v -5 6 11
v -4 6 11
v -3 6 11
v -2 6 11
v -5 6 10
v -4 6 10
v -3 6 10
v -2 6 10
v -5 6 9
v -4 6 9
v -3 6 9
v -2 6 9
v -4 6 7
v -3 6 7
v -4 6 6
v -3 6 6
v -5 7 17
v -2 7 17
v -4 7 16
v -3 7 16
v -5 7 12
v -4 7 12
v -3 7 12
v -2 7 12
v -5 8 10
v -2 8 10
v -4 8 9
v -3 8 9
v -5 8 8
v -4 8 8
v -3 8 8
v -2 8 8
v -5 8 7
v -4 8 7
v -3 8 7
v -2 8 7
v -6 9 9
v -5 9 9
v -2 9 9
v -1 9 9
v -5 9 8
v -2 9 8
v -6 9 7
v -5 9 7
v -4 9 7
v -3 9 7
v -2 9 7
v -1 9 7
v -5 9 6
v -4 9 6
v -3 9 6
v -2 9 6
v -5 10 11
v -2 10 11
v -6 10 10
v -5 10 10
v -2 10 10
v -1 10 10
v -6 10 9
v -5 10 9
v -2 10 9
v -1 10 9
v -5 7 12
v -4 7 12
v -3 7 12
v -2 7 12
v -5 7 11
v -4 7 11
v -3 7 11
v -2 7 11
v -5 7 10
v -4 7 10
v -3 7 10
v -2 7 10
v -5 7 9
v -4 7 9
v -3 7 9
v -2 7 9
v -5 7 8
v -4 7 8
v -3 7 8
v -2 7 8
v -5 8 17
v -2 8 17
v -5 8 12
v -4 8 12
v -3 8 12
v -2 8 12
v -4 8 11
v -3 8 11
v -6 10 9
v -5 10 9
v -2 10 9
v -1 10 9
v -6 10 7
v -5 10 7
v -2 10 7
v -1 10 7
v -5 10 6
v -2 10 6
v -5 11 11
v -2 11 11
v -6 11 10
v -5 11 10
v -2 11 10
v -1 11 10
v -6 11 9
v -5 11 9
v -2 11 9
v -1 11 9
v -5 11 7
v -2 11 7
v -5 12 10
v -2 12 10
v -5 12 9
v -2 12 9

# faces
f 4/9/1 2/9/1 1/9/1
f 5/9/1 2/9/1 4/9/1
f 6/9/1 4/9/1 3/9/1
f 7/9/1 4/9/1 6/9/1
f 10/1/1 9/1/1 8/1/1
f 11/1/1 9/1/1 10/1/1
f 12/2/1 11/2/1 10/2/1
f 13/2/1 11/2/1 12/2/1
f 14/5/1 13/5/1 12/5/1
f 15/5/1 13/5/1 14/5/1
f 16/6/1 15/6/1 14/6/1
f 17/6/1 15/6/1 16/6/1
f 21/5/1 17/5/1 16/5/1
f 22/5/1 17/5/1 21/5/1
f 24/3/1 19/3/1 18/3/1
f 25/6/1 20/6/1 19/6/1
f 25/3/1 19/3/1 24/3/1
f 26/5/1 21/5/1 20/5/1
f 26/6/1 20/6/1 25/6/1
f 27/6/1 22/6/1 21/6/1
f 27/5/1 21/5/1 26/5/1
f 28/6/1 22/6/1 27/6/1
f 29/7/1 24/7/1 23/7/1
f 30/7/1 24/7/1 29/7/1
f 34/4/1 32/4/1 31/4/1
f 35/4/1 32/4/1 34/4/1
f 36/10/1 33/10/1 32/10/1
f 36/4/1 32/4/1 35/4/1
f 37/10/1 33/10/1 36/10/1
f 40/3/1 35/3/1 34/3/1
f 41/3/1 35/3/1 40/3/1
f 42/9/1 38/9/1 37/9/1
f 43/9/1 38/9/1 42/9/1
f 44/9/1 40/9/1 39/9/1
f 45/9/1 40/9/1 44/9/1
f 46/9/1 42/9/1 41/9/1
f 47/9/1 42/9/1 46/9/1
f 48/9/1 46/9/1 45/9/1
f 49/9/1 46/9/1 48/9/1
f 53/7/1 51/7/1 50/7/1
f 54/7/1 51/7/1 53/7/1
f 55/7/1 51/7/1 54/7/1
f 58/7/1 53/7/1 52/7/1
f 59/7/1 53/7/1 58/7/1
f 63/8/1 57/8/1 56/8/1
f 64/8/1 57/8/1 63/8/1
f 65/7/1 60/7/1 59/7/1
f 66/7/1 60/7/1 65/7/1
f 67/3/1 62/3/1 61/3/1
f 68/3/1 62/3/1 67/3/1
f 69/9/1 64/9/1 63/9/1
f 70/9/1 64/9/1 69/9/1
f 71/8/1 70/8/1 69/8/1
f 72/8/1 70/8/1 71/8/1
f 75/1/1 74/1/1 73/1/1
f 76/1/1 74/1/1 75/1/1
f 77/2/1 76/2/1 75/2/1
f 78/2/1 76/2/1 77/2/1
f 81/5/1 80/5/1 79/5/1
f 82/5/1 80/5/1 81/5/1
f 83/1/2 84/1/2 85/1/2
f 85/1/2 84/1/2 86/1/2
f 85/2/2 86/2/2 87/2/2
f 87/2/2 86/2/2 88/2/2
f 89/5/2 90/5/2 91/5/2
f 91/5/2 90/5/2 92/5/2
f 93/7/2 94/7/2 96/7/2
f 96/7/2 94/7/2 97/7/2
f 97/7/2 94/7/2 98/7/2
f 95/7/2 96/7/2 101/7/2
f 101/7/2 96/7/2 102/7/2
f 99/8/2 100/8/2 106/8/2
f 106/8/2 100/8/2 107/8/2
f 102/7/2 103/7/2 108/7/2
f 108/7/2 103/7/2 109/7/2
f 104/3/2 105/3/2 110/3/2
f 110/3/2 105/3/2 111/3/2
f 106/9/2 107/9/2 112/9/2
f 112/9/2 107/9/2 113/9/2
f 112/8/2 113/8/2 114/8/2
f 114/8/2 113/8/2 115/8/2
f 116/1/2 117/1/2 118/1/2
f 118/1/2 117/1/2 119/1/2
f 118/2/2 119/2/2 120/2/2
f 120/2/2 119/2/2 121/2/2
f 120/5/2 121/5/2 122/5/2
f 122/5/2 121/5/2 123/5/2
f 122/6/2 123/6/2 124/6/2
f 124/6/2 123/6/2 125/6/2
f 124/5/2 125/5/2 129/5/2
f 129/5/2 125/5/2 130/5/2
f 126/3/2 127/3/2 132/3/2
f 127/6/2 128/6/2 133/6/2
f 132/3/2 127/3/2 133/3/2
f 128/5/2 129/5/2 134/5/2
f 133/6/2 128/6/2 134/6/2
f 129/6/2 130/6/2 135/6/2
f 134/5/2 129/5/2 135/5/2
f 135/6/2 130/6/2 136/6/2
f 131/7/2 132/7/2 137/7/2
f 137/7/2 132/7/2 138/7/2
f 139/4/2 140/4/2 142/4/2
f 142/4/2 140/4/2 143/4/2
f 140/10/2 141/10/2 144/10/2
f 143/4/2 140/4/2 144/4/2
f 144/10/2 141/10/2 145/10/2
f 142/3/2 143/3/2 148/3/2
f 148/3/2 143/3/2 149/3/2
f 145/9/2 146/9/2 150/9/2
f 150/9/2 146/9/2 151/9/2
f 147/9/2 148/9/2 152/9/2
f 152/9/2 148/9/2 153/9/2
f 149/9/2 150/9/2 154/9/2
f 154/9/2 150/9/2 155/9/2
f 153/9/2 154/9/2 156/9/2
f 156/9/2 154/9/2 157/9/2
f 158/9/2 159/9/2 161/9/2
f 161/9/2 159/9/2 162/9/2
f 160/9/2 161/9/2 163/9/2
f 163/9/2 161/9/2 164/9/2
f 167/7/3 166/7/3 165/7/3
f 168/7/3 166/7/3 167/7/3
f 171/7/3 170/7/3 169/7/3
f 172/7/3 170/7/3 171/7/3
f 176/3/3 174/3/3 173/3/3
f 177/3/3 174/3/3 176/3/3
f 178/7/3 176/7/3 175/7/3
f 179/7/3 176/7/3 178/7/3
f 181/3/3 180/3/3 179/3/3
f 182/3/3 180/3/3 181/3/3
f 185/9/3 184/9/3 183/9/3
f 186/9/3 184/9/3 185/9/3
f 191/9/3 188/9/3 187/9/3
f 192/9/3 188/9/3 191/9/3
f 194/4/3 190/4/3 189/4/3
f 195/3/3 191/3/3 190/3/3
f 195/4/3 190/4/3 194/4/3
f 196/3/3 191/3/3 195/3/3
f 197/9/3 193/9/3 192/9/3
f 198/9/3 193/9/3 197/9/3
f 199/9/3 197/9/3 196/9/3
f 200/9/3 197/9/3 199/9/3
f 209/9/3 202/9/3 201/9/3
f 210/9/3 202/9/3 209/9/3
f 211/1/3 204/1/3 203/1/3
f 212/2/3 205/2/3 204/2/3
f 212/1/3 204/1/3 211/1/3
f 213/5/3 206/5/3 205/5/3
f 213/2/3 205/2/3 212/2/3
f 214/6/3 207/6/3 206/6/3
f 214/5/3 206/5/3 213/5/3
f 215/5/3 208/5/3 207/5/3
f 215/6/3 207/6/3 214/6/3
f 216/5/3 208/5/3 215/5/3
f 221/6/3 214/6/3 213/6/3
f 222/5/3 215/5/3 214/5/3
f 222/6/3 214/6/3 221/6/3
f 223/6/3 216/6/3 215/6/3
f 223/5/3 215/5/3 222/5/3
f 224/5/3 217/5/3 216/5/3
f 224/6/3 216/6/3 223/6/3
f 225/3/3 218/3/3 217/3/3
f 225/5/3 217/5/3 224/5/3
f 226/3/3 218/3/3 225/3/3
f 227/1/3 220/1/3 219/1/3
f 228/2/3 221/2/3 220/2/3
f 228/1/3 220/1/3 227/1/3
f 229/5/3 222/5/3 221/5/3
f 229/2/3 221/2/3 228/2/3
f 230/6/3 223/6/3 222/6/3
f 230/5/3 222/5/3 229/5/3
f 231/5/3 224/5/3 223/5/3
f 231/6/3 223/6/3 230/6/3
f 232/5/3 224/5/3 231/5/3
f 235/9/3 234/9/3 233/9/3
f 236/9/3 234/9/3 235/9/3
f 240/8/3 238/8/3 237/8/3
f 241/9/3 239/9/3 238/9/3
f 241/8/3 238/8/3 240/8/3
f 242/9/3 239/9/3 241/9/3
f 243/7/4 244/7/4 245/7/4
f 245/7/4 244/7/4 246/7/4
f 247/7/4 248/7/4 249/7/4
f 249/7/4 248/7/4 250/7/4
f 251/7/4 252/7/4 253/7/4
f 253/7/4 252/7/4 254/7/4
f 255/7/4 256/7/4 258/7/4
f 256/7/4 257/7/4 258/7/4
f 258/7/4 257/7/4 259/7/4
f 259/7/4 257/7/4 260/7/4
f 261/9/4 262/9/4 263/9/4
f 263/9/4 262/9/4 264/9/4
f 264/9/4 265/9/4 267/9/4
f 267/9/4 265/9/4 268/9/4
f 266/9/4 267/9/4 269/9/4
f 269/9/4 267/9/4 270/9/4
f 271/1/4 272/1/4 278/1/4
f 272/2/4 273/2/4 279/2/4
f 278/1/4 272/1/4 279/1/4
f 273/5/4 274/5/4 280/5/4
f 279/2/4 273/2/4 280/2/4
f 274/6/4 275/6/4 281/6/4
f 280/5/4 274/5/4 281/5/4
f 275/5/4 276/5/4 282/5/4
f 281/6/4 275/6/4 282/6/4
f 276/6/4 277/6/4 283/6/4
f 282/5/4 276/5/4 283/5/4
f 283/6/4 277/6/4 284/6/4
f 280/6/4 281/6/4 288/6/4
f 281/5/4 282/5/4 289/5/4
f 288/6/4 281/6/4 289/6/4
f 282/6/4 283/6/4 290/6/4
f 289/5/4 282/5/4 290/5/4
f 283/5/4 284/5/4 291/5/4
f 290/6/4 283/6/4 291/6/4
f 284/3/4 285/3/4 292/3/4
f 291/5/4 284/5/4 292/5/4
f 292/3/4 285/3/4 293/3/4
f 286/1/4 287/1/4 294/1/4
f 287/2/4 288/2/4 295/2/4
f 294/1/4 287/1/4 295/1/4
f 288/5/4 289/5/4 296/5/4
f 295/2/4 288/2/4 296/2/4
f 289/6/4 290/6/4 297/6/4
f 296/5/4 289/5/4 297/5/4
f 290/5/4 291/5/4 298/5/4
f 297/6/4 290/6/4 298/6/4
f 291/6/4 292/6/4 299/6/4
f 298/5/4 291/5/4 299/5/4
f 299/6/4 292/6/4 300/6/4
f 301/9/4 302/9/4 304/9/4
f 304/9/4 302/9/4 305/9/4
f 303/10/4 304/10/4 307/10/4
f 307/10/4 304/10/4 308/10/4
f 309/10/4 310/10/4 311/10/4
f 311/10/4 310/10/4 312/10/4
f 305/9/4 306/9/4 313/9/4
f 313/9/4 306/9/4 314/9/4
f 312/9/4 313/9/4 315/9/4
f 315/9/4 313/9/4 316/9/4
f 317/9/4 318/9/4 322/9/4
f 319/8/4 320/8/4 323/8/4
f 320/9/4 321/9/4 324/9/4
f 323/8/4 320/8/4 324/8/4
f 321/8/4 322/8/4 325/8/4
f 324/9/4 321/9/4 325/9/4
f 322/9/4 318/9/4 326/9/4
f 325/8/4 322/8/4 326/8/4
f 326/9/4 318/9/4 327/9/4
f 327/9/4 318/9/4 328/9/4
f 333/1/5 330/1/5 329/1/5
f 334/1/5 330/1/5 333/1/5
f 335/1/5 332/1/5 331/1/5
f 336/1/5 332/1/5 335/1/5
f 339/6/5 338/6/5 337/6/5
f 340/6/5 338/6/5 339/6/5
f 343/7/5 342/7/5 341/7/5
f 344/7/5 342/7/5 343/7/5
f 348/7/5 346/7/5 345/7/5
f 349/7/5 346/7/5 348/7/5
f 351/3/5 348/3/5 347/3/5
f 352/3/5 348/3/5 351/3/5
f 353/3/5 350/3/5 349/3/5
f 354/3/5 350/3/5 353/3/5
f 355/6/5 352/6/5 351/6/5
f 356/6/5 352/6/5 355/6/5
f 357/6/5 354/6/5 353/6/5
f 358/6/5 354/6/5 357/6/5
f 359/5/5 356/5/5 355/5/5
f 360/5/5 356/5/5 359/5/5
f 361/5/5 358/5/5 357/5/5
f 362/5/5 358/5/5 361/5/5
f 365/8/5 364/8/5 363/8/5
f 366/8/5 364/8/5 365/8/5
f 369/7/5 368/7/5 367/7/5
f 370/7/5 368/7/5 369/7/5
f 371/7/5 369/7/5 367/7/5
f 372/7/5 369/7/5 371/7/5
f 373/7/5 368/7/5 370/7/5
f 374/7/5 368/7/5 373/7/5
f 377/4/5 376/4/5 375/4/5
f 378/4/5 376/4/5 377/4/5
f 379/4/5 377/4/5 375/4/5
f 380/4/5 377/4/5 379/4/5
f 381/4/5 376/4/5 378/4/5
f 382/4/5 376/4/5 381/4/5
f 383/10/5 380/10/5 379/10/5
f 383/10/5 381/10/5 380/10/5
f 383/10/5 382/10/5 381/10/5
f 384/10/5 382/10/5 383/10/5
f 385/10/5 382/10/5 384/10/5
f 386/10/5 382/10/5 385/10/5
f 391/9/5 388/9/5 387/9/5
f 392/9/5 390/9/5 389/9/5
f 393/9/5 391/9/5 387/9/5
f 394/9/5 391/9/5 393/9/5
f 397/9/5 390/9/5 392/9/5
f 398/9/5 390/9/5 397/9/5
f 399/9/5 395/9/5 394/9/5
f 400/9/5 395/9/5 399/9/5
f 401/9/5 397/9/5 396/9/5
f 402/9/5 397/9/5 401/9/5
f 406/9/5 404/9/5 403/9/5
f 407/9/5 404/9/5 406/9/5
f 409/9/5 406/9/5 405/9/5
f 410/9/5 406/9/5 409/9/5
f 411/9/5 408/9/5 407/9/5
f 412/9/5 408/9/5 411/9/5
f 413/3/6 414/3/6 417/3/6
f 417/3/6 414/3/6 418/3/6
f 415/3/6 416/3/6 419/3/6
f 419/3/6 416/3/6 420/3/6
f 417/6/6 418/6/6 421/6/6
f 418/7/6 419/7/6 422/7/6
f 421/6/6 418/6/6 422/6/6
f 419/6/6 420/6/6 423/6/6
f 422/7/6 419/7/6 423/7/6
f 423/6/6 420/6/6 424/6/6
f 421/5/6 422/5/6 425/5/6
f 425/5/6 422/5/6 426/5/6
f 423/5/6 424/5/6 427/5/6
f 427/5/6 424/5/6 428/5/6
f 425/6/6 426/6/6 429/6/6
f 429/6/6 426/6/6 430/6/6
f 427/6/6 428/6/6 431/6/6
f 431/6/6 428/6/6 432/6/6
f 433/7/6 434/7/6 435/7/6
f 435/7/6 434/7/6 436/7/6
f 436/7/6 434/7/6 437/7/6
f 437/7/6 434/7/6 438/7/6
f 436/7/6 437/7/6 439/7/6
f 439/7/6 437/7/6 440/7/6
f 441/9/6 442/9/6 445/9/6
f 445/9/6 442/9/6 446/9/6
f 443/9/6 444/9/6 447/9/6
f 447/9/6 444/9/6 448/9/6
f 446/9/6 447/9/6 449/9/6
f 449/9/6 447/9/6 450/9/6
f 451/9/6 452/9/6 454/9/6
f 454/9/6 452/9/6 455/9/6
f 453/9/6 454/9/6 457/9/6
f 457/9/6 454/9/6 458/9/6
f 455/9/6 456/9/6 459/9/6
f 459/9/6 456/9/6 460/9/6
f 458/9/6 459/9/6 461/9/6
f 461/9/6 459/9/6 462/9/6
f 463/9/6 464/9/6 465/9/6
f 465/9/6 464/9/6 466/9/6
