# MagicaVoxel @ Ephtracy

# material
mtllib icecave.mtl
usemtl palette

# normals
vn -1 0 0
vn 1 0 0
vn 0 0 1
vn 0 0 -1
vn 0 -1 0
vn 0 1 0

# texcoords
vt 0.0605469 0.5
vt 0.443359 0.5
vt 0.447266 0.5
vt 0.451172 0.5
vt 0.466797 0.5

# verts
v -2 0 3
v -2 0 2
v -2 0 1
v -2 0 -7
v -2 0 -8
v -2 0 -9
v -2 1 3
v -2 1 2
v -2 1 -6
v -2 1 -7
v -2 1 -8
v -2 1 -9
v -2 2 1
v -2 2 -0
v -2 2 -7
v -2 2 -8
v -2 3 2
v -2 3 1
v -2 3 -0
v -2 3 -1
v -2 3 -6
v -2 3 -7
v -2 3 -8
v -2 4 1
v -2 4 -0
v -2 4 -1
v -2 4 -2
v -2 4 -3
v -2 4 -6
v -2 4 -7
v -2 5 -5
v -2 5 -6
v -2 5 -7
v -2 6 -0
v -2 6 -1
v -2 6 -2
v -2 6 -3
v -2 6 -5
v -2 6 -6
v -2 7 -1
v -2 7 -5
v -1 0 1
v -1 0 -0
v -1 0 -7
v -1 1 -6
v -1 1 -7
v -1 2 1
v -1 2 -0
v -1 3 -0
v -1 3 -1
v -1 3 -6
v -1 4 -1
v -1 4 -2
v -1 4 -3
v -1 4 -6
v -1 5 -1
v -1 5 -2
v -1 5 -3
v -1 5 -5
v -1 5 -6
v -1 6 -1
v -1 6 -2
v -1 6 -3
v -1 6 -5
v 1 0 -6
v 1 0 -7
v 1 2 -2
v 1 2 -3
v 1 2 -5
v 1 2 -6
v 1 2 -7
v 1 3 -2
v 1 3 -3
v 1 3 -5
v 1 3 -6
v 1 4 -3
v 1 4 -5
v 1 5 -3
v 1 5 -5
v 2 0 -0
v 2 0 -2
v 2 2 -0
v 2 2 -1
v 2 2 -2
v 2 2 -3
v 2 2 -5
v 2 3 -0
v 2 3 -1
v 2 3 -2
v 2 3 -3
v 2 3 -5
v 3 0 -5
v 3 0 -6
v 3 1 -2
v 3 1 -5
v 3 2 -2
v 3 2 -6
v 4 0 -2
v 4 0 -5
v 4 1 -2
v 4 1 -5
v -1 0 3
v -1 0 2
v -1 1 3
v -1 1 2
v -1 2 2
v -1 2 1
v -1 3 2
v -1 3 1
v -1 3 -0
v -1 4 1
v -1 4 -0
v -1 6 -1
v -1 6 -2
v -1 6 -4
v -1 6 -5
v -1 7 -1
v -1 7 -2
v -1 7 -4
v -1 7 -5
v 0 0 -0
v 0 0 -7
v 0 1 2
v 0 1 1
v 0 2 2
v 0 2 1
v 0 2 -6
v 0 2 -7
v 0 3 -0
v 0 3 -1
v 0 3 -3
v 0 3 -5
v 0 3 -6
v 0 4 -0
v 0 4 -1
v 0 4 -3
v 0 4 -5
v 0 4 -6
v 0 4 -7
v 0 5 -3
v 0 5 -5
v 0 5 -6
v 0 5 -7
v 0 6 -0
v 0 6 -1
v 0 6 -2
v 0 6 -4
v 0 6 -5
v 0 6 -6
v 0 7 -2
v 0 7 -4
v 1 2 -7
v 1 2 -8
v 1 3 -6
v 1 3 -7
v 1 3 -8
v 1 4 -1
v 1 4 -2
v 1 4 -3
v 1 4 -5
v 1 4 -6
v 1 4 -7
v 1 5 -3
v 1 5 -5
v 1 5 -6
v 1 6 -1
v 1 6 -5
v 2 0 2
v 2 0 1
v 2 1 2
v 2 1 1
v 2 1 -0
v 2 1 -7
v 2 1 -8
v 2 2 -0
v 2 2 -7
v 2 2 -8
v 2 3 1
v 2 3 -0
v 2 3 -1
v 2 3 -2
v 2 3 -3
v 2 3 -5
v 2 3 -6
v 2 4 -0
v 2 4 -2
v 2 4 -3
v 2 4 -4
v 2 4 -5
v 2 4 -6
v 2 5 -3
v 2 5 -5
v 3 0 -7
v 3 0 -9
v 3 1 -7
v 3 1 -9
v 3 2 -0
v 3 2 -1
v 3 2 -2
v 3 2 -5
v 3 2 -6
v 3 2 -7
v 3 3 -0
v 3 3 -1
v 3 3 -2
v 3 3 -3
v 3 3 -4
v 3 3 -5
v 3 3 -6
v 3 3 -7
v 3 4 -3
v 3 4 -4
v 3 4 -5
v 4 0 1
v 4 0 -0
v 4 0 -6
v 4 0 -7
v 4 1 1
v 4 1 -0
v 4 1 -1
v 4 1 -5
v 4 1 -6
v 4 2 -0
v 4 2 -1
v 4 2 -2
v 4 2 -3
v 4 2 -4
v 4 2 -5
v 4 2 -6
v 4 2 -7
v 4 3 -2
v 4 3 -3
v 4 3 -4
v 4 3 -5
v 5 0 -0
v 5 0 -2
v 5 1 -0
v 5 1 -1
v 5 1 -2
v 5 1 -5
v 5 2 -1
v 5 2 -2
v 5 2 -5
v 6 0 -2
v 6 0 -3
v 6 0 -5
v 6 0 -6
v 6 1 -2
v 6 1 -3
v 6 1 -5
v 6 1 -6
v 7 0 -3
v 7 0 -5
v 7 1 -3
v 7 1 -5
v -2 0 3
v -2 1 3
v -1 0 3
v -1 1 3
v -2 1 2
v -2 3 2
v -1 0 2
v -1 1 2
v -1 2 2
v -1 3 2
v 0 1 2
v 0 2 2
v 2 0 2
v 2 1 2
v -2 3 1
v -2 4 1
v -1 2 1
v -1 3 1
v -1 4 1
v 0 1 1
v 0 2 1
v 2 0 1
v 2 1 1
v 2 3 1
v 4 0 1
v 4 1 1
v -2 4 -0
v -2 6 -0
v -1 3 -0
v -1 4 -0
v 0 3 -0
v 0 4 -0
v 0 6 -0
v 1 3 -0
v 1 4 -0
v 2 1 -0
v 2 2 -0
v 2 3 -0
v 2 4 -0
v 3 1 -0
v 3 2 -0
v 3 3 -0
v 4 0 -0
v 4 1 -0
v 4 2 -0
v 5 0 -0
v 5 1 -0
v -2 6 -1
v -2 7 -1
v -1 6 -1
v -1 7 -1
v 0 4 -1
v 0 6 -1
v 1 4 -1
v 1 6 -1
v 4 1 -1
v 4 2 -1
v 5 1 -1
v 5 2 -1
v -2 4 -2
v -2 6 -2
v -1 4 -2
v -1 5 -2
v -1 6 -2
v -1 7 -2
v 0 6 -2
v 0 7 -2
v 1 2 -2
v 1 3 -2
v 2 2 -2
v 2 3 -2
v 3 2 -2
v 3 3 -2
v 4 2 -2
v 4 3 -2
v 5 0 -2
v 5 1 -2
v 6 0 -2
v 6 1 -2
v 1 4 -3
v 1 5 -3
v 2 3 -3
v 2 4 -3
v 2 5 -3
v 3 3 -3
v 3 4 -3
v 6 0 -3
v 6 1 -3
v 7 0 -3
v 7 1 -3
v -2 5 -5
v -2 6 -5
v -1 5 -5
v -1 6 -5
v 0 3 -5
v 0 4 -5
v 0 5 -5
v 1 2 -5
v 1 3 -5
v 1 4 -5
v 1 5 -5
v 2 2 -5
v 2 3 -5
v 3 0 -5
v 3 1 -5
v 4 0 -5
v 4 1 -5
v -2 1 -6
v -2 3 -6
v -2 4 -6
v -2 5 -6
v -1 1 -6
v -1 3 -6
v -1 4 -6
v -1 5 -6
v 0 2 -6
v 0 3 -6
v 1 0 -6
v 1 2 -6
v 1 3 -6
v 3 0 -6
v 3 2 -6
v -2 0 -7
v -2 1 -7
v -1 0 -7
v -1 1 -7
v 0 0 -7
v 0 2 -7
v 1 0 -7
v 1 2 -7
v -2 0 1
v -2 2 1
v -1 0 1
v -1 2 1
v -2 2 -0
v -2 3 -0
v -1 2 -0
v -1 3 -0
v 0 0 -0
v 0 3 -0
v 1 3 -0
v 2 0 -0
v 2 2 -0
v 2 3 -0
v -2 3 -1
v -2 4 -1
v -2 6 -1
v -1 3 -1
v -1 4 -1
v -1 5 -1
v -1 6 -1
v 2 0 -2
v 2 2 -2
v 3 1 -2
v 3 2 -2
v 4 0 -2
v 4 1 -2
v -2 4 -3
v -2 6 -3
v -1 4 -3
v -1 5 -3
v -1 6 -3
v 0 3 -3
v 0 4 -3
v 0 5 -3
v 1 2 -3
v 1 3 -3
v 1 4 -3
v 1 5 -3
v 2 2 -3
v 2 3 -3
v -1 6 -4
v -1 7 -4
v 0 6 -4
v 0 7 -4
v -2 6 -5
v -2 7 -5
v -1 6 -5
v -1 7 -5
v 0 5 -5
v 0 6 -5
v 1 4 -5
v 1 5 -5
v 1 6 -5
v 2 3 -5
v 2 4 -5
v 2 5 -5
v 3 2 -5
v 3 3 -5
v 3 4 -5
v 4 1 -5
v 4 2 -5
v 4 3 -5
v 5 1 -5
v 5 2 -5
v 6 0 -5
v 6 1 -5
v 7 0 -5
v 7 1 -5
v -2 5 -6
v -2 6 -6
v 0 4 -6
v 0 5 -6
v 0 6 -6
v 1 3 -6
v 1 4 -6
v 1 5 -6
v 2 3 -6
v 2 4 -6
v 4 0 -6
v 4 1 -6
v 6 0 -6
v 6 1 -6
v -2 3 -7
v -2 4 -7
v -2 5 -7
v -1 3 -7
v 0 3 -7
v 0 4 -7
v 0 5 -7
v 1 2 -7
v 1 3 -7
v 1 4 -7
v 2 1 -7
v 2 2 -7
v 2 3 -7
v 3 0 -7
v 3 1 -7
v 3 2 -7
v 3 3 -7
v 4 0 -7
v 4 2 -7
v -2 1 -8
v -2 2 -8
v -2 3 -8
v -1 2 -8
v -1 3 -8
v 1 1 -8
v 1 2 -8
v 1 3 -8
v 2 1 -8
v 2 2 -8
v -2 0 -9
v -2 1 -9
v 3 0 -9
v 3 1 -9
v -2 0 3
v -1 0 3
v -2 0 2
v -1 0 2
v 2 0 2
v -2 0 1
v -1 0 1
v 2 0 1
v 4 0 1
v -1 0 -0
v 0 0 -0
v 2 0 -0
v 3 0 -0
v 4 0 -0
v 5 0 -0
v 3 0 -1
v 4 0 -1
v 2 0 -2
v 4 0 -2
v 5 0 -2
v 6 0 -2
v 6 0 -3
v 7 0 -3
v 3 0 -5
v 4 0 -5
v 5 0 -5
v 6 0 -5
v 7 0 -5
v 1 0 -6
v 3 0 -6
v 4 0 -6
v 6 0 -6
v -2 0 -7
v -1 0 -7
v 0 0 -7
v 1 0 -7
v 3 0 -7
v 4 0 -7
v -2 0 -8
v 1 0 -8
v -2 0 -9
v 3 0 -9
v 3 1 -2
v 4 1 -2
v 3 1 -5
v 4 1 -5
v -2 1 -6
v -1 1 -6
v -2 1 -7
v -1 1 -7
v -2 2 1
v -1 2 1
v -2 2 -0
v -1 2 -0
v 1 2 -2
v 2 2 -2
v 3 2 -2
v 1 2 -3
v 2 2 -3
v 1 2 -5
v 2 2 -5
v 0 2 -6
v 1 2 -6
v 3 2 -6
v 0 2 -7
v 1 2 -7
v -2 3 -0
v -1 3 -0
v 0 3 -0
v 1 3 -0
v 2 3 -0
v -2 3 -1
v -1 3 -1
v 0 3 -1
v 1 3 -1
v 2 3 -1
v 1 3 -2
v 2 3 -2
v 0 3 -3
v 1 3 -3
v 2 3 -3
v 0 3 -5
v 1 3 -5
v 2 3 -5
v 0 3 -6
v 1 3 -6
v -2 4 -2
v -1 4 -2
v -2 4 -3
v -1 4 -3
v 0 5 -3
v 1 5 -3
v -2 5 -5
v -1 5 -5
v 0 5 -5
v 1 5 -5
v -2 5 -6
v -1 5 -6
v -2 6 -1
v -1 6 -1
v -2 6 -2
v -1 6 -2
v -2 6 -3
v -1 6 -3
v -2 6 -5
v -1 6 -5
v -2 1 3
v -1 1 3
v -2 1 2
v -1 1 2
v 0 1 2
v 2 1 2
v 0 1 1
v 2 1 1
v 4 1 1
v 2 1 -0
v 3 1 -0
v 4 1 -0
v 5 1 -0
v 4 1 -1
v 5 1 -1
v 5 1 -2
v 6 1 -2
v 6 1 -3
v 7 1 -3
v 4 1 -5
v 5 1 -5
v 6 1 -5
v 7 1 -5
v 4 1 -6
v 6 1 -6
v 2 1 -7
v 3 1 -7
v -2 1 -8
v 1 1 -8
v 2 1 -8
v -2 1 -9
v 3 1 -9
v -1 2 2
v 0 2 2
v -1 2 1
v 0 2 1
v 3 2 -0
v 4 2 -0
v 3 2 -1
v 4 2 -1
v 5 2 -1
v 3 2 -2
v 4 2 -2
v 5 2 -2
v 4 2 -3
v 4 2 -4
v 3 2 -5
v 4 2 -5
v 5 2 -5
v 3 2 -6
v 4 2 -6
v 1 2 -7
v 2 2 -7
v 3 2 -7
v 4 2 -7
v 1 2 -8
v 2 2 -8
v -2 3 2
v -1 3 2
v -2 3 1
v -1 3 1
v 2 3 1
v -1 3 -0
v 0 3 -0
v 1 3 -0
v 2 3 -0
v 3 3 -0
v 2 3 -1
v 3 3 -1
v 2 3 -2
v 3 3 -2
v 4 3 -2
v 2 3 -3
v 3 3 -3
v 4 3 -3
v 3 3 -4
v 4 3 -4
v 2 3 -5
v 3 3 -5
v 4 3 -5
v 1 3 -6
v 2 3 -6
v 3 3 -6
v -2 3 -7
v -1 3 -7
v 0 3 -7
v 1 3 -7
v 2 3 -7
v 3 3 -7
v -2 3 -8
v -1 3 -8
v 1 3 -8
v -2 4 1
v -1 4 1
v -2 4 -0
v -1 4 -0
v 0 4 -0
v 1 4 -0
v 2 4 -0
v 0 4 -1
v 1 4 -1
v 1 4 -2
v 2 4 -2
v 1 4 -3
v 2 4 -3
v 3 4 -3
v 2 4 -4
v 3 4 -4
v 1 4 -5
v 2 4 -5
v 3 4 -5
v 0 4 -6
v 1 4 -6
v 2 4 -6
v 0 4 -7
v 1 4 -7
v 1 5 -3
v 2 5 -3
v 0 5 -5
v 1 5 -5
v 2 5 -5
v -2 5 -6
v 0 5 -6
v 1 5 -6
v -2 5 -7
v 0 5 -7
v -2 6 -0
v 0 6 -0
v -2 6 -1
v -1 6 -1
v 0 6 -1
v 1 6 -1
v -1 6 -2
v 0 6 -2
v -1 6 -4
v 0 6 -4
v -2 6 -5
v -1 6 -5
v 0 6 -5
v 1 6 -5
v -2 6 -6
v 0 6 -6
v -2 7 -1
v -1 7 -1
v -1 7 -2
v 0 7 -2
v -1 7 -4
v 0 7 -4
v -2 7 -5
v -1 7 -5

# faces
f 7/5/1 2/5/1 1/5/1
f 8/2/1 3/2/1 2/2/1
f 8/5/1 2/5/1 7/5/1
f 10/2/1 5/2/1 4/2/1
f 11/5/1 6/5/1 5/5/1
f 11/2/1 5/2/1 10/2/1
f 12/5/1 6/5/1 11/5/1
f 13/2/1 3/2/1 8/2/1
f 15/4/1 10/4/1 9/4/1
f 15/2/1 11/2/1 10/2/1
f 16/2/1 11/2/1 15/2/1
f 17/2/1 13/2/1 8/2/1
f 18/4/1 14/4/1 13/4/1
f 18/2/1 13/2/1 17/2/1
f 19/4/1 14/4/1 18/4/1
f 21/4/1 15/4/1 9/4/1
f 22/3/1 16/3/1 15/3/1
f 22/4/1 15/4/1 21/4/1
f 23/3/1 16/3/1 22/3/1
f 24/2/1 20/2/1 19/2/1
f 24/2/1 19/2/1 18/2/1
f 25/2/1 20/2/1 24/2/1
f 26/2/1 20/2/1 25/2/1
f 29/2/1 22/2/1 21/2/1
f 30/2/1 22/2/1 29/2/1
f 32/3/1 30/3/1 29/3/1
f 33/3/1 30/3/1 32/3/1
f 34/3/1 26/3/1 25/3/1
f 35/3/1 26/3/1 34/3/1
f 36/3/1 28/3/1 27/3/1
f 37/3/1 28/3/1 36/3/1
f 38/3/1 32/3/1 31/3/1
f 39/3/1 32/3/1 38/3/1
f 40/3/1 37/3/1 36/3/1
f 40/3/1 38/3/1 37/3/1
f 40/3/1 36/3/1 35/3/1
f 41/3/1 38/3/1 40/3/1
f 45/1/1 44/1/1 43/1/1
f 46/1/1 44/1/1 45/1/1
f 47/2/1 43/2/1 42/2/1
f 48/1/1 45/1/1 43/1/1
f 48/2/1 43/2/1 47/2/1
f 49/1/1 45/1/1 48/1/1
f 50/1/1 45/1/1 49/1/1
f 51/1/1 45/1/1 50/1/1
f 52/1/1 51/1/1 50/1/1
f 53/1/1 51/1/1 52/1/1
f 54/1/1 51/1/1 53/1/1
f 55/1/1 51/1/1 54/1/1
f 56/1/1 53/1/1 52/1/1
f 57/1/1 53/1/1 56/1/1
f 58/1/1 55/1/1 54/1/1
f 59/1/1 55/1/1 58/1/1
f 60/1/1 55/1/1 59/1/1
f 61/3/1 57/3/1 56/3/1
f 62/3/1 57/3/1 61/3/1
f 63/3/1 59/3/1 58/3/1
f 64/3/1 59/3/1 63/3/1
f 70/2/1 66/2/1 65/2/1
f 71/2/1 66/2/1 70/2/1
f 72/2/1 68/2/1 67/2/1
f 73/2/1 68/2/1 72/2/1
f 74/2/1 70/2/1 69/2/1
f 75/2/1 70/2/1 74/2/1
f 76/2/1 74/2/1 73/2/1
f 77/2/1 74/2/1 76/2/1
f 78/3/1 77/3/1 76/3/1
f 79/3/1 77/3/1 78/3/1
f 82/2/1 81/2/1 80/2/1
f 83/2/1 81/2/1 82/2/1
f 84/2/1 81/2/1 83/2/1
f 87/3/1 83/3/1 82/3/1
f 88/2/1 84/2/1 83/2/1
f 88/3/1 83/3/1 87/3/1
f 89/2/1 84/2/1 88/2/1
f 90/2/1 86/2/1 85/2/1
f 91/2/1 86/2/1 90/2/1
f 95/2/1 93/2/1 92/2/1
f 96/2/1 95/2/1 94/2/1
f 97/2/1 93/2/1 95/2/1
f 97/2/1 95/2/1 96/2/1
f 100/2/1 99/2/1 98/2/1
f 101/2/1 99/2/1 100/2/1
f 102/5/2 103/5/2 104/5/2
f 104/5/2 103/5/2 105/5/2
f 106/2/2 107/2/2 108/2/2
f 108/2/2 107/2/2 109/2/2
f 109/2/2 110/2/2 111/2/2
f 111/2/2 110/2/2 112/2/2
f 113/3/2 114/3/2 117/3/2
f 117/3/2 114/3/2 118/3/2
f 115/3/2 116/3/2 119/3/2
f 119/3/2 116/3/2 120/3/2
f 123/5/2 124/5/2 125/5/2
f 125/5/2 124/5/2 126/5/2
f 121/1/2 122/1/2 127/1/2
f 127/1/2 122/1/2 128/1/2
f 121/1/2 127/1/2 129/1/2
f 129/1/2 127/1/2 130/1/2
f 130/1/2 127/1/2 131/1/2
f 131/1/2 127/1/2 132/1/2
f 132/1/2 127/1/2 133/1/2
f 131/1/2 132/1/2 136/1/2
f 136/1/2 132/1/2 137/1/2
f 136/1/2 137/1/2 140/1/2
f 140/1/2 137/1/2 141/1/2
f 138/3/2 139/3/2 142/3/2
f 142/3/2 139/3/2 143/3/2
f 134/3/2 135/3/2 144/3/2
f 144/3/2 135/3/2 145/3/2
f 141/3/2 142/3/2 148/3/2
f 148/3/2 142/3/2 149/3/2
f 146/3/2 147/3/2 150/3/2
f 150/3/2 147/3/2 151/3/2
f 152/2/2 153/2/2 155/2/2
f 155/2/2 153/2/2 156/2/2
f 154/3/2 155/3/2 161/3/2
f 161/3/2 155/3/2 162/3/2
f 158/3/2 159/3/2 163/3/2
f 157/3/2 158/3/2 163/3/2
f 160/3/2 161/3/2 164/3/2
f 164/3/2 161/3/2 165/3/2
f 157/3/2 163/3/2 166/3/2
f 163/3/2 164/3/2 166/3/2
f 166/3/2 164/3/2 167/3/2
f 168/5/2 169/5/2 170/5/2
f 170/5/2 169/5/2 171/5/2
f 171/2/2 172/2/2 175/2/2
f 173/5/2 174/5/2 176/5/2
f 176/5/2 174/5/2 177/5/2
f 171/2/2 175/2/2 178/2/2
f 178/2/2 175/2/2 179/2/2
f 179/2/2 180/2/2 185/2/2
f 180/2/2 181/2/2 185/2/2
f 181/3/2 182/3/2 186/3/2
f 185/2/2 181/2/2 186/2/2
f 186/3/2 182/3/2 187/3/2
f 183/2/2 184/2/2 189/2/2
f 189/2/2 184/2/2 190/2/2
f 187/3/2 188/3/2 191/3/2
f 188/3/2 189/3/2 191/3/2
f 191/3/2 189/3/2 192/3/2
f 193/5/2 194/5/2 195/5/2
f 195/5/2 194/5/2 196/5/2
f 197/3/2 198/3/2 203/3/2
f 198/2/2 199/2/2 204/2/2
f 203/3/2 198/3/2 204/3/2
f 204/2/2 199/2/2 205/2/2
f 200/2/2 201/2/2 208/2/2
f 201/3/2 202/3/2 209/3/2
f 208/2/2 201/2/2 209/2/2
f 209/3/2 202/3/2 210/3/2
f 206/3/2 207/3/2 211/3/2
f 207/2/2 208/2/2 212/2/2
f 211/3/2 207/3/2 212/3/2
f 212/2/2 208/2/2 213/2/2
f 214/5/2 215/5/2 218/5/2
f 218/5/2 215/5/2 219/5/2
f 216/5/2 217/5/2 222/5/2
f 219/5/2 220/5/2 223/5/2
f 223/5/2 220/5/2 224/5/2
f 221/2/2 222/2/2 228/2/2
f 222/5/2 217/5/2 229/5/2
f 228/2/2 222/2/2 229/2/2
f 229/5/2 217/5/2 230/5/2
f 225/2/2 226/2/2 231/2/2
f 226/3/2 227/3/2 232/3/2
f 231/2/2 226/2/2 232/2/2
f 227/2/2 228/2/2 233/2/2
f 232/3/2 227/3/2 233/3/2
f 233/2/2 228/2/2 234/2/2
f 235/5/2 236/5/2 237/5/2
f 237/5/2 236/5/2 238/5/2
f 238/5/2 236/5/2 239/5/2
f 238/5/2 239/5/2 241/5/2
f 239/2/2 240/2/2 242/2/2
f 241/5/2 239/5/2 242/5/2
f 242/2/2 240/2/2 243/2/2
f 244/5/2 245/5/2 248/5/2
f 248/5/2 245/5/2 249/5/2
f 246/5/2 247/5/2 250/5/2
f 250/5/2 247/5/2 251/5/2
f 252/5/2 253/5/2 254/5/2
f 254/5/2 253/5/2 255/5/2
f 258/5/3 257/5/3 256/5/3
f 259/5/3 257/5/3 258/5/3
f 263/2/3 261/2/3 260/2/3
f 264/2/3 261/2/3 263/2/3
f 265/2/3 261/2/3 264/2/3
f 266/5/3 263/5/3 262/5/3
f 266/5/3 264/5/3 263/5/3
f 267/5/3 264/5/3 266/5/3
f 268/5/3 266/5/3 262/5/3
f 269/5/3 266/5/3 268/5/3
f 273/2/3 271/2/3 270/2/3
f 274/2/3 271/2/3 273/2/3
f 276/2/3 273/2/3 272/2/3
f 278/2/3 276/2/3 275/2/3
f 279/2/3 273/2/3 276/2/3
f 279/2/3 276/2/3 278/2/3
f 280/5/3 278/5/3 277/5/3
f 281/5/3 278/5/3 280/5/3
f 285/3/3 283/3/3 282/3/3
f 286/2/3 285/2/3 284/2/3
f 287/3/3 283/3/3 285/3/3
f 287/2/3 285/2/3 286/2/3
f 288/3/3 283/3/3 287/3/3
f 289/3/3 287/3/3 286/3/3
f 290/3/3 287/3/3 289/3/3
f 293/2/3 290/2/3 289/2/3
f 294/2/3 290/2/3 293/2/3
f 295/2/3 292/2/3 291/2/3
f 296/3/3 293/3/3 292/3/3
f 296/2/3 292/2/3 295/2/3
f 297/3/3 293/3/3 296/3/3
f 299/5/3 296/5/3 295/5/3
f 300/5/3 296/5/3 299/5/3
f 301/5/3 299/5/3 298/5/3
f 302/5/3 299/5/3 301/5/3
f 305/3/3 304/3/3 303/3/3
f 306/3/3 304/3/3 305/3/3
f 309/3/3 308/3/3 307/3/3
f 310/3/3 308/3/3 309/3/3
f 313/5/3 312/5/3 311/5/3
f 314/5/3 312/5/3 313/5/3
f 317/3/3 316/3/3 315/3/3
f 318/3/3 316/3/3 317/3/3
f 319/3/3 316/3/3 318/3/3
f 321/3/3 320/3/3 319/3/3
f 322/3/3 320/3/3 321/3/3
f 325/2/3 324/2/3 323/2/3
f 326/2/3 324/2/3 325/2/3
f 329/2/3 328/2/3 327/2/3
f 330/2/3 328/2/3 329/2/3
f 333/5/3 332/5/3 331/5/3
f 334/5/3 332/5/3 333/5/3
f 338/3/3 336/3/3 335/3/3
f 339/3/3 336/3/3 338/3/3
f 340/3/3 338/3/3 337/3/3
f 341/3/3 338/3/3 340/3/3
f 344/5/3 343/5/3 342/5/3
f 345/5/3 343/5/3 344/5/3
f 348/3/3 347/3/3 346/3/3
f 349/3/3 347/3/3 348/3/3
f 354/2/3 351/2/3 350/2/3
f 355/3/3 352/3/3 351/3/3
f 355/2/3 351/2/3 354/2/3
f 356/3/3 352/3/3 355/3/3
f 357/2/3 354/2/3 353/2/3
f 358/2/3 354/2/3 357/2/3
f 361/2/3 360/2/3 359/2/3
f 362/2/3 360/2/3 361/2/3
f 367/4/3 364/4/3 363/4/3
f 368/2/3 365/2/3 364/2/3
f 368/4/3 364/4/3 367/4/3
f 369/3/3 366/3/3 365/3/3
f 369/2/3 365/2/3 368/2/3
f 370/3/3 366/3/3 369/3/3
f 374/2/3 372/2/3 371/2/3
f 375/2/3 372/2/3 374/2/3
f 376/2/3 374/2/3 373/2/3
f 377/2/3 374/2/3 376/2/3
f 380/2/3 379/2/3 378/2/3
f 381/2/3 379/2/3 380/2/3
f 384/2/3 383/2/3 382/2/3
f 385/2/3 383/2/3 384/2/3
f 386/2/4 387/2/4 388/2/4
f 388/2/4 387/2/4 389/2/4
f 390/4/4 391/4/4 392/4/4
f 392/4/4 391/4/4 393/4/4
f 394/2/4 395/2/4 396/2/4
f 394/2/4 396/2/4 397/2/4
f 397/2/4 396/2/4 398/2/4
f 398/2/4 396/2/4 399/2/4
f 400/2/4 401/2/4 403/2/4
f 401/3/4 402/3/4 404/3/4
f 403/2/4 401/2/4 404/2/4
f 404/3/4 402/3/4 405/3/4
f 405/3/4 402/3/4 406/3/4
f 407/2/4 408/2/4 409/2/4
f 409/2/4 408/2/4 410/2/4
f 407/2/4 409/2/4 411/2/4
f 411/2/4 409/2/4 412/2/4
f 413/3/4 414/3/4 415/3/4
f 415/3/4 414/3/4 416/3/4
f 416/3/4 414/3/4 417/3/4
f 418/2/4 419/2/4 422/2/4
f 419/3/4 420/3/4 423/3/4
f 422/2/4 419/2/4 423/2/4
f 423/3/4 420/3/4 424/3/4
f 421/2/4 422/2/4 425/2/4
f 425/2/4 422/2/4 426/2/4
f 427/3/4 428/3/4 429/3/4
f 429/3/4 428/3/4 430/3/4
f 431/3/4 432/3/4 433/3/4
f 433/3/4 432/3/4 434/3/4
f 435/3/4 436/3/4 438/3/4
f 438/3/4 436/3/4 439/3/4
f 437/3/4 438/3/4 441/3/4
f 441/3/4 438/3/4 442/3/4
f 440/2/4 441/2/4 444/2/4
f 444/2/4 441/2/4 445/2/4
f 443/2/4 444/2/4 447/2/4
f 447/2/4 444/2/4 448/2/4
f 446/2/4 447/2/4 449/2/4
f 449/2/4 447/2/4 450/2/4
f 451/5/4 452/5/4 453/5/4
f 453/5/4 452/5/4 454/5/4
f 455/3/4 456/3/4 458/3/4
f 458/3/4 456/3/4 459/3/4
f 457/3/4 458/3/4 461/3/4
f 461/3/4 458/3/4 462/3/4
f 460/2/4 461/2/4 463/2/4
f 463/2/4 461/2/4 464/2/4
f 465/5/4 466/5/4 467/5/4
f 467/5/4 466/5/4 468/5/4
f 469/2/4 470/2/4 472/2/4
f 472/2/4 470/2/4 473/2/4
f 470/3/4 471/3/4 474/3/4
f 473/2/4 470/2/4 474/2/4
f 474/3/4 471/3/4 475/3/4
f 473/3/4 474/3/4 477/3/4
f 477/3/4 474/3/4 478/3/4
f 476/2/4 477/2/4 480/2/4
f 480/2/4 477/2/4 481/2/4
f 479/2/4 480/2/4 483/2/4
f 480/3/4 481/3/4 484/3/4
f 483/2/4 480/2/4 484/2/4
f 484/3/4 481/3/4 485/3/4
f 482/5/4 483/5/4 486/5/4
f 483/5/4 484/5/4 486/5/4
f 486/5/4 484/5/4 487/5/4
f 488/2/4 489/2/4 491/2/4
f 489/3/4 490/3/4 491/3/4
f 491/3/4 490/3/4 492/3/4
f 488/2/4 491/2/4 493/2/4
f 491/2/4 492/2/4 493/2/4
f 493/2/4 492/2/4 494/2/4
f 494/2/4 492/2/4 495/2/4
f 493/5/4 494/5/4 496/5/4
f 496/5/4 494/5/4 497/5/4
f 498/5/4 499/5/4 500/5/4
f 500/5/4 499/5/4 501/5/4
f 504/5/5 503/5/5 502/5/5
f 505/5/5 503/5/5 504/5/5
f 507/2/5 505/2/5 504/2/5
f 508/5/5 506/5/5 505/5/5
f 508/2/5 505/2/5 507/2/5
f 509/5/5 506/5/5 508/5/5
f 511/2/5 509/2/5 508/2/5
f 512/2/5 509/2/5 511/2/5
f 513/5/5 510/5/5 509/5/5
f 513/2/5 509/2/5 512/2/5
f 514/5/5 510/5/5 513/5/5
f 515/5/5 510/5/5 514/5/5
f 517/5/5 516/5/5 515/5/5
f 517/5/5 515/5/5 514/5/5
f 517/2/5 514/2/5 513/2/5
f 518/5/5 516/5/5 517/5/5
f 519/2/5 517/2/5 513/2/5
f 519/2/5 518/2/5 517/2/5
f 520/5/5 516/5/5 518/5/5
f 520/2/5 518/2/5 519/2/5
f 521/5/5 516/5/5 520/5/5
f 523/5/5 522/5/5 521/5/5
f 526/2/5 521/2/5 520/2/5
f 527/5/5 524/5/5 523/5/5
f 527/5/5 523/5/5 521/5/5
f 527/2/5 521/2/5 526/2/5
f 528/5/5 524/5/5 527/5/5
f 529/5/5 524/5/5 528/5/5
f 531/2/5 526/2/5 525/2/5
f 532/5/5 527/5/5 526/5/5
f 532/5/5 528/5/5 527/5/5
f 532/2/5 526/2/5 531/2/5
f 533/5/5 528/5/5 532/5/5
f 535/1/5 512/1/5 511/1/5
f 536/1/5 512/1/5 535/1/5
f 537/2/5 531/2/5 530/2/5
f 538/5/5 532/5/5 531/5/5
f 538/2/5 531/2/5 537/2/5
f 539/5/5 532/5/5 538/5/5
f 540/2/5 536/2/5 535/2/5
f 540/2/5 537/2/5 536/2/5
f 540/2/5 535/2/5 534/2/5
f 541/5/5 538/5/5 537/5/5
f 541/2/5 537/2/5 540/2/5
f 542/5/5 541/5/5 540/5/5
f 543/5/5 538/5/5 541/5/5
f 543/5/5 541/5/5 542/5/5
f 546/2/5 545/2/5 544/2/5
f 547/2/5 545/2/5 546/2/5
f 550/4/5 549/4/5 548/4/5
f 551/4/5 549/4/5 550/4/5
f 554/4/5 553/4/5 552/4/5
f 555/4/5 553/4/5 554/4/5
f 559/2/5 557/2/5 556/2/5
f 559/2/5 558/2/5 557/2/5
f 560/2/5 558/2/5 559/2/5
f 562/2/5 558/2/5 560/2/5
f 564/2/5 562/2/5 561/2/5
f 565/2/5 558/2/5 562/2/5
f 565/2/5 562/2/5 564/2/5
f 566/2/5 564/2/5 563/2/5
f 567/2/5 564/2/5 566/2/5
f 573/2/5 569/2/5 568/2/5
f 574/2/5 569/2/5 573/2/5
f 575/3/5 571/3/5 570/3/5
f 576/2/5 572/2/5 571/2/5
f 576/3/5 571/3/5 575/3/5
f 577/2/5 572/2/5 576/2/5
f 578/2/5 576/2/5 575/2/5
f 578/2/5 577/2/5 576/2/5
f 579/2/5 577/2/5 578/2/5
f 580/2/5 578/2/5 575/2/5
f 581/2/5 578/2/5 580/2/5
f 584/2/5 582/2/5 581/2/5
f 585/2/5 582/2/5 584/2/5
f 586/2/5 584/2/5 583/2/5
f 587/2/5 584/2/5 586/2/5
f 590/3/5 589/3/5 588/3/5
f 591/3/5 589/3/5 590/3/5
f 596/3/5 593/3/5 592/3/5
f 597/3/5 593/3/5 596/3/5
f 598/3/5 595/3/5 594/3/5
f 599/3/5 595/3/5 598/3/5
f 602/3/5 601/3/5 600/3/5
f 603/3/5 601/3/5 602/3/5
f 606/3/5 605/3/5 604/3/5
f 607/3/5 605/3/5 606/3/5
f 608/5/6 609/5/6 610/5/6
f 610/5/6 609/5/6 611/5/6
f 612/5/6 613/5/6 614/5/6
f 614/5/6 613/5/6 615/5/6
f 615/5/6 616/5/6 617/5/6
f 617/5/6 616/5/6 618/5/6
f 618/5/6 616/5/6 619/5/6
f 619/5/6 620/5/6 621/5/6
f 621/5/6 620/5/6 622/5/6
f 623/5/6 624/5/6 625/5/6
f 623/5/6 625/5/6 628/5/6
f 625/5/6 626/5/6 628/5/6
f 628/5/6 626/5/6 629/5/6
f 629/5/6 626/5/6 630/5/6
f 627/5/6 628/5/6 631/5/6
f 628/5/6 629/5/6 631/5/6
f 631/5/6 629/5/6 632/5/6
f 633/5/6 634/5/6 637/5/6
f 635/5/6 636/5/6 638/5/6
f 636/5/6 637/5/6 638/5/6
f 637/5/6 634/5/6 639/5/6
f 638/5/6 637/5/6 639/5/6
f 640/5/6 641/5/6 642/5/6
f 642/5/6 641/5/6 643/5/6
f 644/5/6 645/5/6 646/5/6
f 646/5/6 645/5/6 647/5/6
f 646/2/6 647/2/6 649/2/6
f 647/5/6 648/5/6 650/5/6
f 649/2/6 647/2/6 650/2/6
f 650/5/6 648/5/6 651/5/6
f 650/2/6 651/2/6 652/2/6
f 652/2/6 651/2/6 653/2/6
f 653/2/6 651/2/6 655/2/6
f 655/2/6 651/2/6 656/2/6
f 654/2/6 655/2/6 657/2/6
f 657/2/6 655/2/6 658/2/6
f 657/5/6 658/5/6 661/5/6
f 661/5/6 658/5/6 662/5/6
f 659/5/6 660/5/6 663/5/6
f 663/5/6 660/5/6 664/5/6
f 665/2/6 666/2/6 667/2/6
f 667/2/6 666/2/6 668/2/6
f 668/2/6 669/2/6 670/2/6
f 670/2/6 669/2/6 671/2/6
f 671/2/6 669/2/6 672/2/6
f 672/2/6 669/2/6 673/2/6
f 673/3/6 674/3/6 675/3/6
f 675/3/6 674/3/6 676/3/6
f 675/2/6 676/2/6 677/2/6
f 677/2/6 676/2/6 678/2/6
f 677/2/6 678/2/6 680/2/6
f 678/2/6 679/2/6 680/2/6
f 680/2/6 679/2/6 681/2/6
f 681/2/6 679/2/6 682/2/6
f 681/3/6 682/3/6 683/3/6
f 683/3/6 682/3/6 684/3/6
f 683/2/6 684/2/6 686/2/6
f 686/2/6 684/2/6 687/2/6
f 685/2/6 686/2/6 689/2/6
f 689/2/6 686/2/6 690/2/6
f 688/2/6 689/2/6 694/2/6
f 689/3/6 690/3/6 695/3/6
f 694/2/6 689/2/6 695/2/6
f 695/3/6 690/3/6 696/3/6
f 691/3/6 692/3/6 697/3/6
f 692/2/6 693/2/6 698/2/6
f 697/3/6 692/3/6 698/3/6
f 693/2/6 694/2/6 698/2/6
f 698/2/6 694/2/6 699/2/6
f 700/2/6 701/2/6 702/2/6
f 702/2/6 701/2/6 703/2/6
f 704/3/6 705/3/6 707/3/6
f 705/2/6 706/2/6 708/2/6
f 707/3/6 705/3/6 708/3/6
f 708/2/6 706/2/6 709/2/6
f 709/2/6 706/2/6 710/2/6
f 709/3/6 710/3/6 711/3/6
f 711/3/6 710/3/6 712/3/6
f 712/3/6 713/3/6 714/3/6
f 714/3/6 713/3/6 715/3/6
f 714/2/6 715/2/6 717/2/6
f 717/2/6 715/2/6 718/2/6
f 716/2/6 717/2/6 720/2/6
f 720/2/6 717/2/6 721/2/6
f 719/3/6 720/3/6 722/3/6
f 722/3/6 720/3/6 723/3/6
f 724/3/6 725/3/6 727/3/6
f 727/3/6 725/3/6 728/3/6
f 726/3/6 727/3/6 730/3/6
f 730/3/6 727/3/6 731/3/6
f 729/3/6 730/3/6 732/3/6
f 732/3/6 730/3/6 733/3/6
f 734/3/6 735/3/6 736/3/6
f 736/3/6 735/3/6 737/3/6
f 737/3/6 735/3/6 738/3/6
f 738/3/6 739/3/6 740/3/6
f 737/3/6 738/3/6 740/3/6
f 740/3/6 739/3/6 741/3/6
f 741/3/6 739/3/6 743/3/6
f 742/3/6 743/3/6 745/3/6
f 743/3/6 739/3/6 746/3/6
f 745/3/6 743/3/6 746/3/6
f 746/3/6 739/3/6 747/3/6
f 744/3/6 745/3/6 748/3/6
f 745/3/6 746/3/6 748/3/6
f 748/3/6 746/3/6 749/3/6
f 750/3/6 751/3/6 752/3/6
f 750/3/6 752/3/6 754/3/6
f 752/3/6 753/3/6 754/3/6
f 754/3/6 753/3/6 755/3/6
f 750/3/6 754/3/6 756/3/6
f 756/3/6 754/3/6 757/3/6
