# MagicaVoxel @ Ephtracy

# material
mtllib icespike.mtl
usemtl palette

# normals
vn -1 0 0
vn 1 0 0
vn 0 0 1
vn 0 0 -1
vn 0 -1 0
vn 0 1 0

# texcoords
vt 0.439453 0.5
vt 0.443359 0.5
vt 0.451172 0.5
vt 0.455078 0.5

# verts
v -2 0 -2
v -2 0 -5
v -2 1 -2
v -2 1 -3
v -2 1 -4
v -2 1 -5
v -2 2 -3
v -2 2 -4
v -2 3 -3
v -2 3 -4
v -2 4 -3
v -2 4 -4
v -1 1 -2
v -1 1 -3
v -1 1 -4
v -1 1 -5
v -1 2 -2
v -1 2 -3
v -1 2 -4
v -1 2 -5
v -1 3 -2
v -1 3 -3
v -1 3 -4
v -1 3 -5
v -1 4 -3
v -1 4 -4
v -1 5 -2
v -1 5 -3
v -1 5 -4
v -1 7 -3
v -1 7 -4
v 0 1 -2
v 0 1 -3
v 0 1 -4
v 0 1 -5
v 0 2 -2
v 0 2 -3
v 0 2 -4
v 0 2 -5
v 0 3 -2
v 0 3 -3
v 0 3 -4
v 0 3 -5
v 0 5 -2
v 0 5 -3
v 0 5 -4
v 0 7 -3
v 0 7 -4
v 1 0 -2
v 1 0 -5
v 1 1 -2
v 1 1 -3
v 1 1 -4
v 1 1 -5
v 1 2 -3
v 1 2 -4
v 1 3 -3
v 1 3 -4
v -2 0 -2
v -2 1 -2
v -1 1 -2
v -1 2 -2
v -1 3 -2
v -1 5 -2
v 0 1 -2
v 0 2 -2
v 0 3 -2
v 0 5 -2
v 1 0 -2
v 1 1 -2
v -2 1 -3
v -2 2 -3
v -2 3 -3
v -2 4 -3
v -1 1 -3
v -1 2 -3
v -1 3 -3
v -1 4 -3
v -1 5 -3
v -1 7 -3
v 0 1 -3
v 0 2 -3
v 0 3 -3
v 0 5 -3
v 0 7 -3
v 1 1 -3
v 1 2 -3
v 1 3 -3
v -2 1 -4
v -2 2 -4
v -2 3 -4
v -2 4 -4
v -1 1 -4
v -1 2 -4
v -1 3 -4
v -1 4 -4
v -1 5 -4
v -1 7 -4
v 0 1 -4
v 0 2 -4
v 0 3 -4
v 0 5 -4
v 0 7 -4
v 1 1 -4
v 1 2 -4
v 1 3 -4
v -2 0 -5
v -2 1 -5
v -1 1 -5
v -1 2 -5
v -1 3 -5
v 0 1 -5
v 0 2 -5
v 0 3 -5
v 1 0 -5
v 1 1 -5
v -2 0 -2
v 1 0 -2
v -1 0 -3
v 0 0 -3
v -1 0 -4
v 0 0 -4
v -2 0 -5
v 1 0 -5
v -2 1 -2
v -1 1 -2
v 0 1 -2
v 1 1 -2
v -2 1 -3
v -1 1 -3
v 0 1 -3
v 1 1 -3
v -2 1 -4
v -1 1 -4
v 0 1 -4
v 1 1 -4
v -2 1 -5
v -1 1 -5
v 0 1 -5
v 1 1 -5
v 0 3 -3
v 1 3 -3
v -1 3 -4
v 0 3 -4
v 1 3 -4
v -1 3 -5
v 0 3 -5
v -2 4 -3
v -1 4 -3
v -2 4 -4
v -1 4 -4
v -1 5 -2
v 0 5 -2
v -1 5 -3
v 0 5 -3
v -1 7 -3
v 0 7 -3
v -1 7 -4
v 0 7 -4

# faces
f 3/1/1 2/1/1 1/1/1
f 4/1/1 2/1/1 3/1/1
f 5/1/1 2/1/1 4/1/1
f 6/1/1 2/1/1 5/1/1
f 7/1/1 5/1/1 4/1/1
f 8/1/1 5/1/1 7/1/1
f 9/2/1 8/2/1 7/2/1
f 10/2/1 8/2/1 9/2/1
f 11/3/1 10/3/1 9/3/1
f 12/3/1 10/3/1 11/3/1
f 17/1/1 14/1/1 13/1/1
f 18/1/1 14/1/1 17/1/1
f 19/2/1 16/2/1 15/2/1
f 20/2/1 16/2/1 19/2/1
f 21/2/1 18/2/1 17/2/1
f 22/2/1 18/2/1 21/2/1
f 23/3/1 20/3/1 19/3/1
f 24/3/1 20/3/1 23/3/1
f 25/3/1 22/3/1 21/3/1
f 27/3/1 25/3/1 21/3/1
f 27/3/1 26/3/1 25/3/1
f 28/3/1 26/3/1 27/3/1
f 29/3/1 26/3/1 28/3/1
f 30/4/1 29/4/1 28/4/1
f 31/4/1 29/4/1 30/4/1
f 32/1/2 33/1/2 36/1/2
f 36/1/2 33/1/2 37/1/2
f 34/2/2 35/2/2 38/2/2
f 38/2/2 35/2/2 39/2/2
f 36/2/2 37/2/2 40/2/2
f 40/2/2 37/2/2 41/2/2
f 38/3/2 39/3/2 42/3/2
f 42/3/2 39/3/2 43/3/2
f 40/3/2 41/3/2 44/3/2
f 41/3/2 42/3/2 44/3/2
f 44/3/2 42/3/2 45/3/2
f 45/3/2 42/3/2 46/3/2
f 45/4/2 46/4/2 47/4/2
f 47/4/2 46/4/2 48/4/2
f 49/1/2 50/1/2 51/1/2
f 51/1/2 50/1/2 52/1/2
f 52/1/2 50/1/2 53/1/2
f 53/1/2 50/1/2 54/1/2
f 52/2/2 53/2/2 55/2/2
f 55/2/2 53/2/2 56/2/2
f 55/3/2 56/3/2 57/3/2
f 57/3/2 56/3/2 58/3/2
f 61/1/3 60/1/3 59/1/3
f 65/1/3 61/1/3 59/1/3
f 65/1/3 62/1/3 61/1/3
f 66/2/3 63/2/3 62/2/3
f 66/1/3 62/1/3 65/1/3
f 67/3/3 64/3/3 63/3/3
f 67/2/3 63/2/3 66/2/3
f 68/3/3 64/3/3 67/3/3
f 69/1/3 65/1/3 59/1/3
f 70/1/3 65/1/3 69/1/3
f 75/1/3 72/1/3 71/1/3
f 76/2/3 73/2/3 72/2/3
f 76/1/3 72/1/3 75/1/3
f 77/3/3 74/3/3 73/3/3
f 77/2/3 73/2/3 76/2/3
f 78/3/3 74/3/3 77/3/3
f 84/4/3 80/4/3 79/4/3
f 85/4/3 80/4/3 84/4/3
f 86/2/3 82/2/3 81/2/3
f 87/3/3 83/3/3 82/3/3
f 87/2/3 82/2/3 86/2/3
f 88/3/3 83/3/3 87/3/3
f 89/1/4 90/1/4 93/1/4
f 90/2/4 91/2/4 94/2/4
f 93/1/4 90/1/4 94/1/4
f 91/3/4 92/3/4 95/3/4
f 94/2/4 91/2/4 95/2/4
f 95/3/4 92/3/4 96/3/4
f 96/3/4 97/3/4 101/3/4
f 95/3/4 96/3/4 101/3/4
f 97/4/4 98/4/4 102/4/4
f 101/3/4 97/3/4 102/3/4
f 102/4/4 98/4/4 103/4/4
f 99/2/4 100/2/4 104/2/4
f 100/3/4 101/3/4 105/3/4
f 104/2/4 100/2/4 105/2/4
f 105/3/4 101/3/4 106/3/4
f 107/1/4 108/1/4 109/1/4
f 107/1/4 109/1/4 112/1/4
f 109/2/4 110/2/4 112/2/4
f 110/3/4 111/3/4 113/3/4
f 112/2/4 110/2/4 113/2/4
f 113/3/4 111/3/4 114/3/4
f 107/1/4 112/1/4 115/1/4
f 115/1/4 112/1/4 116/1/4
f 119/1/5 118/1/5 117/1/5
f 120/1/5 118/1/5 119/1/5
f 121/1/5 119/1/5 117/1/5
f 121/3/5 120/3/5 119/3/5
f 122/1/5 118/1/5 120/1/5
f 122/3/5 120/3/5 121/3/5
f 123/1/5 121/1/5 117/1/5
f 123/1/5 122/1/5 121/1/5
f 124/1/5 118/1/5 122/1/5
f 124/1/5 122/1/5 123/1/5
f 125/1/6 126/1/6 129/1/6
f 129/1/6 126/1/6 130/1/6
f 127/1/6 128/1/6 131/1/6
f 131/1/6 128/1/6 132/1/6
f 133/1/6 134/1/6 137/1/6
f 137/1/6 134/1/6 138/1/6
f 135/1/6 136/1/6 139/1/6
f 139/1/6 136/1/6 140/1/6
f 141/3/6 142/3/6 144/3/6
f 144/3/6 142/3/6 145/3/6
f 143/3/6 144/3/6 146/3/6
f 146/3/6 144/3/6 147/3/6
f 148/3/6 149/3/6 150/3/6
f 150/3/6 149/3/6 151/3/6
f 152/3/6 153/3/6 154/3/6
f 154/3/6 153/3/6 155/3/6
f 156/4/6 157/4/6 158/4/6
f 158/4/6 157/4/6 159/4/6
