# MagicaVoxel @ Ephtracy

# material
mtllib icicle.mtl
usemtl palette

# normals
vn -1 0 0
vn 1 0 0
vn 0 0 1
vn 0 0 -1
vn 0 -1 0
vn 0 1 0

# texcoords
vt 0.439453 0.5
vt 0.443359 0.5
vt 0.447266 0.5

# verts
v -3 0 3
v -3 0 -0
v -3 3 3
v -3 3 2
v -3 3 1
v -3 3 -0
v -3 4 2
v -3 4 1
v -3 5 2
v -3 5 1
v -2 3 3
v -2 3 2
v -2 3 1
v -2 3 -0
v -2 4 3
v -2 4 2
v -2 4 1
v -2 4 -0
v -2 5 3
v -2 5 2
v -2 5 1
v -2 5 -0
v -2 6 2
v -2 6 1
v -2 9 2
v -2 9 1
v -1 3 3
v -1 3 2
v -1 3 1
v -1 3 -0
v -1 4 3
v -1 4 2
v -1 4 1
v -1 4 -0
v -1 5 3
v -1 5 2
v -1 5 1
v -1 5 -0
v -1 6 2
v -1 6 1
v -1 9 2
v -1 9 1
v 0 0 3
v 0 0 -0
v 0 3 3
v 0 3 2
v 0 3 1
v 0 3 -0
v 0 4 2
v 0 4 1
v 0 5 2
v 0 5 1
v -3 0 3
v -3 3 3
v -2 3 3
v -2 4 3
v -2 5 3
v -1 3 3
v -1 4 3
v -1 5 3
v 0 0 3
v 0 3 3
v -3 3 2
v -3 4 2
v -3 5 2
v -2 3 2
v -2 4 2
v -2 5 2
v -2 6 2
v -2 9 2
v -1 3 2
v -1 4 2
v -1 5 2
v -1 6 2
v -1 9 2
v 0 3 2
v 0 4 2
v 0 5 2
v -3 3 1
v -3 4 1
v -3 5 1
v -2 3 1
v -2 4 1
v -2 5 1
v -2 6 1
v -2 9 1
v -1 3 1
v -1 4 1
v -1 5 1
v -1 6 1
v -1 9 1
v 0 3 1
v 0 4 1
v 0 5 1
v -3 0 -0
v -3 3 -0
v -2 3 -0
v -2 4 -0
v -2 5 -0
v -1 3 -0
v -1 4 -0
v -1 5 -0
v 0 0 -0
v 0 3 -0
v -3 0 3
v 0 0 3
v -3 0 -0
v 0 0 -0
v -3 3 3
v -2 3 3
v -1 3 3
v 0 3 3
v -3 3 2
v -2 3 2
v -1 3 2
v 0 3 2
v -3 3 1
v -2 3 1
v -1 3 1
v 0 3 1
v -3 3 -0
v -2 3 -0
v -1 3 -0
v 0 3 -0
v -2 5 3
v -1 5 3
v -3 5 2
v -2 5 2
v -1 5 2
v 0 5 2
v -3 5 1
v -2 5 1
v -1 5 1
v 0 5 1
v -2 5 -0
v -1 5 -0
v -2 9 2
v -1 9 2
v -2 9 1
v -1 9 1

# faces
f 3/1/1 2/1/1 1/1/1
f 4/1/1 2/1/1 3/1/1
f 5/1/1 2/1/1 4/1/1
f 6/1/1 2/1/1 5/1/1
f 7/1/1 5/1/1 4/1/1
f 8/1/1 5/1/1 7/1/1
f 9/2/1 8/2/1 7/2/1
f 10/2/1 8/2/1 9/2/1
f 15/1/1 12/1/1 11/1/1
f 16/1/1 12/1/1 15/1/1
f 17/1/1 14/1/1 13/1/1
f 18/1/1 14/1/1 17/1/1
f 19/2/1 16/2/1 15/2/1
f 20/2/1 16/2/1 19/2/1
f 21/2/1 18/2/1 17/2/1
f 22/2/1 18/2/1 21/2/1
f 23/2/1 21/2/1 20/2/1
f 24/2/1 21/2/1 23/2/1
f 25/3/1 24/3/1 23/3/1
f 26/3/1 24/3/1 25/3/1
f 27/1/2 28/1/2 31/1/2
f 31/1/2 28/1/2 32/1/2
f 29/1/2 30/1/2 33/1/2
f 33/1/2 30/1/2 34/1/2
f 31/2/2 32/2/2 35/2/2
f 35/2/2 32/2/2 36/2/2
f 33/2/2 34/2/2 37/2/2
f 37/2/2 34/2/2 38/2/2
f 36/2/2 37/2/2 39/2/2
f 39/2/2 37/2/2 40/2/2
f 39/3/2 40/3/2 41/3/2
f 41/3/2 40/3/2 42/3/2
f 43/1/2 44/1/2 45/1/2
f 45/1/2 44/1/2 46/1/2
f 46/1/2 44/1/2 47/1/2
f 47/1/2 44/1/2 48/1/2
f 46/1/2 47/1/2 49/1/2
f 49/1/2 47/1/2 50/1/2
f 49/2/2 50/2/2 51/2/2
f 51/2/2 50/2/2 52/2/2
f 55/1/3 54/1/3 53/1/3
f 58/1/3 55/1/3 53/1/3
f 58/1/3 56/1/3 55/1/3
f 59/2/3 57/2/3 56/2/3
f 59/1/3 56/1/3 58/1/3
f 60/2/3 57/2/3 59/2/3
f 61/1/3 58/1/3 53/1/3
f 62/1/3 58/1/3 61/1/3
f 66/1/3 64/1/3 63/1/3
f 67/2/3 65/2/3 64/2/3
f 67/1/3 64/1/3 66/1/3
f 68/2/3 65/2/3 67/2/3
f 73/2/3 69/2/3 68/2/3
f 74/3/3 70/3/3 69/3/3
f 74/2/3 69/2/3 73/2/3
f 75/3/3 70/3/3 74/3/3
f 76/1/3 72/1/3 71/1/3
f 77/2/3 73/2/3 72/2/3
f 77/1/3 72/1/3 76/1/3
f 78/2/3 73/2/3 77/2/3
f 79/1/4 80/1/4 82/1/4
f 80/2/4 81/2/4 83/2/4
f 82/1/4 80/1/4 83/1/4
f 83/2/4 81/2/4 84/2/4
f 84/2/4 85/2/4 89/2/4
f 85/3/4 86/3/4 90/3/4
f 89/2/4 85/2/4 90/2/4
f 90/3/4 86/3/4 91/3/4
f 87/1/4 88/1/4 92/1/4
f 88/2/4 89/2/4 93/2/4
f 92/1/4 88/1/4 93/1/4
f 93/2/4 89/2/4 94/2/4
f 95/1/4 96/1/4 97/1/4
f 95/1/4 97/1/4 100/1/4
f 97/1/4 98/1/4 100/1/4
f 98/2/4 99/2/4 101/2/4
f 100/1/4 98/1/4 101/1/4
f 101/2/4 99/2/4 102/2/4
f 95/1/4 100/1/4 103/1/4
f 103/1/4 100/1/4 104/1/4
f 107/1/5 106/1/5 105/1/5
f 108/1/5 106/1/5 107/1/5
f 109/1/6 110/1/6 113/1/6
f 113/1/6 110/1/6 114/1/6
f 111/1/6 112/1/6 115/1/6
f 115/1/6 112/1/6 116/1/6
f 117/1/6 118/1/6 121/1/6
f 121/1/6 118/1/6 122/1/6
f 119/1/6 120/1/6 123/1/6
f 123/1/6 120/1/6 124/1/6
f 125/2/6 126/2/6 128/2/6
f 128/2/6 126/2/6 129/2/6
f 127/2/6 128/2/6 131/2/6
f 131/2/6 128/2/6 132/2/6
f 129/2/6 130/2/6 133/2/6
f 133/2/6 130/2/6 134/2/6
f 132/2/6 133/2/6 135/2/6
f 135/2/6 133/2/6 136/2/6
f 137/3/6 138/3/6 139/3/6
f 139/3/6 138/3/6 140/3/6
