# MagicaVoxel @ Ephtracy

# material
mtllib LlamaWord.mtl
usemtl palette

# normals
vn -1 0 0
vn 1 0 0
vn 0 0 1
vn 0 0 -1
vn 0 -1 0
vn 0 1 0

# texcoords
vt 0.00585938 0.5
vt 0.0332031 0.5
vt 0.955078 0.5

# verts
v -19 25 25
v -19 25 24
v -19 26 25
v -19 26 24
v -18 26 25
v -18 26 24
v -18 28 25
v -18 28 24
v -17 25 25
v -17 25 24
v -17 26 25
v -17 26 24
v -17 28 25
v -17 28 24
v -17 29 25
v -17 29 24
v -15 26 25
v -15 26 24
v -15 28 25
v -15 28 24
v -12 25 25
v -12 25 24
v -12 28 25
v -12 28 24
v -11 28 25
v -11 28 24
v -11 29 25
v -11 29 24
v -9 25 25
v -9 25 24
v -9 28 25
v -9 28 24
v -8 28 25
v -8 28 24
v -8 29 25
v -8 29 24
v -6 27 25
v -6 27 24
v -6 28 25
v -6 28 24
v -5 25 25
v -5 25 24
v -5 27 25
v -5 27 24
v -5 28 25
v -5 28 24
v -5 29 25
v -5 29 24
v -2 25 25
v -2 25 24
v -2 26 25
v -2 26 24
v -1 26 25
v -1 26 24
v -1 28 25
v -1 28 24
v 0 25 25
v 0 25 24
v 0 26 25
v 0 26 24
v 0 28 25
v 0 28 24
v 0 29 25
v 0 29 24
v 2 26 25
v 2 26 24
v 2 28 25
v 2 28 24
v 5 25 25
v 5 25 24
v 5 37 25
v 5 37 24
v 8 25 25
v 8 25 24
v 8 27 25
v 8 27 24
v 12 27 25
v 12 27 24
v 12 35 24
v 12 35 23
v 12 38 25
v 12 38 23
v 14 34 24
v 14 34 23
v 14 35 24
v 14 35 23
v -18 25 25
v -18 25 24
v -18 26 25
v -18 26 24
v -17 26 25
v -17 26 24
v -17 28 25
v -17 28 24
v -15 25 25
v -15 25 24
v -15 26 25
v -15 26 24
v -15 28 25
v -15 28 24
v -15 29 25
v -15 29 24
v -14 26 25
v -14 26 24
v -14 28 25
v -14 28 24
v -11 25 25
v -11 25 24
v -11 28 25
v -11 28 24
v -9 28 25
v -9 28 24
v -9 29 25
v -9 29 24
v -8 25 25
v -8 25 24
v -8 28 25
v -8 28 24
v -6 28 25
v -6 28 24
v -6 29 25
v -6 29 24
v -4 25 25
v -4 25 24
v -4 29 25
v -4 29 24
v -1 25 25
v -1 25 24
v -1 26 25
v -1 26 24
v 0 26 25
v 0 26 24
v 0 28 25
v 0 28 24
v 2 25 25
v 2 25 24
v 2 26 25
v 2 26 24
v 2 28 25
v 2 28 24
v 2 29 25
v 2 29 24
v 3 26 25
v 3 26 24
v 3 28 25
v 3 28 24
v 7 25 25
v 7 25 24
v 7 37 25
v 7 37 24
v 13 36 25
v 13 36 23
v 13 38 25
v 13 38 23
v 14 25 25
v 14 25 24
v 14 26 25
v 14 26 24
v 14 35 24
v 14 35 23
v 14 36 24
v 14 36 23
v 15 26 25
v 15 26 24
v 15 31 25
v 15 31 24
v 15 34 24
v 15 34 23
v 15 35 24
v 15 35 23
v 16 31 25
v 16 31 24
v 16 32 25
v 16 32 24
v 16 35 25
v 16 35 24
v 16 36 25
v 16 36 24
v 17 34 25
v 17 34 24
v 17 35 25
v 17 35 24
v 18 32 25
v 18 32 24
v 18 34 25
v 18 34 24
v -19 25 25
v -19 26 25
v -18 25 25
v -18 26 25
v -18 28 25
v -17 25 25
v -17 26 25
v -17 28 25
v -17 29 25
v -15 25 25
v -15 26 25
v -15 28 25
v -15 29 25
v -14 26 25
v -14 28 25
v -12 25 25
v -12 28 25
v -11 25 25
v -11 28 25
v -11 29 25
v -9 25 25
v -9 28 25
v -9 29 25
v -8 25 25
v -8 28 25
v -8 29 25
v -6 27 25
v -6 28 25
v -6 29 25
v -5 25 25
v -5 27 25
v -5 28 25
v -5 29 25
v -4 25 25
v -4 29 25
v -2 25 25
v -2 26 25
v -1 25 25
v -1 26 25
v -1 28 25
v 0 25 25
v 0 26 25
v 0 28 25
v 0 29 25
v 2 25 25
v 2 26 25
v 2 28 25
v 2 29 25
v 3 26 25
v 3 28 25
v 5 25 25
v 5 37 25
v 7 25 25
v 7 37 25
v 8 25 25
v 8 27 25
v 12 27 25
v 12 38 25
v 13 36 25
v 13 38 25
v 14 25 25
v 14 26 25
v 15 26 25
v 15 31 25
v 16 31 25
v 16 32 25
v 16 34 25
v 16 35 25
v 16 36 25
v 17 34 25
v 17 35 25
v 18 32 25
v 18 34 25
v -19 25 24
v -19 26 24
v -18 25 24
v -18 26 24
v -18 28 24
v -17 25 24
v -17 26 24
v -17 28 24
v -17 29 24
v -15 25 24
v -15 26 24
v -15 28 24
v -15 29 24
v -14 26 24
v -14 28 24
v -12 25 24
v -12 28 24
v -11 25 24
v -11 28 24
v -11 29 24
v -9 25 24
v -9 28 24
v -9 29 24
v -8 25 24
v -8 28 24
v -8 29 24
v -6 27 24
v -6 28 24
v -6 29 24
v -5 25 24
v -5 27 24
v -5 28 24
v -5 29 24
v -4 25 24
v -4 29 24
v -2 25 24
v -2 26 24
v -1 25 24
v -1 26 24
v -1 28 24
v 0 25 24
v 0 26 24
v 0 28 24
v 0 29 24
v 2 25 24
v 2 26 24
v 2 28 24
v 2 29 24
v 3 26 24
v 3 28 24
v 5 25 24
v 5 37 24
v 7 25 24
v 7 37 24
v 8 25 24
v 8 27 24
v 12 27 24
v 12 35 24
v 14 25 24
v 14 26 24
v 14 34 24
v 14 35 24
v 14 36 24
v 15 26 24
v 15 31 24
v 15 34 24
v 15 35 24
v 16 31 24
v 16 32 24
v 16 34 24
v 16 35 24
v 16 36 24
v 17 34 24
v 17 35 24
v 18 32 24
v 18 34 24
v 12 35 23
v 12 38 23
v 13 36 23
v 13 38 23
v 14 34 23
v 14 35 23
v 14 36 23
v 15 34 23
v 15 35 23
v -19 25 25
v -18 25 25
v -17 25 25
v -15 25 25
v -12 25 25
v -11 25 25
v -9 25 25
v -8 25 25
v -5 25 25
v -4 25 25
v -2 25 25
v -1 25 25
v 0 25 25
v 2 25 25
v 5 25 25
v 7 25 25
v 8 25 25
v 14 25 25
v -19 25 24
v -18 25 24
v -17 25 24
v -15 25 24
v -12 25 24
v -11 25 24
v -9 25 24
v -8 25 24
v -5 25 24
v -4 25 24
v -2 25 24
v -1 25 24
v 0 25 24
v 2 25 24
v 5 25 24
v 7 25 24
v 8 25 24
v 14 25 24
v -18 26 25
v -17 26 25
v -15 26 25
v -14 26 25
v -1 26 25
v 0 26 25
v 2 26 25
v 3 26 25
v 14 26 25
v 15 26 25
v -18 26 24
v -17 26 24
v -15 26 24
v -14 26 24
v -1 26 24
v 0 26 24
v 2 26 24
v 3 26 24
v 14 26 24
v 15 26 24
v -6 27 25
v -5 27 25
v -6 27 24
v -5 27 24
v -17 28 25
v -15 28 25
v -11 28 25
v -9 28 25
v -8 28 25
v -6 28 25
v 0 28 25
v 2 28 25
v -17 28 24
v -15 28 24
v -11 28 24
v -9 28 24
v -8 28 24
v -6 28 24
v 0 28 24
v 2 28 24
v 15 31 25
v 16 31 25
v 15 31 24
v 16 31 24
v 16 32 25
v 18 32 25
v 16 32 24
v 18 32 24
v 14 34 24
v 15 34 24
v 14 34 23
v 15 34 23
v 12 35 24
v 14 35 24
v 12 35 23
v 14 35 23
v -19 26 25
v -18 26 25
v -17 26 25
v -15 26 25
v -2 26 25
v -1 26 25
v 0 26 25
v 2 26 25
v -19 26 24
v -18 26 24
v -17 26 24
v -15 26 24
v -2 26 24
v -1 26 24
v 0 26 24
v 2 26 24
v 8 27 25
v 12 27 25
v 8 27 24
v 12 27 24
v -18 28 25
v -17 28 25
v -15 28 25
v -14 28 25
v -12 28 25
v -11 28 25
v -9 28 25
v -8 28 25
v -6 28 25
v -5 28 25
v -1 28 25
v 0 28 25
v 2 28 25
v 3 28 25
v -18 28 24
v -17 28 24
v -15 28 24
v -14 28 24
v -12 28 24
v -11 28 24
v -9 28 24
v -8 28 24
v -6 28 24
v -5 28 24
v -1 28 24
v 0 28 24
v 2 28 24
v 3 28 24
v -17 29 25
v -15 29 25
v -11 29 25
v -9 29 25
v -8 29 25
v -6 29 25
v -5 29 25
v -4 29 25
v 0 29 25
v 2 29 25
v -17 29 24
v -15 29 24
v -11 29 24
v -9 29 24
v -8 29 24
v -6 29 24
v -5 29 24
v -4 29 24
v 0 29 24
v 2 29 24
v 17 34 25
v 18 34 25
v 17 34 24
v 18 34 24
v 16 35 25
v 17 35 25
v 14 35 24
v 15 35 24
v 16 35 24
v 17 35 24
v 14 35 23
v 15 35 23
v 13 36 25
v 16 36 25
v 14 36 24
v 16 36 24
v 13 36 23
v 14 36 23
v 5 37 25
v 7 37 25
v 5 37 24
v 7 37 24
v 12 38 25
v 13 38 25
v 12 38 23
v 13 38 23

# faces
f 3/1/1 2/1/1 1/1/1
f 4/1/1 2/1/1 3/1/1
f 7/1/1 6/1/1 5/1/1
f 8/1/1 6/1/1 7/1/1
f 11/1/1 10/1/1 9/1/1
f 12/1/1 10/1/1 11/1/1
f 15/1/1 14/1/1 13/1/1
f 16/1/1 14/1/1 15/1/1
f 19/1/1 18/1/1 17/1/1
f 20/1/1 18/1/1 19/1/1
f 23/1/1 22/1/1 21/1/1
f 24/1/1 22/1/1 23/1/1
f 27/1/1 26/1/1 25/1/1
f 28/1/1 26/1/1 27/1/1
f 31/1/1 30/1/1 29/1/1
f 32/1/1 30/1/1 31/1/1
f 35/1/1 34/1/1 33/1/1
f 36/1/1 34/1/1 35/1/1
f 39/1/1 38/1/1 37/1/1
f 40/1/1 38/1/1 39/1/1
f 43/1/1 42/1/1 41/1/1
f 44/1/1 42/1/1 43/1/1
f 47/1/1 46/1/1 45/1/1
f 48/1/1 46/1/1 47/1/1
f 51/1/1 50/1/1 49/1/1
f 52/1/1 50/1/1 51/1/1
f 55/1/1 54/1/1 53/1/1
f 56/1/1 54/1/1 55/1/1
f 59/1/1 58/1/1 57/1/1
f 60/1/1 58/1/1 59/1/1
f 63/1/1 62/1/1 61/1/1
f 64/1/1 62/1/1 63/1/1
f 67/1/1 66/1/1 65/1/1
f 68/1/1 66/1/1 67/1/1
f 71/1/1 70/1/1 69/1/1
f 72/1/1 70/1/1 71/1/1
f 75/1/1 74/1/1 73/1/1
f 76/1/1 74/1/1 75/1/1
f 79/1/1 78/1/1 77/1/1
f 81/1/1 79/1/1 77/1/1
f 81/1/1 80/1/1 79/1/1
f 82/1/1 80/1/1 81/1/1
f 85/3/1 84/3/1 83/3/1
f 86/3/1 84/3/1 85/3/1
f 87/1/2 88/1/2 89/1/2
f 89/1/2 88/1/2 90/1/2
f 91/1/2 92/1/2 93/1/2
f 93/1/2 92/1/2 94/1/2
f 95/1/2 96/1/2 97/1/2
f 97/1/2 96/1/2 98/1/2
f 99/1/2 100/1/2 101/1/2
f 101/1/2 100/1/2 102/1/2
f 103/1/2 104/1/2 105/1/2
f 105/1/2 104/1/2 106/1/2
f 107/1/2 108/1/2 109/1/2
f 109/1/2 108/1/2 110/1/2
f 111/1/2 112/1/2 113/1/2
f 113/1/2 112/1/2 114/1/2
f 115/1/2 116/1/2 117/1/2
f 117/1/2 116/1/2 118/1/2
f 119/1/2 120/1/2 121/1/2
f 121/1/2 120/1/2 122/1/2
f 123/1/2 124/1/2 125/1/2
f 125/1/2 124/1/2 126/1/2
f 127/1/2 128/1/2 129/1/2
f 129/1/2 128/1/2 130/1/2
f 131/1/2 132/1/2 133/1/2
f 133/1/2 132/1/2 134/1/2
f 135/1/2 136/1/2 137/1/2
f 137/1/2 136/1/2 138/1/2
f 139/1/2 140/1/2 141/1/2
f 141/1/2 140/1/2 142/1/2
f 143/1/2 144/1/2 145/1/2
f 145/1/2 144/1/2 146/1/2
f 147/1/2 148/1/2 149/1/2
f 149/1/2 148/1/2 150/1/2
f 151/1/2 152/1/2 153/1/2
f 153/1/2 152/1/2 154/1/2
f 155/1/2 156/1/2 157/1/2
f 157/1/2 156/1/2 158/1/2
f 159/1/2 160/1/2 161/1/2
f 161/1/2 160/1/2 162/1/2
f 163/1/2 164/1/2 165/1/2
f 165/1/2 164/1/2 166/1/2
f 167/3/2 168/3/2 169/3/2
f 169/3/2 168/3/2 170/3/2
f 171/1/2 172/1/2 173/1/2
f 173/1/2 172/1/2 174/1/2
f 175/1/2 176/1/2 177/1/2
f 177/1/2 176/1/2 178/1/2
f 179/1/2 180/1/2 181/1/2
f 181/1/2 180/1/2 182/1/2
f 183/2/2 184/2/2 185/2/2
f 185/2/2 184/2/2 186/2/2
f 189/1/3 188/1/3 187/1/3
f 190/1/3 188/1/3 189/1/3
f 193/1/3 191/1/3 190/1/3
f 194/1/3 191/1/3 193/1/3
f 196/1/3 193/1/3 192/1/3
f 197/1/3 193/1/3 196/1/3
f 198/1/3 195/1/3 194/1/3
f 199/1/3 195/1/3 198/1/3
f 200/1/3 198/1/3 197/1/3
f 201/1/3 198/1/3 200/1/3
f 204/1/3 203/1/3 202/1/3
f 205/1/3 203/1/3 204/1/3
f 208/1/3 206/1/3 205/1/3
f 209/1/3 206/1/3 208/1/3
f 210/1/3 208/1/3 207/1/3
f 211/1/3 208/1/3 210/1/3
f 214/1/3 212/1/3 211/1/3
f 215/1/3 212/1/3 214/1/3
f 217/1/3 214/1/3 213/1/3
f 218/1/3 214/1/3 217/1/3
f 220/1/3 217/1/3 216/1/3
f 220/1/3 219/1/3 218/1/3
f 220/1/3 218/1/3 217/1/3
f 221/1/3 219/1/3 220/1/3
f 224/1/3 223/1/3 222/1/3
f 225/1/3 223/1/3 224/1/3
f 228/1/3 226/1/3 225/1/3
f 229/1/3 226/1/3 228/1/3
f 231/1/3 228/1/3 227/1/3
f 232/1/3 228/1/3 231/1/3
f 233/1/3 230/1/3 229/1/3
f 234/1/3 230/1/3 233/1/3
f 235/1/3 233/1/3 232/1/3
f 236/1/3 233/1/3 235/1/3
f 239/1/3 238/1/3 237/1/3
f 240/1/3 238/1/3 239/1/3
f 243/1/3 242/1/3 241/1/3
f 245/1/3 244/1/3 243/1/3
f 246/1/3 244/1/3 245/1/3
f 247/1/3 243/1/3 241/1/3
f 247/1/3 245/1/3 243/1/3
f 248/1/3 245/1/3 247/1/3
f 249/1/3 245/1/3 248/1/3
f 250/1/3 245/1/3 249/1/3
f 251/1/3 245/1/3 250/1/3
f 252/1/3 245/1/3 251/1/3
f 253/1/3 245/1/3 252/1/3
f 254/1/3 245/1/3 253/1/3
f 255/1/3 245/1/3 254/1/3
f 256/2/3 253/2/3 252/2/3
f 256/1/3 254/1/3 253/1/3
f 257/1/3 254/1/3 256/1/3
f 258/2/3 256/2/3 252/2/3
f 259/2/3 256/2/3 258/2/3
f 260/1/4 261/1/4 262/1/4
f 262/1/4 261/1/4 263/1/4
f 263/1/4 264/1/4 266/1/4
f 266/1/4 264/1/4 267/1/4
f 265/1/4 266/1/4 269/1/4
f 269/1/4 266/1/4 270/1/4
f 267/1/4 268/1/4 271/1/4
f 271/1/4 268/1/4 272/1/4
f 270/1/4 271/1/4 273/1/4
f 273/1/4 271/1/4 274/1/4
f 275/1/4 276/1/4 277/1/4
f 277/1/4 276/1/4 278/1/4
f 278/1/4 279/1/4 281/1/4
f 281/1/4 279/1/4 282/1/4
f 280/1/4 281/1/4 283/1/4
f 283/1/4 281/1/4 284/1/4
f 284/1/4 285/1/4 287/1/4
f 287/1/4 285/1/4 288/1/4
f 286/1/4 287/1/4 290/1/4
f 290/1/4 287/1/4 291/1/4
f 289/1/4 290/1/4 293/1/4
f 291/1/4 292/1/4 293/1/4
f 290/1/4 291/1/4 293/1/4
f 293/1/4 292/1/4 294/1/4
f 295/1/4 296/1/4 297/1/4
f 297/1/4 296/1/4 298/1/4
f 298/1/4 299/1/4 301/1/4
f 301/1/4 299/1/4 302/1/4
f 300/1/4 301/1/4 304/1/4
f 304/1/4 301/1/4 305/1/4
f 302/1/4 303/1/4 306/1/4
f 306/1/4 303/1/4 307/1/4
f 305/1/4 306/1/4 308/1/4
f 308/1/4 306/1/4 309/1/4
f 310/1/4 311/1/4 312/1/4
f 312/1/4 311/1/4 313/1/4
f 314/1/4 315/1/4 316/1/4
f 314/1/4 316/1/4 318/1/4
f 316/1/4 317/1/4 318/1/4
f 318/1/4 317/1/4 319/1/4
f 319/1/4 317/1/4 320/1/4
f 320/1/4 317/1/4 321/1/4
f 319/1/4 320/1/4 323/1/4
f 323/1/4 320/1/4 324/1/4
f 324/1/4 320/1/4 325/1/4
f 321/1/4 322/1/4 326/1/4
f 324/1/4 325/1/4 327/1/4
f 325/1/4 326/1/4 327/1/4
f 327/1/4 326/1/4 328/1/4
f 328/1/4 326/1/4 329/1/4
f 326/1/4 322/1/4 330/1/4
f 329/1/4 326/1/4 330/1/4
f 330/1/4 322/1/4 331/1/4
f 328/2/4 329/2/4 332/2/4
f 329/1/4 330/1/4 332/1/4
f 332/1/4 330/1/4 333/1/4
f 328/2/4 332/2/4 334/2/4
f 334/2/4 332/2/4 335/2/4
f 336/1/4 337/1/4 338/1/4
f 338/1/4 337/1/4 339/1/4
f 336/1/4 338/1/4 341/1/4
f 341/1/4 338/1/4 342/1/4
f 340/3/4 341/3/4 343/3/4
f 343/3/4 341/3/4 344/3/4
f 363/1/5 346/1/5 345/1/5
f 364/1/5 346/1/5 363/1/5
f 365/1/5 348/1/5 347/1/5
f 366/1/5 348/1/5 365/1/5
f 367/1/5 350/1/5 349/1/5
f 368/1/5 350/1/5 367/1/5
f 369/1/5 352/1/5 351/1/5
f 370/1/5 352/1/5 369/1/5
f 371/1/5 354/1/5 353/1/5
f 372/1/5 354/1/5 371/1/5
f 373/1/5 356/1/5 355/1/5
f 374/1/5 356/1/5 373/1/5
f 375/1/5 358/1/5 357/1/5
f 376/1/5 358/1/5 375/1/5
f 377/1/5 360/1/5 359/1/5
f 378/1/5 360/1/5 377/1/5
f 379/1/5 362/1/5 361/1/5
f 380/1/5 362/1/5 379/1/5
f 391/1/5 382/1/5 381/1/5
f 392/1/5 382/1/5 391/1/5
f 393/1/5 384/1/5 383/1/5
f 394/1/5 384/1/5 393/1/5
f 395/1/5 386/1/5 385/1/5
f 396/1/5 386/1/5 395/1/5
f 397/1/5 388/1/5 387/1/5
f 398/1/5 388/1/5 397/1/5
f 399/1/5 390/1/5 389/1/5
f 400/1/5 390/1/5 399/1/5
f 403/1/5 402/1/5 401/1/5
f 404/1/5 402/1/5 403/1/5
f 413/1/5 406/1/5 405/1/5
f 414/1/5 406/1/5 413/1/5
f 415/1/5 408/1/5 407/1/5
f 416/1/5 408/1/5 415/1/5
f 417/1/5 410/1/5 409/1/5
f 418/1/5 410/1/5 417/1/5
f 419/1/5 412/1/5 411/1/5
f 420/1/5 412/1/5 419/1/5
f 423/1/5 422/1/5 421/1/5
f 424/1/5 422/1/5 423/1/5
f 427/2/5 426/2/5 425/2/5
f 428/2/5 426/2/5 427/2/5
f 431/3/5 430/3/5 429/3/5
f 432/3/5 430/3/5 431/3/5
f 435/1/5 434/1/5 433/1/5
f 436/1/5 434/1/5 435/1/5
f 437/1/6 438/1/6 445/1/6
f 445/1/6 438/1/6 446/1/6
f 439/1/6 440/1/6 447/1/6
f 447/1/6 440/1/6 448/1/6
f 441/1/6 442/1/6 449/1/6
f 449/1/6 442/1/6 450/1/6
f 443/1/6 444/1/6 451/1/6
f 451/1/6 444/1/6 452/1/6
f 453/1/6 454/1/6 455/1/6
f 455/1/6 454/1/6 456/1/6
f 457/1/6 458/1/6 471/1/6
f 471/1/6 458/1/6 472/1/6
f 459/1/6 460/1/6 473/1/6
f 473/1/6 460/1/6 474/1/6
f 461/1/6 462/1/6 475/1/6
f 475/1/6 462/1/6 476/1/6
f 463/1/6 464/1/6 477/1/6
f 477/1/6 464/1/6 478/1/6
f 465/1/6 466/1/6 479/1/6
f 479/1/6 466/1/6 480/1/6
f 467/1/6 468/1/6 481/1/6
f 481/1/6 468/1/6 482/1/6
f 469/1/6 470/1/6 483/1/6
f 483/1/6 470/1/6 484/1/6
f 485/1/6 486/1/6 495/1/6
f 495/1/6 486/1/6 496/1/6
f 487/1/6 488/1/6 497/1/6
f 497/1/6 488/1/6 498/1/6
f 489/1/6 490/1/6 499/1/6
f 499/1/6 490/1/6 500/1/6
f 491/1/6 492/1/6 501/1/6
f 501/1/6 492/1/6 502/1/6
f 493/1/6 494/1/6 503/1/6
f 503/1/6 494/1/6 504/1/6
f 505/2/6 506/2/6 507/2/6
f 507/2/6 506/2/6 508/2/6
f 509/1/6 510/1/6 513/1/6
f 513/1/6 510/1/6 514/1/6
f 511/3/6 512/3/6 515/3/6
f 515/3/6 512/3/6 516/3/6
f 517/1/6 518/1/6 519/1/6
f 519/1/6 518/1/6 520/1/6
f 517/1/6 519/1/6 521/1/6
f 521/1/6 519/1/6 522/1/6
f 523/1/6 524/1/6 525/1/6
f 525/1/6 524/1/6 526/1/6
f 527/1/6 528/1/6 529/1/6
f 529/1/6 528/1/6 530/1/6
