# MagicaVoxel @ Ephtracy

# material
mtllib pig.mtl
usemtl palette

# normals
vn -1 0 0
vn 1 0 0
vn 0 0 1
vn 0 0 -1
vn 0 -1 0
vn 0 1 0

# texcoords
vt 0.150391 0.5
vt 0.154297 0.5

# verts
v -3 1 3
v -3 1 2
v -3 1 -1
v -3 1 -2
v -3 2 2
v -3 2 -1
v -3 3 6
v -3 3 4
v -3 5 6
v -3 5 5
v -3 5 4
v -3 5 3
v -3 5 -2
v -3 6 5
v -3 6 4
v -2 2 6
v -2 2 4
v -2 3 7
v -2 3 6
v -2 3 4
v -2 3 3
v -2 3 -2
v -2 3 -3
v -2 4 7
v -2 4 6
v -2 5 6
v -2 5 5
v -2 5 4
v -2 5 3
v -2 5 -2
v -2 5 -3
v -2 6 6
v -2 6 5
v -2 6 3
v -2 6 -2
v 0 1 3
v 0 1 2
v 0 1 -1
v 0 1 -2
v 0 2 3
v 0 2 2
v 0 2 -1
v 0 2 -2
v -2 1 3
v -2 1 2
v -2 1 -1
v -2 1 -2
v -2 2 3
v -2 2 2
v -2 2 -1
v -2 2 -2
v -1 4 -2
v -1 4 -3
v -1 5 -2
v -1 5 -3
v 0 2 6
v 0 2 4
v 0 3 7
v 0 3 6
v 0 3 4
v 0 3 3
v 0 3 -2
v 0 3 -3
v 0 4 7
v 0 4 6
v 0 4 -2
v 0 4 -3
v 0 5 6
v 0 5 5
v 0 5 4
v 0 5 3
v 0 5 -2
v 0 6 6
v 0 6 5
v 0 6 3
v 0 6 -2
v 1 1 3
v 1 1 2
v 1 1 -1
v 1 1 -2
v 1 2 2
v 1 2 -1
v 1 3 6
v 1 3 4
v 1 5 6
v 1 5 5
v 1 5 4
v 1 5 3
v 1 5 -2
v 1 6 5
v 1 6 4
v -2 3 7
v -2 4 7
v 0 3 7
v 0 4 7
v -3 3 6
v -3 5 6
v -2 2 6
v -2 3 6
v -2 4 6
v -2 5 6
v -2 6 6
v 0 2 6
v 0 3 6
v 0 4 6
v 0 5 6
v 0 6 6
v 1 3 6
v 1 5 6
v -3 5 5
v -3 6 5
v -2 5 5
v -2 6 5
v 0 5 5
v 0 6 5
v 1 5 5
v 1 6 5
v -3 1 3
v -3 5 3
v -2 1 3
v -2 2 3
v -2 3 3
v -2 5 3
v -2 6 3
v 0 1 3
v 0 2 3
v 0 3 3
v 0 5 3
v 0 6 3
v 1 1 3
v 1 5 3
v -3 1 -1
v -3 2 -1
v -2 1 -1
v -2 2 -1
v 0 1 -1
v 0 2 -1
v 1 1 -1
v 1 2 -1
v -3 3 4
v -3 5 4
v -3 6 4
v -2 2 4
v -2 3 4
v -2 5 4
v -2 6 4
v 0 2 4
v 0 3 4
v 0 5 4
v 0 6 4
v 1 3 4
v 1 5 4
v 1 6 4
v -3 1 2
v -3 2 2
v -2 1 2
v -2 2 2
v 0 1 2
v 0 2 2
v 1 1 2
v 1 2 2
v -3 1 -2
v -3 5 -2
v -2 1 -2
v -2 2 -2
v -2 3 -2
v -2 5 -2
v -2 6 -2
v -1 4 -2
v -1 5 -2
v 0 1 -2
v 0 2 -2
v 0 3 -2
v 0 4 -2
v 0 5 -2
v 0 6 -2
v 1 1 -2
v 1 5 -2
v -2 3 -3
v -2 5 -3
v -1 4 -3
v -1 5 -3
v 0 3 -3
v 0 4 -3
v -3 1 3
v -2 1 3
v 0 1 3
v 1 1 3
v -3 1 2
v -2 1 2
v 0 1 2
v 1 1 2
v -3 1 -1
v -2 1 -1
v 0 1 -1
v 1 1 -1
v -3 1 -2
v -2 1 -2
v 0 1 -2
v 1 1 -2
v -2 2 6
v 0 2 6
v -2 2 4
v 0 2 4
v -2 2 3
v 0 2 3
v -3 2 2
v -2 2 2
v 0 2 2
v 1 2 2
v -3 2 -1
v -2 2 -1
v 0 2 -1
v 1 2 -1
v -2 2 -2
v 0 2 -2
v -2 3 7
v 0 3 7
v -3 3 6
v -2 3 6
v 0 3 6
v 1 3 6
v -3 3 4
v -2 3 4
v 0 3 4
v 1 3 4
v -2 3 3
v 0 3 3
v -2 3 -2
v 0 3 -2
v -2 3 -3
v 0 3 -3
v -2 4 7
v 0 4 7
v -2 4 6
v 0 4 6
v -1 4 -2
v 0 4 -2
v -1 4 -3
v 0 4 -3
v -3 5 6
v -2 5 6
v 0 5 6
v 1 5 6
v -3 5 5
v -2 5 5
v 0 5 5
v 1 5 5
v -2 5 4
v 0 5 4
v -3 5 3
v -2 5 3
v 0 5 3
v 1 5 3
v -3 5 -2
v -2 5 -2
v -1 5 -2
v 0 5 -2
v 1 5 -2
v -2 5 -3
v -1 5 -3
v -2 6 6
v 0 6 6
v -3 6 5
v -2 6 5
v 0 6 5
v 1 6 5
v -3 6 4
v -2 6 4
v 0 6 4
v 1 6 4
v -2 6 3
v 0 6 3
v -2 6 -2
v 0 6 -2

# faces
f 5/2/1 2/2/1 1/2/1
f 6/2/1 4/2/1 3/2/1
f 9/2/1 8/2/1 7/2/1
f 10/2/1 8/2/1 9/2/1
f 11/2/1 8/2/1 10/2/1
f 12/2/1 5/2/1 1/2/1
f 12/2/1 6/2/1 5/2/1
f 13/2/1 4/2/1 6/2/1
f 13/2/1 6/2/1 12/2/1
f 14/1/1 11/1/1 10/1/1
f 15/1/1 11/1/1 14/1/1
f 19/2/1 17/2/1 16/2/1
f 20/2/1 17/2/1 19/2/1
f 24/1/1 19/1/1 18/1/1
f 25/1/1 19/1/1 24/1/1
f 28/2/1 21/2/1 20/2/1
f 29/2/1 21/2/1 28/2/1
f 30/1/1 23/1/1 22/1/1
f 31/1/1 23/1/1 30/1/1
f 32/2/1 27/2/1 26/2/1
f 33/2/1 27/2/1 32/2/1
f 34/2/1 30/2/1 29/2/1
f 35/2/1 30/2/1 34/2/1
f 40/2/1 37/2/1 36/2/1
f 41/2/1 37/2/1 40/2/1
f 42/2/1 39/2/1 38/2/1
f 43/2/1 39/2/1 42/2/1
f 44/2/2 45/2/2 48/2/2
f 48/2/2 45/2/2 49/2/2
f 46/2/2 47/2/2 50/2/2
f 50/2/2 47/2/2 51/2/2
f 52/1/2 53/1/2 54/1/2
f 54/1/2 53/1/2 55/1/2
f 56/2/2 57/2/2 59/2/2
f 59/2/2 57/2/2 60/2/2
f 58/1/2 59/1/2 64/1/2
f 64/1/2 59/1/2 65/1/2
f 62/1/2 63/1/2 66/1/2
f 66/1/2 63/1/2 67/1/2
f 60/2/2 61/2/2 70/2/2
f 70/2/2 61/2/2 71/2/2
f 68/2/2 69/2/2 73/2/2
f 73/2/2 69/2/2 74/2/2
f 71/2/2 72/2/2 75/2/2
f 75/2/2 72/2/2 76/2/2
f 77/2/2 78/2/2 81/2/2
f 79/2/2 80/2/2 82/2/2
f 83/2/2 84/2/2 85/2/2
f 85/2/2 84/2/2 86/2/2
f 86/2/2 84/2/2 87/2/2
f 77/2/2 81/2/2 88/2/2
f 81/2/2 82/2/2 88/2/2
f 82/2/2 80/2/2 89/2/2
f 88/2/2 82/2/2 89/2/2
f 86/1/2 87/1/2 90/1/2
f 90/1/2 87/1/2 91/1/2
f 94/1/3 93/1/3 92/1/3
f 95/1/3 93/1/3 94/1/3
f 99/2/3 97/2/3 96/2/3
f 100/2/3 97/2/3 99/2/3
f 101/2/3 97/2/3 100/2/3
f 103/2/3 99/2/3 98/2/3
f 104/2/3 99/2/3 103/2/3
f 105/2/3 102/2/3 101/2/3
f 105/2/3 101/2/3 100/2/3
f 106/2/3 102/2/3 105/2/3
f 107/2/3 102/2/3 106/2/3
f 108/2/3 105/2/3 104/2/3
f 108/2/3 106/2/3 105/2/3
f 109/2/3 106/2/3 108/2/3
f 112/1/3 111/1/3 110/1/3
f 113/1/3 111/1/3 112/1/3
f 116/1/3 115/1/3 114/1/3
f 117/1/3 115/1/3 116/1/3
f 120/2/3 119/2/3 118/2/3
f 121/2/3 119/2/3 120/2/3
f 122/2/3 119/2/3 121/2/3
f 123/2/3 119/2/3 122/2/3
f 126/2/3 122/2/3 121/2/3
f 127/2/3 122/2/3 126/2/3
f 128/2/3 124/2/3 123/2/3
f 129/2/3 124/2/3 128/2/3
f 130/2/3 127/2/3 126/2/3
f 130/2/3 126/2/3 125/2/3
f 130/2/3 128/2/3 127/2/3
f 131/2/3 128/2/3 130/2/3
f 134/2/3 133/2/3 132/2/3
f 135/2/3 133/2/3 134/2/3
f 138/2/3 137/2/3 136/2/3
f 139/2/3 137/2/3 138/2/3
f 140/2/4 141/2/4 144/2/4
f 141/1/4 142/1/4 145/1/4
f 144/2/4 141/2/4 145/2/4
f 145/1/4 142/1/4 146/1/4
f 143/2/4 144/2/4 147/2/4
f 147/2/4 144/2/4 148/2/4
f 145/2/4 146/2/4 149/2/4
f 149/2/4 146/2/4 150/2/4
f 148/2/4 149/2/4 151/2/4
f 149/1/4 150/1/4 152/1/4
f 151/2/4 149/2/4 152/2/4
f 152/1/4 150/1/4 153/1/4
f 154/2/4 155/2/4 156/2/4
f 156/2/4 155/2/4 157/2/4
f 158/2/4 159/2/4 160/2/4
f 160/2/4 159/2/4 161/2/4
f 162/2/4 163/2/4 164/2/4
f 164/2/4 163/2/4 165/2/4
f 165/2/4 163/2/4 166/2/4
f 166/2/4 163/2/4 167/2/4
f 167/2/4 168/2/4 170/2/4
f 165/2/4 166/2/4 172/2/4
f 172/2/4 166/2/4 173/2/4
f 169/2/4 170/2/4 174/2/4
f 170/2/4 168/2/4 175/2/4
f 174/2/4 170/2/4 175/2/4
f 175/2/4 168/2/4 176/2/4
f 172/2/4 173/2/4 177/2/4
f 173/2/4 174/2/4 177/2/4
f 174/2/4 175/2/4 177/2/4
f 171/2/4 172/2/4 177/2/4
f 177/2/4 175/2/4 178/2/4
f 179/1/4 180/1/4 181/1/4
f 181/1/4 180/1/4 182/1/4
f 179/1/4 181/1/4 183/1/4
f 183/1/4 181/1/4 184/1/4
f 189/2/5 186/2/5 185/2/5
f 190/2/5 186/2/5 189/2/5
f 191/2/5 188/2/5 187/2/5
f 192/2/5 188/2/5 191/2/5
f 197/2/5 194/2/5 193/2/5
f 198/2/5 194/2/5 197/2/5
f 199/2/5 196/2/5 195/2/5
f 200/2/5 196/2/5 199/2/5
f 203/2/5 202/2/5 201/2/5
f 204/2/5 202/2/5 203/2/5
f 208/2/5 206/2/5 205/2/5
f 209/2/5 206/2/5 208/2/5
f 211/2/5 209/2/5 208/2/5
f 211/2/5 210/2/5 209/2/5
f 211/2/5 208/2/5 207/2/5
f 212/2/5 210/2/5 211/2/5
f 213/2/5 210/2/5 212/2/5
f 214/2/5 210/2/5 213/2/5
f 215/2/5 213/2/5 212/2/5
f 216/2/5 213/2/5 215/2/5
f 220/1/5 218/1/5 217/1/5
f 221/1/5 218/1/5 220/1/5
f 223/2/5 220/2/5 219/2/5
f 224/2/5 220/2/5 223/2/5
f 225/2/5 222/2/5 221/2/5
f 226/2/5 222/2/5 225/2/5
f 227/2/5 225/2/5 224/2/5
f 228/2/5 225/2/5 227/2/5
f 231/1/5 230/1/5 229/1/5
f 232/1/5 230/1/5 231/1/5
f 233/1/6 234/1/6 235/1/6
f 235/1/6 234/1/6 236/1/6
f 237/1/6 238/1/6 239/1/6
f 239/1/6 238/1/6 240/1/6
f 241/2/6 242/2/6 245/2/6
f 245/2/6 242/2/6 246/2/6
f 243/2/6 244/2/6 247/2/6
f 247/2/6 244/2/6 248/2/6
f 249/2/6 250/2/6 252/2/6
f 252/2/6 250/2/6 253/2/6
f 251/2/6 252/2/6 255/2/6
f 255/2/6 252/2/6 256/2/6
f 253/2/6 254/2/6 258/2/6
f 258/2/6 254/2/6 259/2/6
f 256/1/6 257/1/6 260/1/6
f 260/1/6 257/1/6 261/1/6
f 262/2/6 263/2/6 265/2/6
f 265/2/6 263/2/6 266/2/6
f 264/1/6 265/1/6 268/1/6
f 265/2/6 266/2/6 269/2/6
f 268/1/6 265/1/6 269/1/6
f 266/1/6 267/1/6 270/1/6
f 269/2/6 266/2/6 270/2/6
f 270/1/6 267/1/6 271/1/6
f 272/2/6 273/2/6 274/2/6
f 274/2/6 273/2/6 275/2/6
