# MagicaVoxel @ Ephtracy

# material
mtllib rocket.mtl
usemtl palette

# normals
vn -1 0 0
vn 1 0 0
vn 0 0 1
vn 0 0 -1
vn 0 -1 0
vn 0 1 0

# texcoords
vt 0.00976563 0.5
vt 0.0175781 0.5
vt 0.0292969 0.5
vt 0.845703 0.5
vt 0.876953 0.5
vt 0.939453 0.5

# verts
v -1 11 -1
v -1 11 -2
v -1 12 -1
v -1 12 -2
v 0 10 -1
v 0 10 -2
v 0 11 -0
v 0 11 -1
v 0 11 -2
v 0 11 -3
v 0 12 -0
v 0 12 -1
v 0 12 -2
v 0 12 -3
v 0 13 -1
v 0 13 -2
v 2 10 -0
v 2 10 -1
v 2 10 -2
v 2 10 -3
v 2 11 -0
v 2 11 -1
v 2 11 -2
v 2 11 -3
v 2 12 -0
v 2 12 -1
v 2 12 -2
v 2 12 -3
v 2 13 -0
v 2 13 -1
v 2 13 -2
v 2 13 -3
v 8 9 -1
v 8 9 -2
v 8 10 -1
v 8 10 -2
v 8 11 1
v 8 11 -0
v 8 11 -3
v 8 11 -4
v 8 12 1
v 8 12 -0
v 8 12 -3
v 8 12 -4
v 8 13 -1
v 8 13 -2
v 8 14 -1
v 8 14 -2
v 9 8 -1
v 9 8 -2
v 9 9 -1
v 9 9 -2
v 9 11 2
v 9 11 1
v 9 11 -4
v 9 11 -5
v 9 12 2
v 9 12 1
v 9 12 -4
v 9 12 -5
v 9 14 -1
v 9 14 -2
v 9 15 -1
v 9 15 -2
v 9 10 -0
v 9 10 -1
v 9 10 -2
v 9 10 -3
v 9 11 -0
v 9 11 -1
v 9 11 -2
v 9 11 -3
v 9 12 -0
v 9 12 -1
v 9 12 -2
v 9 12 -3
v 9 13 -0
v 9 13 -1
v 9 13 -2
v 9 13 -3
v 11 8 -1
v 11 8 -2
v 11 10 -1
v 11 10 -2
v 11 11 2
v 11 11 -0
v 11 11 -1
v 11 11 -2
v 11 11 -3
v 11 11 -5
v 11 12 2
v 11 12 -0
v 11 12 -1
v 11 12 -2
v 11 12 -3
v 11 12 -5
v 11 13 -1
v 11 13 -2
v 11 15 -1
v 11 15 -2
v 12 10 -1
v 12 10 -2
v 12 11 -1
v 12 11 -2
v 12 12 -1
v 12 12 -2
v 12 13 -1
v 12 13 -2
v 13 11 -1
v 13 11 -2
v 13 12 -1
v 13 12 -2
v 9 11 2
v 9 12 2
v 11 11 2
v 11 12 2
v 8 11 1
v 8 12 1
v 9 11 1
v 9 12 1
v 0 11 -0
v 0 12 -0
v 2 10 -0
v 2 11 -0
v 2 12 -0
v 2 13 -0
v 8 11 -0
v 8 12 -0
v 9 10 -0
v 9 11 -0
v 9 12 -0
v 9 13 -0
v -1 11 -1
v -1 12 -1
v 0 10 -1
v 0 11 -1
v 0 12 -1
v 0 13 -1
v 2 10 -1
v 2 11 -1
v 2 12 -1
v 2 13 -1
v 8 9 -1
v 8 10 -1
v 8 13 -1
v 8 14 -1
v 9 8 -1
v 9 9 -1
v 9 10 -1
v 9 11 -1
v 9 12 -1
v 9 13 -1
v 9 14 -1
v 9 15 -1
v 10 10 -1
v 10 11 -1
v 10 12 -1
v 10 13 -1
v 11 8 -1
v 11 10 -1
v 11 11 -1
v 11 12 -1
v 11 13 -1
v 11 15 -1
v 12 10 -1
v 12 11 -1
v 12 12 -1
v 12 13 -1
v 13 11 -1
v 13 12 -1
v -1 11 -2
v -1 12 -2
v 0 10 -2
v 0 11 -2
v 0 12 -2
v 0 13 -2
v 2 10 -2
v 2 11 -2
v 2 12 -2
v 2 13 -2
v 8 9 -2
v 8 10 -2
v 8 13 -2
v 8 14 -2
v 9 8 -2
v 9 9 -2
v 9 10 -2
v 9 11 -2
v 9 12 -2
v 9 13 -2
v 9 14 -2
v 9 15 -2
v 10 10 -2
v 10 11 -2
v 10 12 -2
v 10 13 -2
v 11 8 -2
v 11 10 -2
v 11 11 -2
v 11 12 -2
v 11 13 -2
v 11 15 -2
v 12 10 -2
v 12 11 -2
v 12 12 -2
v 12 13 -2
v 13 11 -2
v 13 12 -2
v 0 11 -3
v 0 12 -3
v 2 10 -3
v 2 11 -3
v 2 12 -3
v 2 13 -3
v 8 11 -3
v 8 12 -3
v 9 10 -3
v 9 11 -3
v 9 12 -3
v 9 13 -3
v 8 11 -4
v 8 12 -4
v 9 11 -4
v 9 12 -4
v 9 11 -5
v 9 12 -5
v 11 11 -5
v 11 12 -5
v 9 8 -1
v 11 8 -1
v 9 8 -2
v 11 8 -2
v 8 9 -1
v 9 9 -1
v 8 9 -2
v 9 9 -2
v 2 10 -0
v 9 10 -0
v 0 10 -1
v 2 10 -1
v 8 10 -1
v 9 10 -1
v 11 10 -1
v 12 10 -1
v 0 10 -2
v 2 10 -2
v 8 10 -2
v 9 10 -2
v 11 10 -2
v 12 10 -2
v 2 10 -3
v 9 10 -3
v 9 11 2
v 11 11 2
v 8 11 1
v 9 11 1
v 0 11 -0
v 2 11 -0
v 8 11 -0
v 9 11 -0
v 10 11 -0
v 11 11 -0
v -1 11 -1
v 0 11 -1
v 2 11 -1
v 9 11 -1
v 10 11 -1
v 11 11 -1
v 12 11 -1
v 13 11 -1
v -1 11 -2
v 0 11 -2
v 2 11 -2
v 9 11 -2
v 10 11 -2
v 11 11 -2
v 12 11 -2
v 13 11 -2
v 0 11 -3
v 2 11 -3
v 8 11 -3
v 9 11 -3
v 10 11 -3
v 11 11 -3
v 8 11 -4
v 9 11 -4
v 9 11 -5
v 11 11 -5
v 9 12 2
v 11 12 2
v 8 12 1
v 9 12 1
v 0 12 -0
v 2 12 -0
v 8 12 -0
v 9 12 -0
v 10 12 -0
v 11 12 -0
v -1 12 -1
v 0 12 -1
v 2 12 -1
v 9 12 -1
v 10 12 -1
v 11 12 -1
v 12 12 -1
v 13 12 -1
v -1 12 -2
v 0 12 -2
v 2 12 -2
v 9 12 -2
v 10 12 -2
v 11 12 -2
v 12 12 -2
v 13 12 -2
v 0 12 -3
v 2 12 -3
v 8 12 -3
v 9 12 -3
v 10 12 -3
v 11 12 -3
v 8 12 -4
v 9 12 -4
v 9 12 -5
v 11 12 -5
v 2 13 -0
v 9 13 -0
v 0 13 -1
v 2 13 -1
v 8 13 -1
v 9 13 -1
v 11 13 -1
v 12 13 -1
v 0 13 -2
v 2 13 -2
v 8 13 -2
v 9 13 -2
v 11 13 -2
v 12 13 -2
v 2 13 -3
v 9 13 -3
v 8 14 -1
v 9 14 -1
v 8 14 -2
v 9 14 -2
v 9 15 -1
v 11 15 -1
v 9 15 -2
v 11 15 -2

# faces
f 3/2/1 2/2/1 1/2/1
f 4/2/1 2/2/1 3/2/1
f 8/1/1 6/1/1 5/1/1
f 9/1/1 6/1/1 8/1/1
f 11/3/1 8/3/1 7/3/1
f 12/3/1 8/3/1 11/3/1
f 13/3/1 10/3/1 9/3/1
f 14/3/1 10/3/1 13/3/1
f 15/1/1 13/1/1 12/1/1
f 16/1/1 13/1/1 15/1/1
f 21/2/1 18/2/1 17/2/1
f 22/2/1 18/2/1 21/2/1
f 23/2/1 20/2/1 19/2/1
f 24/2/1 20/2/1 23/2/1
f 29/2/1 26/2/1 25/2/1
f 30/2/1 26/2/1 29/2/1
f 31/2/1 28/2/1 27/2/1
f 32/2/1 28/2/1 31/2/1
f 35/2/1 34/2/1 33/2/1
f 36/2/1 34/2/1 35/2/1
f 41/2/1 38/2/1 37/2/1
f 42/2/1 38/2/1 41/2/1
f 43/2/1 40/2/1 39/2/1
f 44/2/1 40/2/1 43/2/1
f 47/2/1 46/2/1 45/2/1
f 48/2/1 46/2/1 47/2/1
f 51/2/1 50/2/1 49/2/1
f 52/2/1 50/2/1 51/2/1
f 57/2/1 54/2/1 53/2/1
f 58/2/1 54/2/1 57/2/1
f 59/2/1 56/2/1 55/2/1
f 60/2/1 56/2/1 59/2/1
f 63/2/1 62/2/1 61/2/1
f 64/2/1 62/2/1 63/2/1
f 65/2/2 66/2/2 69/2/2
f 69/2/2 66/2/2 70/2/2
f 67/2/2 68/2/2 71/2/2
f 71/2/2 68/2/2 72/2/2
f 73/2/2 74/2/2 77/2/2
f 77/2/2 74/2/2 78/2/2
f 75/2/2 76/2/2 79/2/2
f 79/2/2 76/2/2 80/2/2
f 81/2/2 82/2/2 83/2/2
f 83/2/2 82/2/2 84/2/2
f 85/2/2 86/2/2 91/2/2
f 86/5/2 87/5/2 92/5/2
f 91/2/2 86/2/2 92/2/2
f 92/5/2 87/5/2 93/5/2
f 88/6/2 89/6/2 94/6/2
f 89/2/2 90/2/2 95/2/2
f 94/6/2 89/6/2 95/6/2
f 95/2/2 90/2/2 96/2/2
f 97/2/2 98/2/2 99/2/2
f 99/2/2 98/2/2 100/2/2
f 101/4/2 102/4/2 103/4/2
f 103/4/2 102/4/2 104/4/2
f 105/4/2 106/4/2 107/4/2
f 107/4/2 106/4/2 108/4/2
f 109/4/2 110/4/2 111/4/2
f 111/4/2 110/4/2 112/4/2
f 115/2/3 114/2/3 113/2/3
f 116/2/3 114/2/3 115/2/3
f 119/2/3 118/2/3 117/2/3
f 120/2/3 118/2/3 119/2/3
f 124/3/3 122/3/3 121/3/3
f 125/3/3 122/3/3 124/3/3
f 127/2/3 124/2/3 123/2/3
f 127/3/3 125/3/3 124/3/3
f 128/2/3 126/2/3 125/2/3
f 128/3/3 125/3/3 127/3/3
f 129/2/3 127/2/3 123/2/3
f 130/2/3 127/2/3 129/2/3
f 131/2/3 126/2/3 128/2/3
f 132/2/3 126/2/3 131/2/3
f 136/2/3 134/2/3 133/2/3
f 137/2/3 134/2/3 136/2/3
f 139/1/3 136/1/3 135/1/3
f 140/1/3 136/1/3 139/1/3
f 141/1/3 138/1/3 137/1/3
f 142/1/3 138/1/3 141/1/3
f 148/2/3 144/2/3 143/2/3
f 149/2/3 144/2/3 148/2/3
f 152/2/3 146/2/3 145/2/3
f 153/2/3 146/2/3 152/2/3
f 155/2/3 150/2/3 149/2/3
f 155/2/3 148/2/3 147/2/3
f 155/2/3 149/2/3 148/2/3
f 156/2/3 150/2/3 155/2/3
f 157/2/3 154/2/3 153/2/3
f 157/2/3 153/2/3 152/2/3
f 157/2/3 152/2/3 151/2/3
f 158/2/3 154/2/3 157/2/3
f 159/2/3 155/2/3 147/2/3
f 160/6/3 156/6/3 155/6/3
f 160/2/3 155/2/3 159/2/3
f 161/6/3 156/6/3 160/6/3
f 162/6/3 158/6/3 157/6/3
f 163/2/3 154/2/3 158/2/3
f 163/6/3 158/6/3 162/6/3
f 164/2/3 154/2/3 163/2/3
f 165/4/3 161/4/3 160/4/3
f 166/5/3 162/5/3 161/5/3
f 166/4/3 161/4/3 165/4/3
f 167/4/3 163/4/3 162/4/3
f 167/5/3 162/5/3 166/5/3
f 168/4/3 163/4/3 167/4/3
f 169/4/3 167/4/3 166/4/3
f 170/4/3 167/4/3 169/4/3
f 171/2/4 172/2/4 174/2/4
f 174/2/4 172/2/4 175/2/4
f 173/1/4 174/1/4 177/1/4
f 177/1/4 174/1/4 178/1/4
f 175/1/4 176/1/4 179/1/4
f 179/1/4 176/1/4 180/1/4
f 181/2/4 182/2/4 186/2/4
f 186/2/4 182/2/4 187/2/4
f 183/2/4 184/2/4 190/2/4
f 190/2/4 184/2/4 191/2/4
f 187/2/4 188/2/4 193/2/4
f 185/2/4 186/2/4 193/2/4
f 186/2/4 187/2/4 193/2/4
f 193/2/4 188/2/4 194/2/4
f 191/2/4 192/2/4 195/2/4
f 190/2/4 191/2/4 195/2/4
f 189/2/4 190/2/4 195/2/4
f 195/2/4 192/2/4 196/2/4
f 185/2/4 193/2/4 197/2/4
f 193/6/4 194/6/4 198/6/4
f 197/2/4 193/2/4 198/2/4
f 198/6/4 194/6/4 199/6/4
f 195/6/4 196/6/4 200/6/4
f 196/2/4 192/2/4 201/2/4
f 200/6/4 196/6/4 201/6/4
f 201/2/4 192/2/4 202/2/4
f 198/4/4 199/4/4 203/4/4
f 199/5/4 200/5/4 204/5/4
f 203/4/4 199/4/4 204/4/4
f 200/4/4 201/4/4 205/4/4
f 204/5/4 200/5/4 205/5/4
f 205/4/4 201/4/4 206/4/4
f 204/4/4 205/4/4 207/4/4
f 207/4/4 205/4/4 208/4/4
f 209/3/4 210/3/4 212/3/4
f 212/3/4 210/3/4 213/3/4
f 211/2/4 212/2/4 215/2/4
f 212/3/4 213/3/4 215/3/4
f 213/2/4 214/2/4 216/2/4
f 215/3/4 213/3/4 216/3/4
f 211/2/4 215/2/4 217/2/4
f 217/2/4 215/2/4 218/2/4
f 216/2/4 214/2/4 219/2/4
f 219/2/4 214/2/4 220/2/4
f 221/2/4 222/2/4 223/2/4
f 223/2/4 222/2/4 224/2/4
f 225/2/4 226/2/4 227/2/4
f 227/2/4 226/2/4 228/2/4
f 231/2/5 230/2/5 229/2/5
f 232/2/5 230/2/5 231/2/5
f 235/2/5 234/2/5 233/2/5
f 236/2/5 234/2/5 235/2/5
f 240/2/5 238/2/5 237/2/5
f 241/2/5 238/2/5 240/2/5
f 242/2/5 238/2/5 241/2/5
f 245/1/5 240/1/5 239/1/5
f 246/3/5 241/3/5 240/3/5
f 246/1/5 240/1/5 245/1/5
f 247/3/5 241/3/5 246/3/5
f 249/4/5 244/4/5 243/4/5
f 250/4/5 244/4/5 249/4/5
f 251/2/5 248/2/5 247/2/5
f 251/2/5 247/2/5 246/2/5
f 252/2/5 248/2/5 251/2/5
f 256/2/5 254/2/5 253/2/5
f 259/2/5 256/2/5 255/2/5
f 260/2/5 254/2/5 256/2/5
f 260/2/5 256/2/5 259/2/5
f 261/2/5 254/2/5 260/2/5
f 262/2/5 254/2/5 261/2/5
f 264/3/5 258/3/5 257/3/5
f 265/3/5 258/3/5 264/3/5
f 266/2/5 261/2/5 260/2/5
f 267/5/5 262/5/5 261/5/5
f 267/2/5 261/2/5 266/2/5
f 268/5/5 262/5/5 267/5/5
f 271/2/5 264/2/5 263/2/5
f 272/2/5 264/2/5 271/2/5
f 277/4/5 270/4/5 269/4/5
f 278/4/5 270/4/5 277/4/5
f 279/3/5 273/3/5 272/3/5
f 280/3/5 273/3/5 279/3/5
f 282/2/5 275/2/5 274/2/5
f 283/6/5 276/6/5 275/6/5
f 283/2/5 275/2/5 282/2/5
f 284/6/5 276/6/5 283/6/5
f 285/2/5 282/2/5 281/2/5
f 285/2/5 284/2/5 283/2/5
f 285/2/5 283/2/5 282/2/5
f 286/2/5 284/2/5 285/2/5
f 287/2/5 284/2/5 286/2/5
f 288/2/5 284/2/5 287/2/5
f 289/2/6 290/2/6 292/2/6
f 291/2/6 292/2/6 295/2/6
f 292/2/6 290/2/6 296/2/6
f 295/2/6 292/2/6 296/2/6
f 296/2/6 290/2/6 297/2/6
f 297/2/6 290/2/6 298/2/6
f 293/3/6 294/3/6 300/3/6
f 300/3/6 294/3/6 301/3/6
f 296/2/6 297/2/6 302/2/6
f 297/5/6 298/5/6 303/5/6
f 302/2/6 297/2/6 303/2/6
f 303/5/6 298/5/6 304/5/6
f 299/2/6 300/2/6 307/2/6
f 307/2/6 300/2/6 308/2/6
f 305/4/6 306/4/6 313/4/6
f 313/4/6 306/4/6 314/4/6
f 308/3/6 309/3/6 315/3/6
f 315/3/6 309/3/6 316/3/6
f 310/2/6 311/2/6 318/2/6
f 311/6/6 312/6/6 319/6/6
f 318/2/6 311/2/6 319/2/6
f 319/6/6 312/6/6 320/6/6
f 317/2/6 318/2/6 321/2/6
f 319/2/6 320/2/6 321/2/6
f 318/2/6 319/2/6 321/2/6
f 321/2/6 320/2/6 322/2/6
f 322/2/6 320/2/6 323/2/6
f 323/2/6 320/2/6 324/2/6
f 325/2/6 326/2/6 328/2/6
f 328/2/6 326/2/6 329/2/6
f 329/2/6 326/2/6 330/2/6
f 327/1/6 328/1/6 333/1/6
f 328/3/6 329/3/6 334/3/6
f 333/1/6 328/1/6 334/1/6
f 334/3/6 329/3/6 335/3/6
f 331/4/6 332/4/6 337/4/6
f 337/4/6 332/4/6 338/4/6
f 335/2/6 336/2/6 339/2/6
f 334/2/6 335/2/6 339/2/6
f 339/2/6 336/2/6 340/2/6
f 341/2/6 342/2/6 343/2/6
f 343/2/6 342/2/6 344/2/6
f 345/2/6 346/2/6 347/2/6
f 347/2/6 346/2/6 348/2/6
