# MagicaVoxel @ Ephtracy

# material
mtllib Savanna.mtl
usemtl palette

# normals
vn -1 0 0
vn 1 0 0
vn 0 0 1
vn 0 0 -1
vn 0 -1 0
vn 0 1 0

# texcoords
vt 0.00585938 0.5
vt 0.0332031 0.5
vt 0.537109 0.5
vt 0.701172 0.5
vt 0.966797 0.5
vt 0.982422 0.5
vt 0.994141 0.5

# verts
v 14 7 -21
v 14 7 -23
v 14 8 -19
v 14 8 -20
v 14 8 -21
v 14 8 -22
v 14 9 -18
v 14 9 -19
v 14 9 -20
v 14 9 -22
v 14 9 -23
v 14 9 -29
v 14 10 -18
v 14 10 -19
v 14 10 -20
v 14 10 -22
v 14 10 -23
v 14 10 -29
v 14 11 -19
v 14 11 -20
v 15 12 -20
v 15 12 -23
v 15 13 -20
v 15 13 -23
v 16 0 -21
v 16 0 -22
v 16 1 -21
v 16 1 -22
v 16 4 -21
v 16 4 -22
v 16 5 -21
v 16 5 -22
v 16 7 -21
v 16 7 -22
v 16 9 -20
v 16 9 -22
v 16 10 -21
v 16 10 -22
v 16 10 -23
v 16 11 -20
v 16 11 -21
v 16 12 -19
v 16 12 -20
v 16 12 -23
v 16 12 -24
v 16 13 -19
v 16 13 -20
v 16 13 -21
v 16 13 -22
v 16 13 -23
v 16 13 -24
v 16 14 -21
v 16 14 -22
v 17 8 -21
v 17 8 -22
v 17 9 -21
v 17 9 -22
v 17 9 -23
v 17 10 -22
v 17 10 -23
v 17 13 -20
v 17 13 -21
v 17 13 -22
v 17 13 -23
v 17 14 -20
v 17 14 -21
v 17 14 -22
v 17 14 -23
v 18 0 -21
v 18 0 -22
v 18 1 -21
v 18 1 -22
v 18 3 -21
v 18 3 -22
v 18 7 -18
v 18 7 -19
v 18 7 -21
v 18 8 -18
v 18 8 -19
v 18 8 -21
v 15 7 -22
v 15 7 -23
v 15 8 -19
v 15 8 -20
v 15 8 -22
v 15 9 -18
v 15 9 -19
v 15 9 -20
v 15 9 -22
v 15 9 -23
v 15 9 -29
v 15 10 -18
v 15 10 -19
v 15 10 -20
v 15 10 -22
v 15 10 -23
v 15 10 -29
v 15 11 -19
v 15 11 -20
v 17 0 -21
v 17 0 -22
v 17 1 -21
v 17 1 -22
v 17 3 -21
v 17 3 -22
v 18 8 -21
v 18 8 -22
v 18 9 -21
v 18 9 -22
v 18 9 -23
v 18 10 -22
v 18 10 -23
v 18 13 -20
v 18 13 -21
v 18 13 -22
v 18 13 -23
v 18 14 -20
v 18 14 -21
v 18 14 -22
v 18 14 -23
v 19 0 -21
v 19 0 -22
v 19 1 -21
v 19 1 -22
v 19 4 -21
v 19 4 -22
v 19 5 -21
v 19 5 -22
v 19 7 -18
v 19 7 -19
v 19 7 -21
v 19 8 -18
v 19 8 -19
v 19 8 -22
v 19 9 -20
v 19 9 -22
v 19 10 -21
v 19 10 -22
v 19 10 -23
v 19 11 -20
v 19 11 -21
v 19 12 -19
v 19 12 -20
v 19 12 -23
v 19 12 -24
v 19 13 -19
v 19 13 -20
v 19 13 -21
v 19 13 -22
v 19 13 -23
v 19 13 -24
v 19 14 -21
v 19 14 -22
v 20 12 -20
v 20 12 -23
v 20 13 -20
v 20 13 -23
v 14 9 -18
v 14 10 -18
v 15 9 -18
v 15 10 -18
v 18 7 -18
v 18 8 -18
v 19 7 -18
v 19 8 -18
v 14 8 -19
v 14 9 -19
v 14 10 -19
v 14 11 -19
v 15 8 -19
v 15 9 -19
v 15 10 -19
v 15 11 -19
v 16 12 -19
v 16 13 -19
v 19 12 -19
v 19 13 -19
v 15 12 -20
v 15 13 -20
v 16 9 -20
v 16 11 -20
v 16 12 -20
v 16 13 -20
v 17 13 -20
v 17 14 -20
v 18 13 -20
v 18 14 -20
v 19 9 -20
v 19 11 -20
v 19 12 -20
v 19 13 -20
v 20 12 -20
v 20 13 -20
v 14 7 -21
v 14 8 -21
v 16 0 -21
v 16 1 -21
v 16 4 -21
v 16 5 -21
v 16 7 -21
v 16 13 -21
v 16 14 -21
v 17 0 -21
v 17 1 -21
v 17 3 -21
v 17 4 -21
v 17 5 -21
v 17 8 -21
v 17 9 -21
v 17 13 -21
v 17 14 -21
v 18 0 -21
v 18 1 -21
v 18 3 -21
v 18 4 -21
v 18 5 -21
v 18 7 -21
v 18 8 -21
v 18 9 -21
v 18 13 -21
v 18 14 -21
v 19 0 -21
v 19 1 -21
v 19 4 -21
v 19 5 -21
v 19 7 -21
v 19 13 -21
v 19 14 -21
v 14 8 -22
v 14 9 -22
v 15 8 -22
v 15 9 -22
v 14 8 -20
v 14 9 -20
v 14 10 -20
v 14 11 -20
v 15 8 -20
v 15 9 -20
v 15 10 -20
v 15 11 -20
v 15 7 -22
v 15 8 -22
v 16 0 -22
v 16 1 -22
v 16 4 -22
v 16 5 -22
v 16 7 -22
v 16 9 -22
v 16 10 -22
v 16 13 -22
v 16 14 -22
v 17 0 -22
v 17 1 -22
v 17 3 -22
v 17 4 -22
v 17 5 -22
v 17 8 -22
v 17 9 -22
v 17 10 -22
v 17 13 -22
v 17 14 -22
v 18 0 -22
v 18 1 -22
v 18 3 -22
v 18 4 -22
v 18 5 -22
v 18 8 -22
v 18 9 -22
v 18 10 -22
v 18 13 -22
v 18 14 -22
v 19 0 -22
v 19 1 -22
v 19 4 -22
v 19 5 -22
v 19 8 -22
v 19 9 -22
v 19 10 -22
v 19 13 -22
v 19 14 -22
v 14 7 -23
v 14 9 -23
v 15 7 -23
v 15 9 -23
v 15 12 -23
v 15 13 -23
v 16 10 -23
v 16 12 -23
v 16 13 -23
v 17 9 -23
v 17 10 -23
v 17 13 -23
v 17 14 -23
v 18 9 -23
v 18 10 -23
v 18 13 -23
v 18 14 -23
v 19 10 -23
v 19 12 -23
v 19 13 -23
v 20 12 -23
v 20 13 -23
v 16 12 -24
v 16 13 -24
v 19 12 -24
v 19 13 -24
v 14 9 -29
v 14 10 -29
v 15 9 -29
v 15 10 -29
v 16 0 -21
v 17 0 -21
v 18 0 -21
v 19 0 -21
v 16 0 -22
v 17 0 -22
v 18 0 -22
v 19 0 -22
v 17 3 -21
v 18 3 -21
v 17 3 -22
v 18 3 -22
v 18 7 -18
v 19 7 -18
v 18 7 -19
v 19 7 -19
v 14 7 -21
v 16 7 -21
v 18 7 -21
v 19 7 -21
v 15 7 -22
v 16 7 -22
v 14 7 -23
v 15 7 -23
v 14 8 -19
v 15 8 -19
v 14 8 -20
v 15 8 -20
v 14 9 -18
v 15 9 -18
v 14 9 -19
v 15 9 -19
v 14 9 -20
v 15 9 -20
v 16 9 -20
v 19 9 -20
v 17 9 -21
v 18 9 -21
v 14 9 -22
v 15 9 -22
v 16 9 -22
v 17 9 -22
v 18 9 -22
v 19 9 -22
v 14 9 -23
v 15 9 -23
v 17 9 -23
v 18 9 -23
v 14 9 -29
v 15 9 -29
v 16 10 -22
v 17 10 -22
v 18 10 -22
v 19 10 -22
v 16 10 -23
v 17 10 -23
v 18 10 -23
v 19 10 -23
v 16 12 -19
v 19 12 -19
v 15 12 -20
v 16 12 -20
v 19 12 -20
v 20 12 -20
v 15 12 -23
v 16 12 -23
v 19 12 -23
v 20 12 -23
v 16 12 -24
v 19 12 -24
v 18 8 -18
v 19 8 -18
v 18 8 -19
v 19 8 -19
v 14 8 -21
v 17 8 -21
v 18 8 -21
v 14 8 -22
v 15 8 -22
v 17 8 -22
v 18 8 -22
v 19 8 -22
v 14 10 -18
v 15 10 -18
v 14 10 -19
v 15 10 -19
v 14 10 -20
v 15 10 -20
v 14 10 -22
v 15 10 -22
v 14 10 -23
v 15 10 -23
v 14 10 -29
v 15 10 -29
v 14 11 -19
v 15 11 -19
v 14 11 -20
v 15 11 -20
v 16 13 -19
v 19 13 -19
v 15 13 -20
v 16 13 -20
v 17 13 -20
v 18 13 -20
v 19 13 -20
v 20 13 -20
v 16 13 -21
v 17 13 -21
v 18 13 -21
v 19 13 -21
v 16 13 -22
v 17 13 -22
v 18 13 -22
v 19 13 -22
v 15 13 -23
v 16 13 -23
v 17 13 -23
v 18 13 -23
v 19 13 -23
v 20 13 -23
v 16 13 -24
v 19 13 -24
v 17 14 -20
v 18 14 -20
v 16 14 -21
v 17 14 -21
v 18 14 -21
v 19 14 -21
v 16 14 -22
v 17 14 -22
v 18 14 -22
v 19 14 -22
v 17 14 -23
v 18 14 -23

# faces
f 5/2/1 2/2/1 1/2/1
f 6/2/1 2/2/1 5/2/1
f 8/6/1 4/6/1 3/6/1
f 9/6/1 4/6/1 8/6/1
f 10/2/1 2/2/1 6/2/1
f 11/2/1 2/2/1 10/2/1
f 13/6/1 8/6/1 7/6/1
f 14/3/1 9/3/1 8/3/1
f 14/6/1 8/6/1 13/6/1
f 14/3/1 10/3/1 9/3/1
f 15/3/1 10/3/1 14/3/1
f 16/1/1 11/1/1 10/1/1
f 16/3/1 10/3/1 15/3/1
f 17/3/1 12/3/1 11/3/1
f 17/1/1 11/1/1 16/1/1
f 18/3/1 12/3/1 17/3/1
f 19/6/1 15/6/1 14/6/1
f 20/6/1 15/6/1 19/6/1
f 23/2/1 22/2/1 21/2/1
f 24/2/1 22/2/1 23/2/1
f 27/3/1 26/3/1 25/3/1
f 28/3/1 26/3/1 27/3/1
f 29/1/1 28/1/1 27/1/1
f 30/1/1 28/1/1 29/1/1
f 31/7/1 30/7/1 29/7/1
f 32/7/1 30/7/1 31/7/1
f 33/2/1 32/2/1 31/2/1
f 34/2/1 32/2/1 33/2/1
f 37/1/1 36/1/1 35/1/1
f 38/1/1 36/1/1 37/1/1
f 40/1/1 37/1/1 35/1/1
f 41/4/1 38/4/1 37/4/1
f 41/1/1 37/1/1 40/1/1
f 41/4/1 39/4/1 38/4/1
f 43/4/1 41/4/1 40/4/1
f 44/4/1 39/4/1 41/4/1
f 44/4/1 41/4/1 43/4/1
f 46/2/1 43/2/1 42/2/1
f 47/2/1 43/2/1 46/2/1
f 50/2/1 45/2/1 44/2/1
f 51/2/1 45/2/1 50/2/1
f 52/2/1 49/2/1 48/2/1
f 53/2/1 49/2/1 52/2/1
f 56/1/1 55/1/1 54/1/1
f 57/1/1 55/1/1 56/1/1
f 59/1/1 58/1/1 57/1/1
f 60/1/1 58/1/1 59/1/1
f 65/2/1 62/2/1 61/2/1
f 66/2/1 62/2/1 65/2/1
f 67/2/1 64/2/1 63/2/1
f 68/2/1 64/2/1 67/2/1
f 71/3/1 70/3/1 69/3/1
f 72/3/1 70/3/1 71/3/1
f 73/1/1 72/1/1 71/1/1
f 74/1/1 72/1/1 73/1/1
f 78/1/1 76/1/1 75/1/1
f 79/2/1 77/2/1 76/2/1
f 79/1/1 76/1/1 78/1/1
f 80/2/1 77/2/1 79/2/1
f 81/2/2 82/2/2 85/2/2
f 83/6/2 84/6/2 87/6/2
f 87/6/2 84/6/2 88/6/2
f 85/2/2 82/2/2 89/2/2
f 89/2/2 82/2/2 90/2/2
f 86/6/2 87/6/2 92/6/2
f 87/3/2 88/3/2 93/3/2
f 92/6/2 87/6/2 93/6/2
f 88/3/2 89/3/2 93/3/2
f 93/3/2 89/3/2 94/3/2
f 89/1/2 90/1/2 95/1/2
f 94/3/2 89/3/2 95/3/2
f 90/3/2 91/3/2 96/3/2
f 95/1/2 90/1/2 96/1/2
f 96/3/2 91/3/2 97/3/2
f 93/6/2 94/6/2 98/6/2
f 98/6/2 94/6/2 99/6/2
f 100/3/2 101/3/2 102/3/2
f 102/3/2 101/3/2 103/3/2
f 102/1/2 103/1/2 104/1/2
f 104/1/2 103/1/2 105/1/2
f 106/1/2 107/1/2 108/1/2
f 108/1/2 107/1/2 109/1/2
f 109/1/2 110/1/2 111/1/2
f 111/1/2 110/1/2 112/1/2
f 113/2/2 114/2/2 117/2/2
f 117/2/2 114/2/2 118/2/2
f 115/2/2 116/2/2 119/2/2
f 119/2/2 116/2/2 120/2/2
f 121/3/2 122/3/2 123/3/2
f 123/3/2 122/3/2 124/3/2
f 123/1/2 124/1/2 125/1/2
f 125/1/2 124/1/2 126/1/2
f 125/7/2 126/7/2 127/7/2
f 127/7/2 126/7/2 128/7/2
f 127/2/2 128/2/2 131/2/2
f 129/1/2 130/1/2 132/1/2
f 130/2/2 131/2/2 133/2/2
f 132/1/2 130/1/2 133/1/2
f 131/2/2 128/2/2 134/2/2
f 133/2/2 131/2/2 134/2/2
f 135/1/2 136/1/2 137/1/2
f 137/1/2 136/1/2 138/1/2
f 135/1/2 137/1/2 140/1/2
f 137/4/2 138/4/2 141/4/2
f 140/1/2 137/1/2 141/1/2
f 138/4/2 139/4/2 141/4/2
f 140/4/2 141/4/2 143/4/2
f 141/4/2 139/4/2 144/4/2
f 143/4/2 141/4/2 144/4/2
f 142/2/2 143/2/2 146/2/2
f 146/2/2 143/2/2 147/2/2
f 144/2/2 145/2/2 150/2/2
f 150/2/2 145/2/2 151/2/2
f 148/2/2 149/2/2 152/2/2
f 152/2/2 149/2/2 153/2/2
f 154/2/2 155/2/2 156/2/2
f 156/2/2 155/2/2 157/2/2
f 160/6/3 159/6/3 158/6/3
f 161/6/3 159/6/3 160/6/3
f 164/1/3 163/1/3 162/1/3
f 165/1/3 163/1/3 164/1/3
f 170/6/3 167/6/3 166/6/3
f 171/6/3 167/6/3 170/6/3
f 172/6/3 169/6/3 168/6/3
f 173/6/3 169/6/3 172/6/3
f 176/2/3 175/2/3 174/2/3
f 177/2/3 175/2/3 176/2/3
f 182/2/3 179/2/3 178/2/3
f 183/2/3 179/2/3 182/2/3
f 186/2/3 185/2/3 184/2/3
f 187/2/3 185/2/3 186/2/3
f 188/1/3 181/1/3 180/1/3
f 189/4/3 182/4/3 181/4/3
f 189/1/3 181/1/3 188/1/3
f 190/4/3 182/4/3 189/4/3
f 192/2/3 191/2/3 190/2/3
f 193/2/3 191/2/3 192/2/3
f 200/2/3 195/2/3 194/2/3
f 203/3/3 197/3/3 196/3/3
f 204/1/3 198/1/3 197/1/3
f 204/3/3 197/3/3 203/3/3
f 205/1/3 198/1/3 204/1/3
f 206/7/3 199/7/3 198/7/3
f 206/1/3 198/1/3 205/1/3
f 207/2/3 200/2/3 199/2/3
f 207/7/3 199/7/3 206/7/3
f 208/2/3 195/2/3 200/2/3
f 208/2/3 200/2/3 207/2/3
f 210/2/3 202/2/3 201/2/3
f 211/2/3 202/2/3 210/2/3
f 214/1/3 206/1/3 205/1/3
f 215/5/3 207/5/3 206/5/3
f 215/1/3 206/1/3 214/1/3
f 216/2/3 208/2/3 207/2/3
f 216/5/3 207/5/3 215/5/3
f 217/2/3 208/2/3 216/2/3
f 218/1/3 209/1/3 208/1/3
f 218/2/3 208/2/3 217/2/3
f 219/1/3 209/1/3 218/1/3
f 222/3/3 213/3/3 212/3/3
f 223/1/3 214/1/3 213/1/3
f 223/3/3 213/3/3 222/3/3
f 223/1/3 215/1/3 214/1/3
f 224/7/3 216/7/3 215/7/3
f 224/1/3 215/1/3 223/1/3
f 225/2/3 217/2/3 216/2/3
f 225/7/3 216/7/3 224/7/3
f 226/2/3 217/2/3 225/2/3
f 227/2/3 221/2/3 220/2/3
f 228/2/3 221/2/3 227/2/3
f 231/2/3 230/2/3 229/2/3
f 232/2/3 230/2/3 231/2/3
f 233/6/4 234/6/4 237/6/4
f 237/6/4 234/6/4 238/6/4
f 235/6/4 236/6/4 239/6/4
f 239/6/4 236/6/4 240/6/4
f 241/2/4 242/2/4 247/2/4
f 243/3/4 244/3/4 252/3/4
f 244/1/4 245/1/4 253/1/4
f 252/3/4 244/3/4 253/3/4
f 253/1/4 245/1/4 254/1/4
f 245/7/4 246/7/4 255/7/4
f 254/1/4 245/1/4 255/1/4
f 246/2/4 247/2/4 256/2/4
f 255/7/4 246/7/4 256/7/4
f 247/2/4 242/2/4 257/2/4
f 256/2/4 247/2/4 257/2/4
f 248/1/4 249/1/4 258/1/4
f 258/1/4 249/1/4 259/1/4
f 250/2/4 251/2/4 260/2/4
f 260/2/4 251/2/4 261/2/4
f 254/1/4 255/1/4 264/1/4
f 255/5/4 256/5/4 265/5/4
f 264/1/4 255/1/4 265/1/4
f 256/2/4 257/2/4 266/2/4
f 265/5/4 256/5/4 266/5/4
f 257/1/4 258/1/4 267/1/4
f 266/2/4 257/2/4 267/2/4
f 267/1/4 258/1/4 268/1/4
f 262/3/4 263/3/4 272/3/4
f 263/1/4 264/1/4 273/1/4
f 272/3/4 263/3/4 273/3/4
f 264/1/4 265/1/4 273/1/4
f 265/7/4 266/7/4 274/7/4
f 273/1/4 265/1/4 274/1/4
f 266/2/4 267/2/4 275/2/4
f 274/7/4 266/7/4 275/7/4
f 275/2/4 267/2/4 276/2/4
f 268/1/4 269/1/4 277/1/4
f 277/1/4 269/1/4 278/1/4
f 270/2/4 271/2/4 279/2/4
f 279/2/4 271/2/4 280/2/4
f 281/2/4 282/2/4 283/2/4
f 283/2/4 282/2/4 284/2/4
f 285/2/4 286/2/4 288/2/4
f 288/2/4 286/2/4 289/2/4
f 287/4/4 288/4/4 291/4/4
f 290/1/4 291/1/4 294/1/4
f 291/4/4 288/4/4 295/4/4
f 294/1/4 291/1/4 295/1/4
f 292/2/4 293/2/4 296/2/4
f 296/2/4 293/2/4 297/2/4
f 295/4/4 288/4/4 298/4/4
f 298/4/4 288/4/4 299/4/4
f 299/2/4 300/2/4 301/2/4
f 301/2/4 300/2/4 302/2/4
f 303/2/4 304/2/4 305/2/4
f 305/2/4 304/2/4 306/2/4
f 307/3/4 308/3/4 309/3/4
f 309/3/4 308/3/4 310/3/4
f 315/3/5 312/3/5 311/3/5
f 316/3/5 312/3/5 315/3/5
f 317/3/5 314/3/5 313/3/5
f 318/3/5 314/3/5 317/3/5
f 321/1/5 320/1/5 319/1/5
f 322/1/5 320/1/5 321/1/5
f 325/1/5 324/1/5 323/1/5
f 326/1/5 324/1/5 325/1/5
f 329/2/5 326/2/5 325/2/5
f 330/2/5 326/2/5 329/2/5
f 331/2/5 328/2/5 327/2/5
f 332/2/5 328/2/5 331/2/5
f 333/2/5 331/2/5 327/2/5
f 334/2/5 331/2/5 333/2/5
f 337/6/5 336/6/5 335/6/5
f 338/6/5 336/6/5 337/6/5
f 341/6/5 340/6/5 339/6/5
f 342/6/5 340/6/5 341/6/5
f 347/1/5 346/1/5 345/1/5
f 348/1/5 346/1/5 347/1/5
f 349/3/5 344/3/5 343/3/5
f 350/3/5 344/3/5 349/3/5
f 351/1/5 347/1/5 345/1/5
f 352/1/5 347/1/5 351/1/5
f 353/1/5 346/1/5 348/1/5
f 354/1/5 346/1/5 353/1/5
f 357/1/5 353/1/5 352/1/5
f 358/1/5 353/1/5 357/1/5
f 359/3/5 356/3/5 355/3/5
f 360/3/5 356/3/5 359/3/5
f 365/4/5 362/4/5 361/4/5
f 366/4/5 362/4/5 365/4/5
f 367/4/5 364/4/5 363/4/5
f 368/4/5 364/4/5 367/4/5
f 372/2/5 370/2/5 369/2/5
f 373/2/5 370/2/5 372/2/5
f 375/2/5 372/2/5 371/2/5
f 376/2/5 372/2/5 375/2/5
f 377/2/5 374/2/5 373/2/5
f 378/2/5 374/2/5 377/2/5
f 379/2/5 377/2/5 376/2/5
f 380/2/5 377/2/5 379/2/5
f 381/1/6 382/1/6 383/1/6
f 383/1/6 382/1/6 384/1/6
f 383/2/6 384/2/6 387/2/6
f 385/2/6 386/2/6 388/2/6
f 388/2/6 386/2/6 389/2/6
f 389/2/6 386/2/6 390/2/6
f 387/2/6 384/2/6 391/2/6
f 391/2/6 384/2/6 392/2/6
f 393/6/6 394/6/6 395/6/6
f 395/6/6 394/6/6 396/6/6
f 397/3/6 398/3/6 399/3/6
f 399/3/6 398/3/6 400/3/6
f 399/1/6 400/1/6 401/1/6
f 401/1/6 400/1/6 402/1/6
f 401/3/6 402/3/6 403/3/6
f 403/3/6 402/3/6 404/3/6
f 405/6/6 406/6/6 407/6/6
f 407/6/6 406/6/6 408/6/6
f 409/2/6 410/2/6 412/2/6
f 412/2/6 410/2/6 413/2/6
f 413/2/6 410/2/6 414/2/6
f 414/2/6 410/2/6 415/2/6
f 411/2/6 412/2/6 417/2/6
f 412/2/6 413/2/6 417/2/6
f 417/2/6 413/2/6 418/2/6
f 415/2/6 416/2/6 419/2/6
f 414/2/6 415/2/6 419/2/6
f 419/2/6 416/2/6 420/2/6
f 411/2/6 417/2/6 421/2/6
f 420/2/6 416/2/6 424/2/6
f 421/2/6 422/2/6 425/2/6
f 411/2/6 421/2/6 425/2/6
f 425/2/6 422/2/6 426/2/6
f 426/2/6 422/2/6 427/2/6
f 423/2/6 424/2/6 428/2/6
f 424/2/6 416/2/6 429/2/6
f 428/2/6 424/2/6 429/2/6
f 429/2/6 416/2/6 430/2/6
f 426/2/6 427/2/6 431/2/6
f 427/2/6 428/2/6 431/2/6
f 428/2/6 429/2/6 431/2/6
f 431/2/6 429/2/6 432/2/6
f 433/2/6 434/2/6 436/2/6
f 436/2/6 434/2/6 437/2/6
f 435/2/6 436/2/6 439/2/6
f 437/2/6 438/2/6 439/2/6
f 436/2/6 437/2/6 439/2/6
f 439/2/6 438/2/6 440/2/6
f 440/2/6 438/2/6 441/2/6
f 441/2/6 438/2/6 442/2/6
f 440/2/6 441/2/6 443/2/6
f 443/2/6 441/2/6 444/2/6
