# MagicaVoxel @ Ephtracy

# material
mtllib Savanna3.mtl
usemtl palette

# normals
vn -1 0 0
vn 1 0 0
vn 0 0 1
vn 0 0 -1
vn 0 -1 0
vn 0 1 0

# texcoords
vt 0.00585938 0.5
vt 0.0332031 0.5
vt 0.505859 0.5
vt 0.537109 0.5
vt 0.701172 0.5
vt 0.861328 0.5
vt 0.865234 0.5
vt 0.966797 0.5
vt 0.982422 0.5
vt 0.994141 0.5

# verts
v 15 12 -20
v 15 12 -23
v 15 13 -20
v 15 13 -23
v 16 0 -21
v 16 0 -22
v 16 1 -21
v 16 1 -22
v 16 4 -21
v 16 4 -22
v 16 5 -21
v 16 5 -22
v 16 5 -24
v 16 6 -21
v 16 6 -22
v 16 7 -18
v 16 7 -19
v 16 7 -21
v 16 7 -23
v 16 7 -24
v 16 8 -18
v 16 8 -19
v 16 8 -21
v 16 8 -23
v 16 9 -20
v 16 9 -22
v 16 10 -21
v 16 10 -22
v 16 10 -23
v 16 11 -20
v 16 11 -21
v 16 12 -19
v 16 12 -20
v 16 12 -23
v 16 12 -24
v 16 13 -19
v 16 13 -20
v 16 13 -21
v 16 13 -22
v 16 13 -23
v 16 13 -24
v 16 14 -21
v 16 14 -22
v 17 4 -19
v 17 4 -20
v 17 5 -18
v 17 5 -19
v 17 5 -20
v 17 6 -20
v 17 6 -21
v 17 7 -11
v 17 7 -13
v 17 7 -18
v 17 7 -19
v 17 7 -20
v 17 7 -21
v 17 8 -11
v 17 8 -13
v 17 8 -17
v 17 8 -18
v 17 8 -21
v 17 8 -22
v 17 9 -17
v 17 9 -18
v 17 9 -21
v 17 9 -22
v 17 9 -23
v 17 10 -22
v 17 10 -23
v 17 13 -20
v 17 13 -21
v 17 13 -22
v 17 13 -23
v 17 14 -20
v 17 14 -21
v 17 14 -22
v 17 14 -23
v 18 0 -21
v 18 0 -22
v 18 1 -21
v 18 1 -22
v 18 3 -21
v 18 3 -22
v 17 0 -21
v 17 0 -22
v 17 1 -21
v 17 1 -22
v 17 3 -21
v 17 3 -22
v 18 4 -19
v 18 4 -20
v 18 5 -18
v 18 5 -19
v 18 5 -20
v 18 6 -20
v 18 6 -21
v 18 7 -11
v 18 7 -13
v 18 7 -17
v 18 7 -18
v 18 7 -19
v 18 7 -20
v 18 7 -21
v 18 8 -11
v 18 8 -13
v 18 8 -17
v 18 8 -18
v 18 8 -21
v 18 8 -22
v 18 9 -17
v 18 9 -18
v 18 9 -21
v 18 9 -22
v 18 9 -23
v 18 10 -22
v 18 10 -23
v 18 13 -20
v 18 13 -21
v 18 13 -22
v 18 13 -23
v 18 14 -20
v 18 14 -21
v 18 14 -22
v 18 14 -23
v 19 0 -21
v 19 0 -22
v 19 1 -21
v 19 1 -22
v 19 4 -21
v 19 4 -22
v 19 5 -21
v 19 5 -22
v 19 5 -24
v 19 6 -21
v 19 6 -22
v 19 7 -17
v 19 7 -18
v 19 7 -19
v 19 7 -21
v 19 7 -23
v 19 7 -24
v 19 8 -17
v 19 8 -18
v 19 8 -19
v 19 8 -21
v 19 8 -23
v 19 9 -20
v 19 9 -22
v 19 10 -21
v 19 10 -22
v 19 10 -23
v 19 11 -20
v 19 11 -21
v 19 12 -19
v 19 12 -20
v 19 12 -23
v 19 12 -24
v 19 13 -19
v 19 13 -20
v 19 13 -21
v 19 13 -22
v 19 13 -23
v 19 13 -24
v 19 14 -21
v 19 14 -22
v 20 12 -20
v 20 12 -23
v 20 13 -20
v 20 13 -23
v 17 7 -11
v 17 8 -11
v 18 7 -11
v 18 8 -11
v 17 8 -17
v 17 9 -17
v 18 7 -17
v 18 8 -17
v 18 9 -17
v 19 7 -17
v 19 8 -17
v 16 7 -18
v 16 8 -18
v 17 5 -18
v 17 7 -18
v 17 8 -18
v 18 5 -18
v 18 7 -18
v 16 12 -19
v 16 13 -19
v 17 4 -19
v 17 5 -19
v 18 4 -19
v 18 5 -19
v 19 12 -19
v 19 13 -19
v 15 12 -20
v 15 13 -20
v 16 9 -20
v 16 11 -20
v 16 12 -20
v 16 13 -20
v 17 13 -20
v 17 14 -20
v 18 13 -20
v 18 14 -20
v 19 9 -20
v 19 11 -20
v 19 12 -20
v 19 13 -20
v 20 12 -20
v 20 13 -20
v 16 0 -21
v 16 1 -21
v 16 4 -21
v 16 5 -21
v 16 6 -21
v 16 7 -21
v 16 13 -21
v 16 14 -21
v 17 0 -21
v 17 1 -21
v 17 3 -21
v 17 4 -21
v 17 5 -21
v 17 6 -21
v 17 7 -21
v 17 8 -21
v 17 9 -21
v 17 13 -21
v 17 14 -21
v 18 0 -21
v 18 1 -21
v 18 3 -21
v 18 4 -21
v 18 5 -21
v 18 6 -21
v 18 7 -21
v 18 8 -21
v 18 9 -21
v 18 13 -21
v 18 14 -21
v 19 0 -21
v 19 1 -21
v 19 4 -21
v 19 5 -21
v 19 6 -21
v 19 7 -21
v 19 13 -21
v 19 14 -21
v 17 8 -18
v 17 9 -18
v 18 8 -18
v 18 9 -18
v 17 4 -20
v 17 5 -20
v 17 6 -20
v 18 4 -20
v 18 5 -20
v 18 6 -20
v 16 0 -22
v 16 1 -22
v 16 4 -22
v 16 5 -22
v 16 9 -22
v 16 10 -22
v 16 13 -22
v 16 14 -22
v 17 0 -22
v 17 1 -22
v 17 3 -22
v 17 4 -22
v 17 5 -22
v 17 8 -22
v 17 9 -22
v 17 10 -22
v 17 13 -22
v 17 14 -22
v 18 0 -22
v 18 1 -22
v 18 3 -22
v 18 4 -22
v 18 5 -22
v 18 8 -22
v 18 9 -22
v 18 10 -22
v 18 13 -22
v 18 14 -22
v 19 0 -22
v 19 1 -22
v 19 4 -22
v 19 5 -22
v 19 9 -22
v 19 10 -22
v 19 13 -22
v 19 14 -22
v 15 12 -23
v 15 13 -23
v 16 7 -23
v 16 8 -23
v 16 10 -23
v 16 12 -23
v 16 13 -23
v 17 9 -23
v 17 10 -23
v 17 13 -23
v 17 14 -23
v 18 9 -23
v 18 10 -23
v 18 13 -23
v 18 14 -23
v 19 7 -23
v 19 8 -23
v 19 10 -23
v 19 12 -23
v 19 13 -23
v 20 12 -23
v 20 13 -23
v 16 5 -24
v 16 7 -24
v 16 12 -24
v 16 13 -24
v 19 5 -24
v 19 7 -24
v 19 12 -24
v 19 13 -24
v 16 0 -21
v 17 0 -21
v 18 0 -21
v 19 0 -21
v 16 0 -22
v 17 0 -22
v 18 0 -22
v 19 0 -22
v 17 3 -21
v 18 3 -21
v 17 3 -22
v 18 3 -22
v 17 4 -19
v 18 4 -19
v 17 4 -20
v 18 4 -20
v 17 5 -18
v 18 5 -18
v 17 5 -19
v 18 5 -19
v 16 5 -22
v 17 5 -22
v 18 5 -22
v 19 5 -22
v 16 5 -24
v 19 5 -24
v 17 6 -20
v 18 6 -20
v 17 6 -21
v 18 6 -21
v 17 7 -11
v 18 7 -11
v 17 7 -13
v 18 7 -13
v 18 7 -17
v 19 7 -17
v 16 7 -18
v 17 7 -18
v 18 7 -18
v 19 7 -18
v 16 7 -19
v 17 7 -19
v 18 7 -19
v 19 7 -19
v 17 7 -20
v 18 7 -20
v 16 7 -21
v 17 7 -21
v 18 7 -21
v 19 7 -21
v 16 9 -20
v 19 9 -20
v 17 9 -21
v 18 9 -21
v 16 9 -22
v 17 9 -22
v 18 9 -22
v 19 9 -22
v 17 9 -23
v 18 9 -23
v 16 10 -22
v 17 10 -22
v 18 10 -22
v 19 10 -22
v 16 10 -23
v 17 10 -23
v 18 10 -23
v 19 10 -23
v 16 12 -19
v 19 12 -19
v 15 12 -20
v 16 12 -20
v 19 12 -20
v 20 12 -20
v 15 12 -23
v 16 12 -23
v 19 12 -23
v 20 12 -23
v 16 12 -24
v 19 12 -24
v 16 7 -23
v 19 7 -23
v 16 7 -24
v 19 7 -24
v 17 8 -11
v 18 8 -11
v 17 8 -13
v 18 8 -13
v 17 8 -17
v 18 8 -17
v 19 8 -17
v 16 8 -18
v 17 8 -18
v 18 8 -18
v 19 8 -18
v 16 8 -19
v 17 8 -19
v 18 8 -19
v 19 8 -19
v 17 8 -20
v 18 8 -20
v 16 8 -21
v 17 8 -21
v 18 8 -21
v 19 8 -21
v 17 8 -22
v 18 8 -22
v 16 8 -23
v 19 8 -23
v 17 9 -17
v 18 9 -17
v 17 9 -18
v 18 9 -18
v 16 13 -19
v 19 13 -19
v 15 13 -20
v 16 13 -20
v 17 13 -20
v 18 13 -20
v 19 13 -20
v 20 13 -20
v 16 13 -21
v 17 13 -21
v 18 13 -21
v 19 13 -21
v 16 13 -22
v 17 13 -22
v 18 13 -22
v 19 13 -22
v 15 13 -23
v 16 13 -23
v 17 13 -23
v 18 13 -23
v 19 13 -23
v 20 13 -23
v 16 13 -24
v 19 13 -24
v 17 14 -20
v 18 14 -20
v 16 14 -21
v 17 14 -21
v 18 14 -21
v 19 14 -21
v 16 14 -22
v 17 14 -22
v 18 14 -22
v 19 14 -22
v 17 14 -23
v 18 14 -23

# faces
f 3/2/1 2/2/1 1/2/1
f 4/2/1 2/2/1 3/2/1
f 7/4/1 6/4/1 5/4/1
f 8/4/1 6/4/1 7/4/1
f 9/1/1 8/1/1 7/1/1
f 10/1/1 8/1/1 9/1/1
f 11/10/1 10/10/1 9/10/1
f 12/10/1 10/10/1 11/10/1
f 14/2/1 12/2/1 11/2/1
f 15/9/1 13/9/1 12/9/1
f 15/2/1 12/2/1 14/2/1
f 18/9/1 15/9/1 14/9/1
f 19/9/1 13/9/1 15/9/1
f 19/9/1 15/9/1 18/9/1
f 20/9/1 13/9/1 19/9/1
f 21/1/1 17/1/1 16/1/1
f 22/2/1 18/2/1 17/2/1
f 22/1/1 17/1/1 21/1/1
f 23/9/1 19/9/1 18/9/1
f 23/2/1 18/2/1 22/2/1
f 24/9/1 19/9/1 23/9/1
f 27/1/1 26/1/1 25/1/1
f 28/1/1 26/1/1 27/1/1
f 30/1/1 27/1/1 25/1/1
f 31/5/1 29/5/1 28/5/1
f 31/1/1 27/1/1 30/1/1
f 31/5/1 28/5/1 27/5/1
f 33/5/1 31/5/1 30/5/1
f 34/5/1 29/5/1 31/5/1
f 34/5/1 31/5/1 33/5/1
f 36/2/1 33/2/1 32/2/1
f 37/2/1 33/2/1 36/2/1
f 40/2/1 35/2/1 34/2/1
f 41/2/1 35/2/1 40/2/1
f 42/2/1 39/2/1 38/2/1
f 43/2/1 39/2/1 42/2/1
f 47/7/1 45/7/1 44/7/1
f 48/7/1 45/7/1 47/7/1
f 49/6/1 48/6/1 47/6/1
f 53/3/1 47/3/1 46/3/1
f 54/6/1 49/6/1 47/6/1
f 54/3/1 47/3/1 53/3/1
f 55/3/1 50/3/1 49/3/1
f 55/6/1 49/6/1 54/6/1
f 56/3/1 50/3/1 55/3/1
f 57/9/1 52/9/1 51/9/1
f 58/3/1 53/3/1 52/3/1
f 58/9/1 52/9/1 57/9/1
f 59/3/1 53/3/1 58/3/1
f 60/3/1 53/3/1 59/3/1
f 63/3/1 60/3/1 59/3/1
f 64/3/1 60/3/1 63/3/1
f 65/1/1 62/1/1 61/1/1
f 66/1/1 62/1/1 65/1/1
f 68/1/1 67/1/1 66/1/1
f 69/1/1 67/1/1 68/1/1
f 74/2/1 71/2/1 70/2/1
f 75/2/1 71/2/1 74/2/1
f 76/2/1 73/2/1 72/2/1
f 77/2/1 73/2/1 76/2/1
f 80/4/1 79/4/1 78/4/1
f 81/4/1 79/4/1 80/4/1
f 82/1/1 81/1/1 80/1/1
f 83/1/1 81/1/1 82/1/1
f 84/4/2 85/4/2 86/4/2
f 86/4/2 85/4/2 87/4/2
f 86/1/2 87/1/2 88/1/2
f 88/1/2 87/1/2 89/1/2
f 90/7/2 91/7/2 93/7/2
f 93/7/2 91/7/2 94/7/2
f 93/6/2 94/6/2 95/6/2
f 92/3/2 93/3/2 100/3/2
f 93/6/2 95/6/2 101/6/2
f 100/3/2 93/3/2 101/3/2
f 95/3/2 96/3/2 102/3/2
f 101/6/2 95/6/2 102/6/2
f 102/3/2 96/3/2 103/3/2
f 97/9/2 98/9/2 104/9/2
f 98/3/2 99/3/2 105/3/2
f 104/9/2 98/9/2 105/9/2
f 105/3/2 99/3/2 106/3/2
f 106/3/2 107/3/2 110/3/2
f 110/3/2 107/3/2 111/3/2
f 108/1/2 109/1/2 112/1/2
f 112/1/2 109/1/2 113/1/2
f 113/1/2 114/1/2 115/1/2
f 115/1/2 114/1/2 116/1/2
f 117/2/2 118/2/2 121/2/2
f 121/2/2 118/2/2 122/2/2
f 119/2/2 120/2/2 123/2/2
f 123/2/2 120/2/2 124/2/2
f 125/4/2 126/4/2 127/4/2
f 127/4/2 126/4/2 128/4/2
f 127/1/2 128/1/2 129/1/2
f 129/1/2 128/1/2 130/1/2
f 129/10/2 130/10/2 131/10/2
f 131/10/2 130/10/2 132/10/2
f 131/2/2 132/2/2 134/2/2
f 132/9/2 133/9/2 135/9/2
f 134/2/2 132/2/2 135/2/2
f 134/9/2 135/9/2 139/9/2
f 135/9/2 133/9/2 140/9/2
f 139/9/2 135/9/2 140/9/2
f 140/9/2 133/9/2 141/9/2
f 136/3/2 137/3/2 142/3/2
f 137/1/2 138/1/2 143/1/2
f 142/3/2 137/3/2 143/3/2
f 138/2/2 139/2/2 144/2/2
f 143/1/2 138/1/2 144/1/2
f 139/9/2 140/9/2 145/9/2
f 144/2/2 139/2/2 145/2/2
f 145/9/2 140/9/2 146/9/2
f 147/1/2 148/1/2 149/1/2
f 149/1/2 148/1/2 150/1/2
f 147/1/2 149/1/2 152/1/2
f 150/5/2 151/5/2 153/5/2
f 152/1/2 149/1/2 153/1/2
f 149/5/2 150/5/2 153/5/2
f 152/5/2 153/5/2 155/5/2
f 153/5/2 151/5/2 156/5/2
f 155/5/2 153/5/2 156/5/2
f 154/2/2 155/2/2 158/2/2
f 158/2/2 155/2/2 159/2/2
f 156/2/2 157/2/2 162/2/2
f 162/2/2 157/2/2 163/2/2
f 160/2/2 161/2/2 164/2/2
f 164/2/2 161/2/2 165/2/2
f 166/2/2 167/2/2 168/2/2
f 168/2/2 167/2/2 169/2/2
f 172/9/3 171/9/3 170/9/3
f 173/9/3 171/9/3 172/9/3
f 177/3/3 175/3/3 174/3/3
f 178/3/3 175/3/3 177/3/3
f 179/3/3 177/3/3 176/3/3
f 180/3/3 177/3/3 179/3/3
f 184/1/3 182/1/3 181/1/3
f 185/1/3 182/1/3 184/1/3
f 186/3/3 184/3/3 183/3/3
f 187/3/3 184/3/3 186/3/3
f 192/7/3 191/7/3 190/7/3
f 193/7/3 191/7/3 192/7/3
f 194/2/3 189/2/3 188/2/3
f 195/2/3 189/2/3 194/2/3
f 200/2/3 197/2/3 196/2/3
f 201/2/3 197/2/3 200/2/3
f 204/2/3 203/2/3 202/2/3
f 205/2/3 203/2/3 204/2/3
f 206/1/3 199/1/3 198/1/3
f 207/5/3 200/5/3 199/5/3
f 207/1/3 199/1/3 206/1/3
f 208/5/3 200/5/3 207/5/3
f 210/2/3 209/2/3 208/2/3
f 211/2/3 209/2/3 210/2/3
f 220/4/3 213/4/3 212/4/3
f 221/1/3 214/1/3 213/1/3
f 221/4/3 213/4/3 220/4/3
f 222/1/3 214/1/3 221/1/3
f 223/10/3 215/10/3 214/10/3
f 223/1/3 214/1/3 222/1/3
f 224/2/3 216/2/3 215/2/3
f 224/10/3 215/10/3 223/10/3
f 225/9/3 217/9/3 216/9/3
f 225/2/3 216/2/3 224/2/3
f 226/9/3 217/9/3 225/9/3
f 229/2/3 219/2/3 218/2/3
f 230/2/3 219/2/3 229/2/3
f 233/1/3 223/1/3 222/1/3
f 234/8/3 224/8/3 223/8/3
f 234/1/3 223/1/3 233/1/3
f 235/2/3 225/2/3 224/2/3
f 235/8/3 224/8/3 234/8/3
f 236/2/3 225/2/3 235/2/3
f 238/1/3 228/1/3 227/1/3
f 239/1/3 228/1/3 238/1/3
f 242/4/3 232/4/3 231/4/3
f 243/1/3 233/1/3 232/1/3
f 243/4/3 232/4/3 242/4/3
f 243/1/3 234/1/3 233/1/3
f 244/10/3 235/10/3 234/10/3
f 244/1/3 234/1/3 243/1/3
f 245/2/3 236/2/3 235/2/3
f 245/10/3 235/10/3 244/10/3
f 246/9/3 237/9/3 236/9/3
f 246/2/3 236/2/3 245/2/3
f 247/9/3 237/9/3 246/9/3
f 248/2/3 241/2/3 240/2/3
f 249/2/3 241/2/3 248/2/3
f 250/3/4 251/3/4 252/3/4
f 252/3/4 251/3/4 253/3/4
f 254/7/4 255/7/4 257/7/4
f 255/6/4 256/6/4 258/6/4
f 257/7/4 255/7/4 258/7/4
f 258/6/4 256/6/4 259/6/4
f 260/4/4 261/4/4 268/4/4
f 261/1/4 262/1/4 269/1/4
f 268/4/4 261/4/4 269/4/4
f 269/1/4 262/1/4 270/1/4
f 262/10/4 263/10/4 271/10/4
f 270/1/4 262/1/4 271/1/4
f 271/10/4 263/10/4 272/10/4
f 264/1/4 265/1/4 274/1/4
f 274/1/4 265/1/4 275/1/4
f 266/2/4 267/2/4 276/2/4
f 276/2/4 267/2/4 277/2/4
f 270/1/4 271/1/4 280/1/4
f 271/8/4 272/8/4 281/8/4
f 280/1/4 271/1/4 281/1/4
f 281/8/4 272/8/4 282/8/4
f 273/1/4 274/1/4 283/1/4
f 283/1/4 274/1/4 284/1/4
f 278/4/4 279/4/4 288/4/4
f 279/1/4 280/1/4 289/1/4
f 288/4/4 279/4/4 289/4/4
f 280/1/4 281/1/4 289/1/4
f 281/10/4 282/10/4 290/10/4
f 289/1/4 281/1/4 290/1/4
f 290/10/4 282/10/4 291/10/4
f 284/1/4 285/1/4 292/1/4
f 292/1/4 285/1/4 293/1/4
f 286/2/4 287/2/4 294/2/4
f 294/2/4 287/2/4 295/2/4
f 296/2/4 297/2/4 301/2/4
f 301/2/4 297/2/4 302/2/4
f 300/5/4 301/5/4 304/5/4
f 303/1/4 304/1/4 307/1/4
f 304/5/4 301/5/4 308/5/4
f 307/1/4 304/1/4 308/1/4
f 305/2/4 306/2/4 309/2/4
f 309/2/4 306/2/4 310/2/4
f 298/9/4 299/9/4 311/9/4
f 311/9/4 299/9/4 312/9/4
f 308/5/4 301/5/4 313/5/4
f 313/5/4 301/5/4 314/5/4
f 314/2/4 315/2/4 316/2/4
f 316/2/4 315/2/4 317/2/4
f 318/9/4 319/9/4 322/9/4
f 322/9/4 319/9/4 323/9/4
f 320/2/4 321/2/4 324/2/4
f 324/2/4 321/2/4 325/2/4
f 330/4/5 327/4/5 326/4/5
f 331/4/5 327/4/5 330/4/5
f 332/4/5 329/4/5 328/4/5
f 333/4/5 329/4/5 332/4/5
f 336/1/5 335/1/5 334/1/5
f 337/1/5 335/1/5 336/1/5
f 340/7/5 339/7/5 338/7/5
f 341/7/5 339/7/5 340/7/5
f 344/3/5 343/3/5 342/3/5
f 345/3/5 343/3/5 344/3/5
f 350/9/5 348/9/5 347/9/5
f 350/9/5 349/9/5 348/9/5
f 350/9/5 347/9/5 346/9/5
f 351/9/5 349/9/5 350/9/5
f 354/3/5 353/3/5 352/3/5
f 355/3/5 353/3/5 354/3/5
f 358/9/5 357/9/5 356/9/5
f 359/9/5 357/9/5 358/9/5
f 360/3/5 359/3/5 358/3/5
f 363/3/5 360/3/5 358/3/5
f 363/3/5 361/3/5 360/3/5
f 364/3/5 361/3/5 363/3/5
f 365/3/5 361/3/5 364/3/5
f 366/1/5 363/1/5 362/1/5
f 367/1/5 363/1/5 366/1/5
f 368/1/5 365/1/5 364/1/5
f 369/1/5 365/1/5 368/1/5
f 370/2/5 367/2/5 366/2/5
f 371/2/5 369/2/5 368/2/5
f 372/2/5 370/2/5 366/2/5
f 373/2/5 370/2/5 372/2/5
f 374/2/5 369/2/5 371/2/5
f 375/2/5 369/2/5 374/2/5
f 378/1/5 377/1/5 376/1/5
f 379/1/5 377/1/5 378/1/5
f 380/1/5 378/1/5 376/1/5
f 381/1/5 378/1/5 380/1/5
f 382/1/5 377/1/5 379/1/5
f 383/1/5 377/1/5 382/1/5
f 384/1/5 382/1/5 381/1/5
f 385/1/5 382/1/5 384/1/5
f 390/5/5 387/5/5 386/5/5
f 391/5/5 387/5/5 390/5/5
f 392/5/5 389/5/5 388/5/5
f 393/5/5 389/5/5 392/5/5
f 397/2/5 395/2/5 394/2/5
f 398/2/5 395/2/5 397/2/5
f 400/2/5 397/2/5 396/2/5
f 401/2/5 397/2/5 400/2/5
f 402/2/5 399/2/5 398/2/5
f 403/2/5 399/2/5 402/2/5
f 404/2/5 402/2/5 401/2/5
f 405/2/5 402/2/5 404/2/5
f 406/9/6 407/9/6 408/9/6
f 408/9/6 407/9/6 409/9/6
f 410/9/6 411/9/6 412/9/6
f 412/9/6 411/9/6 413/9/6
f 412/3/6 413/3/6 414/3/6
f 414/3/6 413/3/6 415/3/6
f 415/3/6 416/3/6 419/3/6
f 419/3/6 416/3/6 420/3/6
f 417/1/6 418/1/6 421/1/6
f 418/3/6 419/3/6 422/3/6
f 421/1/6 418/1/6 422/1/6
f 419/1/6 420/1/6 423/1/6
f 422/3/6 419/3/6 423/3/6
f 423/1/6 420/1/6 424/1/6
f 421/2/6 422/2/6 425/2/6
f 422/6/6 423/6/6 425/6/6
f 423/2/6 424/2/6 426/2/6
f 425/6/6 423/6/6 426/6/6
f 421/2/6 425/2/6 427/2/6
f 425/3/6 426/3/6 428/3/6
f 427/2/6 425/2/6 428/2/6
f 426/2/6 424/2/6 429/2/6
f 428/3/6 426/3/6 429/3/6
f 429/2/6 424/2/6 430/2/6
f 427/9/6 428/9/6 431/9/6
f 429/9/6 430/9/6 432/9/6
f 427/9/6 431/9/6 433/9/6
f 431/9/6 432/9/6 433/9/6
f 432/9/6 430/9/6 434/9/6
f 433/9/6 432/9/6 434/9/6
f 435/3/6 436/3/6 437/3/6
f 437/3/6 436/3/6 438/3/6
f 439/2/6 440/2/6 442/2/6
f 442/2/6 440/2/6 443/2/6
f 443/2/6 440/2/6 444/2/6
f 444/2/6 440/2/6 445/2/6
f 441/2/6 442/2/6 447/2/6
f 442/2/6 443/2/6 447/2/6
f 447/2/6 443/2/6 448/2/6
f 445/2/6 446/2/6 449/2/6
f 444/2/6 445/2/6 449/2/6
f 449/2/6 446/2/6 450/2/6
f 441/2/6 447/2/6 451/2/6
f 450/2/6 446/2/6 454/2/6
f 451/2/6 452/2/6 455/2/6
f 441/2/6 451/2/6 455/2/6
f 455/2/6 452/2/6 456/2/6
f 456/2/6 452/2/6 457/2/6
f 453/2/6 454/2/6 458/2/6
f 454/2/6 446/2/6 459/2/6
f 458/2/6 454/2/6 459/2/6
f 459/2/6 446/2/6 460/2/6
f 456/2/6 457/2/6 461/2/6
f 457/2/6 458/2/6 461/2/6
f 458/2/6 459/2/6 461/2/6
f 461/2/6 459/2/6 462/2/6
f 463/2/6 464/2/6 466/2/6
f 466/2/6 464/2/6 467/2/6
f 465/2/6 466/2/6 469/2/6
f 467/2/6 468/2/6 469/2/6
f 466/2/6 467/2/6 469/2/6
f 469/2/6 468/2/6 470/2/6
f 470/2/6 468/2/6 471/2/6
f 471/2/6 468/2/6 472/2/6
f 470/2/6 471/2/6 473/2/6
f 473/2/6 471/2/6 474/2/6
